%TF.GenerationSoftware,KiCad,Pcbnew,10.0.1*%
%TF.CreationDate,2026-05-01T22:36:15-04:00*%
%TF.ProjectId,PicoPSU_A2,5069636f-5053-4555-9f41-322e6b696361,1.1*%
%TF.SameCoordinates,Original*%
%TF.FileFunction,Copper,L2,Bot*%
%TF.FilePolarity,Positive*%
%FSLAX46Y46*%
G04 Gerber Fmt 4.6, Leading zero omitted, Abs format (unit mm)*
G04 Created by KiCad (PCBNEW 10.0.1) date 2026-05-01 22:36:15*
%MOMM*%
%LPD*%
G01*
G04 APERTURE LIST*
G04 Aperture macros list*
%AMRoundRect*
0 Rectangle with rounded corners*
0 $1 Rounding radius*
0 $2 $3 $4 $5 $6 $7 $8 $9 X,Y pos of 4 corners*
0 Add a 4 corners polygon primitive as box body*
4,1,4,$2,$3,$4,$5,$6,$7,$8,$9,$2,$3,0*
0 Add four circle primitives for the rounded corners*
1,1,$1+$1,$2,$3*
1,1,$1+$1,$4,$5*
1,1,$1+$1,$6,$7*
1,1,$1+$1,$8,$9*
0 Add four rect primitives between the rounded corners*
20,1,$1+$1,$2,$3,$4,$5,0*
20,1,$1+$1,$4,$5,$6,$7,0*
20,1,$1+$1,$6,$7,$8,$9,0*
20,1,$1+$1,$8,$9,$2,$3,0*%
G04 Aperture macros list end*
%TA.AperFunction,Conductor*%
%ADD10C,1.000000*%
%TD*%
%TA.AperFunction,Conductor*%
%ADD11C,1.500000*%
%TD*%
%ADD12C,0.600000*%
%TA.AperFunction,NonConductor*%
%ADD13C,0.600000*%
%TD*%
%TA.AperFunction,ComponentPad*%
%ADD14RoundRect,0.250000X0.000000X0.777817X-0.777817X0.000000X0.000000X-0.777817X0.777817X0.000000X0*%
%TD*%
%TA.AperFunction,ComponentPad*%
%ADD15C,1.600000*%
%TD*%
%TA.AperFunction,ComponentPad*%
%ADD16RoundRect,0.250000X1.060660X0.000000X0.000000X1.060660X-1.060660X0.000000X0.000000X-1.060660X0*%
%TD*%
%TA.AperFunction,ComponentPad*%
%ADD17C,2.000000*%
%TD*%
%TA.AperFunction,ComponentPad*%
%ADD18R,1.600000X1.600000*%
%TD*%
%TA.AperFunction,ComponentPad*%
%ADD19C,1.800000*%
%TD*%
%TA.AperFunction,ComponentPad*%
%ADD20R,1.800000X1.800000*%
%TD*%
%TA.AperFunction,ComponentPad*%
%ADD21RoundRect,0.250001X-1.399999X1.099999X-1.399999X-1.099999X1.399999X-1.099999X1.399999X1.099999X0*%
%TD*%
%TA.AperFunction,ComponentPad*%
%ADD22O,3.300000X2.700000*%
%TD*%
%TA.AperFunction,ComponentPad*%
%ADD23C,2.780000*%
%TD*%
%TA.AperFunction,ComponentPad*%
%ADD24RoundRect,0.250000X-0.550000X-0.550000X0.550000X-0.550000X0.550000X0.550000X-0.550000X0.550000X0*%
%TD*%
%TA.AperFunction,ComponentPad*%
%ADD25RoundRect,0.250001X1.099999X1.599999X-1.099999X1.599999X-1.099999X-1.599999X1.099999X-1.599999X0*%
%TD*%
%TA.AperFunction,ComponentPad*%
%ADD26O,2.700000X3.700000*%
%TD*%
%TA.AperFunction,ViaPad*%
%ADD27C,1.400000*%
%TD*%
%TA.AperFunction,Conductor*%
%ADD28C,0.700000*%
%TD*%
G04 APERTURE END LIST*
%TO.N,GND*%
D10*
X74326717Y-137640158D02*
X74326717Y-148000000D01*
X74326717Y-137640158D02*
X76448037Y-135518838D01*
X79448037Y-135518838D02*
X76448037Y-135518838D01*
D11*
X135746373Y-148016703D02*
X65746373Y-148266703D01*
D12*
D13*
X87081454Y-123424752D02*
X87200502Y-123543800D01*
X87200502Y-123543800D02*
X87557644Y-123662847D01*
X87557644Y-123662847D02*
X87795740Y-123662847D01*
X87795740Y-123662847D02*
X88152883Y-123543800D01*
X88152883Y-123543800D02*
X88390978Y-123305704D01*
X88390978Y-123305704D02*
X88510025Y-123067609D01*
X88510025Y-123067609D02*
X88629073Y-122591419D01*
X88629073Y-122591419D02*
X88629073Y-122234276D01*
X88629073Y-122234276D02*
X88510025Y-121758085D01*
X88510025Y-121758085D02*
X88390978Y-121519990D01*
X88390978Y-121519990D02*
X88152883Y-121281895D01*
X88152883Y-121281895D02*
X87795740Y-121162847D01*
X87795740Y-121162847D02*
X87557644Y-121162847D01*
X87557644Y-121162847D02*
X87200502Y-121281895D01*
X87200502Y-121281895D02*
X87081454Y-121400942D01*
X84581454Y-123424752D02*
X84700502Y-123543800D01*
X84700502Y-123543800D02*
X85057644Y-123662847D01*
X85057644Y-123662847D02*
X85295740Y-123662847D01*
X85295740Y-123662847D02*
X85652883Y-123543800D01*
X85652883Y-123543800D02*
X85890978Y-123305704D01*
X85890978Y-123305704D02*
X86010025Y-123067609D01*
X86010025Y-123067609D02*
X86129073Y-122591419D01*
X86129073Y-122591419D02*
X86129073Y-122234276D01*
X86129073Y-122234276D02*
X86010025Y-121758085D01*
X86010025Y-121758085D02*
X85890978Y-121519990D01*
X85890978Y-121519990D02*
X85652883Y-121281895D01*
X85652883Y-121281895D02*
X85295740Y-121162847D01*
X85295740Y-121162847D02*
X85057644Y-121162847D01*
X85057644Y-121162847D02*
X84700502Y-121281895D01*
X84700502Y-121281895D02*
X84581454Y-121400942D01*
X80771930Y-122353323D02*
X80414787Y-122472371D01*
X80414787Y-122472371D02*
X80295740Y-122591419D01*
X80295740Y-122591419D02*
X80176692Y-122829514D01*
X80176692Y-122829514D02*
X80176692Y-123186657D01*
X80176692Y-123186657D02*
X80295740Y-123424752D01*
X80295740Y-123424752D02*
X80414787Y-123543800D01*
X80414787Y-123543800D02*
X80652882Y-123662847D01*
X80652882Y-123662847D02*
X81605263Y-123662847D01*
X81605263Y-123662847D02*
X81605263Y-121162847D01*
X81605263Y-121162847D02*
X80771930Y-121162847D01*
X80771930Y-121162847D02*
X80533835Y-121281895D01*
X80533835Y-121281895D02*
X80414787Y-121400942D01*
X80414787Y-121400942D02*
X80295740Y-121639038D01*
X80295740Y-121639038D02*
X80295740Y-121877133D01*
X80295740Y-121877133D02*
X80414787Y-122115228D01*
X80414787Y-122115228D02*
X80533835Y-122234276D01*
X80533835Y-122234276D02*
X80771930Y-122353323D01*
X80771930Y-122353323D02*
X81605263Y-122353323D01*
X78629073Y-122472371D02*
X78629073Y-123662847D01*
X79462406Y-121162847D02*
X78629073Y-122472371D01*
X78629073Y-122472371D02*
X77795740Y-121162847D01*
X76962406Y-122710466D02*
X75057645Y-122710466D01*
X73986216Y-123543800D02*
X73629073Y-123662847D01*
X73629073Y-123662847D02*
X73033835Y-123662847D01*
X73033835Y-123662847D02*
X72795740Y-123543800D01*
X72795740Y-123543800D02*
X72676692Y-123424752D01*
X72676692Y-123424752D02*
X72557645Y-123186657D01*
X72557645Y-123186657D02*
X72557645Y-122948561D01*
X72557645Y-122948561D02*
X72676692Y-122710466D01*
X72676692Y-122710466D02*
X72795740Y-122591419D01*
X72795740Y-122591419D02*
X73033835Y-122472371D01*
X73033835Y-122472371D02*
X73510026Y-122353323D01*
X73510026Y-122353323D02*
X73748121Y-122234276D01*
X73748121Y-122234276D02*
X73867168Y-122115228D01*
X73867168Y-122115228D02*
X73986216Y-121877133D01*
X73986216Y-121877133D02*
X73986216Y-121639038D01*
X73986216Y-121639038D02*
X73867168Y-121400942D01*
X73867168Y-121400942D02*
X73748121Y-121281895D01*
X73748121Y-121281895D02*
X73510026Y-121162847D01*
X73510026Y-121162847D02*
X72914787Y-121162847D01*
X72914787Y-121162847D02*
X72557645Y-121281895D01*
X71605264Y-122948561D02*
X70414788Y-122948561D01*
X71843359Y-123662847D02*
X71010026Y-121162847D01*
X71010026Y-121162847D02*
X70176693Y-123662847D01*
X66367169Y-121996180D02*
X66367169Y-123662847D01*
X66962407Y-121043800D02*
X67557645Y-122829514D01*
X67557645Y-122829514D02*
X66010026Y-122829514D01*
X65057645Y-123424752D02*
X64938598Y-123543800D01*
X64938598Y-123543800D02*
X65057645Y-123662847D01*
X65057645Y-123662847D02*
X65176693Y-123543800D01*
X65176693Y-123543800D02*
X65057645Y-123424752D01*
X65057645Y-123424752D02*
X65057645Y-123662847D01*
X63390979Y-121162847D02*
X63152884Y-121162847D01*
X63152884Y-121162847D02*
X62914788Y-121281895D01*
X62914788Y-121281895D02*
X62795741Y-121400942D01*
X62795741Y-121400942D02*
X62676693Y-121639038D01*
X62676693Y-121639038D02*
X62557646Y-122115228D01*
X62557646Y-122115228D02*
X62557646Y-122710466D01*
X62557646Y-122710466D02*
X62676693Y-123186657D01*
X62676693Y-123186657D02*
X62795741Y-123424752D01*
X62795741Y-123424752D02*
X62914788Y-123543800D01*
X62914788Y-123543800D02*
X63152884Y-123662847D01*
X63152884Y-123662847D02*
X63390979Y-123662847D01*
X63390979Y-123662847D02*
X63629074Y-123543800D01*
X63629074Y-123543800D02*
X63748122Y-123424752D01*
X63748122Y-123424752D02*
X63867169Y-123186657D01*
X63867169Y-123186657D02*
X63986217Y-122710466D01*
X63986217Y-122710466D02*
X63986217Y-122115228D01*
X63986217Y-122115228D02*
X63867169Y-121639038D01*
X63867169Y-121639038D02*
X63748122Y-121400942D01*
X63748122Y-121400942D02*
X63629074Y-121281895D01*
X63629074Y-121281895D02*
X63390979Y-121162847D01*
%TD*%
D14*
%TO.P,C1,1*%
%TO.N,GND*%
X130000000Y-86294888D03*
D15*
%TO.P,C1,2*%
%TO.N,/APPLE5NEG*%
X128585786Y-87709102D03*
%TD*%
D16*
%TO.P,C3,1*%
%TO.N,/PSU5V*%
X85435239Y-81574311D03*
D17*
%TO.P,C3,2*%
%TO.N,GND*%
X81899705Y-78038777D03*
%TD*%
D18*
%TO.P,SW1,1,A_1*%
%TO.N,GND*%
X87000000Y-66212500D03*
D15*
%TO.P,SW1,2,B_2*%
%TO.N,/PSON*%
X87000000Y-63712500D03*
%TO.P,SW1,3,C_3*%
%TO.N,unconnected-(SW1-C-Pad3)*%
X87000000Y-61212500D03*
D19*
%TO.P,SW1,4*%
%TO.N,N/C*%
X88200000Y-69412500D03*
%TO.P,SW1,5*%
X84800000Y-58112500D03*
%TD*%
D20*
%TO.P,D3,1,K_1*%
%TO.N,Net-(D3-K)*%
X112015494Y-56046373D03*
D19*
%TO.P,D3,2,A_2*%
%TO.N,GND*%
X114555494Y-56046373D03*
%TD*%
D21*
%TO.P,J2,1,Pin_1_1*%
%TO.N,/APPLE5NEG*%
X125742527Y-69023241D03*
D22*
%TO.P,J2,2,Pin_2_2*%
%TO.N,/APPLE12V*%
X125742527Y-73223240D03*
%TO.P,J2,3,Pin_3_3*%
%TO.N,GND*%
X125742527Y-77423241D03*
%TO.P,J2,4,Pin_4_4*%
%TO.N,/PSUNEG*%
X120242527Y-69023241D03*
%TO.P,J2,5,Pin_5_5*%
%TO.N,/APPLE5V*%
X120242527Y-73223241D03*
%TO.P,J2,6,Pin_6_6*%
%TO.N,GND*%
X120242527Y-77423241D03*
%TD*%
D20*
%TO.P,D1,1,K_1*%
%TO.N,GND*%
X98000000Y-56000000D03*
D19*
%TO.P,D1,2,A_2*%
%TO.N,Net-(D1-A)*%
X100540000Y-56000000D03*
%TD*%
D20*
%TO.P,D4,1,K_1*%
%TO.N,Net-(D4-K)*%
X119030000Y-56013956D03*
D19*
%TO.P,D4,2,A_2*%
%TO.N,GND*%
X121570000Y-56013956D03*
%TD*%
D20*
%TO.P,D2,1,K_1*%
%TO.N,GND*%
X105000000Y-56000000D03*
D19*
%TO.P,D2,2,A_2*%
%TO.N,Net-(D2-A)*%
X107540000Y-56000000D03*
%TD*%
D23*
%TO.P,F1,1*%
%TO.N,/PSU5V*%
X98540000Y-77500000D03*
X98540000Y-80900000D03*
%TO.P,F1,2*%
%TO.N,/APPLE5V*%
X108460000Y-77500000D03*
X108460000Y-80900000D03*
%TD*%
%TO.P,F2,1*%
%TO.N,/PSU12V*%
X98540000Y-68250000D03*
X98540000Y-71650000D03*
%TO.P,F2,2*%
%TO.N,/APPLE12V*%
X108460000Y-68250000D03*
X108460000Y-71650000D03*
%TD*%
D24*
%TO.P,C2,1*%
%TO.N,GND*%
X134067154Y-86956412D03*
D15*
%TO.P,C2,2*%
%TO.N,/PSUNEG*%
X136067155Y-86956412D03*
%TD*%
D16*
%TO.P,C4,1*%
%TO.N,/PSU12V*%
X78185239Y-72824311D03*
D17*
%TO.P,C4,2*%
%TO.N,GND*%
X74649705Y-69288777D03*
%TD*%
D25*
%TO.P,J1,1,Pin_1_1*%
%TO.N,/3V3*%
X123100000Y-94436263D03*
D26*
%TO.P,J1,2,Pin_2_2*%
X118900000Y-94436263D03*
%TO.P,J1,3,Pin_3_3*%
%TO.N,GND*%
X114700000Y-94436263D03*
%TO.P,J1,4,Pin_4_4*%
%TO.N,/PSU5V*%
X110500000Y-94436263D03*
%TO.P,J1,5,Pin_5_5*%
%TO.N,GND*%
X106300000Y-94436263D03*
%TO.P,J1,6,Pin_6_6*%
%TO.N,/PSU5V*%
X102100000Y-94436263D03*
%TO.P,J1,7,Pin_7_7*%
%TO.N,GND*%
X97900000Y-94436263D03*
%TO.P,J1,8,Pin_8_8*%
%TO.N,/PGOOD*%
X93700000Y-94436263D03*
%TO.P,J1,9,Pin_9_9*%
%TO.N,/PSUSBY*%
X89500000Y-94436263D03*
%TO.P,J1,10,Pin_10_10*%
%TO.N,/PSU12V*%
X85300000Y-94436263D03*
%TO.P,J1,11,Pin_11_11*%
X81100000Y-94436263D03*
%TO.P,J1,12,Pin_12_12*%
%TO.N,unconnected-(J1-Pin_12-Pad12)*%
X76900000Y-94436263D03*
%TO.P,J1,13,Pin_13_13*%
%TO.N,/3V3*%
X123100000Y-88936263D03*
%TO.P,J1,14,Pin_14_14*%
%TO.N,/PSUNEG*%
X118900000Y-88936263D03*
%TO.P,J1,15,Pin_15_15*%
%TO.N,GND*%
X114700000Y-88936263D03*
%TO.P,J1,16,Pin_16_16*%
%TO.N,/PSON*%
X110500000Y-88936263D03*
%TO.P,J1,17,Pin_17_17*%
%TO.N,GND*%
X106300000Y-88936263D03*
%TO.P,J1,18,Pin_18_18*%
X102100000Y-88936263D03*
%TO.P,J1,19,Pin_19_19*%
X97900000Y-88936263D03*
%TO.P,J1,20,Pin_20_20*%
%TO.N,unconnected-(J1-Pin_20-Pad20)*%
X93700000Y-88936263D03*
%TO.P,J1,21,Pin_21_21*%
%TO.N,/PSU5V*%
X89500000Y-88936263D03*
%TO.P,J1,22,Pin_22_22*%
X85300000Y-88936263D03*
%TO.P,J1,23,Pin_23_23*%
X81100000Y-88936263D03*
%TO.P,J1,24,Pin_24_24*%
%TO.N,GND*%
X76900000Y-88936263D03*
%TD*%
D27*
%TO.N,GND*%
X132250000Y-89750000D03*
%TO.N,/APPLE12V*%
X131000000Y-66250000D03*
%TD*%
%TO.N,/3V3*%
D28*
X118900000Y-94436263D02*
X123100000Y-94436263D01*
X123100000Y-94436263D02*
X123100000Y-88936263D01*
%TD*%
%TA.AperFunction,Conductor*%
%TO.N,/PSU12V*%
G36*
X100255039Y-66269685D02*
G01*
X100287200Y-66299600D01*
X100975200Y-67216933D01*
X100999676Y-67282375D01*
X101000000Y-67291333D01*
X101000000Y-72948638D01*
X100980315Y-73015677D01*
X100963681Y-73036319D01*
X100286319Y-73713681D01*
X100224996Y-73747166D01*
X100198638Y-73750000D01*
X96801362Y-73750000D01*
X96734323Y-73730315D01*
X96713681Y-73713681D01*
X96036319Y-73036319D01*
X96002834Y-72974996D01*
X96000000Y-72948638D01*
X96000000Y-67301362D01*
X96019685Y-67234323D01*
X96036319Y-67213681D01*
X96963681Y-66286319D01*
X97025004Y-66252834D01*
X97051362Y-66250000D01*
X100188000Y-66250000D01*
X100255039Y-66269685D01*
G37*
%TD.AperFunction*%
%TD*%
%TA.AperFunction,Conductor*%
%TO.N,/APPLE12V*%
G36*
X130215740Y-62255021D02*
G01*
X130240984Y-62262434D01*
X130293730Y-62293730D01*
X133201074Y-65201074D01*
X133222223Y-65229325D01*
X133234831Y-65252414D01*
X133250000Y-65311843D01*
X133250000Y-70889860D01*
X133244976Y-70924799D01*
X133237506Y-70950236D01*
X133207011Y-71002171D01*
X129353234Y-74927217D01*
X129325177Y-74948625D01*
X129302205Y-74961444D01*
X129242917Y-74977157D01*
X124342426Y-75022060D01*
X124307448Y-75017358D01*
X124301875Y-75015777D01*
X124282235Y-75010205D01*
X124228801Y-74978995D01*
X123987932Y-74740323D01*
X123799384Y-74553494D01*
X123788633Y-74539269D01*
X123778103Y-74525335D01*
X123765440Y-74502394D01*
X123750000Y-74442471D01*
X123750000Y-71569191D01*
X123755022Y-71534258D01*
X123762434Y-71509013D01*
X123793728Y-71456271D01*
X124200818Y-71049180D01*
X124229066Y-71028035D01*
X124252181Y-71015414D01*
X124311442Y-71000247D01*
X128007525Y-70995387D01*
X128788965Y-70209351D01*
X128745202Y-67727533D01*
X127500000Y-66500000D01*
X118352713Y-66500000D01*
X118352712Y-66500000D01*
X118352711Y-66500000D01*
X118345597Y-66500825D01*
X118345589Y-66500763D01*
X118324554Y-66503180D01*
X116765147Y-66500029D01*
X109283740Y-73951276D01*
X109277042Y-73956269D01*
X109255445Y-73972369D01*
X109232293Y-73984951D01*
X109173084Y-74000000D01*
X106319192Y-74000000D01*
X106284256Y-73994977D01*
X106259014Y-73987565D01*
X106206269Y-73956269D01*
X105298926Y-73048926D01*
X105298921Y-73048921D01*
X105277774Y-73020670D01*
X105265167Y-72997581D01*
X105250000Y-72938156D01*
X105250000Y-66819191D01*
X105255022Y-66784258D01*
X105262434Y-66759013D01*
X105293728Y-66706271D01*
X109701081Y-62298918D01*
X109729326Y-62277775D01*
X109752418Y-62265167D01*
X109811843Y-62250000D01*
X130180808Y-62250000D01*
X130215740Y-62255021D01*
G37*
%TD.AperFunction*%
%TD*%
%TA.AperFunction,Conductor*%
%TO.N,/PSU5V*%
G36*
X100227017Y-75455948D02*
G01*
X100259178Y-75485863D01*
X100947178Y-76403196D01*
X100971654Y-76468638D01*
X100971978Y-76477596D01*
X100971978Y-82134901D01*
X100952293Y-82201940D01*
X100935659Y-82222582D01*
X100258297Y-82899944D01*
X100196974Y-82933429D01*
X100170616Y-82936263D01*
X96773340Y-82936263D01*
X96706301Y-82916578D01*
X96685659Y-82899944D01*
X96008297Y-82222582D01*
X95974812Y-82161259D01*
X95971978Y-82134901D01*
X95971978Y-76487625D01*
X95991663Y-76420586D01*
X96008297Y-76399944D01*
X96935659Y-75472582D01*
X96996982Y-75439097D01*
X97023340Y-75436263D01*
X100159978Y-75436263D01*
X100227017Y-75455948D01*
G37*
%TD.AperFunction*%
%TD*%
%TA.AperFunction,Conductor*%
%TO.N,GND*%
G36*
X72138539Y-143569685D02*
G01*
X72184294Y-143622489D01*
X72195500Y-143674000D01*
X72195500Y-147550000D01*
X63555825Y-147550000D01*
X63555825Y-143674000D01*
X63575510Y-143606961D01*
X63628314Y-143561206D01*
X63679825Y-143550000D01*
X72071500Y-143550000D01*
X72138539Y-143569685D01*
G37*
%TD.AperFunction*%
%TA.AperFunction,Conductor*%
G36*
X82138539Y-143569685D02*
G01*
X82184294Y-143622489D01*
X82195500Y-143674000D01*
X82195500Y-147550000D01*
X72804500Y-147550000D01*
X72804500Y-143674000D01*
X72824185Y-143606961D01*
X72876989Y-143561206D01*
X72928500Y-143550000D01*
X82071500Y-143550000D01*
X82138539Y-143569685D01*
G37*
%TD.AperFunction*%
%TA.AperFunction,Conductor*%
G36*
X92138539Y-143569685D02*
G01*
X92184294Y-143622489D01*
X92195500Y-143674000D01*
X92195500Y-147550000D01*
X82804500Y-147550000D01*
X82804500Y-143674000D01*
X82824185Y-143606961D01*
X82876989Y-143561206D01*
X82928500Y-143550000D01*
X92071500Y-143550000D01*
X92138539Y-143569685D01*
G37*
%TD.AperFunction*%
%TA.AperFunction,Conductor*%
G36*
X102138539Y-143569685D02*
G01*
X102184294Y-143622489D01*
X102195500Y-143674000D01*
X102195500Y-147550000D01*
X92804500Y-147550000D01*
X92804500Y-143674000D01*
X92824185Y-143606961D01*
X92876989Y-143561206D01*
X92928500Y-143550000D01*
X102071500Y-143550000D01*
X102138539Y-143569685D01*
G37*
%TD.AperFunction*%
%TA.AperFunction,Conductor*%
G36*
X102987480Y-147550000D02*
G01*
X102866681Y-147550000D01*
X102876989Y-147541068D01*
X102946147Y-147531124D01*
X102987480Y-147550000D01*
G37*
%TD.AperFunction*%
%TD*%
%TA.AperFunction,Conductor*%
%TO.N,GND*%
G36*
X72195500Y-153176000D02*
G01*
X72175815Y-153243039D01*
X72123011Y-153288794D01*
X72071500Y-153300000D01*
X63679825Y-153300000D01*
X63612786Y-153280315D01*
X63567031Y-153227511D01*
X63555825Y-153176000D01*
X63555825Y-147550000D01*
X72195500Y-147550000D01*
X72195500Y-153176000D01*
G37*
%TD.AperFunction*%
%TA.AperFunction,Conductor*%
G36*
X82195500Y-153176000D02*
G01*
X82175815Y-153243039D01*
X82123011Y-153288794D01*
X82071500Y-153300000D01*
X72928500Y-153300000D01*
X72861461Y-153280315D01*
X72815706Y-153227511D01*
X72804500Y-153176000D01*
X72804500Y-147550000D01*
X82195500Y-147550000D01*
X82195500Y-153176000D01*
G37*
%TD.AperFunction*%
%TA.AperFunction,Conductor*%
G36*
X92195500Y-153176000D02*
G01*
X92175815Y-153243039D01*
X92123011Y-153288794D01*
X92071500Y-153300000D01*
X82928500Y-153300000D01*
X82861461Y-153280315D01*
X82815706Y-153227511D01*
X82804500Y-153176000D01*
X82804500Y-147550000D01*
X92195500Y-147550000D01*
X92195500Y-153176000D01*
G37*
%TD.AperFunction*%
%TA.AperFunction,Conductor*%
G36*
X102195500Y-153176000D02*
G01*
X102175815Y-153243039D01*
X102123011Y-153288794D01*
X102071500Y-153300000D01*
X92928500Y-153300000D01*
X92861461Y-153280315D01*
X92815706Y-153227511D01*
X92804500Y-153176000D01*
X92804500Y-147550000D01*
X102195500Y-147550000D01*
X102195500Y-153176000D01*
G37*
%TD.AperFunction*%
%TA.AperFunction,Conductor*%
G36*
X117138539Y-147569685D02*
G01*
X117184294Y-147622489D01*
X117195500Y-147674000D01*
X117195500Y-153176000D01*
X117175815Y-153243039D01*
X117123011Y-153288794D01*
X117071500Y-153300000D01*
X102928500Y-153300000D01*
X102861461Y-153280315D01*
X102815706Y-153227511D01*
X102804500Y-153176000D01*
X102804500Y-147653862D01*
X102824185Y-147586823D01*
X102866681Y-147550000D01*
X102987480Y-147550000D01*
X117071500Y-147550000D01*
X117138539Y-147569685D01*
G37*
%TD.AperFunction*%
%TA.AperFunction,Conductor*%
G36*
X118000000Y-147800000D02*
G01*
X127195500Y-147800000D01*
X127195500Y-153176000D01*
X127175815Y-153243039D01*
X127123011Y-153288794D01*
X127071500Y-153300000D01*
X117928500Y-153300000D01*
X117861461Y-153280315D01*
X117815706Y-153227511D01*
X117804500Y-153176000D01*
X117804500Y-147674000D01*
X117824185Y-147606961D01*
X117876989Y-147561206D01*
X117928500Y-147550000D01*
X118000000Y-147550000D01*
X118000000Y-147800000D01*
G37*
%TD.AperFunction*%
%TA.AperFunction,Conductor*%
G36*
X133000000Y-148500004D02*
G01*
X138000000Y-148499999D01*
X138000000Y-153176000D01*
X137980315Y-153243039D01*
X137927511Y-153288794D01*
X137876000Y-153300000D01*
X127928500Y-153300000D01*
X127861461Y-153280315D01*
X127815706Y-153227511D01*
X127804500Y-153176000D01*
X127804500Y-147800000D01*
X133000000Y-147800000D01*
X133000000Y-148500004D01*
G37*
%TD.AperFunction*%
%TD*%
%TA.AperFunction,Conductor*%
%TO.N,/APPLE5V*%
G36*
X121965740Y-71005021D02*
G01*
X121990984Y-71012434D01*
X122043730Y-71043730D01*
X122451074Y-71451074D01*
X122472223Y-71479325D01*
X122484831Y-71502414D01*
X122500000Y-71561843D01*
X122500000Y-74430808D01*
X122494976Y-74465745D01*
X122487564Y-74490986D01*
X122456269Y-74543730D01*
X122048926Y-74951073D01*
X122020675Y-74972222D01*
X121997587Y-74984830D01*
X121938157Y-75000000D01*
X119000000Y-75000000D01*
X110659013Y-83231774D01*
X110659012Y-83231775D01*
X110630618Y-83252739D01*
X110607446Y-83265194D01*
X110547922Y-83279969D01*
X106067822Y-83250446D01*
X106032920Y-83245193D01*
X106007319Y-83237492D01*
X105956443Y-83207502D01*
X105306447Y-82573315D01*
X105284952Y-82545328D01*
X105284368Y-82544290D01*
X105272060Y-82522394D01*
X105256160Y-82463160D01*
X105175516Y-75912447D01*
X105180110Y-75877455D01*
X105187200Y-75852163D01*
X105217983Y-75798895D01*
X105951066Y-75049988D01*
X105979079Y-75028550D01*
X106001838Y-75015805D01*
X106062418Y-75000000D01*
X109500000Y-75000000D01*
X113451081Y-71048918D01*
X113479326Y-71027775D01*
X113502418Y-71015167D01*
X113561843Y-71000000D01*
X121930808Y-71000000D01*
X121965740Y-71005021D01*
G37*
%TD.AperFunction*%
%TD*%
%TA.AperFunction,Conductor*%
%TO.N,GND*%
G36*
X72115384Y-75750000D02*
G01*
X94500000Y-75644680D01*
X94500000Y-82238709D01*
X96500000Y-84250000D01*
X111250000Y-84250000D01*
X119701081Y-75798918D01*
X119729326Y-75777775D01*
X119752418Y-75765167D01*
X119811843Y-75750000D01*
X128971293Y-75750000D01*
X129006225Y-75755021D01*
X129033063Y-75762902D01*
X129079781Y-75788559D01*
X136444236Y-82232458D01*
X136467220Y-82259243D01*
X136480637Y-82280343D01*
X136500000Y-82346879D01*
X136500000Y-85545242D01*
X136494975Y-85580183D01*
X136491064Y-85593500D01*
X136453287Y-85652276D01*
X136389732Y-85681297D01*
X136376848Y-85683149D01*
X136339808Y-85682884D01*
X136221155Y-85664092D01*
X136221154Y-85664092D01*
X136200495Y-85660820D01*
X136169510Y-85655912D01*
X136169507Y-85655912D01*
X135964803Y-85655912D01*
X135964802Y-85655912D01*
X135940482Y-85659763D01*
X135940481Y-85659762D01*
X135762623Y-85687933D01*
X135657608Y-85722055D01*
X135567931Y-85751193D01*
X135506396Y-85782546D01*
X135385542Y-85844125D01*
X135329252Y-85885021D01*
X135298041Y-85901489D01*
X135283319Y-85906742D01*
X135213563Y-85910732D01*
X135213550Y-85910729D01*
X135207128Y-85909235D01*
X135147544Y-85876141D01*
X135085500Y-85814097D01*
X135085499Y-85814096D01*
X134936278Y-85722055D01*
X134936273Y-85722053D01*
X134936264Y-85722050D01*
X134769853Y-85666906D01*
X134769848Y-85666905D01*
X134667145Y-85656412D01*
X134667140Y-85656412D01*
X134567154Y-85656412D01*
X134567154Y-86591364D01*
X134547469Y-86658403D01*
X134494665Y-86704158D01*
X134425507Y-86714102D01*
X134361951Y-86685077D01*
X134355473Y-86679045D01*
X134312761Y-86636333D01*
X134312756Y-86636329D01*
X134221550Y-86583672D01*
X134221549Y-86583671D01*
X134221548Y-86583671D01*
X134119815Y-86556412D01*
X134119814Y-86556412D01*
X134014493Y-86556412D01*
X133912760Y-86583671D01*
X133912757Y-86583672D01*
X133821551Y-86636329D01*
X133821546Y-86636333D01*
X133747075Y-86710804D01*
X133747071Y-86710809D01*
X133694414Y-86802015D01*
X133694413Y-86802018D01*
X133667154Y-86903751D01*
X133667154Y-87009073D01*
X133676081Y-87042387D01*
X133694413Y-87110805D01*
X133694414Y-87110808D01*
X133747071Y-87202014D01*
X133747073Y-87202017D01*
X133747074Y-87202018D01*
X133821548Y-87276492D01*
X133912760Y-87329153D01*
X134014493Y-87356412D01*
X134119813Y-87356412D01*
X134119815Y-87356412D01*
X134221548Y-87329153D01*
X134312760Y-87276492D01*
X134355473Y-87233779D01*
X134416796Y-87200294D01*
X134486488Y-87205278D01*
X134542421Y-87247150D01*
X134566838Y-87312614D01*
X134567154Y-87321460D01*
X134567154Y-88256411D01*
X134667114Y-88256411D01*
X134667126Y-88256411D01*
X134667140Y-88256410D01*
X134769851Y-88245917D01*
X134936273Y-88190770D01*
X134936278Y-88190768D01*
X135085499Y-88098727D01*
X135141663Y-88042563D01*
X135169910Y-88021418D01*
X135183636Y-88013923D01*
X135251903Y-87999073D01*
X135258477Y-87999543D01*
X135322514Y-88022905D01*
X135332224Y-88029959D01*
X135332225Y-88029961D01*
X135360738Y-88050676D01*
X135385545Y-88068699D01*
X135500169Y-88127103D01*
X135543128Y-88148992D01*
X135561484Y-88158345D01*
X135563082Y-88159281D01*
X135566770Y-88161067D01*
X135568795Y-88162073D01*
X135572561Y-88163135D01*
X135603930Y-88173327D01*
X135657612Y-88190769D01*
X135657613Y-88190770D01*
X135692616Y-88202143D01*
X135762620Y-88224889D01*
X135840266Y-88237187D01*
X135964803Y-88256912D01*
X135964804Y-88256912D01*
X136169505Y-88256912D01*
X136169506Y-88256912D01*
X136169507Y-88256912D01*
X136339008Y-88230064D01*
X136374280Y-88229562D01*
X136388054Y-88231342D01*
X136452015Y-88259459D01*
X136490618Y-88317681D01*
X136494464Y-88330117D01*
X136500000Y-88366754D01*
X136500000Y-103431301D01*
X136494977Y-103466238D01*
X136487566Y-103491476D01*
X136456255Y-103544235D01*
X133549449Y-106450062D01*
X133549448Y-106450063D01*
X133521190Y-106471209D01*
X133498101Y-106483811D01*
X133438652Y-106498968D01*
X100252647Y-106487794D01*
X100217710Y-106482757D01*
X100212179Y-106481131D01*
X100153417Y-106443334D01*
X100124418Y-106379767D01*
X100134389Y-106310612D01*
X100180166Y-106257827D01*
X100230976Y-106239230D01*
X100343020Y-106224480D01*
X100565176Y-106164954D01*
X100777661Y-106076940D01*
X100976840Y-105961944D01*
X101159305Y-105821934D01*
X101321934Y-105659305D01*
X101461944Y-105476840D01*
X101576940Y-105277661D01*
X101664954Y-105065176D01*
X101724480Y-104843020D01*
X101754500Y-104614996D01*
X101754500Y-104385004D01*
X101724480Y-104156980D01*
X101664954Y-103934824D01*
X101576940Y-103722339D01*
X101461944Y-103523160D01*
X101321934Y-103340695D01*
X101321929Y-103340689D01*
X101159310Y-103178070D01*
X101159303Y-103178064D01*
X101159300Y-103178062D01*
X101159295Y-103178057D01*
X100976847Y-103038061D01*
X100976845Y-103038059D01*
X100976839Y-103038055D01*
X100976834Y-103038052D01*
X100976831Y-103038050D01*
X100777661Y-102923059D01*
X100777614Y-102923036D01*
X100777036Y-102922801D01*
X100700259Y-102890999D01*
X100569226Y-102836722D01*
X100567401Y-102835889D01*
X100566929Y-102835710D01*
X100565418Y-102835110D01*
X100344032Y-102775791D01*
X100344030Y-102775790D01*
X100343020Y-102775520D01*
X100343014Y-102775519D01*
X100343009Y-102775518D01*
X100118211Y-102745923D01*
X100117220Y-102745792D01*
X100116874Y-102745747D01*
X100116859Y-102745744D01*
X100116800Y-102745737D01*
X100116797Y-102745735D01*
X100115193Y-102745500D01*
X100115002Y-102745500D01*
X100114996Y-102745500D01*
X99885004Y-102745500D01*
X99884998Y-102745500D01*
X99884996Y-102745500D01*
X99879492Y-102746177D01*
X99878753Y-102746320D01*
X99878346Y-102746376D01*
X99656990Y-102775518D01*
X99656983Y-102775519D01*
X99656980Y-102775520D01*
X99645924Y-102778482D01*
X99645919Y-102778483D01*
X99434827Y-102835044D01*
X99434804Y-102835053D01*
X99223025Y-102922775D01*
X99222395Y-102923031D01*
X99222337Y-102923059D01*
X99023167Y-103038050D01*
X99023151Y-103038061D01*
X98840703Y-103178057D01*
X98840688Y-103178071D01*
X98840680Y-103178078D01*
X98678078Y-103340680D01*
X98678071Y-103340688D01*
X98678057Y-103340703D01*
X98538061Y-103523151D01*
X98538050Y-103523167D01*
X98423059Y-103722337D01*
X98423031Y-103722395D01*
X98422775Y-103723025D01*
X98335053Y-103934804D01*
X98335044Y-103934827D01*
X98275524Y-104156961D01*
X98275519Y-104156986D01*
X98275516Y-104156999D01*
X98245503Y-104384977D01*
X98245501Y-104384994D01*
X98245500Y-104385010D01*
X98245500Y-104614989D01*
X98245501Y-104615005D01*
X98275518Y-104843009D01*
X98275519Y-104843014D01*
X98275520Y-104843020D01*
X98275521Y-104843022D01*
X98276819Y-104847869D01*
X98276829Y-104847908D01*
X98335044Y-105065171D01*
X98335052Y-105065194D01*
X98422775Y-105276973D01*
X98423035Y-105277611D01*
X98423059Y-105277661D01*
X98538050Y-105476831D01*
X98538061Y-105476847D01*
X98678057Y-105659295D01*
X98678061Y-105659300D01*
X98678064Y-105659303D01*
X98678070Y-105659310D01*
X98840689Y-105821929D01*
X98840696Y-105821935D01*
X98840699Y-105821937D01*
X98840703Y-105821941D01*
X98999402Y-105943714D01*
X99023160Y-105961944D01*
X99023167Y-105961948D01*
X99218875Y-106074941D01*
X99224090Y-106077951D01*
X99224109Y-106077962D01*
X99224695Y-106078300D01*
X99229835Y-106080044D01*
X99434824Y-106164954D01*
X99656980Y-106224480D01*
X99762442Y-106238364D01*
X99796411Y-106247899D01*
X99801666Y-106250224D01*
X99855012Y-106295343D01*
X99875497Y-106362142D01*
X99856616Y-106429412D01*
X99804363Y-106475795D01*
X99751464Y-106487625D01*
X71177859Y-106478005D01*
X71142924Y-106472969D01*
X71136937Y-106471209D01*
X71116466Y-106465190D01*
X71068469Y-106438373D01*
X65819048Y-101711485D01*
X65718864Y-101621273D01*
X75145500Y-101621273D01*
X75145500Y-101851252D01*
X75145501Y-101851268D01*
X75175518Y-102079272D01*
X75175519Y-102079277D01*
X75175520Y-102079283D01*
X75175521Y-102079285D01*
X75176819Y-102084132D01*
X75176829Y-102084171D01*
X75235044Y-102301434D01*
X75235052Y-102301457D01*
X75322775Y-102513236D01*
X75323035Y-102513874D01*
X75323059Y-102513924D01*
X75438050Y-102713094D01*
X75438061Y-102713110D01*
X75578057Y-102895558D01*
X75578061Y-102895563D01*
X75578064Y-102895566D01*
X75578070Y-102895573D01*
X75740689Y-103058192D01*
X75740696Y-103058198D01*
X75740699Y-103058200D01*
X75740703Y-103058204D01*
X75896900Y-103178057D01*
X75923160Y-103198207D01*
X75923167Y-103198211D01*
X76118875Y-103311204D01*
X76124090Y-103314214D01*
X76124109Y-103314225D01*
X76124695Y-103314563D01*
X76129835Y-103316307D01*
X76334824Y-103401217D01*
X76556980Y-103460743D01*
X76785004Y-103490763D01*
X76785011Y-103490763D01*
X77014989Y-103490763D01*
X77014996Y-103490763D01*
X77243020Y-103460743D01*
X77465176Y-103401217D01*
X77677661Y-103313203D01*
X77876840Y-103198207D01*
X78059305Y-103058197D01*
X78221934Y-102895568D01*
X78361944Y-102713103D01*
X78476940Y-102513924D01*
X78564954Y-102301439D01*
X78624480Y-102079283D01*
X78654500Y-101851259D01*
X78654500Y-101621273D01*
X121345500Y-101621273D01*
X121345500Y-101851252D01*
X121345501Y-101851268D01*
X121375518Y-102079272D01*
X121375519Y-102079277D01*
X121375520Y-102079283D01*
X121375521Y-102079285D01*
X121376819Y-102084132D01*
X121376829Y-102084171D01*
X121435044Y-102301434D01*
X121435052Y-102301457D01*
X121522775Y-102513236D01*
X121523035Y-102513874D01*
X121523059Y-102513924D01*
X121638050Y-102713094D01*
X121638061Y-102713110D01*
X121778057Y-102895558D01*
X121778061Y-102895563D01*
X121778064Y-102895566D01*
X121778070Y-102895573D01*
X121940689Y-103058192D01*
X121940696Y-103058198D01*
X121940699Y-103058200D01*
X121940703Y-103058204D01*
X122096900Y-103178057D01*
X122123160Y-103198207D01*
X122123167Y-103198211D01*
X122318875Y-103311204D01*
X122324090Y-103314214D01*
X122324109Y-103314225D01*
X122324695Y-103314563D01*
X122329835Y-103316307D01*
X122534824Y-103401217D01*
X122756980Y-103460743D01*
X122985004Y-103490763D01*
X122985011Y-103490763D01*
X123214989Y-103490763D01*
X123214996Y-103490763D01*
X123443020Y-103460743D01*
X123665176Y-103401217D01*
X123877661Y-103313203D01*
X124076840Y-103198207D01*
X124259305Y-103058197D01*
X124421934Y-102895568D01*
X124561944Y-102713103D01*
X124676940Y-102513924D01*
X124764954Y-102301439D01*
X124824480Y-102079283D01*
X124854500Y-101851259D01*
X124854500Y-101621267D01*
X124824480Y-101393243D01*
X124764954Y-101171087D01*
X124676940Y-100958602D01*
X124561944Y-100759423D01*
X124421934Y-100576958D01*
X124421929Y-100576952D01*
X124259310Y-100414333D01*
X124259303Y-100414327D01*
X124259300Y-100414325D01*
X124259295Y-100414320D01*
X124076847Y-100274324D01*
X124076845Y-100274322D01*
X124076839Y-100274318D01*
X124076834Y-100274315D01*
X124076831Y-100274313D01*
X123877661Y-100159322D01*
X123877614Y-100159299D01*
X123877036Y-100159064D01*
X123800259Y-100127262D01*
X123669226Y-100072985D01*
X123667401Y-100072152D01*
X123666929Y-100071973D01*
X123665418Y-100071373D01*
X123444032Y-100012054D01*
X123444030Y-100012053D01*
X123443020Y-100011783D01*
X123443014Y-100011782D01*
X123443009Y-100011781D01*
X123218211Y-99982186D01*
X123217220Y-99982055D01*
X123216874Y-99982010D01*
X123216859Y-99982007D01*
X123216800Y-99982000D01*
X123216797Y-99981998D01*
X123215193Y-99981763D01*
X123215002Y-99981763D01*
X123214996Y-99981763D01*
X122985004Y-99981763D01*
X122984998Y-99981763D01*
X122984996Y-99981763D01*
X122979492Y-99982440D01*
X122978753Y-99982583D01*
X122978346Y-99982639D01*
X122756990Y-100011781D01*
X122756983Y-100011782D01*
X122756980Y-100011783D01*
X122745924Y-100014745D01*
X122745919Y-100014746D01*
X122534827Y-100071307D01*
X122534804Y-100071316D01*
X122323025Y-100159038D01*
X122322395Y-100159294D01*
X122322337Y-100159322D01*
X122123167Y-100274313D01*
X122123151Y-100274324D01*
X121940703Y-100414320D01*
X121940688Y-100414334D01*
X121940680Y-100414341D01*
X121778078Y-100576943D01*
X121778071Y-100576951D01*
X121778057Y-100576966D01*
X121638061Y-100759414D01*
X121638050Y-100759430D01*
X121523059Y-100958600D01*
X121523031Y-100958658D01*
X121522775Y-100959288D01*
X121435053Y-101171067D01*
X121435044Y-101171090D01*
X121375524Y-101393224D01*
X121375519Y-101393249D01*
X121375516Y-101393262D01*
X121345503Y-101621240D01*
X121345501Y-101621257D01*
X121345500Y-101621273D01*
X78654500Y-101621273D01*
X78654500Y-101621267D01*
X78624480Y-101393243D01*
X78564954Y-101171087D01*
X78476940Y-100958602D01*
X78361944Y-100759423D01*
X78221934Y-100576958D01*
X78221929Y-100576952D01*
X78059310Y-100414333D01*
X78059303Y-100414327D01*
X78059300Y-100414325D01*
X78059295Y-100414320D01*
X77876847Y-100274324D01*
X77876845Y-100274322D01*
X77876839Y-100274318D01*
X77876834Y-100274315D01*
X77876831Y-100274313D01*
X77677661Y-100159322D01*
X77677614Y-100159299D01*
X77677036Y-100159064D01*
X77600259Y-100127262D01*
X77469226Y-100072985D01*
X77467401Y-100072152D01*
X77466929Y-100071973D01*
X77465418Y-100071373D01*
X77244032Y-100012054D01*
X77244030Y-100012053D01*
X77243020Y-100011783D01*
X77243014Y-100011782D01*
X77243009Y-100011781D01*
X77018211Y-99982186D01*
X77017220Y-99982055D01*
X77016874Y-99982010D01*
X77016859Y-99982007D01*
X77016800Y-99982000D01*
X77016797Y-99981998D01*
X77015193Y-99981763D01*
X77015002Y-99981763D01*
X77014996Y-99981763D01*
X76785004Y-99981763D01*
X76784998Y-99981763D01*
X76784996Y-99981763D01*
X76779492Y-99982440D01*
X76778753Y-99982583D01*
X76778346Y-99982639D01*
X76556990Y-100011781D01*
X76556983Y-100011782D01*
X76556980Y-100011783D01*
X76545924Y-100014745D01*
X76545919Y-100014746D01*
X76334827Y-100071307D01*
X76334804Y-100071316D01*
X76123025Y-100159038D01*
X76122395Y-100159294D01*
X76122337Y-100159322D01*
X75923167Y-100274313D01*
X75923151Y-100274324D01*
X75740703Y-100414320D01*
X75740688Y-100414334D01*
X75740680Y-100414341D01*
X75578078Y-100576943D01*
X75578071Y-100576951D01*
X75578057Y-100576966D01*
X75438061Y-100759414D01*
X75438050Y-100759430D01*
X75323059Y-100958600D01*
X75323031Y-100958658D01*
X75322775Y-100959288D01*
X75235053Y-101171067D01*
X75235044Y-101171090D01*
X75175524Y-101393224D01*
X75175519Y-101393249D01*
X75175516Y-101393262D01*
X75145503Y-101621240D01*
X75145501Y-101621257D01*
X75145500Y-101621273D01*
X65718864Y-101621273D01*
X63311235Y-99453303D01*
X63288636Y-99426195D01*
X63275402Y-99404713D01*
X63256976Y-99339488D01*
X63260414Y-97043472D01*
X63265247Y-93814973D01*
X75049500Y-93814973D01*
X75049500Y-95057551D01*
X75081147Y-95297946D01*
X75081161Y-95298048D01*
X75097284Y-95358221D01*
X75143947Y-95532367D01*
X75177303Y-95612895D01*
X75236774Y-95756471D01*
X75236779Y-95756482D01*
X75358060Y-95966546D01*
X75358062Y-95966549D01*
X75358281Y-95966878D01*
X75359284Y-95968142D01*
X75505726Y-96158991D01*
X75505730Y-96158996D01*
X75505733Y-96158999D01*
X75505739Y-96159006D01*
X75505747Y-96159014D01*
X75677242Y-96330510D01*
X75677256Y-96330523D01*
X75677262Y-96330528D01*
X75869711Y-96478199D01*
X76079788Y-96599487D01*
X76135859Y-96622712D01*
X76135860Y-96622713D01*
X76135861Y-96622713D01*
X76302743Y-96691838D01*
X76303900Y-96692317D01*
X76538211Y-96755101D01*
X76718586Y-96778847D01*
X76778710Y-96786763D01*
X76778711Y-96786763D01*
X76778712Y-96786763D01*
X77021283Y-96786763D01*
X77021289Y-96786763D01*
X77069388Y-96780430D01*
X77261789Y-96755101D01*
X77496100Y-96692317D01*
X77720212Y-96599487D01*
X77930289Y-96478199D01*
X78122738Y-96330528D01*
X78294265Y-96159001D01*
X78441936Y-95966552D01*
X78563224Y-95756475D01*
X78656054Y-95532363D01*
X78718838Y-95298052D01*
X78750500Y-95057551D01*
X78750500Y-93814975D01*
X78750500Y-93814973D01*
X79249500Y-93814973D01*
X79249500Y-95057551D01*
X79281147Y-95297946D01*
X79281161Y-95298048D01*
X79297284Y-95358221D01*
X79343947Y-95532367D01*
X79377303Y-95612895D01*
X79436774Y-95756471D01*
X79436779Y-95756482D01*
X79558060Y-95966546D01*
X79558062Y-95966549D01*
X79558281Y-95966878D01*
X79559284Y-95968142D01*
X79705726Y-96158991D01*
X79705730Y-96158996D01*
X79705733Y-96158999D01*
X79705739Y-96159006D01*
X79705747Y-96159014D01*
X79877242Y-96330510D01*
X79877256Y-96330523D01*
X79877262Y-96330528D01*
X80069711Y-96478199D01*
X80279788Y-96599487D01*
X80335859Y-96622712D01*
X80335860Y-96622713D01*
X80335861Y-96622713D01*
X80502743Y-96691838D01*
X80503900Y-96692317D01*
X80738211Y-96755101D01*
X80918586Y-96778847D01*
X80978710Y-96786763D01*
X80978711Y-96786763D01*
X80978712Y-96786763D01*
X81221283Y-96786763D01*
X81221289Y-96786763D01*
X81269388Y-96780430D01*
X81461789Y-96755101D01*
X81696100Y-96692317D01*
X81920212Y-96599487D01*
X82130289Y-96478199D01*
X82322738Y-96330528D01*
X82494265Y-96159001D01*
X82641936Y-95966552D01*
X82763224Y-95756475D01*
X82856054Y-95532363D01*
X82918838Y-95298052D01*
X82950500Y-95057551D01*
X82950500Y-93814975D01*
X82950500Y-93814973D01*
X83449500Y-93814973D01*
X83449500Y-95057551D01*
X83481147Y-95297946D01*
X83481161Y-95298048D01*
X83497284Y-95358221D01*
X83543947Y-95532367D01*
X83577303Y-95612895D01*
X83636774Y-95756471D01*
X83636779Y-95756482D01*
X83758060Y-95966546D01*
X83758062Y-95966549D01*
X83758281Y-95966878D01*
X83759284Y-95968142D01*
X83905726Y-96158991D01*
X83905730Y-96158996D01*
X83905733Y-96158999D01*
X83905739Y-96159006D01*
X83905747Y-96159014D01*
X84077242Y-96330510D01*
X84077256Y-96330523D01*
X84077262Y-96330528D01*
X84269711Y-96478199D01*
X84479788Y-96599487D01*
X84535859Y-96622712D01*
X84535860Y-96622713D01*
X84535861Y-96622713D01*
X84702743Y-96691838D01*
X84703900Y-96692317D01*
X84938211Y-96755101D01*
X85118586Y-96778847D01*
X85178710Y-96786763D01*
X85178711Y-96786763D01*
X85178712Y-96786763D01*
X85421283Y-96786763D01*
X85421289Y-96786763D01*
X85469388Y-96780430D01*
X85661789Y-96755101D01*
X85896100Y-96692317D01*
X86120212Y-96599487D01*
X86330289Y-96478199D01*
X86522738Y-96330528D01*
X86694265Y-96159001D01*
X86841936Y-95966552D01*
X86963224Y-95756475D01*
X87056054Y-95532363D01*
X87118838Y-95298052D01*
X87150500Y-95057551D01*
X87150500Y-93814975D01*
X87150500Y-93814973D01*
X87649500Y-93814973D01*
X87649500Y-95057551D01*
X87681147Y-95297946D01*
X87681161Y-95298048D01*
X87697284Y-95358221D01*
X87743947Y-95532367D01*
X87777303Y-95612895D01*
X87836774Y-95756471D01*
X87836779Y-95756482D01*
X87958060Y-95966546D01*
X87958062Y-95966549D01*
X87958281Y-95966878D01*
X87959284Y-95968142D01*
X88105726Y-96158991D01*
X88105730Y-96158996D01*
X88105733Y-96158999D01*
X88105739Y-96159006D01*
X88105747Y-96159014D01*
X88277242Y-96330510D01*
X88277256Y-96330523D01*
X88277262Y-96330528D01*
X88469711Y-96478199D01*
X88679788Y-96599487D01*
X88735859Y-96622712D01*
X88735860Y-96622713D01*
X88735861Y-96622713D01*
X88902743Y-96691838D01*
X88903900Y-96692317D01*
X89138211Y-96755101D01*
X89318586Y-96778847D01*
X89378710Y-96786763D01*
X89378711Y-96786763D01*
X89378712Y-96786763D01*
X89621283Y-96786763D01*
X89621289Y-96786763D01*
X89669388Y-96780430D01*
X89861789Y-96755101D01*
X90096100Y-96692317D01*
X90320212Y-96599487D01*
X90530289Y-96478199D01*
X90722738Y-96330528D01*
X90894265Y-96159001D01*
X91041936Y-95966552D01*
X91163224Y-95756475D01*
X91256054Y-95532363D01*
X91318838Y-95298052D01*
X91350500Y-95057551D01*
X91350500Y-93814975D01*
X91350500Y-93814973D01*
X91849500Y-93814973D01*
X91849500Y-95057551D01*
X91881147Y-95297946D01*
X91881161Y-95298048D01*
X91897284Y-95358221D01*
X91943947Y-95532367D01*
X91977303Y-95612895D01*
X92036774Y-95756471D01*
X92036779Y-95756482D01*
X92158060Y-95966546D01*
X92158062Y-95966549D01*
X92158281Y-95966878D01*
X92159284Y-95968142D01*
X92305726Y-96158991D01*
X92305730Y-96158996D01*
X92305733Y-96158999D01*
X92305739Y-96159006D01*
X92305747Y-96159014D01*
X92477242Y-96330510D01*
X92477256Y-96330523D01*
X92477262Y-96330528D01*
X92669711Y-96478199D01*
X92879788Y-96599487D01*
X92935859Y-96622712D01*
X92935860Y-96622713D01*
X92935861Y-96622713D01*
X93102743Y-96691838D01*
X93103900Y-96692317D01*
X93338211Y-96755101D01*
X93518586Y-96778847D01*
X93578710Y-96786763D01*
X93578711Y-96786763D01*
X93578712Y-96786763D01*
X93821283Y-96786763D01*
X93821289Y-96786763D01*
X93869388Y-96780430D01*
X94061789Y-96755101D01*
X94296100Y-96692317D01*
X94520212Y-96599487D01*
X94730289Y-96478199D01*
X94922738Y-96330528D01*
X95094265Y-96159001D01*
X95241936Y-95966552D01*
X95363224Y-95756475D01*
X95456054Y-95532363D01*
X95518838Y-95298052D01*
X95550500Y-95057551D01*
X95550500Y-93815014D01*
X96050000Y-93815014D01*
X96050000Y-93936263D01*
X96947374Y-93936263D01*
X97014413Y-93955948D01*
X97060168Y-94008752D01*
X97070112Y-94077910D01*
X97061935Y-94107715D01*
X97034587Y-94173738D01*
X97034584Y-94173750D01*
X97000000Y-94347616D01*
X97000000Y-94524909D01*
X97034584Y-94698775D01*
X97034587Y-94698787D01*
X97061935Y-94764811D01*
X97069404Y-94834280D01*
X97038128Y-94896759D01*
X96978039Y-94932411D01*
X96947374Y-94936263D01*
X96050000Y-94936263D01*
X96050000Y-95057518D01*
X96050003Y-95057542D01*
X96078775Y-95276094D01*
X96081653Y-95297950D01*
X96094777Y-95346931D01*
X96144423Y-95532209D01*
X96237214Y-95756228D01*
X96237220Y-95756241D01*
X96237227Y-95756256D01*
X96358480Y-95966272D01*
X96358482Y-95966275D01*
X96358483Y-95966276D01*
X96506103Y-96158660D01*
X96506107Y-96158665D01*
X96506110Y-96158668D01*
X96506116Y-96158675D01*
X96677587Y-96330146D01*
X96677594Y-96330152D01*
X96677597Y-96330154D01*
X96677601Y-96330158D01*
X96821034Y-96440217D01*
X96869990Y-96477782D01*
X97080006Y-96599035D01*
X97080010Y-96599036D01*
X97080052Y-96599058D01*
X97080605Y-96599283D01*
X97304051Y-96691838D01*
X97304063Y-96691841D01*
X97304067Y-96691843D01*
X97348012Y-96703617D01*
X97399999Y-96717547D01*
X97400000Y-96717547D01*
X97400000Y-96717546D01*
X97400000Y-95388888D01*
X97419685Y-95321849D01*
X97472489Y-95276094D01*
X97541647Y-95266150D01*
X97571447Y-95274325D01*
X97637480Y-95301677D01*
X97811353Y-95336262D01*
X97811357Y-95336263D01*
X97988642Y-95336263D01*
X97988643Y-95336263D01*
X97988644Y-95336262D01*
X98162520Y-95301677D01*
X98228549Y-95274326D01*
X98298016Y-95266858D01*
X98360495Y-95298133D01*
X98396148Y-95358221D01*
X98400000Y-95388888D01*
X98400000Y-96717545D01*
X98400000Y-96717547D01*
X98495938Y-96691841D01*
X98495948Y-96691838D01*
X98719454Y-96599257D01*
X98719948Y-96599057D01*
X98719983Y-96599038D01*
X98719993Y-96599035D01*
X98930009Y-96477782D01*
X99122405Y-96330152D01*
X99122412Y-96330146D01*
X99293883Y-96158675D01*
X99293889Y-96158668D01*
X99441519Y-95966272D01*
X99562772Y-95756256D01*
X99562779Y-95756241D01*
X99655578Y-95532202D01*
X99718346Y-95297950D01*
X99749998Y-95057527D01*
X99750000Y-95057511D01*
X99750000Y-94936263D01*
X98852626Y-94936263D01*
X98785587Y-94916578D01*
X98739832Y-94863774D01*
X98729888Y-94794616D01*
X98738065Y-94764811D01*
X98765412Y-94698787D01*
X98765414Y-94698783D01*
X98800000Y-94524905D01*
X98800000Y-94347621D01*
X98765414Y-94173743D01*
X98765412Y-94173738D01*
X98738065Y-94107715D01*
X98730596Y-94038246D01*
X98761872Y-93975767D01*
X98821961Y-93940115D01*
X98852626Y-93936263D01*
X99750000Y-93936263D01*
X99750000Y-93815005D01*
X99749996Y-93814973D01*
X100249500Y-93814973D01*
X100249500Y-95057551D01*
X100281147Y-95297946D01*
X100281161Y-95298048D01*
X100297284Y-95358221D01*
X100343947Y-95532367D01*
X100377303Y-95612895D01*
X100436774Y-95756471D01*
X100436779Y-95756482D01*
X100558060Y-95966546D01*
X100558062Y-95966549D01*
X100558281Y-95966878D01*
X100559284Y-95968142D01*
X100705726Y-96158991D01*
X100705730Y-96158996D01*
X100705733Y-96158999D01*
X100705739Y-96159006D01*
X100705747Y-96159014D01*
X100877242Y-96330510D01*
X100877256Y-96330523D01*
X100877262Y-96330528D01*
X101069711Y-96478199D01*
X101279788Y-96599487D01*
X101335859Y-96622712D01*
X101335860Y-96622713D01*
X101335861Y-96622713D01*
X101502743Y-96691838D01*
X101503900Y-96692317D01*
X101738211Y-96755101D01*
X101918586Y-96778847D01*
X101978710Y-96786763D01*
X101978711Y-96786763D01*
X101978712Y-96786763D01*
X102221283Y-96786763D01*
X102221289Y-96786763D01*
X102269388Y-96780430D01*
X102461789Y-96755101D01*
X102696100Y-96692317D01*
X102920212Y-96599487D01*
X103130289Y-96478199D01*
X103322738Y-96330528D01*
X103494265Y-96159001D01*
X103641936Y-95966552D01*
X103763224Y-95756475D01*
X103856054Y-95532363D01*
X103918838Y-95298052D01*
X103950500Y-95057551D01*
X103950500Y-93815014D01*
X104450000Y-93815014D01*
X104450000Y-93936263D01*
X105347374Y-93936263D01*
X105414413Y-93955948D01*
X105460168Y-94008752D01*
X105470112Y-94077910D01*
X105461935Y-94107715D01*
X105434587Y-94173738D01*
X105434584Y-94173750D01*
X105400000Y-94347616D01*
X105400000Y-94524909D01*
X105434584Y-94698775D01*
X105434587Y-94698787D01*
X105461935Y-94764811D01*
X105469404Y-94834280D01*
X105438128Y-94896759D01*
X105378039Y-94932411D01*
X105347374Y-94936263D01*
X104450000Y-94936263D01*
X104450000Y-95057518D01*
X104450003Y-95057542D01*
X104478775Y-95276094D01*
X104481653Y-95297950D01*
X104494777Y-95346931D01*
X104544423Y-95532209D01*
X104637214Y-95756228D01*
X104637220Y-95756241D01*
X104637227Y-95756256D01*
X104758480Y-95966272D01*
X104758482Y-95966275D01*
X104758483Y-95966276D01*
X104906103Y-96158660D01*
X104906107Y-96158665D01*
X104906110Y-96158668D01*
X104906116Y-96158675D01*
X105077587Y-96330146D01*
X105077594Y-96330152D01*
X105077597Y-96330154D01*
X105077601Y-96330158D01*
X105221034Y-96440217D01*
X105269990Y-96477782D01*
X105480006Y-96599035D01*
X105480010Y-96599036D01*
X105480052Y-96599058D01*
X105480605Y-96599283D01*
X105704051Y-96691838D01*
X105704063Y-96691841D01*
X105704067Y-96691843D01*
X105748012Y-96703617D01*
X105799999Y-96717547D01*
X105800000Y-96717547D01*
X105800000Y-96717546D01*
X105800000Y-95388888D01*
X105819685Y-95321849D01*
X105872489Y-95276094D01*
X105941647Y-95266150D01*
X105971447Y-95274325D01*
X106037480Y-95301677D01*
X106211353Y-95336262D01*
X106211357Y-95336263D01*
X106388642Y-95336263D01*
X106388643Y-95336263D01*
X106388644Y-95336262D01*
X106562520Y-95301677D01*
X106628549Y-95274326D01*
X106698016Y-95266858D01*
X106760495Y-95298133D01*
X106796148Y-95358221D01*
X106800000Y-95388888D01*
X106800000Y-96717545D01*
X106800000Y-96717547D01*
X106895938Y-96691841D01*
X106895948Y-96691838D01*
X107119454Y-96599257D01*
X107119948Y-96599057D01*
X107119983Y-96599038D01*
X107119993Y-96599035D01*
X107330009Y-96477782D01*
X107522405Y-96330152D01*
X107522412Y-96330146D01*
X107693883Y-96158675D01*
X107693889Y-96158668D01*
X107841519Y-95966272D01*
X107962772Y-95756256D01*
X107962779Y-95756241D01*
X108055578Y-95532202D01*
X108118346Y-95297950D01*
X108149998Y-95057527D01*
X108150000Y-95057511D01*
X108150000Y-94936263D01*
X107252626Y-94936263D01*
X107185587Y-94916578D01*
X107139832Y-94863774D01*
X107129888Y-94794616D01*
X107138065Y-94764811D01*
X107165412Y-94698787D01*
X107165414Y-94698783D01*
X107200000Y-94524905D01*
X107200000Y-94347621D01*
X107165414Y-94173743D01*
X107165412Y-94173738D01*
X107138065Y-94107715D01*
X107130596Y-94038246D01*
X107161872Y-93975767D01*
X107221961Y-93940115D01*
X107252626Y-93936263D01*
X108150000Y-93936263D01*
X108150000Y-93815005D01*
X108149996Y-93814973D01*
X108649500Y-93814973D01*
X108649500Y-95057551D01*
X108681147Y-95297946D01*
X108681161Y-95298048D01*
X108697284Y-95358221D01*
X108743947Y-95532367D01*
X108777303Y-95612895D01*
X108836774Y-95756471D01*
X108836779Y-95756482D01*
X108958060Y-95966546D01*
X108958062Y-95966549D01*
X108958281Y-95966878D01*
X108959284Y-95968142D01*
X109105726Y-96158991D01*
X109105730Y-96158996D01*
X109105733Y-96158999D01*
X109105739Y-96159006D01*
X109105747Y-96159014D01*
X109277242Y-96330510D01*
X109277256Y-96330523D01*
X109277262Y-96330528D01*
X109469711Y-96478199D01*
X109679788Y-96599487D01*
X109735859Y-96622712D01*
X109735860Y-96622713D01*
X109735861Y-96622713D01*
X109902743Y-96691838D01*
X109903900Y-96692317D01*
X110138211Y-96755101D01*
X110318586Y-96778847D01*
X110378710Y-96786763D01*
X110378711Y-96786763D01*
X110378712Y-96786763D01*
X110621283Y-96786763D01*
X110621289Y-96786763D01*
X110669388Y-96780430D01*
X110861789Y-96755101D01*
X111096100Y-96692317D01*
X111320212Y-96599487D01*
X111530289Y-96478199D01*
X111722738Y-96330528D01*
X111894265Y-96159001D01*
X112041936Y-95966552D01*
X112163224Y-95756475D01*
X112256054Y-95532363D01*
X112318838Y-95298052D01*
X112350500Y-95057551D01*
X112350500Y-93815014D01*
X112850000Y-93815014D01*
X112850000Y-93936263D01*
X113747374Y-93936263D01*
X113814413Y-93955948D01*
X113860168Y-94008752D01*
X113870112Y-94077910D01*
X113861935Y-94107715D01*
X113834587Y-94173738D01*
X113834584Y-94173750D01*
X113800000Y-94347616D01*
X113800000Y-94524909D01*
X113834584Y-94698775D01*
X113834587Y-94698787D01*
X113861935Y-94764811D01*
X113869404Y-94834280D01*
X113838128Y-94896759D01*
X113778039Y-94932411D01*
X113747374Y-94936263D01*
X112850000Y-94936263D01*
X112850000Y-95057518D01*
X112850003Y-95057542D01*
X112878775Y-95276094D01*
X112881653Y-95297950D01*
X112894777Y-95346931D01*
X112944423Y-95532209D01*
X113037214Y-95756228D01*
X113037220Y-95756241D01*
X113037227Y-95756256D01*
X113158480Y-95966272D01*
X113158482Y-95966275D01*
X113158483Y-95966276D01*
X113306103Y-96158660D01*
X113306107Y-96158665D01*
X113306110Y-96158668D01*
X113306116Y-96158675D01*
X113477587Y-96330146D01*
X113477594Y-96330152D01*
X113477597Y-96330154D01*
X113477601Y-96330158D01*
X113621034Y-96440217D01*
X113669990Y-96477782D01*
X113880006Y-96599035D01*
X113880010Y-96599036D01*
X113880052Y-96599058D01*
X113880605Y-96599283D01*
X114104051Y-96691838D01*
X114104063Y-96691841D01*
X114104067Y-96691843D01*
X114148012Y-96703617D01*
X114199999Y-96717547D01*
X114200000Y-96717547D01*
X114200000Y-96717546D01*
X114200000Y-95388888D01*
X114219685Y-95321849D01*
X114272489Y-95276094D01*
X114341647Y-95266150D01*
X114371447Y-95274325D01*
X114437480Y-95301677D01*
X114611353Y-95336262D01*
X114611357Y-95336263D01*
X114788642Y-95336263D01*
X114788643Y-95336263D01*
X114788644Y-95336262D01*
X114962520Y-95301677D01*
X115028549Y-95274326D01*
X115098016Y-95266858D01*
X115160495Y-95298133D01*
X115196148Y-95358221D01*
X115200000Y-95388888D01*
X115200000Y-96717545D01*
X115200000Y-96717547D01*
X115295938Y-96691841D01*
X115295948Y-96691838D01*
X115519454Y-96599257D01*
X115519948Y-96599057D01*
X115519983Y-96599038D01*
X115519993Y-96599035D01*
X115730009Y-96477782D01*
X115922405Y-96330152D01*
X115922412Y-96330146D01*
X116093883Y-96158675D01*
X116093889Y-96158668D01*
X116241519Y-95966272D01*
X116362772Y-95756256D01*
X116362779Y-95756241D01*
X116455578Y-95532202D01*
X116518346Y-95297950D01*
X116549998Y-95057527D01*
X116550000Y-95057511D01*
X116550000Y-94936263D01*
X115652626Y-94936263D01*
X115585587Y-94916578D01*
X115539832Y-94863774D01*
X115529888Y-94794616D01*
X115538065Y-94764811D01*
X115565412Y-94698787D01*
X115565414Y-94698783D01*
X115600000Y-94524905D01*
X115600000Y-94347621D01*
X115565414Y-94173743D01*
X115565412Y-94173738D01*
X115538065Y-94107715D01*
X115530596Y-94038246D01*
X115561872Y-93975767D01*
X115621961Y-93940115D01*
X115652626Y-93936263D01*
X116550000Y-93936263D01*
X116550000Y-93815026D01*
X116550000Y-93815014D01*
X116549999Y-93815000D01*
X116549435Y-93810716D01*
X116549435Y-93810715D01*
X116547840Y-93798600D01*
X116799500Y-93798600D01*
X116799500Y-95073924D01*
X116799501Y-95073953D01*
X116834035Y-95336262D01*
X116835438Y-95346918D01*
X116835439Y-95346923D01*
X116835440Y-95346929D01*
X116835441Y-95346931D01*
X116836740Y-95351779D01*
X116836749Y-95351817D01*
X116884802Y-95531155D01*
X116906704Y-95612893D01*
X116906705Y-95612895D01*
X116966092Y-95756269D01*
X117012075Y-95867280D01*
X117012080Y-95867291D01*
X117081886Y-95988196D01*
X117149751Y-96105742D01*
X117149753Y-96105745D01*
X117149754Y-96105746D01*
X117317370Y-96324189D01*
X117317376Y-96324196D01*
X117317384Y-96324204D01*
X117512052Y-96518873D01*
X117512066Y-96518886D01*
X117512072Y-96518891D01*
X117730521Y-96686512D01*
X117883778Y-96774995D01*
X117930979Y-96802247D01*
X117965531Y-96822196D01*
X117967269Y-96823276D01*
X117968693Y-96824066D01*
X117968966Y-96824179D01*
X117968971Y-96824182D01*
X117968976Y-96824184D01*
X117968979Y-96824186D01*
X118223368Y-96929558D01*
X118489334Y-97000823D01*
X118762326Y-97036763D01*
X118762333Y-97036763D01*
X119037667Y-97036763D01*
X119037674Y-97036763D01*
X119310666Y-97000823D01*
X119576632Y-96929558D01*
X119831021Y-96824186D01*
X120069479Y-96686512D01*
X120287928Y-96518891D01*
X120482628Y-96324191D01*
X120650249Y-96105742D01*
X120709201Y-96003631D01*
X120720728Y-95992163D01*
X120727286Y-95979602D01*
X120730983Y-95975923D01*
X120739202Y-95968086D01*
X120751089Y-95961958D01*
X120755141Y-95957927D01*
X120764052Y-95952843D01*
X120772786Y-95950771D01*
X120801299Y-95936071D01*
X120825162Y-95938349D01*
X120832035Y-95936719D01*
X120840951Y-95939856D01*
X120870853Y-95942711D01*
X120888497Y-95956586D01*
X120897944Y-95959910D01*
X120906174Y-95970486D01*
X120925775Y-95985900D01*
X120925822Y-95985966D01*
X120926179Y-95986468D01*
X120934782Y-96007251D01*
X120940853Y-96015052D01*
X120941645Y-96023828D01*
X120947405Y-96037741D01*
X120947778Y-96039956D01*
X120949500Y-96060547D01*
X120949500Y-96087865D01*
X120951261Y-96105742D01*
X120964698Y-96242190D01*
X120964698Y-96242192D01*
X120964699Y-96242194D01*
X120991494Y-96330525D01*
X121024771Y-96440224D01*
X121122314Y-96622713D01*
X121124129Y-96625159D01*
X121126177Y-96627419D01*
X121253589Y-96782673D01*
X121413549Y-96913947D01*
X121413551Y-96913949D01*
X121591598Y-97009117D01*
X121592420Y-97009573D01*
X121592641Y-97009796D01*
X121593374Y-97010236D01*
X121596007Y-97011560D01*
X121598940Y-97012371D01*
X121701468Y-97043473D01*
X121735542Y-97065803D01*
X121794063Y-97071561D01*
X121794067Y-97071563D01*
X121794066Y-97071563D01*
X121804961Y-97072635D01*
X121804969Y-97072638D01*
X121804970Y-97072636D01*
X121948393Y-97086763D01*
X124251606Y-97086762D01*
X124405933Y-97071563D01*
X124603954Y-97011494D01*
X124786450Y-96913948D01*
X124946410Y-96782673D01*
X125077685Y-96622713D01*
X125175231Y-96440217D01*
X125235300Y-96242196D01*
X125250500Y-96087870D01*
X125250499Y-92784657D01*
X125235300Y-92630330D01*
X125175231Y-92432309D01*
X125175229Y-92432306D01*
X125175229Y-92432304D01*
X125173081Y-92428285D01*
X125172932Y-92427899D01*
X125172394Y-92427000D01*
X125077686Y-92249814D01*
X125075870Y-92247365D01*
X125073821Y-92245105D01*
X124946410Y-92089852D01*
X124791155Y-91962439D01*
X124788896Y-91960392D01*
X124786450Y-91958577D01*
X124603957Y-91861032D01*
X124504942Y-91830996D01*
X124504935Y-91830994D01*
X124498528Y-91829050D01*
X124464470Y-91806727D01*
X124330533Y-91793535D01*
X124286804Y-91789229D01*
X124286803Y-91789228D01*
X124257915Y-91786384D01*
X124251607Y-91785763D01*
X124251605Y-91785763D01*
X124092333Y-91785763D01*
X124070881Y-91783893D01*
X124061550Y-91782254D01*
X124058720Y-91780853D01*
X124057392Y-91780738D01*
X124053020Y-91779454D01*
X124053303Y-91778487D01*
X124037190Y-91774374D01*
X124036935Y-91775060D01*
X124034087Y-91773997D01*
X124033247Y-91773368D01*
X124031499Y-91772922D01*
X124028792Y-91771686D01*
X124029354Y-91770453D01*
X124017378Y-91761486D01*
X124007623Y-91758618D01*
X124003009Y-91753288D01*
X123998927Y-91751269D01*
X123995012Y-91744740D01*
X123982934Y-91735696D01*
X123981907Y-91736587D01*
X123980992Y-91735531D01*
X123980097Y-91733572D01*
X123978184Y-91732140D01*
X123976358Y-91729701D01*
X123977827Y-91728600D01*
X123973577Y-91719293D01*
X123961890Y-91705795D01*
X123951988Y-91672020D01*
X123951968Y-91671975D01*
X123951961Y-91671926D01*
X123951755Y-91670489D01*
X123950500Y-91652893D01*
X123950500Y-91512341D01*
X123955523Y-91477405D01*
X123959927Y-91462407D01*
X123997697Y-91403634D01*
X124001927Y-91399968D01*
X124007989Y-91394714D01*
X124041749Y-91373861D01*
X124053183Y-91369126D01*
X124297317Y-91228175D01*
X124520965Y-91056563D01*
X124720300Y-90857228D01*
X124891912Y-90633580D01*
X125032863Y-90389446D01*
X125140742Y-90129002D01*
X125213704Y-89856705D01*
X125250500Y-89577214D01*
X125250500Y-88295312D01*
X125213704Y-88015821D01*
X125140742Y-87743524D01*
X125084086Y-87606744D01*
X127285286Y-87606744D01*
X127285286Y-87811458D01*
X127317307Y-88013632D01*
X127317308Y-88013636D01*
X127344210Y-88096431D01*
X127380566Y-88208323D01*
X127380572Y-88208336D01*
X127473491Y-88390698D01*
X127473495Y-88390704D01*
X127473501Y-88390715D01*
X127593814Y-88556315D01*
X127738572Y-88701073D01*
X127893535Y-88813658D01*
X127904176Y-88821389D01*
X128020393Y-88880605D01*
X128080940Y-88911455D01*
X128081829Y-88911926D01*
X128082035Y-88912127D01*
X128085415Y-88913764D01*
X128087423Y-88914762D01*
X128091189Y-88915824D01*
X128131274Y-88928848D01*
X128190921Y-88948228D01*
X128190922Y-88948229D01*
X128234398Y-88962355D01*
X128281251Y-88977579D01*
X128382343Y-88993590D01*
X128483434Y-89009602D01*
X128483435Y-89009602D01*
X128688137Y-89009602D01*
X128688138Y-89009602D01*
X128890320Y-88977579D01*
X129085005Y-88914322D01*
X129267396Y-88821389D01*
X129360376Y-88753834D01*
X129432999Y-88701073D01*
X129432999Y-88701071D01*
X129433058Y-88701029D01*
X129433817Y-88700255D01*
X129577752Y-88556321D01*
X129577754Y-88556317D01*
X129577757Y-88556315D01*
X129630516Y-88483695D01*
X129630518Y-88483693D01*
X129662179Y-88440115D01*
X129698073Y-88390712D01*
X129791006Y-88208321D01*
X129854263Y-88013636D01*
X129865146Y-87944918D01*
X129875567Y-87911209D01*
X129882268Y-87897074D01*
X129928760Y-87844935D01*
X129934388Y-87841431D01*
X129999911Y-87822706D01*
X130087661Y-87822706D01*
X130258261Y-87782272D01*
X130414942Y-87703584D01*
X130494978Y-87638385D01*
X130494985Y-87638379D01*
X130565685Y-87567679D01*
X130554404Y-87556398D01*
X132767155Y-87556398D01*
X132769542Y-87579769D01*
X132777647Y-87659106D01*
X132777648Y-87659108D01*
X132828131Y-87811458D01*
X132832795Y-87825531D01*
X132832797Y-87825536D01*
X132924838Y-87974757D01*
X133048808Y-88098727D01*
X133198029Y-88190768D01*
X133198034Y-88190770D01*
X133364453Y-88245916D01*
X133364454Y-88245916D01*
X133364456Y-88245917D01*
X133364463Y-88245918D01*
X133467173Y-88256411D01*
X133567154Y-88256410D01*
X133567154Y-87456412D01*
X132767155Y-87456412D01*
X132767155Y-87556398D01*
X130554404Y-87556398D01*
X129904575Y-86906569D01*
X129871090Y-86845246D01*
X129876074Y-86775554D01*
X129917946Y-86719621D01*
X129983410Y-86695204D01*
X129992256Y-86694888D01*
X130052659Y-86694888D01*
X130052661Y-86694888D01*
X130154394Y-86667629D01*
X130245606Y-86614968D01*
X130320080Y-86540494D01*
X130372741Y-86449282D01*
X130400000Y-86347549D01*
X130400000Y-86294888D01*
X130707106Y-86294888D01*
X131272790Y-86860573D01*
X131272792Y-86860573D01*
X131343475Y-86789890D01*
X131343491Y-86789872D01*
X131408698Y-86709827D01*
X131487384Y-86553149D01*
X131490384Y-86540494D01*
X131527818Y-86382549D01*
X131527818Y-86356419D01*
X132767154Y-86356419D01*
X132767154Y-86356425D01*
X132767154Y-86456412D01*
X133567154Y-86456412D01*
X133567154Y-85656411D01*
X133567154Y-85656410D01*
X133467190Y-85656411D01*
X133467170Y-85656412D01*
X133467166Y-85656413D01*
X133467157Y-85656413D01*
X133467156Y-85656414D01*
X133364458Y-85666905D01*
X133364456Y-85666906D01*
X133198041Y-85722050D01*
X133198033Y-85722053D01*
X133198031Y-85722054D01*
X133198029Y-85722055D01*
X133098548Y-85783415D01*
X133048806Y-85814097D01*
X132924839Y-85938064D01*
X132832795Y-86087291D01*
X132832792Y-86087300D01*
X132777648Y-86253711D01*
X132777647Y-86253716D01*
X132767154Y-86356419D01*
X131527818Y-86356419D01*
X131527818Y-86207225D01*
X131487384Y-86036625D01*
X131408698Y-85879949D01*
X131408694Y-85879942D01*
X131343493Y-85799904D01*
X131343486Y-85799896D01*
X131272792Y-85729202D01*
X130707106Y-86294888D01*
X130400000Y-86294888D01*
X130400000Y-86242227D01*
X130372741Y-86140494D01*
X130320080Y-86049282D01*
X130245606Y-85974808D01*
X130245605Y-85974807D01*
X130245602Y-85974805D01*
X130154396Y-85922148D01*
X130154395Y-85922147D01*
X130154394Y-85922147D01*
X130052661Y-85894888D01*
X130052660Y-85894888D01*
X129947339Y-85894888D01*
X129845606Y-85922147D01*
X129845603Y-85922148D01*
X129754397Y-85974805D01*
X129754392Y-85974809D01*
X129679921Y-86049280D01*
X129679917Y-86049285D01*
X129627260Y-86140491D01*
X129627259Y-86140494D01*
X129600000Y-86242227D01*
X129600000Y-86302632D01*
X129580315Y-86369671D01*
X129527511Y-86415426D01*
X129458353Y-86425370D01*
X129394797Y-86396345D01*
X129388319Y-86390313D01*
X128727208Y-85729202D01*
X128656518Y-85799891D01*
X128656504Y-85799906D01*
X128591301Y-85879949D01*
X128591297Y-85879955D01*
X128512616Y-86036622D01*
X128512615Y-86036625D01*
X128512615Y-86036626D01*
X128472183Y-86207225D01*
X128472182Y-86207228D01*
X128472182Y-86286648D01*
X128472181Y-86286654D01*
X128472182Y-86286657D01*
X128467157Y-86321590D01*
X128466873Y-86322558D01*
X128462752Y-86336590D01*
X128424982Y-86395357D01*
X128419999Y-86399675D01*
X128358193Y-86428437D01*
X128281252Y-86440624D01*
X128099657Y-86499627D01*
X128099654Y-86499629D01*
X128088055Y-86503398D01*
X128088054Y-86503399D01*
X128086566Y-86503882D01*
X127904173Y-86596816D01*
X127904171Y-86596817D01*
X127738573Y-86717129D01*
X127738570Y-86717131D01*
X127593815Y-86861886D01*
X127593813Y-86861889D01*
X127473501Y-87027487D01*
X127473494Y-87027499D01*
X127380572Y-87209866D01*
X127380566Y-87209879D01*
X127317307Y-87404570D01*
X127285286Y-87606744D01*
X125084086Y-87606744D01*
X125063232Y-87556398D01*
X125032867Y-87483088D01*
X125032859Y-87483072D01*
X124988507Y-87406253D01*
X124892047Y-87239179D01*
X124891919Y-87238957D01*
X124891916Y-87238953D01*
X124891912Y-87238946D01*
X124720300Y-87015298D01*
X124720298Y-87015296D01*
X124720295Y-87015292D01*
X124720292Y-87015288D01*
X124520978Y-86815974D01*
X124520973Y-86815970D01*
X124520970Y-86815967D01*
X124520965Y-86815963D01*
X124297317Y-86644351D01*
X124297311Y-86644347D01*
X124297309Y-86644346D01*
X124294317Y-86642610D01*
X124294089Y-86642487D01*
X124053185Y-86503400D01*
X124053181Y-86503399D01*
X124044079Y-86499629D01*
X123939745Y-86456412D01*
X123792747Y-86395523D01*
X123520435Y-86322557D01*
X123240965Y-86285763D01*
X123240958Y-86285763D01*
X123240951Y-86285763D01*
X122959049Y-86285763D01*
X122959041Y-86285763D01*
X122959033Y-86285763D01*
X122679563Y-86322557D01*
X122407251Y-86395523D01*
X122146818Y-86503399D01*
X122146816Y-86503400D01*
X122146809Y-86503403D01*
X122145978Y-86503883D01*
X121902697Y-86644341D01*
X121902684Y-86644349D01*
X121679030Y-86815965D01*
X121679023Y-86815971D01*
X121479708Y-87015286D01*
X121479702Y-87015293D01*
X121308089Y-87238945D01*
X121308088Y-87238945D01*
X121308078Y-87238960D01*
X121212465Y-87404567D01*
X121167140Y-87483072D01*
X121167138Y-87483076D01*
X121167137Y-87483076D01*
X121059260Y-87743515D01*
X121058684Y-87745409D01*
X121058224Y-87747379D01*
X120986296Y-88015815D01*
X120983605Y-88036262D01*
X120983605Y-88036264D01*
X120973971Y-88109431D01*
X120964432Y-88143406D01*
X120961961Y-88148992D01*
X120950446Y-88162605D01*
X120945703Y-88173327D01*
X120935919Y-88179780D01*
X120916839Y-88202338D01*
X120888584Y-88211001D01*
X120887378Y-88211797D01*
X120885933Y-88211814D01*
X120850039Y-88222820D01*
X120782770Y-88203936D01*
X120736393Y-88151690D01*
X120735122Y-88148992D01*
X120734383Y-88147423D01*
X120723613Y-88110752D01*
X120718838Y-88074474D01*
X120656054Y-87840163D01*
X120563224Y-87616051D01*
X120441936Y-87405974D01*
X120313771Y-87238946D01*
X120294266Y-87213526D01*
X120294260Y-87213519D01*
X120122743Y-87042002D01*
X120122736Y-87041996D01*
X120122733Y-87041993D01*
X120122728Y-87041989D01*
X119931879Y-86895547D01*
X119930615Y-86894544D01*
X119930286Y-86894325D01*
X119930283Y-86894323D01*
X119720220Y-86773043D01*
X119720207Y-86773036D01*
X119720203Y-86773035D01*
X119496104Y-86680210D01*
X119362277Y-86644351D01*
X119261785Y-86617424D01*
X119261784Y-86617423D01*
X119261781Y-86617423D01*
X119021290Y-86585763D01*
X119021289Y-86585763D01*
X119021288Y-86585763D01*
X118778712Y-86585763D01*
X118778711Y-86585763D01*
X118778710Y-86585763D01*
X118538217Y-86617423D01*
X118303894Y-86680210D01*
X118079790Y-86773037D01*
X118079782Y-86773041D01*
X117869706Y-86894330D01*
X117869697Y-86894336D01*
X117677270Y-87041989D01*
X117677255Y-87042003D01*
X117677247Y-87042010D01*
X117505747Y-87213510D01*
X117505740Y-87213518D01*
X117505726Y-87213533D01*
X117358073Y-87405960D01*
X117358067Y-87405969D01*
X117236778Y-87616045D01*
X117236774Y-87616053D01*
X117143947Y-87840157D01*
X117081160Y-88074480D01*
X117049500Y-88314973D01*
X117049500Y-89557551D01*
X117081147Y-89797946D01*
X117081161Y-89798048D01*
X117091401Y-89836263D01*
X117143947Y-90032367D01*
X117236685Y-90256256D01*
X117236774Y-90256472D01*
X117236776Y-90256477D01*
X117358060Y-90466546D01*
X117358062Y-90466549D01*
X117358281Y-90466878D01*
X117359284Y-90468142D01*
X117505726Y-90658991D01*
X117505730Y-90658996D01*
X117505733Y-90658999D01*
X117505739Y-90659006D01*
X117677256Y-90830523D01*
X117677263Y-90830529D01*
X117677266Y-90830531D01*
X117677270Y-90830535D01*
X117790321Y-90917281D01*
X117869711Y-90978199D01*
X117954962Y-91027418D01*
X118079780Y-91099483D01*
X118079785Y-91099485D01*
X118079788Y-91099487D01*
X118275269Y-91180458D01*
X118275268Y-91180458D01*
X118294694Y-91188504D01*
X118302743Y-91191838D01*
X118303900Y-91192317D01*
X118538211Y-91255101D01*
X118718586Y-91278847D01*
X118778710Y-91286763D01*
X118778711Y-91286763D01*
X118778712Y-91286763D01*
X119021283Y-91286763D01*
X119021289Y-91286763D01*
X119069388Y-91280430D01*
X119261789Y-91255101D01*
X119496100Y-91192317D01*
X119720212Y-91099487D01*
X119930289Y-90978199D01*
X120122738Y-90830528D01*
X120294265Y-90659001D01*
X120441936Y-90466552D01*
X120563224Y-90256475D01*
X120656054Y-90032363D01*
X120718838Y-89798052D01*
X120723440Y-89763092D01*
X120730503Y-89747125D01*
X120732974Y-89729126D01*
X120735445Y-89723540D01*
X120746961Y-89709922D01*
X120751706Y-89699197D01*
X120761488Y-89692744D01*
X120780559Y-89670193D01*
X120808816Y-89661525D01*
X120810030Y-89660725D01*
X120811350Y-89660329D01*
X120815829Y-89659010D01*
X120817020Y-89659009D01*
X120847357Y-89649704D01*
X120880336Y-89658958D01*
X120885699Y-89658954D01*
X120889879Y-89661636D01*
X120914629Y-89668581D01*
X120933055Y-89689335D01*
X120944507Y-89696682D01*
X120949750Y-89708139D01*
X120961011Y-89720823D01*
X120963021Y-89725087D01*
X120972904Y-89758734D01*
X120973582Y-89760215D01*
X120973502Y-89760770D01*
X120973797Y-89761773D01*
X120975450Y-89774327D01*
X120986295Y-89856701D01*
X121022777Y-89992853D01*
X121059259Y-90129008D01*
X121111973Y-90256269D01*
X121167135Y-90389442D01*
X121167140Y-90389453D01*
X121234867Y-90506760D01*
X121308078Y-90633565D01*
X121308091Y-90633585D01*
X121327604Y-90659014D01*
X121459213Y-90830529D01*
X121479704Y-90857233D01*
X121479709Y-90857238D01*
X121679022Y-91056552D01*
X121679074Y-91056597D01*
X121679522Y-91056936D01*
X121902683Y-91228175D01*
X121902690Y-91228179D01*
X122146809Y-91369122D01*
X122146819Y-91369127D01*
X122150473Y-91370640D01*
X122156478Y-91373128D01*
X122181939Y-91387390D01*
X122184432Y-91389202D01*
X122188516Y-91392493D01*
X122189707Y-91393037D01*
X122195239Y-91397058D01*
X122213828Y-91421177D01*
X122228087Y-91437049D01*
X122229440Y-91436179D01*
X122229781Y-91436709D01*
X122230754Y-91440018D01*
X122234183Y-91443835D01*
X122234186Y-91443841D01*
X122237016Y-91449756D01*
X122236167Y-91450161D01*
X122237891Y-91452398D01*
X122239326Y-91469154D01*
X122249500Y-91503738D01*
X122249500Y-91643933D01*
X122249499Y-91643939D01*
X122249500Y-91643942D01*
X122244475Y-91678877D01*
X122240070Y-91693875D01*
X122202327Y-91752618D01*
X122202292Y-91752648D01*
X122202291Y-91752650D01*
X122202289Y-91752650D01*
X122200958Y-91753805D01*
X122146097Y-91781281D01*
X122138539Y-91782926D01*
X122112168Y-91785763D01*
X121948397Y-91785763D01*
X121913214Y-91789228D01*
X121794071Y-91800961D01*
X121596037Y-91861034D01*
X121413548Y-91958577D01*
X121411100Y-91960393D01*
X121408843Y-91962439D01*
X121253589Y-92089852D01*
X121126176Y-92245106D01*
X121124130Y-92247363D01*
X121122314Y-92249811D01*
X121024771Y-92432300D01*
X120964698Y-92630334D01*
X120956473Y-92713853D01*
X120951261Y-92766784D01*
X120949500Y-92784662D01*
X120949500Y-92804497D01*
X120945257Y-92820180D01*
X120945862Y-92834312D01*
X120944476Y-92839435D01*
X120941289Y-92850288D01*
X120934075Y-92861511D01*
X120932587Y-92867015D01*
X120927411Y-92875881D01*
X120920872Y-92882055D01*
X120903514Y-92909065D01*
X120881743Y-92919006D01*
X120876612Y-92923852D01*
X120867307Y-92925598D01*
X120839957Y-92938088D01*
X120817755Y-92934900D01*
X120807941Y-92936743D01*
X120795547Y-92931712D01*
X120770849Y-92928166D01*
X120770288Y-92927909D01*
X120752420Y-92914204D01*
X120743203Y-92910463D01*
X120738096Y-92903218D01*
X120726134Y-92894043D01*
X120724704Y-92892311D01*
X120712937Y-92875363D01*
X120681077Y-92820180D01*
X120650249Y-92766784D01*
X120609378Y-92713519D01*
X120609377Y-92713517D01*
X120482635Y-92548343D01*
X120482631Y-92548339D01*
X120482629Y-92548336D01*
X120482623Y-92548329D01*
X120287933Y-92353639D01*
X120287926Y-92353633D01*
X120069483Y-92186017D01*
X120069482Y-92186016D01*
X120069479Y-92186014D01*
X119902924Y-92089853D01*
X119902559Y-92089642D01*
X119902521Y-92089620D01*
X119831037Y-92048348D01*
X119831020Y-92048339D01*
X119576630Y-91942967D01*
X119443649Y-91907335D01*
X119443648Y-91907334D01*
X119310667Y-91871703D01*
X119310663Y-91871702D01*
X119310657Y-91871701D01*
X119041774Y-91836302D01*
X119039758Y-91835968D01*
X119037684Y-91835763D01*
X119037679Y-91835763D01*
X119037674Y-91835763D01*
X118762326Y-91835763D01*
X118762320Y-91835763D01*
X118762315Y-91835763D01*
X118760238Y-91835968D01*
X118758224Y-91836302D01*
X118489365Y-91871698D01*
X118489333Y-91871702D01*
X118487524Y-91872129D01*
X118485735Y-91872667D01*
X118433126Y-91886762D01*
X118433125Y-91886763D01*
X118293287Y-91924232D01*
X118223368Y-91942967D01*
X117968978Y-92048339D01*
X117968970Y-92048343D01*
X117730516Y-92186017D01*
X117730507Y-92186023D01*
X117512072Y-92353634D01*
X117512065Y-92353640D01*
X117512057Y-92353647D01*
X117317384Y-92548320D01*
X117317377Y-92548328D01*
X117317371Y-92548335D01*
X117149760Y-92766770D01*
X117149754Y-92766779D01*
X117012080Y-93005233D01*
X117012076Y-93005241D01*
X116906707Y-93259622D01*
X116906704Y-93259632D01*
X116835444Y-93525578D01*
X116835439Y-93525603D01*
X116835436Y-93525616D01*
X116799501Y-93798571D01*
X116799500Y-93798600D01*
X116547840Y-93798600D01*
X116518346Y-93574575D01*
X116455578Y-93340323D01*
X116455509Y-93340157D01*
X116362784Y-93116296D01*
X116362783Y-93116295D01*
X116362779Y-93116284D01*
X116362772Y-93116269D01*
X116241519Y-92906253D01*
X116163439Y-92804497D01*
X116093895Y-92713864D01*
X116093891Y-92713860D01*
X116093889Y-92713857D01*
X116093883Y-92713850D01*
X115922412Y-92542379D01*
X115922405Y-92542373D01*
X115922402Y-92542370D01*
X115922397Y-92542366D01*
X115730013Y-92394746D01*
X115730012Y-92394745D01*
X115730009Y-92394743D01*
X115519993Y-92273490D01*
X115519978Y-92273483D01*
X115519965Y-92273477D01*
X115295946Y-92180686D01*
X115200000Y-92154977D01*
X115200000Y-93483637D01*
X115180315Y-93550676D01*
X115127511Y-93596431D01*
X115058353Y-93606375D01*
X115028548Y-93598198D01*
X114962524Y-93570850D01*
X114962512Y-93570847D01*
X114788646Y-93536263D01*
X114788642Y-93536263D01*
X114611358Y-93536263D01*
X114611353Y-93536263D01*
X114437487Y-93570847D01*
X114437475Y-93570850D01*
X114371452Y-93598198D01*
X114301983Y-93605667D01*
X114239504Y-93574391D01*
X114203852Y-93514302D01*
X114200000Y-93483637D01*
X114200000Y-92154977D01*
X114199999Y-92154977D01*
X114104054Y-92180685D01*
X113880033Y-92273477D01*
X113880020Y-92273483D01*
X113880013Y-92273486D01*
X113880006Y-92273490D01*
X113670706Y-92394330D01*
X113669985Y-92394746D01*
X113477601Y-92542366D01*
X113477586Y-92542380D01*
X113477578Y-92542387D01*
X113306124Y-92713841D01*
X113306117Y-92713849D01*
X113306103Y-92713864D01*
X113158483Y-92906248D01*
X113158480Y-92906252D01*
X113158480Y-92906253D01*
X113037227Y-93116269D01*
X113037223Y-93116276D01*
X113037220Y-93116283D01*
X113037214Y-93116296D01*
X112944423Y-93340315D01*
X112881652Y-93574578D01*
X112850003Y-93814982D01*
X112850001Y-93815005D01*
X112850000Y-93815014D01*
X112350500Y-93815014D01*
X112350500Y-93814975D01*
X112350234Y-93812958D01*
X112342584Y-93754849D01*
X112318838Y-93574474D01*
X112256054Y-93340163D01*
X112163224Y-93116051D01*
X112059700Y-92936743D01*
X112041936Y-92905974D01*
X111894519Y-92713855D01*
X111894517Y-92713853D01*
X111894268Y-92713528D01*
X111894265Y-92713525D01*
X111894260Y-92713519D01*
X111722743Y-92542002D01*
X111722736Y-92541996D01*
X111722733Y-92541993D01*
X111722728Y-92541989D01*
X111531879Y-92395547D01*
X111530615Y-92394544D01*
X111530286Y-92394325D01*
X111530283Y-92394323D01*
X111320219Y-92273042D01*
X111320203Y-92273034D01*
X111264143Y-92249814D01*
X111264142Y-92249814D01*
X111096104Y-92180210D01*
X110861781Y-92117423D01*
X110621290Y-92085763D01*
X110621289Y-92085763D01*
X110621288Y-92085763D01*
X110378712Y-92085763D01*
X110378711Y-92085763D01*
X110378710Y-92085763D01*
X110138217Y-92117423D01*
X109903894Y-92180210D01*
X109679790Y-92273037D01*
X109679782Y-92273041D01*
X109469706Y-92394330D01*
X109469697Y-92394336D01*
X109277270Y-92541989D01*
X109277255Y-92542003D01*
X109277247Y-92542010D01*
X109105747Y-92713510D01*
X109105740Y-92713518D01*
X109105726Y-92713533D01*
X108958073Y-92905960D01*
X108958067Y-92905969D01*
X108836778Y-93116045D01*
X108836774Y-93116053D01*
X108743947Y-93340157D01*
X108681160Y-93574480D01*
X108649500Y-93814973D01*
X108149996Y-93814973D01*
X108126787Y-93638693D01*
X108118346Y-93574575D01*
X108055578Y-93340323D01*
X108055509Y-93340157D01*
X107962784Y-93116296D01*
X107962783Y-93116295D01*
X107962779Y-93116284D01*
X107962772Y-93116269D01*
X107841519Y-92906253D01*
X107763439Y-92804497D01*
X107693895Y-92713864D01*
X107693891Y-92713860D01*
X107693889Y-92713857D01*
X107693883Y-92713850D01*
X107522412Y-92542379D01*
X107522405Y-92542373D01*
X107522402Y-92542370D01*
X107522397Y-92542366D01*
X107330013Y-92394746D01*
X107330012Y-92394745D01*
X107330009Y-92394743D01*
X107119993Y-92273490D01*
X107119978Y-92273483D01*
X107119965Y-92273477D01*
X106895946Y-92180686D01*
X106800000Y-92154977D01*
X106800000Y-93483637D01*
X106780315Y-93550676D01*
X106727511Y-93596431D01*
X106658353Y-93606375D01*
X106628548Y-93598198D01*
X106562524Y-93570850D01*
X106562512Y-93570847D01*
X106388646Y-93536263D01*
X106388642Y-93536263D01*
X106211358Y-93536263D01*
X106211353Y-93536263D01*
X106037487Y-93570847D01*
X106037475Y-93570850D01*
X105971452Y-93598198D01*
X105901983Y-93605667D01*
X105839504Y-93574391D01*
X105803852Y-93514302D01*
X105800000Y-93483637D01*
X105800000Y-92154977D01*
X105799999Y-92154977D01*
X105704054Y-92180685D01*
X105480033Y-92273477D01*
X105480020Y-92273483D01*
X105480013Y-92273486D01*
X105480006Y-92273490D01*
X105270706Y-92394330D01*
X105269985Y-92394746D01*
X105077601Y-92542366D01*
X105077586Y-92542380D01*
X105077578Y-92542387D01*
X104906124Y-92713841D01*
X104906117Y-92713849D01*
X104906103Y-92713864D01*
X104758483Y-92906248D01*
X104758480Y-92906252D01*
X104758480Y-92906253D01*
X104637227Y-93116269D01*
X104637223Y-93116276D01*
X104637220Y-93116283D01*
X104637214Y-93116296D01*
X104544423Y-93340315D01*
X104481652Y-93574578D01*
X104450003Y-93814982D01*
X104450001Y-93815005D01*
X104450000Y-93815014D01*
X103950500Y-93815014D01*
X103950500Y-93814975D01*
X103950234Y-93812958D01*
X103942584Y-93754849D01*
X103918838Y-93574474D01*
X103856054Y-93340163D01*
X103763224Y-93116051D01*
X103659700Y-92936743D01*
X103641936Y-92905974D01*
X103494519Y-92713855D01*
X103494517Y-92713853D01*
X103494268Y-92713528D01*
X103494265Y-92713525D01*
X103494260Y-92713519D01*
X103322743Y-92542002D01*
X103322736Y-92541996D01*
X103322733Y-92541993D01*
X103322728Y-92541989D01*
X103131879Y-92395547D01*
X103130615Y-92394544D01*
X103130286Y-92394325D01*
X103130283Y-92394323D01*
X102920219Y-92273042D01*
X102920203Y-92273034D01*
X102864143Y-92249814D01*
X102864142Y-92249814D01*
X102696104Y-92180210D01*
X102461781Y-92117423D01*
X102221290Y-92085763D01*
X102221289Y-92085763D01*
X102221288Y-92085763D01*
X101978712Y-92085763D01*
X101978711Y-92085763D01*
X101978710Y-92085763D01*
X101738217Y-92117423D01*
X101503894Y-92180210D01*
X101279790Y-92273037D01*
X101279782Y-92273041D01*
X101069706Y-92394330D01*
X101069697Y-92394336D01*
X100877270Y-92541989D01*
X100877255Y-92542003D01*
X100877247Y-92542010D01*
X100705747Y-92713510D01*
X100705740Y-92713518D01*
X100705726Y-92713533D01*
X100558073Y-92905960D01*
X100558067Y-92905969D01*
X100436778Y-93116045D01*
X100436774Y-93116053D01*
X100343947Y-93340157D01*
X100281160Y-93574480D01*
X100249500Y-93814973D01*
X99749996Y-93814973D01*
X99726787Y-93638693D01*
X99718346Y-93574575D01*
X99655578Y-93340323D01*
X99655509Y-93340157D01*
X99562784Y-93116296D01*
X99562783Y-93116295D01*
X99562779Y-93116284D01*
X99562772Y-93116269D01*
X99441519Y-92906253D01*
X99363439Y-92804497D01*
X99293895Y-92713864D01*
X99293891Y-92713860D01*
X99293889Y-92713857D01*
X99293883Y-92713850D01*
X99122412Y-92542379D01*
X99122405Y-92542373D01*
X99122402Y-92542370D01*
X99122397Y-92542366D01*
X98930013Y-92394746D01*
X98930012Y-92394745D01*
X98930009Y-92394743D01*
X98719993Y-92273490D01*
X98719978Y-92273483D01*
X98719965Y-92273477D01*
X98495946Y-92180686D01*
X98400000Y-92154977D01*
X98400000Y-93483637D01*
X98380315Y-93550676D01*
X98327511Y-93596431D01*
X98258353Y-93606375D01*
X98228548Y-93598198D01*
X98162524Y-93570850D01*
X98162512Y-93570847D01*
X97988646Y-93536263D01*
X97988642Y-93536263D01*
X97811358Y-93536263D01*
X97811353Y-93536263D01*
X97637487Y-93570847D01*
X97637475Y-93570850D01*
X97571452Y-93598198D01*
X97501983Y-93605667D01*
X97439504Y-93574391D01*
X97403852Y-93514302D01*
X97400000Y-93483637D01*
X97400000Y-92154977D01*
X97399999Y-92154977D01*
X97304054Y-92180685D01*
X97080033Y-92273477D01*
X97080020Y-92273483D01*
X97080013Y-92273486D01*
X97080006Y-92273490D01*
X96870706Y-92394330D01*
X96869985Y-92394746D01*
X96677601Y-92542366D01*
X96677586Y-92542380D01*
X96677578Y-92542387D01*
X96506124Y-92713841D01*
X96506117Y-92713849D01*
X96506103Y-92713864D01*
X96358483Y-92906248D01*
X96358480Y-92906252D01*
X96358480Y-92906253D01*
X96237227Y-93116269D01*
X96237223Y-93116276D01*
X96237220Y-93116283D01*
X96237214Y-93116296D01*
X96144423Y-93340315D01*
X96081652Y-93574578D01*
X96050003Y-93814982D01*
X96050001Y-93815005D01*
X96050000Y-93815014D01*
X95550500Y-93815014D01*
X95550500Y-93814975D01*
X95550234Y-93812958D01*
X95542584Y-93754849D01*
X95518838Y-93574474D01*
X95456054Y-93340163D01*
X95363224Y-93116051D01*
X95259700Y-92936743D01*
X95241936Y-92905974D01*
X95094519Y-92713855D01*
X95094517Y-92713853D01*
X95094268Y-92713528D01*
X95094265Y-92713525D01*
X95094260Y-92713519D01*
X94922743Y-92542002D01*
X94922736Y-92541996D01*
X94922733Y-92541993D01*
X94922728Y-92541989D01*
X94731879Y-92395547D01*
X94730615Y-92394544D01*
X94730286Y-92394325D01*
X94730283Y-92394323D01*
X94520219Y-92273042D01*
X94520203Y-92273034D01*
X94464143Y-92249814D01*
X94464142Y-92249814D01*
X94296104Y-92180210D01*
X94061781Y-92117423D01*
X93821290Y-92085763D01*
X93821289Y-92085763D01*
X93821288Y-92085763D01*
X93578712Y-92085763D01*
X93578711Y-92085763D01*
X93578710Y-92085763D01*
X93338217Y-92117423D01*
X93103894Y-92180210D01*
X92879790Y-92273037D01*
X92879782Y-92273041D01*
X92669706Y-92394330D01*
X92669697Y-92394336D01*
X92477270Y-92541989D01*
X92477255Y-92542003D01*
X92477247Y-92542010D01*
X92305747Y-92713510D01*
X92305740Y-92713518D01*
X92305726Y-92713533D01*
X92158073Y-92905960D01*
X92158067Y-92905969D01*
X92036778Y-93116045D01*
X92036774Y-93116053D01*
X91943947Y-93340157D01*
X91881160Y-93574480D01*
X91849500Y-93814973D01*
X91350500Y-93814973D01*
X91350234Y-93812958D01*
X91342584Y-93754849D01*
X91318838Y-93574474D01*
X91256054Y-93340163D01*
X91163224Y-93116051D01*
X91059700Y-92936743D01*
X91041936Y-92905974D01*
X90894519Y-92713855D01*
X90894517Y-92713853D01*
X90894268Y-92713528D01*
X90894265Y-92713525D01*
X90894260Y-92713519D01*
X90722743Y-92542002D01*
X90722736Y-92541996D01*
X90722733Y-92541993D01*
X90722728Y-92541989D01*
X90531879Y-92395547D01*
X90530615Y-92394544D01*
X90530286Y-92394325D01*
X90530283Y-92394323D01*
X90320219Y-92273042D01*
X90320203Y-92273034D01*
X90264143Y-92249814D01*
X90264142Y-92249814D01*
X90096104Y-92180210D01*
X89861781Y-92117423D01*
X89621290Y-92085763D01*
X89621289Y-92085763D01*
X89621288Y-92085763D01*
X89378712Y-92085763D01*
X89378711Y-92085763D01*
X89378710Y-92085763D01*
X89138217Y-92117423D01*
X88903894Y-92180210D01*
X88679790Y-92273037D01*
X88679782Y-92273041D01*
X88469706Y-92394330D01*
X88469697Y-92394336D01*
X88277270Y-92541989D01*
X88277255Y-92542003D01*
X88277247Y-92542010D01*
X88105747Y-92713510D01*
X88105740Y-92713518D01*
X88105726Y-92713533D01*
X87958073Y-92905960D01*
X87958067Y-92905969D01*
X87836778Y-93116045D01*
X87836774Y-93116053D01*
X87743947Y-93340157D01*
X87681160Y-93574480D01*
X87649500Y-93814973D01*
X87150500Y-93814973D01*
X87150234Y-93812958D01*
X87142584Y-93754849D01*
X87118838Y-93574474D01*
X87056054Y-93340163D01*
X86963224Y-93116051D01*
X86859700Y-92936743D01*
X86841936Y-92905974D01*
X86694519Y-92713855D01*
X86694517Y-92713853D01*
X86694268Y-92713528D01*
X86694265Y-92713525D01*
X86694260Y-92713519D01*
X86522743Y-92542002D01*
X86522736Y-92541996D01*
X86522733Y-92541993D01*
X86522728Y-92541989D01*
X86331879Y-92395547D01*
X86330615Y-92394544D01*
X86330286Y-92394325D01*
X86330283Y-92394323D01*
X86120219Y-92273042D01*
X86120203Y-92273034D01*
X86064143Y-92249814D01*
X86064142Y-92249814D01*
X85896104Y-92180210D01*
X85661781Y-92117423D01*
X85421290Y-92085763D01*
X85421289Y-92085763D01*
X85421288Y-92085763D01*
X85178712Y-92085763D01*
X85178711Y-92085763D01*
X85178710Y-92085763D01*
X84938217Y-92117423D01*
X84703894Y-92180210D01*
X84479790Y-92273037D01*
X84479782Y-92273041D01*
X84269706Y-92394330D01*
X84269697Y-92394336D01*
X84077270Y-92541989D01*
X84077255Y-92542003D01*
X84077247Y-92542010D01*
X83905747Y-92713510D01*
X83905740Y-92713518D01*
X83905726Y-92713533D01*
X83758073Y-92905960D01*
X83758067Y-92905969D01*
X83636778Y-93116045D01*
X83636774Y-93116053D01*
X83543947Y-93340157D01*
X83481160Y-93574480D01*
X83449500Y-93814973D01*
X82950500Y-93814973D01*
X82950234Y-93812958D01*
X82942584Y-93754849D01*
X82918838Y-93574474D01*
X82856054Y-93340163D01*
X82763224Y-93116051D01*
X82659700Y-92936743D01*
X82641936Y-92905974D01*
X82494519Y-92713855D01*
X82494517Y-92713853D01*
X82494268Y-92713528D01*
X82494265Y-92713525D01*
X82494260Y-92713519D01*
X82322743Y-92542002D01*
X82322736Y-92541996D01*
X82322733Y-92541993D01*
X82322728Y-92541989D01*
X82131879Y-92395547D01*
X82130615Y-92394544D01*
X82130286Y-92394325D01*
X82130283Y-92394323D01*
X81920219Y-92273042D01*
X81920203Y-92273034D01*
X81864143Y-92249814D01*
X81864142Y-92249814D01*
X81696104Y-92180210D01*
X81461781Y-92117423D01*
X81221290Y-92085763D01*
X81221289Y-92085763D01*
X81221288Y-92085763D01*
X80978712Y-92085763D01*
X80978711Y-92085763D01*
X80978710Y-92085763D01*
X80738217Y-92117423D01*
X80503894Y-92180210D01*
X80279790Y-92273037D01*
X80279782Y-92273041D01*
X80069706Y-92394330D01*
X80069697Y-92394336D01*
X79877270Y-92541989D01*
X79877255Y-92542003D01*
X79877247Y-92542010D01*
X79705747Y-92713510D01*
X79705740Y-92713518D01*
X79705726Y-92713533D01*
X79558073Y-92905960D01*
X79558067Y-92905969D01*
X79436778Y-93116045D01*
X79436774Y-93116053D01*
X79343947Y-93340157D01*
X79281160Y-93574480D01*
X79249500Y-93814973D01*
X78750500Y-93814973D01*
X78750234Y-93812958D01*
X78742584Y-93754849D01*
X78718838Y-93574474D01*
X78656054Y-93340163D01*
X78563224Y-93116051D01*
X78459700Y-92936743D01*
X78441936Y-92905974D01*
X78294519Y-92713855D01*
X78294517Y-92713853D01*
X78294268Y-92713528D01*
X78294265Y-92713525D01*
X78294260Y-92713519D01*
X78122743Y-92542002D01*
X78122736Y-92541996D01*
X78122733Y-92541993D01*
X78122728Y-92541989D01*
X77931879Y-92395547D01*
X77930615Y-92394544D01*
X77930286Y-92394325D01*
X77930283Y-92394323D01*
X77720219Y-92273042D01*
X77720203Y-92273034D01*
X77664143Y-92249814D01*
X77664142Y-92249814D01*
X77496104Y-92180210D01*
X77261781Y-92117423D01*
X77021290Y-92085763D01*
X77021289Y-92085763D01*
X77021288Y-92085763D01*
X76778712Y-92085763D01*
X76778711Y-92085763D01*
X76778710Y-92085763D01*
X76538217Y-92117423D01*
X76303894Y-92180210D01*
X76079790Y-92273037D01*
X76079782Y-92273041D01*
X75869706Y-92394330D01*
X75869697Y-92394336D01*
X75677270Y-92541989D01*
X75677255Y-92542003D01*
X75677247Y-92542010D01*
X75505747Y-92713510D01*
X75505740Y-92713518D01*
X75505726Y-92713533D01*
X75358073Y-92905960D01*
X75358067Y-92905969D01*
X75236778Y-93116045D01*
X75236774Y-93116053D01*
X75143947Y-93340157D01*
X75081160Y-93574480D01*
X75049500Y-93814973D01*
X63265247Y-93814973D01*
X63273480Y-88315014D01*
X75050000Y-88315014D01*
X75050000Y-88436263D01*
X75947374Y-88436263D01*
X76014413Y-88455948D01*
X76060168Y-88508752D01*
X76070112Y-88577910D01*
X76061935Y-88607715D01*
X76034587Y-88673738D01*
X76034584Y-88673750D01*
X76000000Y-88847616D01*
X76000000Y-89024909D01*
X76034584Y-89198775D01*
X76034587Y-89198787D01*
X76061935Y-89264811D01*
X76069404Y-89334280D01*
X76038128Y-89396759D01*
X75978039Y-89432411D01*
X75947374Y-89436263D01*
X75050000Y-89436263D01*
X75050000Y-89557518D01*
X75050003Y-89557542D01*
X75078775Y-89776094D01*
X75081653Y-89797950D01*
X75097396Y-89856705D01*
X75144423Y-90032209D01*
X75237211Y-90256221D01*
X75237220Y-90256241D01*
X75237227Y-90256256D01*
X75358480Y-90466272D01*
X75358482Y-90466275D01*
X75358483Y-90466276D01*
X75506103Y-90658660D01*
X75506107Y-90658665D01*
X75506110Y-90658668D01*
X75506116Y-90658675D01*
X75677587Y-90830146D01*
X75677594Y-90830152D01*
X75677597Y-90830154D01*
X75677601Y-90830158D01*
X75712893Y-90857238D01*
X75869990Y-90977782D01*
X76080006Y-91099035D01*
X76080010Y-91099036D01*
X76080052Y-91099058D01*
X76080605Y-91099283D01*
X76304051Y-91191838D01*
X76304063Y-91191841D01*
X76304067Y-91191843D01*
X76348012Y-91203617D01*
X76399999Y-91217547D01*
X76400000Y-91217547D01*
X76400000Y-91217546D01*
X76400000Y-89888888D01*
X76419685Y-89821849D01*
X76472489Y-89776094D01*
X76541647Y-89766150D01*
X76571447Y-89774325D01*
X76637480Y-89801677D01*
X76811353Y-89836262D01*
X76811357Y-89836263D01*
X76988642Y-89836263D01*
X76988643Y-89836263D01*
X76988644Y-89836262D01*
X77162520Y-89801677D01*
X77228549Y-89774326D01*
X77298016Y-89766858D01*
X77360495Y-89798133D01*
X77396148Y-89858221D01*
X77400000Y-89888888D01*
X77400000Y-91217545D01*
X77400000Y-91217547D01*
X77495938Y-91191841D01*
X77495948Y-91191838D01*
X77719454Y-91099257D01*
X77719948Y-91099057D01*
X77719983Y-91099038D01*
X77719993Y-91099035D01*
X77930009Y-90977782D01*
X78122405Y-90830152D01*
X78122412Y-90830146D01*
X78293883Y-90658675D01*
X78293889Y-90658668D01*
X78441519Y-90466272D01*
X78562772Y-90256256D01*
X78562779Y-90256241D01*
X78562783Y-90256229D01*
X78562788Y-90256221D01*
X78655575Y-90032209D01*
X78655574Y-90032209D01*
X78655578Y-90032202D01*
X78718346Y-89797950D01*
X78749998Y-89557527D01*
X78750000Y-89557511D01*
X78750000Y-89436263D01*
X77852626Y-89436263D01*
X77785587Y-89416578D01*
X77739832Y-89363774D01*
X77729888Y-89294616D01*
X77738065Y-89264811D01*
X77765412Y-89198787D01*
X77765414Y-89198783D01*
X77800000Y-89024905D01*
X77800000Y-88847621D01*
X77765414Y-88673743D01*
X77765412Y-88673738D01*
X77738065Y-88607715D01*
X77730596Y-88538246D01*
X77761872Y-88475767D01*
X77821961Y-88440115D01*
X77852626Y-88436263D01*
X78750000Y-88436263D01*
X78750000Y-88315005D01*
X78749996Y-88314973D01*
X79249500Y-88314973D01*
X79249500Y-89557551D01*
X79281147Y-89797946D01*
X79281161Y-89798048D01*
X79291401Y-89836263D01*
X79343947Y-90032367D01*
X79436685Y-90256256D01*
X79436774Y-90256472D01*
X79436776Y-90256477D01*
X79558060Y-90466546D01*
X79558062Y-90466549D01*
X79558281Y-90466878D01*
X79559284Y-90468142D01*
X79705726Y-90658991D01*
X79705730Y-90658996D01*
X79705733Y-90658999D01*
X79705739Y-90659006D01*
X79877256Y-90830523D01*
X79877263Y-90830529D01*
X79877266Y-90830531D01*
X79877270Y-90830535D01*
X79990321Y-90917281D01*
X80069711Y-90978199D01*
X80154962Y-91027418D01*
X80279780Y-91099483D01*
X80279785Y-91099485D01*
X80279788Y-91099487D01*
X80475269Y-91180458D01*
X80475268Y-91180458D01*
X80494694Y-91188504D01*
X80502743Y-91191838D01*
X80503900Y-91192317D01*
X80738211Y-91255101D01*
X80918586Y-91278847D01*
X80978710Y-91286763D01*
X80978711Y-91286763D01*
X80978712Y-91286763D01*
X81221283Y-91286763D01*
X81221289Y-91286763D01*
X81269388Y-91280430D01*
X81461789Y-91255101D01*
X81696100Y-91192317D01*
X81920212Y-91099487D01*
X82130289Y-90978199D01*
X82322738Y-90830528D01*
X82494265Y-90659001D01*
X82641936Y-90466552D01*
X82763224Y-90256475D01*
X82856054Y-90032363D01*
X82918838Y-89798052D01*
X82950500Y-89557551D01*
X82950500Y-88314975D01*
X82950500Y-88314973D01*
X83449500Y-88314973D01*
X83449500Y-89557551D01*
X83481147Y-89797946D01*
X83481161Y-89798048D01*
X83491401Y-89836263D01*
X83543947Y-90032367D01*
X83636685Y-90256256D01*
X83636774Y-90256472D01*
X83636776Y-90256477D01*
X83758060Y-90466546D01*
X83758062Y-90466549D01*
X83758281Y-90466878D01*
X83759284Y-90468142D01*
X83905726Y-90658991D01*
X83905730Y-90658996D01*
X83905733Y-90658999D01*
X83905739Y-90659006D01*
X84077256Y-90830523D01*
X84077263Y-90830529D01*
X84077266Y-90830531D01*
X84077270Y-90830535D01*
X84190321Y-90917281D01*
X84269711Y-90978199D01*
X84354962Y-91027418D01*
X84479780Y-91099483D01*
X84479785Y-91099485D01*
X84479788Y-91099487D01*
X84675269Y-91180458D01*
X84675268Y-91180458D01*
X84694694Y-91188504D01*
X84702743Y-91191838D01*
X84703900Y-91192317D01*
X84938211Y-91255101D01*
X85118586Y-91278847D01*
X85178710Y-91286763D01*
X85178711Y-91286763D01*
X85178712Y-91286763D01*
X85421283Y-91286763D01*
X85421289Y-91286763D01*
X85469388Y-91280430D01*
X85661789Y-91255101D01*
X85896100Y-91192317D01*
X86120212Y-91099487D01*
X86330289Y-90978199D01*
X86522738Y-90830528D01*
X86694265Y-90659001D01*
X86841936Y-90466552D01*
X86963224Y-90256475D01*
X87056054Y-90032363D01*
X87118838Y-89798052D01*
X87150500Y-89557551D01*
X87150500Y-88314975D01*
X87150500Y-88314973D01*
X87649500Y-88314973D01*
X87649500Y-89557551D01*
X87681147Y-89797946D01*
X87681161Y-89798048D01*
X87691401Y-89836263D01*
X87743947Y-90032367D01*
X87836685Y-90256256D01*
X87836774Y-90256472D01*
X87836776Y-90256477D01*
X87958060Y-90466546D01*
X87958062Y-90466549D01*
X87958281Y-90466878D01*
X87959284Y-90468142D01*
X88105726Y-90658991D01*
X88105730Y-90658996D01*
X88105733Y-90658999D01*
X88105739Y-90659006D01*
X88277256Y-90830523D01*
X88277263Y-90830529D01*
X88277266Y-90830531D01*
X88277270Y-90830535D01*
X88390321Y-90917281D01*
X88469711Y-90978199D01*
X88554962Y-91027418D01*
X88679780Y-91099483D01*
X88679785Y-91099485D01*
X88679788Y-91099487D01*
X88875269Y-91180458D01*
X88875268Y-91180458D01*
X88894694Y-91188504D01*
X88902743Y-91191838D01*
X88903900Y-91192317D01*
X89138211Y-91255101D01*
X89318586Y-91278847D01*
X89378710Y-91286763D01*
X89378711Y-91286763D01*
X89378712Y-91286763D01*
X89621283Y-91286763D01*
X89621289Y-91286763D01*
X89669388Y-91280430D01*
X89861789Y-91255101D01*
X90096100Y-91192317D01*
X90320212Y-91099487D01*
X90530289Y-90978199D01*
X90722738Y-90830528D01*
X90894265Y-90659001D01*
X91041936Y-90466552D01*
X91163224Y-90256475D01*
X91256054Y-90032363D01*
X91318838Y-89798052D01*
X91350500Y-89557551D01*
X91350500Y-88314975D01*
X91350500Y-88314973D01*
X91849500Y-88314973D01*
X91849500Y-89557551D01*
X91881147Y-89797946D01*
X91881161Y-89798048D01*
X91891401Y-89836263D01*
X91943947Y-90032367D01*
X92036685Y-90256256D01*
X92036774Y-90256472D01*
X92036776Y-90256477D01*
X92158060Y-90466546D01*
X92158062Y-90466549D01*
X92158281Y-90466878D01*
X92159284Y-90468142D01*
X92305726Y-90658991D01*
X92305730Y-90658996D01*
X92305733Y-90658999D01*
X92305739Y-90659006D01*
X92477256Y-90830523D01*
X92477263Y-90830529D01*
X92477266Y-90830531D01*
X92477270Y-90830535D01*
X92590321Y-90917281D01*
X92669711Y-90978199D01*
X92754962Y-91027418D01*
X92879780Y-91099483D01*
X92879785Y-91099485D01*
X92879788Y-91099487D01*
X93075269Y-91180458D01*
X93075268Y-91180458D01*
X93094694Y-91188504D01*
X93102743Y-91191838D01*
X93103900Y-91192317D01*
X93338211Y-91255101D01*
X93518586Y-91278847D01*
X93578710Y-91286763D01*
X93578711Y-91286763D01*
X93578712Y-91286763D01*
X93821283Y-91286763D01*
X93821289Y-91286763D01*
X93869388Y-91280430D01*
X94061789Y-91255101D01*
X94296100Y-91192317D01*
X94520212Y-91099487D01*
X94730289Y-90978199D01*
X94922738Y-90830528D01*
X95094265Y-90659001D01*
X95241936Y-90466552D01*
X95363224Y-90256475D01*
X95456054Y-90032363D01*
X95518838Y-89798052D01*
X95550500Y-89557551D01*
X95550500Y-88315014D01*
X96050000Y-88315014D01*
X96050000Y-88436263D01*
X96947374Y-88436263D01*
X97014413Y-88455948D01*
X97060168Y-88508752D01*
X97070112Y-88577910D01*
X97061935Y-88607715D01*
X97034587Y-88673738D01*
X97034584Y-88673750D01*
X97000000Y-88847616D01*
X97000000Y-89024909D01*
X97034584Y-89198775D01*
X97034587Y-89198787D01*
X97061935Y-89264811D01*
X97069404Y-89334280D01*
X97038128Y-89396759D01*
X96978039Y-89432411D01*
X96947374Y-89436263D01*
X96050000Y-89436263D01*
X96050000Y-89557518D01*
X96050003Y-89557542D01*
X96078775Y-89776094D01*
X96081653Y-89797950D01*
X96097396Y-89856705D01*
X96144423Y-90032209D01*
X96237211Y-90256221D01*
X96237220Y-90256241D01*
X96237227Y-90256256D01*
X96358480Y-90466272D01*
X96358482Y-90466275D01*
X96358483Y-90466276D01*
X96506103Y-90658660D01*
X96506107Y-90658665D01*
X96506110Y-90658668D01*
X96506116Y-90658675D01*
X96677587Y-90830146D01*
X96677594Y-90830152D01*
X96677597Y-90830154D01*
X96677601Y-90830158D01*
X96712893Y-90857238D01*
X96869990Y-90977782D01*
X97080006Y-91099035D01*
X97080010Y-91099036D01*
X97080052Y-91099058D01*
X97080605Y-91099283D01*
X97304051Y-91191838D01*
X97304063Y-91191841D01*
X97304067Y-91191843D01*
X97348012Y-91203617D01*
X97399999Y-91217547D01*
X97400000Y-91217547D01*
X97400000Y-91217546D01*
X97400000Y-89888888D01*
X97419685Y-89821849D01*
X97472489Y-89776094D01*
X97541647Y-89766150D01*
X97571447Y-89774325D01*
X97637480Y-89801677D01*
X97811353Y-89836262D01*
X97811357Y-89836263D01*
X97988642Y-89836263D01*
X97988643Y-89836263D01*
X97988644Y-89836262D01*
X98162520Y-89801677D01*
X98228549Y-89774326D01*
X98298016Y-89766858D01*
X98360495Y-89798133D01*
X98396148Y-89858221D01*
X98400000Y-89888888D01*
X98400000Y-91217545D01*
X98400000Y-91217547D01*
X98495938Y-91191841D01*
X98495948Y-91191838D01*
X98719454Y-91099257D01*
X98719948Y-91099057D01*
X98719983Y-91099038D01*
X98719993Y-91099035D01*
X98930009Y-90977782D01*
X99122405Y-90830152D01*
X99122412Y-90830146D01*
X99293883Y-90658675D01*
X99293889Y-90658668D01*
X99441519Y-90466272D01*
X99562772Y-90256256D01*
X99562779Y-90256241D01*
X99562783Y-90256229D01*
X99562788Y-90256221D01*
X99655575Y-90032209D01*
X99655574Y-90032209D01*
X99655578Y-90032202D01*
X99718346Y-89797950D01*
X99749998Y-89557527D01*
X99750000Y-89557511D01*
X99750000Y-89436263D01*
X98852626Y-89436263D01*
X98785587Y-89416578D01*
X98739832Y-89363774D01*
X98729888Y-89294616D01*
X98738065Y-89264811D01*
X98765412Y-89198787D01*
X98765414Y-89198783D01*
X98800000Y-89024905D01*
X98800000Y-88847621D01*
X98765414Y-88673743D01*
X98765412Y-88673738D01*
X98738065Y-88607715D01*
X98730596Y-88538246D01*
X98761872Y-88475767D01*
X98821961Y-88440115D01*
X98852626Y-88436263D01*
X99750000Y-88436263D01*
X99750000Y-88315018D01*
X99750000Y-88315014D01*
X100250000Y-88315014D01*
X100250000Y-88436263D01*
X101147374Y-88436263D01*
X101214413Y-88455948D01*
X101260168Y-88508752D01*
X101270112Y-88577910D01*
X101261935Y-88607715D01*
X101234587Y-88673738D01*
X101234584Y-88673750D01*
X101200000Y-88847616D01*
X101200000Y-89024909D01*
X101234584Y-89198775D01*
X101234587Y-89198787D01*
X101261935Y-89264811D01*
X101269404Y-89334280D01*
X101238128Y-89396759D01*
X101178039Y-89432411D01*
X101147374Y-89436263D01*
X100250000Y-89436263D01*
X100250000Y-89557518D01*
X100250003Y-89557542D01*
X100278775Y-89776094D01*
X100281653Y-89797950D01*
X100297396Y-89856705D01*
X100344423Y-90032209D01*
X100437211Y-90256221D01*
X100437220Y-90256241D01*
X100437227Y-90256256D01*
X100558480Y-90466272D01*
X100558482Y-90466275D01*
X100558483Y-90466276D01*
X100706103Y-90658660D01*
X100706107Y-90658665D01*
X100706110Y-90658668D01*
X100706116Y-90658675D01*
X100877587Y-90830146D01*
X100877594Y-90830152D01*
X100877597Y-90830154D01*
X100877601Y-90830158D01*
X100912893Y-90857238D01*
X101069990Y-90977782D01*
X101280006Y-91099035D01*
X101280010Y-91099036D01*
X101280052Y-91099058D01*
X101280605Y-91099283D01*
X101504051Y-91191838D01*
X101504063Y-91191841D01*
X101504067Y-91191843D01*
X101548012Y-91203617D01*
X101599999Y-91217547D01*
X101600000Y-91217547D01*
X101600000Y-91217546D01*
X101600000Y-89888888D01*
X101619685Y-89821849D01*
X101672489Y-89776094D01*
X101741647Y-89766150D01*
X101771447Y-89774325D01*
X101837480Y-89801677D01*
X102011353Y-89836262D01*
X102011357Y-89836263D01*
X102188642Y-89836263D01*
X102188643Y-89836263D01*
X102188644Y-89836262D01*
X102362520Y-89801677D01*
X102428549Y-89774326D01*
X102498016Y-89766858D01*
X102560495Y-89798133D01*
X102596148Y-89858221D01*
X102600000Y-89888888D01*
X102600000Y-91217546D01*
X102600000Y-91217547D01*
X102695938Y-91191841D01*
X102695948Y-91191838D01*
X102919454Y-91099257D01*
X102919948Y-91099057D01*
X102919983Y-91099038D01*
X102919993Y-91099035D01*
X103130009Y-90977782D01*
X103322405Y-90830152D01*
X103322412Y-90830146D01*
X103493883Y-90658675D01*
X103493889Y-90658668D01*
X103641519Y-90466272D01*
X103762772Y-90256256D01*
X103762779Y-90256241D01*
X103762783Y-90256229D01*
X103762788Y-90256221D01*
X103855575Y-90032209D01*
X103855574Y-90032209D01*
X103855578Y-90032202D01*
X103918346Y-89797950D01*
X103949998Y-89557527D01*
X103950000Y-89557511D01*
X103950000Y-89436263D01*
X103052626Y-89436263D01*
X102985587Y-89416578D01*
X102939832Y-89363774D01*
X102929888Y-89294616D01*
X102938065Y-89264811D01*
X102965412Y-89198787D01*
X102965414Y-89198783D01*
X103000000Y-89024905D01*
X103000000Y-88847621D01*
X102965414Y-88673743D01*
X102965412Y-88673738D01*
X102938065Y-88607715D01*
X102930596Y-88538246D01*
X102961872Y-88475767D01*
X103021961Y-88440115D01*
X103052626Y-88436263D01*
X103950000Y-88436263D01*
X103950000Y-88315018D01*
X103950000Y-88315014D01*
X104450000Y-88315014D01*
X104450000Y-88436263D01*
X105347374Y-88436263D01*
X105414413Y-88455948D01*
X105460168Y-88508752D01*
X105470112Y-88577910D01*
X105461935Y-88607715D01*
X105434587Y-88673738D01*
X105434584Y-88673750D01*
X105400000Y-88847616D01*
X105400000Y-89024909D01*
X105434584Y-89198775D01*
X105434587Y-89198787D01*
X105461935Y-89264811D01*
X105469404Y-89334280D01*
X105438128Y-89396759D01*
X105378039Y-89432411D01*
X105347374Y-89436263D01*
X104450000Y-89436263D01*
X104450000Y-89557518D01*
X104450003Y-89557542D01*
X104478775Y-89776094D01*
X104481653Y-89797950D01*
X104497396Y-89856705D01*
X104544423Y-90032209D01*
X104637211Y-90256221D01*
X104637220Y-90256241D01*
X104637227Y-90256256D01*
X104758480Y-90466272D01*
X104758482Y-90466275D01*
X104758483Y-90466276D01*
X104906103Y-90658660D01*
X104906107Y-90658665D01*
X104906110Y-90658668D01*
X104906116Y-90658675D01*
X105077587Y-90830146D01*
X105077594Y-90830152D01*
X105077597Y-90830154D01*
X105077601Y-90830158D01*
X105112893Y-90857238D01*
X105269990Y-90977782D01*
X105480006Y-91099035D01*
X105480010Y-91099036D01*
X105480052Y-91099058D01*
X105480605Y-91099283D01*
X105704051Y-91191838D01*
X105704063Y-91191841D01*
X105704067Y-91191843D01*
X105748012Y-91203617D01*
X105799999Y-91217547D01*
X105800000Y-91217547D01*
X105800000Y-91217546D01*
X105800000Y-89888888D01*
X105819685Y-89821849D01*
X105872489Y-89776094D01*
X105941647Y-89766150D01*
X105971447Y-89774325D01*
X106037480Y-89801677D01*
X106211353Y-89836262D01*
X106211357Y-89836263D01*
X106388642Y-89836263D01*
X106388643Y-89836263D01*
X106388644Y-89836262D01*
X106562520Y-89801677D01*
X106628549Y-89774326D01*
X106698016Y-89766858D01*
X106760495Y-89798133D01*
X106796148Y-89858221D01*
X106800000Y-89888888D01*
X106800000Y-91217546D01*
X106800000Y-91217547D01*
X106895938Y-91191841D01*
X106895948Y-91191838D01*
X107119454Y-91099257D01*
X107119948Y-91099057D01*
X107119983Y-91099038D01*
X107119993Y-91099035D01*
X107330009Y-90977782D01*
X107522405Y-90830152D01*
X107522412Y-90830146D01*
X107693883Y-90658675D01*
X107693889Y-90658668D01*
X107841519Y-90466272D01*
X107962772Y-90256256D01*
X107962779Y-90256241D01*
X107962783Y-90256229D01*
X107962788Y-90256221D01*
X108055575Y-90032209D01*
X108055574Y-90032209D01*
X108055578Y-90032202D01*
X108118346Y-89797950D01*
X108149998Y-89557527D01*
X108150000Y-89557511D01*
X108150000Y-89436263D01*
X107252626Y-89436263D01*
X107185587Y-89416578D01*
X107139832Y-89363774D01*
X107129888Y-89294616D01*
X107138065Y-89264811D01*
X107165412Y-89198787D01*
X107165414Y-89198783D01*
X107200000Y-89024905D01*
X107200000Y-88847621D01*
X107165414Y-88673743D01*
X107165412Y-88673738D01*
X107138065Y-88607715D01*
X107130596Y-88538246D01*
X107161872Y-88475767D01*
X107221961Y-88440115D01*
X107252626Y-88436263D01*
X108150000Y-88436263D01*
X108150000Y-88315005D01*
X108149996Y-88314973D01*
X108649500Y-88314973D01*
X108649500Y-89557551D01*
X108681147Y-89797946D01*
X108681161Y-89798048D01*
X108691401Y-89836263D01*
X108743947Y-90032367D01*
X108836685Y-90256256D01*
X108836774Y-90256472D01*
X108836776Y-90256477D01*
X108958060Y-90466546D01*
X108958062Y-90466549D01*
X108958281Y-90466878D01*
X108959284Y-90468142D01*
X109105726Y-90658991D01*
X109105730Y-90658996D01*
X109105733Y-90658999D01*
X109105739Y-90659006D01*
X109277256Y-90830523D01*
X109277263Y-90830529D01*
X109277266Y-90830531D01*
X109277270Y-90830535D01*
X109390321Y-90917281D01*
X109469711Y-90978199D01*
X109554962Y-91027418D01*
X109679780Y-91099483D01*
X109679785Y-91099485D01*
X109679788Y-91099487D01*
X109875269Y-91180458D01*
X109875268Y-91180458D01*
X109894694Y-91188504D01*
X109902743Y-91191838D01*
X109903900Y-91192317D01*
X110138211Y-91255101D01*
X110318586Y-91278847D01*
X110378710Y-91286763D01*
X110378711Y-91286763D01*
X110378712Y-91286763D01*
X110621283Y-91286763D01*
X110621289Y-91286763D01*
X110669388Y-91280430D01*
X110861789Y-91255101D01*
X111096100Y-91192317D01*
X111320212Y-91099487D01*
X111530289Y-90978199D01*
X111722738Y-90830528D01*
X111894265Y-90659001D01*
X112041936Y-90466552D01*
X112163224Y-90256475D01*
X112256054Y-90032363D01*
X112318838Y-89798052D01*
X112350500Y-89557551D01*
X112350500Y-88315014D01*
X112850000Y-88315014D01*
X112850000Y-88436263D01*
X113747374Y-88436263D01*
X113814413Y-88455948D01*
X113860168Y-88508752D01*
X113870112Y-88577910D01*
X113861935Y-88607715D01*
X113834587Y-88673738D01*
X113834584Y-88673750D01*
X113800000Y-88847616D01*
X113800000Y-89024909D01*
X113834584Y-89198775D01*
X113834587Y-89198787D01*
X113861935Y-89264811D01*
X113869404Y-89334280D01*
X113838128Y-89396759D01*
X113778039Y-89432411D01*
X113747374Y-89436263D01*
X112850000Y-89436263D01*
X112850000Y-89557518D01*
X112850003Y-89557542D01*
X112878775Y-89776094D01*
X112881653Y-89797950D01*
X112897396Y-89856705D01*
X112944423Y-90032209D01*
X113037211Y-90256221D01*
X113037220Y-90256241D01*
X113037227Y-90256256D01*
X113158480Y-90466272D01*
X113158482Y-90466275D01*
X113158483Y-90466276D01*
X113306103Y-90658660D01*
X113306107Y-90658665D01*
X113306110Y-90658668D01*
X113306116Y-90658675D01*
X113477587Y-90830146D01*
X113477594Y-90830152D01*
X113477597Y-90830154D01*
X113477601Y-90830158D01*
X113512893Y-90857238D01*
X113669990Y-90977782D01*
X113880006Y-91099035D01*
X113880010Y-91099036D01*
X113880052Y-91099058D01*
X113880605Y-91099283D01*
X114104051Y-91191838D01*
X114104063Y-91191841D01*
X114104067Y-91191843D01*
X114148012Y-91203617D01*
X114199999Y-91217547D01*
X114200000Y-91217547D01*
X114200000Y-91217546D01*
X114200000Y-89888888D01*
X114219685Y-89821849D01*
X114272489Y-89776094D01*
X114341647Y-89766150D01*
X114371447Y-89774325D01*
X114437480Y-89801677D01*
X114611353Y-89836262D01*
X114611357Y-89836263D01*
X114788642Y-89836263D01*
X114788643Y-89836263D01*
X114788644Y-89836262D01*
X114962520Y-89801677D01*
X115028549Y-89774326D01*
X115098016Y-89766858D01*
X115160495Y-89798133D01*
X115196148Y-89858221D01*
X115200000Y-89888888D01*
X115200000Y-91217546D01*
X115200000Y-91217547D01*
X115295938Y-91191841D01*
X115295948Y-91191838D01*
X115519454Y-91099257D01*
X115519948Y-91099057D01*
X115519983Y-91099038D01*
X115519993Y-91099035D01*
X115730009Y-90977782D01*
X115922405Y-90830152D01*
X115922412Y-90830146D01*
X116093883Y-90658675D01*
X116093889Y-90658668D01*
X116241519Y-90466272D01*
X116362772Y-90256256D01*
X116362779Y-90256241D01*
X116362783Y-90256229D01*
X116362788Y-90256221D01*
X116455575Y-90032209D01*
X116455574Y-90032209D01*
X116455578Y-90032202D01*
X116518346Y-89797950D01*
X116549998Y-89557527D01*
X116550000Y-89557511D01*
X116550000Y-89436263D01*
X115652626Y-89436263D01*
X115585587Y-89416578D01*
X115539832Y-89363774D01*
X115529888Y-89294616D01*
X115538065Y-89264811D01*
X115565412Y-89198787D01*
X115565414Y-89198783D01*
X115600000Y-89024905D01*
X115600000Y-88847621D01*
X115565414Y-88673743D01*
X115565412Y-88673738D01*
X115538065Y-88607715D01*
X115530596Y-88538246D01*
X115561872Y-88475767D01*
X115621961Y-88440115D01*
X115652626Y-88436263D01*
X116550000Y-88436263D01*
X116550000Y-88315018D01*
X116549997Y-88314991D01*
X116542285Y-88256409D01*
X116518346Y-88074575D01*
X116455578Y-87840323D01*
X116455509Y-87840157D01*
X116362784Y-87616296D01*
X116362783Y-87616295D01*
X116362779Y-87616284D01*
X116362772Y-87616269D01*
X116241519Y-87406253D01*
X116203274Y-87356411D01*
X116093895Y-87213864D01*
X116093891Y-87213860D01*
X116093889Y-87213857D01*
X116093883Y-87213850D01*
X115922412Y-87042379D01*
X115922405Y-87042373D01*
X115922402Y-87042370D01*
X115922397Y-87042366D01*
X115730013Y-86894746D01*
X115730012Y-86894745D01*
X115730009Y-86894743D01*
X115519993Y-86773490D01*
X115519978Y-86773483D01*
X115519965Y-86773477D01*
X115295946Y-86680686D01*
X115200000Y-86654977D01*
X115200000Y-87983637D01*
X115180315Y-88050676D01*
X115127511Y-88096431D01*
X115058353Y-88106375D01*
X115028548Y-88098198D01*
X114962524Y-88070850D01*
X114962512Y-88070847D01*
X114788646Y-88036263D01*
X114788642Y-88036263D01*
X114611358Y-88036263D01*
X114611353Y-88036263D01*
X114437487Y-88070847D01*
X114437475Y-88070850D01*
X114371452Y-88098198D01*
X114301983Y-88105667D01*
X114239504Y-88074391D01*
X114203852Y-88014302D01*
X114200000Y-87983637D01*
X114200000Y-86654977D01*
X114199999Y-86654977D01*
X114104054Y-86680685D01*
X113880033Y-86773477D01*
X113880020Y-86773483D01*
X113880013Y-86773486D01*
X113880006Y-86773490D01*
X113879993Y-86773496D01*
X113879992Y-86773498D01*
X113851609Y-86789885D01*
X113670706Y-86894330D01*
X113669985Y-86894746D01*
X113477601Y-87042366D01*
X113477586Y-87042380D01*
X113477578Y-87042387D01*
X113306124Y-87213841D01*
X113306117Y-87213849D01*
X113306103Y-87213864D01*
X113158483Y-87406248D01*
X113158480Y-87406252D01*
X113158480Y-87406253D01*
X113037227Y-87616269D01*
X113037223Y-87616276D01*
X113037220Y-87616283D01*
X113037214Y-87616296D01*
X112944423Y-87840315D01*
X112881652Y-88074578D01*
X112850003Y-88314982D01*
X112850001Y-88315005D01*
X112850000Y-88315014D01*
X112350500Y-88315014D01*
X112350500Y-88314975D01*
X112318838Y-88074474D01*
X112256054Y-87840163D01*
X112163224Y-87616051D01*
X112041936Y-87405974D01*
X111913771Y-87238946D01*
X111894266Y-87213526D01*
X111894260Y-87213519D01*
X111722743Y-87042002D01*
X111722736Y-87041996D01*
X111722733Y-87041993D01*
X111722728Y-87041989D01*
X111531879Y-86895547D01*
X111530615Y-86894544D01*
X111530286Y-86894325D01*
X111530283Y-86894323D01*
X111320220Y-86773043D01*
X111320207Y-86773036D01*
X111320203Y-86773035D01*
X111096104Y-86680210D01*
X110962277Y-86644351D01*
X110861785Y-86617424D01*
X110861784Y-86617423D01*
X110861781Y-86617423D01*
X110621290Y-86585763D01*
X110621289Y-86585763D01*
X110621288Y-86585763D01*
X110378712Y-86585763D01*
X110378711Y-86585763D01*
X110378710Y-86585763D01*
X110138217Y-86617423D01*
X109903894Y-86680210D01*
X109679790Y-86773037D01*
X109679782Y-86773041D01*
X109469706Y-86894330D01*
X109469697Y-86894336D01*
X109277270Y-87041989D01*
X109277255Y-87042003D01*
X109277247Y-87042010D01*
X109105747Y-87213510D01*
X109105740Y-87213518D01*
X109105726Y-87213533D01*
X108958073Y-87405960D01*
X108958067Y-87405969D01*
X108836778Y-87616045D01*
X108836774Y-87616053D01*
X108743947Y-87840157D01*
X108681160Y-88074480D01*
X108649500Y-88314973D01*
X108149996Y-88314973D01*
X108138985Y-88231341D01*
X108118346Y-88074575D01*
X108055578Y-87840323D01*
X108055509Y-87840157D01*
X107962784Y-87616296D01*
X107962783Y-87616295D01*
X107962779Y-87616284D01*
X107962772Y-87616269D01*
X107841519Y-87406253D01*
X107803274Y-87356411D01*
X107693895Y-87213864D01*
X107693891Y-87213860D01*
X107693889Y-87213857D01*
X107693883Y-87213850D01*
X107522412Y-87042379D01*
X107522405Y-87042373D01*
X107522402Y-87042370D01*
X107522397Y-87042366D01*
X107330013Y-86894746D01*
X107330012Y-86894745D01*
X107330009Y-86894743D01*
X107119993Y-86773490D01*
X107119978Y-86773483D01*
X107119965Y-86773477D01*
X106895946Y-86680686D01*
X106800000Y-86654977D01*
X106800000Y-87983637D01*
X106780315Y-88050676D01*
X106727511Y-88096431D01*
X106658353Y-88106375D01*
X106628548Y-88098198D01*
X106562524Y-88070850D01*
X106562512Y-88070847D01*
X106388646Y-88036263D01*
X106388642Y-88036263D01*
X106211358Y-88036263D01*
X106211353Y-88036263D01*
X106037487Y-88070847D01*
X106037475Y-88070850D01*
X105971452Y-88098198D01*
X105901983Y-88105667D01*
X105839504Y-88074391D01*
X105803852Y-88014302D01*
X105800000Y-87983637D01*
X105800000Y-86654977D01*
X105799999Y-86654977D01*
X105704054Y-86680685D01*
X105480033Y-86773477D01*
X105480020Y-86773483D01*
X105480013Y-86773486D01*
X105480006Y-86773490D01*
X105479993Y-86773496D01*
X105479992Y-86773498D01*
X105451609Y-86789885D01*
X105270706Y-86894330D01*
X105269985Y-86894746D01*
X105077601Y-87042366D01*
X105077586Y-87042380D01*
X105077578Y-87042387D01*
X104906124Y-87213841D01*
X104906117Y-87213849D01*
X104906103Y-87213864D01*
X104758483Y-87406248D01*
X104758480Y-87406252D01*
X104758480Y-87406253D01*
X104637227Y-87616269D01*
X104637223Y-87616276D01*
X104637220Y-87616283D01*
X104637214Y-87616296D01*
X104544423Y-87840315D01*
X104481652Y-88074578D01*
X104450003Y-88314982D01*
X104450001Y-88315005D01*
X104450000Y-88315014D01*
X103950000Y-88315014D01*
X103949997Y-88314991D01*
X103942285Y-88256409D01*
X103918346Y-88074575D01*
X103855578Y-87840323D01*
X103855509Y-87840157D01*
X103762784Y-87616296D01*
X103762783Y-87616295D01*
X103762779Y-87616284D01*
X103762772Y-87616269D01*
X103641519Y-87406253D01*
X103603274Y-87356411D01*
X103493895Y-87213864D01*
X103493891Y-87213860D01*
X103493889Y-87213857D01*
X103493883Y-87213850D01*
X103322412Y-87042379D01*
X103322405Y-87042373D01*
X103322402Y-87042370D01*
X103322397Y-87042366D01*
X103130013Y-86894746D01*
X103130012Y-86894745D01*
X103130009Y-86894743D01*
X102919993Y-86773490D01*
X102919978Y-86773483D01*
X102919965Y-86773477D01*
X102695946Y-86680686D01*
X102600000Y-86654977D01*
X102600000Y-87983637D01*
X102580315Y-88050676D01*
X102527511Y-88096431D01*
X102458353Y-88106375D01*
X102428548Y-88098198D01*
X102362524Y-88070850D01*
X102362512Y-88070847D01*
X102188646Y-88036263D01*
X102188642Y-88036263D01*
X102011358Y-88036263D01*
X102011353Y-88036263D01*
X101837487Y-88070847D01*
X101837475Y-88070850D01*
X101771452Y-88098198D01*
X101701983Y-88105667D01*
X101639504Y-88074391D01*
X101603852Y-88014302D01*
X101600000Y-87983637D01*
X101600000Y-86654977D01*
X101599999Y-86654977D01*
X101504054Y-86680685D01*
X101280033Y-86773477D01*
X101280020Y-86773483D01*
X101280013Y-86773486D01*
X101280006Y-86773490D01*
X101279993Y-86773496D01*
X101279992Y-86773498D01*
X101251609Y-86789885D01*
X101070706Y-86894330D01*
X101069985Y-86894746D01*
X100877601Y-87042366D01*
X100877586Y-87042380D01*
X100877578Y-87042387D01*
X100706124Y-87213841D01*
X100706117Y-87213849D01*
X100706103Y-87213864D01*
X100558483Y-87406248D01*
X100558480Y-87406252D01*
X100558480Y-87406253D01*
X100437227Y-87616269D01*
X100437223Y-87616276D01*
X100437220Y-87616283D01*
X100437214Y-87616296D01*
X100344423Y-87840315D01*
X100281652Y-88074578D01*
X100250003Y-88314982D01*
X100250001Y-88315005D01*
X100250000Y-88315014D01*
X99750000Y-88315014D01*
X99749997Y-88314991D01*
X99742285Y-88256409D01*
X99718346Y-88074575D01*
X99655578Y-87840323D01*
X99655509Y-87840157D01*
X99562784Y-87616296D01*
X99562783Y-87616295D01*
X99562779Y-87616284D01*
X99562772Y-87616269D01*
X99441519Y-87406253D01*
X99403274Y-87356411D01*
X99293895Y-87213864D01*
X99293891Y-87213860D01*
X99293889Y-87213857D01*
X99293883Y-87213850D01*
X99122412Y-87042379D01*
X99122405Y-87042373D01*
X99122402Y-87042370D01*
X99122397Y-87042366D01*
X98930013Y-86894746D01*
X98930012Y-86894745D01*
X98930009Y-86894743D01*
X98719993Y-86773490D01*
X98719978Y-86773483D01*
X98719965Y-86773477D01*
X98495946Y-86680686D01*
X98400000Y-86654977D01*
X98400000Y-87983637D01*
X98380315Y-88050676D01*
X98327511Y-88096431D01*
X98258353Y-88106375D01*
X98228548Y-88098198D01*
X98162524Y-88070850D01*
X98162512Y-88070847D01*
X97988646Y-88036263D01*
X97988642Y-88036263D01*
X97811358Y-88036263D01*
X97811353Y-88036263D01*
X97637487Y-88070847D01*
X97637475Y-88070850D01*
X97571452Y-88098198D01*
X97501983Y-88105667D01*
X97439504Y-88074391D01*
X97403852Y-88014302D01*
X97400000Y-87983637D01*
X97400000Y-86654977D01*
X97399999Y-86654977D01*
X97304054Y-86680685D01*
X97080033Y-86773477D01*
X97080020Y-86773483D01*
X97080013Y-86773486D01*
X97080006Y-86773490D01*
X97079993Y-86773496D01*
X97079992Y-86773498D01*
X97051609Y-86789885D01*
X96870706Y-86894330D01*
X96869985Y-86894746D01*
X96677601Y-87042366D01*
X96677586Y-87042380D01*
X96677578Y-87042387D01*
X96506124Y-87213841D01*
X96506117Y-87213849D01*
X96506103Y-87213864D01*
X96358483Y-87406248D01*
X96358480Y-87406252D01*
X96358480Y-87406253D01*
X96237227Y-87616269D01*
X96237223Y-87616276D01*
X96237220Y-87616283D01*
X96237214Y-87616296D01*
X96144423Y-87840315D01*
X96081652Y-88074578D01*
X96050003Y-88314982D01*
X96050001Y-88315005D01*
X96050000Y-88315014D01*
X95550500Y-88315014D01*
X95550500Y-88314975D01*
X95518838Y-88074474D01*
X95456054Y-87840163D01*
X95363224Y-87616051D01*
X95241936Y-87405974D01*
X95113771Y-87238946D01*
X95094266Y-87213526D01*
X95094260Y-87213519D01*
X94922743Y-87042002D01*
X94922736Y-87041996D01*
X94922733Y-87041993D01*
X94922728Y-87041989D01*
X94731879Y-86895547D01*
X94730615Y-86894544D01*
X94730286Y-86894325D01*
X94730283Y-86894323D01*
X94520220Y-86773043D01*
X94520207Y-86773036D01*
X94520203Y-86773035D01*
X94296104Y-86680210D01*
X94162277Y-86644351D01*
X94061785Y-86617424D01*
X94061784Y-86617423D01*
X94061781Y-86617423D01*
X93821290Y-86585763D01*
X93821289Y-86585763D01*
X93821288Y-86585763D01*
X93578712Y-86585763D01*
X93578711Y-86585763D01*
X93578710Y-86585763D01*
X93338217Y-86617423D01*
X93103894Y-86680210D01*
X92879790Y-86773037D01*
X92879782Y-86773041D01*
X92669706Y-86894330D01*
X92669697Y-86894336D01*
X92477270Y-87041989D01*
X92477255Y-87042003D01*
X92477247Y-87042010D01*
X92305747Y-87213510D01*
X92305740Y-87213518D01*
X92305726Y-87213533D01*
X92158073Y-87405960D01*
X92158067Y-87405969D01*
X92036778Y-87616045D01*
X92036774Y-87616053D01*
X91943947Y-87840157D01*
X91881160Y-88074480D01*
X91849500Y-88314973D01*
X91350500Y-88314973D01*
X91318838Y-88074474D01*
X91256054Y-87840163D01*
X91163224Y-87616051D01*
X91041936Y-87405974D01*
X90913771Y-87238946D01*
X90894266Y-87213526D01*
X90894260Y-87213519D01*
X90722743Y-87042002D01*
X90722736Y-87041996D01*
X90722733Y-87041993D01*
X90722728Y-87041989D01*
X90531879Y-86895547D01*
X90530615Y-86894544D01*
X90530286Y-86894325D01*
X90530283Y-86894323D01*
X90320220Y-86773043D01*
X90320207Y-86773036D01*
X90320203Y-86773035D01*
X90096104Y-86680210D01*
X89962277Y-86644351D01*
X89861785Y-86617424D01*
X89861784Y-86617423D01*
X89861781Y-86617423D01*
X89621290Y-86585763D01*
X89621289Y-86585763D01*
X89621288Y-86585763D01*
X89378712Y-86585763D01*
X89378711Y-86585763D01*
X89378710Y-86585763D01*
X89138217Y-86617423D01*
X88903894Y-86680210D01*
X88679790Y-86773037D01*
X88679782Y-86773041D01*
X88469706Y-86894330D01*
X88469697Y-86894336D01*
X88277270Y-87041989D01*
X88277255Y-87042003D01*
X88277247Y-87042010D01*
X88105747Y-87213510D01*
X88105740Y-87213518D01*
X88105726Y-87213533D01*
X87958073Y-87405960D01*
X87958067Y-87405969D01*
X87836778Y-87616045D01*
X87836774Y-87616053D01*
X87743947Y-87840157D01*
X87681160Y-88074480D01*
X87649500Y-88314973D01*
X87150500Y-88314973D01*
X87118838Y-88074474D01*
X87056054Y-87840163D01*
X86963224Y-87616051D01*
X86841936Y-87405974D01*
X86713771Y-87238946D01*
X86694266Y-87213526D01*
X86694260Y-87213519D01*
X86522743Y-87042002D01*
X86522736Y-87041996D01*
X86522733Y-87041993D01*
X86522728Y-87041989D01*
X86331879Y-86895547D01*
X86330615Y-86894544D01*
X86330286Y-86894325D01*
X86330283Y-86894323D01*
X86120220Y-86773043D01*
X86120207Y-86773036D01*
X86120203Y-86773035D01*
X85896104Y-86680210D01*
X85762277Y-86644351D01*
X85661785Y-86617424D01*
X85661784Y-86617423D01*
X85661781Y-86617423D01*
X85421290Y-86585763D01*
X85421289Y-86585763D01*
X85421288Y-86585763D01*
X85178712Y-86585763D01*
X85178711Y-86585763D01*
X85178710Y-86585763D01*
X84938217Y-86617423D01*
X84703894Y-86680210D01*
X84479790Y-86773037D01*
X84479782Y-86773041D01*
X84269706Y-86894330D01*
X84269697Y-86894336D01*
X84077270Y-87041989D01*
X84077255Y-87042003D01*
X84077247Y-87042010D01*
X83905747Y-87213510D01*
X83905740Y-87213518D01*
X83905726Y-87213533D01*
X83758073Y-87405960D01*
X83758067Y-87405969D01*
X83636778Y-87616045D01*
X83636774Y-87616053D01*
X83543947Y-87840157D01*
X83481160Y-88074480D01*
X83449500Y-88314973D01*
X82950500Y-88314973D01*
X82918838Y-88074474D01*
X82856054Y-87840163D01*
X82763224Y-87616051D01*
X82641936Y-87405974D01*
X82513771Y-87238946D01*
X82494266Y-87213526D01*
X82494260Y-87213519D01*
X82322743Y-87042002D01*
X82322736Y-87041996D01*
X82322733Y-87041993D01*
X82322728Y-87041989D01*
X82131879Y-86895547D01*
X82130615Y-86894544D01*
X82130286Y-86894325D01*
X82130283Y-86894323D01*
X81920220Y-86773043D01*
X81920207Y-86773036D01*
X81920203Y-86773035D01*
X81696104Y-86680210D01*
X81562277Y-86644351D01*
X81461785Y-86617424D01*
X81461784Y-86617423D01*
X81461781Y-86617423D01*
X81221290Y-86585763D01*
X81221289Y-86585763D01*
X81221288Y-86585763D01*
X80978712Y-86585763D01*
X80978711Y-86585763D01*
X80978710Y-86585763D01*
X80738217Y-86617423D01*
X80503894Y-86680210D01*
X80279790Y-86773037D01*
X80279782Y-86773041D01*
X80069706Y-86894330D01*
X80069697Y-86894336D01*
X79877270Y-87041989D01*
X79877255Y-87042003D01*
X79877247Y-87042010D01*
X79705747Y-87213510D01*
X79705740Y-87213518D01*
X79705726Y-87213533D01*
X79558073Y-87405960D01*
X79558067Y-87405969D01*
X79436778Y-87616045D01*
X79436774Y-87616053D01*
X79343947Y-87840157D01*
X79281160Y-88074480D01*
X79249500Y-88314973D01*
X78749996Y-88314973D01*
X78738985Y-88231341D01*
X78718346Y-88074575D01*
X78655578Y-87840323D01*
X78655509Y-87840157D01*
X78562784Y-87616296D01*
X78562783Y-87616295D01*
X78562779Y-87616284D01*
X78562772Y-87616269D01*
X78441519Y-87406253D01*
X78403274Y-87356411D01*
X78293895Y-87213864D01*
X78293891Y-87213860D01*
X78293889Y-87213857D01*
X78293883Y-87213850D01*
X78122412Y-87042379D01*
X78122405Y-87042373D01*
X78122402Y-87042370D01*
X78122397Y-87042366D01*
X77930013Y-86894746D01*
X77930012Y-86894745D01*
X77930009Y-86894743D01*
X77719993Y-86773490D01*
X77719978Y-86773483D01*
X77719965Y-86773477D01*
X77495946Y-86680686D01*
X77400000Y-86654977D01*
X77400000Y-87983637D01*
X77380315Y-88050676D01*
X77327511Y-88096431D01*
X77258353Y-88106375D01*
X77228548Y-88098198D01*
X77162524Y-88070850D01*
X77162512Y-88070847D01*
X76988646Y-88036263D01*
X76988642Y-88036263D01*
X76811358Y-88036263D01*
X76811353Y-88036263D01*
X76637487Y-88070847D01*
X76637475Y-88070850D01*
X76571452Y-88098198D01*
X76501983Y-88105667D01*
X76439504Y-88074391D01*
X76403852Y-88014302D01*
X76400000Y-87983637D01*
X76400000Y-86654977D01*
X76399999Y-86654977D01*
X76304054Y-86680685D01*
X76080033Y-86773477D01*
X76080020Y-86773483D01*
X76080013Y-86773486D01*
X76080006Y-86773490D01*
X76079993Y-86773496D01*
X76079992Y-86773498D01*
X76051609Y-86789885D01*
X75870706Y-86894330D01*
X75869985Y-86894746D01*
X75677601Y-87042366D01*
X75677586Y-87042380D01*
X75677578Y-87042387D01*
X75506124Y-87213841D01*
X75506117Y-87213849D01*
X75506103Y-87213864D01*
X75358483Y-87406248D01*
X75358480Y-87406252D01*
X75358480Y-87406253D01*
X75237227Y-87616269D01*
X75237223Y-87616276D01*
X75237220Y-87616283D01*
X75237214Y-87616296D01*
X75144423Y-87840315D01*
X75081652Y-88074578D01*
X75050003Y-88314982D01*
X75050001Y-88315005D01*
X75050000Y-88315014D01*
X63273480Y-88315014D01*
X63278410Y-85022095D01*
X129434314Y-85022095D01*
X130000000Y-85587781D01*
X130565685Y-85022096D01*
X130494992Y-84951403D01*
X130494985Y-84951397D01*
X130414936Y-84886188D01*
X130414932Y-84886186D01*
X130414931Y-84886185D01*
X130258264Y-84807504D01*
X130258262Y-84807503D01*
X130258261Y-84807503D01*
X130087660Y-84767070D01*
X130087658Y-84767070D01*
X129912342Y-84767070D01*
X129912340Y-84767070D01*
X129741738Y-84807503D01*
X129741734Y-84807504D01*
X129585061Y-84886188D01*
X129585054Y-84886192D01*
X129505012Y-84951396D01*
X129434314Y-85022095D01*
X63278410Y-85022095D01*
X63280348Y-83727365D01*
X63285423Y-83692443D01*
X63292872Y-83667212D01*
X63324245Y-83614513D01*
X65458550Y-81486590D01*
X83624078Y-81486590D01*
X83624078Y-81662037D01*
X83664537Y-81832742D01*
X83664537Y-81832743D01*
X83664538Y-81832744D01*
X83743277Y-81989526D01*
X83743281Y-81989532D01*
X83808523Y-82069621D01*
X83808533Y-82069633D01*
X83808535Y-82069635D01*
X83808545Y-82069646D01*
X84939919Y-83201017D01*
X84940658Y-83201658D01*
X84941847Y-83202588D01*
X85020016Y-83266267D01*
X85020018Y-83266268D01*
X85020024Y-83266273D01*
X85020026Y-83266274D01*
X85176701Y-83344959D01*
X85176809Y-83345013D01*
X85319336Y-83378793D01*
X85319358Y-83378797D01*
X85347518Y-83385472D01*
X85347521Y-83385472D01*
X85522957Y-83385472D01*
X85522960Y-83385472D01*
X85693672Y-83345011D01*
X85850454Y-83266273D01*
X85930561Y-83201017D01*
X87061943Y-82069633D01*
X87127201Y-81989526D01*
X87205939Y-81832744D01*
X87246400Y-81662032D01*
X87246400Y-81486590D01*
X87234067Y-81434558D01*
X87205939Y-81315877D01*
X87127200Y-81159095D01*
X87127196Y-81159089D01*
X87127194Y-81159086D01*
X87062257Y-81079371D01*
X87062255Y-81079369D01*
X87061947Y-81078991D01*
X85930572Y-79947617D01*
X85930565Y-79947611D01*
X85930561Y-79947607D01*
X85930553Y-79947600D01*
X85930547Y-79947595D01*
X85899733Y-79922492D01*
X85855966Y-79886838D01*
X85855939Y-79886817D01*
X85850461Y-79882354D01*
X85850455Y-79882350D01*
X85850454Y-79882349D01*
X85827233Y-79870687D01*
X85771711Y-79842802D01*
X85771711Y-79842803D01*
X85693670Y-79803609D01*
X85664138Y-79796610D01*
X85522967Y-79763151D01*
X85522962Y-79763150D01*
X85522960Y-79763150D01*
X85522958Y-79763150D01*
X85347515Y-79763150D01*
X85347507Y-79763151D01*
X85176806Y-79803609D01*
X85098767Y-79842802D01*
X85020023Y-79882349D01*
X85020017Y-79882353D01*
X84976681Y-79917655D01*
X84939913Y-79947607D01*
X83808544Y-81078978D01*
X83808520Y-81079004D01*
X83743279Y-81159090D01*
X83743278Y-81159092D01*
X83664538Y-81315875D01*
X83664537Y-81315880D01*
X83624079Y-81486582D01*
X83624079Y-81486586D01*
X83624078Y-81486590D01*
X65458550Y-81486590D01*
X68128175Y-78824948D01*
X68791203Y-78163902D01*
X69167453Y-77788777D01*
X80420603Y-77788777D01*
X81287455Y-77788777D01*
X81354494Y-77808462D01*
X81400249Y-77861266D01*
X81410193Y-77930424D01*
X81407229Y-77944872D01*
X81399705Y-77972948D01*
X81399705Y-78104605D01*
X81407229Y-78132682D01*
X81405568Y-78202532D01*
X81366406Y-78260395D01*
X81302178Y-78287900D01*
X81287455Y-78288777D01*
X80420603Y-78288777D01*
X80436639Y-78390024D01*
X80509602Y-78614579D01*
X80616790Y-78824948D01*
X80755571Y-79015963D01*
X80922518Y-79182910D01*
X81113533Y-79321691D01*
X81323900Y-79428879D01*
X81548056Y-79501712D01*
X81548432Y-79501836D01*
X81548455Y-79501842D01*
X81649705Y-79517878D01*
X81649705Y-78651027D01*
X81669390Y-78583988D01*
X81722194Y-78538233D01*
X81791352Y-78528289D01*
X81805798Y-78531252D01*
X81833879Y-78538777D01*
X81965530Y-78538777D01*
X81965531Y-78538777D01*
X81993610Y-78531253D01*
X82063460Y-78532914D01*
X82121323Y-78572076D01*
X82148828Y-78636304D01*
X82149705Y-78651027D01*
X82149705Y-79517876D01*
X82149705Y-79517877D01*
X82250954Y-79501842D01*
X82250959Y-79501840D01*
X82250961Y-79501840D01*
X82251120Y-79501787D01*
X82475509Y-79428879D01*
X82685876Y-79321691D01*
X82876891Y-79182910D01*
X83043838Y-79015963D01*
X83182619Y-78824948D01*
X83289807Y-78614579D01*
X83362770Y-78390024D01*
X83378807Y-78288777D01*
X83378806Y-78288777D01*
X82511955Y-78288777D01*
X82444916Y-78269092D01*
X82399161Y-78216288D01*
X82389217Y-78147130D01*
X82392181Y-78132682D01*
X82399704Y-78104605D01*
X82399705Y-78104602D01*
X82399705Y-77972952D01*
X82399704Y-77972948D01*
X82392181Y-77944872D01*
X82393842Y-77875022D01*
X82433004Y-77817159D01*
X82497232Y-77789654D01*
X82511955Y-77788777D01*
X83378807Y-77788777D01*
X83362770Y-77687529D01*
X83289807Y-77462974D01*
X83182619Y-77252605D01*
X83043838Y-77061590D01*
X82876891Y-76894643D01*
X82685876Y-76755862D01*
X82475507Y-76648674D01*
X82250952Y-76575711D01*
X82250950Y-76575710D01*
X82250948Y-76575710D01*
X82149705Y-76559674D01*
X82149705Y-77426526D01*
X82130020Y-77493565D01*
X82077216Y-77539320D01*
X82008058Y-77549264D01*
X81993613Y-77546301D01*
X81965533Y-77538777D01*
X81965531Y-77538777D01*
X81833879Y-77538777D01*
X81833876Y-77538777D01*
X81805797Y-77546301D01*
X81735947Y-77544638D01*
X81678085Y-77505475D01*
X81650582Y-77441246D01*
X81649705Y-77426526D01*
X81649705Y-76559674D01*
X81649704Y-76559674D01*
X81548460Y-76575710D01*
X81323899Y-76648675D01*
X81113532Y-76755862D01*
X81004551Y-76835041D01*
X80922518Y-76894643D01*
X80922516Y-76894645D01*
X80922515Y-76894645D01*
X80755573Y-77061587D01*
X80755573Y-77061588D01*
X80755571Y-77061590D01*
X80695969Y-77143623D01*
X80616790Y-77252604D01*
X80509603Y-77462971D01*
X80436638Y-77687532D01*
X80420603Y-77788777D01*
X69167453Y-77788777D01*
X69218354Y-77738028D01*
X69896820Y-77061590D01*
X71318065Y-75644594D01*
X71617823Y-75345731D01*
X72115384Y-75750000D01*
G37*
%TD.AperFunction*%
%TD*%
%TA.AperFunction,Conductor*%
%TO.N,GND*%
G36*
X139443039Y-119519685D02*
G01*
X139488794Y-119572489D01*
X139500000Y-119624000D01*
X139500000Y-148375998D01*
X139480315Y-148443037D01*
X139427511Y-148488792D01*
X139376000Y-148499998D01*
X138000000Y-148499998D01*
X138000000Y-148499999D01*
X133000000Y-148500004D01*
X133000000Y-147800000D01*
X137902527Y-147800000D01*
X137902527Y-143300000D01*
X133000000Y-143300000D01*
X133000000Y-119624000D01*
X133019685Y-119556961D01*
X133072489Y-119511206D01*
X133124000Y-119500000D01*
X139376000Y-119500000D01*
X139443039Y-119519685D01*
G37*
%TD.AperFunction*%
%TD*%
%TA.AperFunction,Conductor*%
%TO.N,GND*%
G36*
X127138539Y-143319685D02*
G01*
X127184294Y-143372489D01*
X127195500Y-143424000D01*
X127195500Y-147800000D01*
X118000000Y-147800000D01*
X118000000Y-143424000D01*
X118019685Y-143356961D01*
X118072489Y-143311206D01*
X118124000Y-143300000D01*
X127071500Y-143300000D01*
X127138539Y-143319685D01*
G37*
%TD.AperFunction*%
%TA.AperFunction,Conductor*%
G36*
X137902527Y-147800000D02*
G01*
X127804500Y-147800000D01*
X127804500Y-143424000D01*
X127824185Y-143356961D01*
X127876989Y-143311206D01*
X127928500Y-143300000D01*
X133000000Y-143300000D01*
X137902527Y-143300000D01*
X137902527Y-147800000D01*
G37*
%TD.AperFunction*%
%TD*%
%TA.AperFunction,Conductor*%
%TO.N,GND*%
G36*
X72088606Y-50259523D02*
G01*
X72103604Y-50263927D01*
X72118594Y-50273557D01*
X72135675Y-50278567D01*
X72162355Y-50301672D01*
X72163542Y-50303041D01*
X72191018Y-50357902D01*
X72192663Y-50365460D01*
X72195500Y-50391831D01*
X72195500Y-53053670D01*
X72190475Y-53088614D01*
X72186070Y-53103612D01*
X72176439Y-53118601D01*
X72171432Y-53135675D01*
X72148327Y-53162355D01*
X72146958Y-53163542D01*
X72092097Y-53191018D01*
X72084539Y-53192663D01*
X72058168Y-53195500D01*
X68959910Y-53195500D01*
X68898234Y-53212026D01*
X68898232Y-53212026D01*
X68882465Y-53216250D01*
X68813038Y-53256334D01*
X68813029Y-53256340D01*
X68813024Y-53256344D01*
X68756344Y-53313024D01*
X68756340Y-53313029D01*
X68756334Y-53313038D01*
X68716252Y-53382463D01*
X68716252Y-53382464D01*
X68716251Y-53382466D01*
X68716251Y-53382467D01*
X68695500Y-53459912D01*
X68695500Y-53540088D01*
X68716251Y-53617533D01*
X68756339Y-53686968D01*
X68813032Y-53743661D01*
X68882467Y-53783749D01*
X68959912Y-53804500D01*
X68959914Y-53804500D01*
X76540087Y-53804500D01*
X76540089Y-53804500D01*
X76617534Y-53783749D01*
X76686969Y-53743661D01*
X76743662Y-53686968D01*
X76783750Y-53617533D01*
X76804501Y-53540088D01*
X76804501Y-53459912D01*
X76783750Y-53382467D01*
X76743662Y-53313032D01*
X76686969Y-53256339D01*
X76617534Y-53216251D01*
X76540089Y-53195500D01*
X76540088Y-53195500D01*
X72946330Y-53195500D01*
X72946325Y-53195499D01*
X72946323Y-53195500D01*
X72911389Y-53190475D01*
X72896390Y-53186070D01*
X72837644Y-53148327D01*
X72837615Y-53148293D01*
X72837614Y-53148293D01*
X72837613Y-53148291D01*
X72836457Y-53146958D01*
X72808977Y-53092083D01*
X72807332Y-53084521D01*
X72804500Y-53058168D01*
X72804500Y-50396329D01*
X72809523Y-50361393D01*
X72813927Y-50346395D01*
X72851672Y-50287644D01*
X72851700Y-50287619D01*
X72851699Y-50287619D01*
X72853041Y-50286456D01*
X72907920Y-50258977D01*
X72915479Y-50257333D01*
X72941832Y-50254500D01*
X82053671Y-50254500D01*
X82088606Y-50259523D01*
X82103604Y-50263927D01*
X82162355Y-50301672D01*
X82162379Y-50301700D01*
X82162382Y-50301702D01*
X82162383Y-50301704D01*
X82163542Y-50303041D01*
X82191018Y-50357902D01*
X82192663Y-50365460D01*
X82195500Y-50391831D01*
X82195500Y-53053670D01*
X82195499Y-53053676D01*
X82195500Y-53053679D01*
X82190475Y-53088614D01*
X82186070Y-53103612D01*
X82148327Y-53162355D01*
X82148292Y-53162385D01*
X82148291Y-53162387D01*
X82148289Y-53162387D01*
X82146958Y-53163542D01*
X82092097Y-53191018D01*
X82084539Y-53192663D01*
X82058168Y-53195500D01*
X78459909Y-53195500D01*
X78398233Y-53212026D01*
X78398231Y-53212026D01*
X78382464Y-53216250D01*
X78313037Y-53256334D01*
X78313028Y-53256340D01*
X78313023Y-53256344D01*
X78256343Y-53313024D01*
X78256339Y-53313029D01*
X78256333Y-53313038D01*
X78216251Y-53382463D01*
X78216251Y-53382464D01*
X78216250Y-53382466D01*
X78216250Y-53382467D01*
X78195499Y-53459912D01*
X78195499Y-53540088D01*
X78216250Y-53617533D01*
X78256338Y-53686968D01*
X78313031Y-53743661D01*
X78382466Y-53783749D01*
X78459911Y-53804500D01*
X78459913Y-53804500D01*
X88540087Y-53804500D01*
X88540089Y-53804500D01*
X88617534Y-53783749D01*
X88686969Y-53743661D01*
X88743662Y-53686968D01*
X88783750Y-53617533D01*
X88804501Y-53540088D01*
X88804501Y-53459912D01*
X88783750Y-53382467D01*
X88743662Y-53313032D01*
X88686969Y-53256339D01*
X88617534Y-53216251D01*
X88540089Y-53195500D01*
X88540088Y-53195500D01*
X82946330Y-53195500D01*
X82946325Y-53195499D01*
X82946323Y-53195500D01*
X82911389Y-53190475D01*
X82896390Y-53186070D01*
X82837644Y-53148327D01*
X82837615Y-53148293D01*
X82837614Y-53148293D01*
X82837613Y-53148291D01*
X82836457Y-53146958D01*
X82808977Y-53092083D01*
X82807332Y-53084521D01*
X82804500Y-53058168D01*
X82804500Y-50396329D01*
X82809523Y-50361393D01*
X82813927Y-50346395D01*
X82851672Y-50287644D01*
X82851700Y-50287619D01*
X82851699Y-50287619D01*
X82853041Y-50286456D01*
X82907920Y-50258977D01*
X82915479Y-50257333D01*
X82941832Y-50254500D01*
X97053671Y-50254500D01*
X97088606Y-50259523D01*
X97103604Y-50263927D01*
X97162355Y-50301672D01*
X97162379Y-50301700D01*
X97162382Y-50301702D01*
X97162383Y-50301704D01*
X97163542Y-50303041D01*
X97191018Y-50357902D01*
X97192663Y-50365460D01*
X97195500Y-50391831D01*
X97195500Y-53053670D01*
X97195499Y-53053676D01*
X97195500Y-53053679D01*
X97190475Y-53088614D01*
X97186070Y-53103612D01*
X97148327Y-53162355D01*
X97148292Y-53162385D01*
X97148291Y-53162387D01*
X97148289Y-53162387D01*
X97146958Y-53163542D01*
X97092097Y-53191018D01*
X97084539Y-53192663D01*
X97058168Y-53195500D01*
X91459910Y-53195500D01*
X91398234Y-53212026D01*
X91398232Y-53212026D01*
X91382465Y-53216250D01*
X91313038Y-53256334D01*
X91313029Y-53256340D01*
X91313024Y-53256344D01*
X91256344Y-53313024D01*
X91256340Y-53313029D01*
X91256334Y-53313038D01*
X91216252Y-53382463D01*
X91216252Y-53382464D01*
X91216251Y-53382466D01*
X91216251Y-53382467D01*
X91195500Y-53459912D01*
X91195500Y-53540088D01*
X91216251Y-53617533D01*
X91256339Y-53686968D01*
X91313032Y-53743661D01*
X91382467Y-53783749D01*
X91459912Y-53804500D01*
X91459914Y-53804500D01*
X101540086Y-53804500D01*
X101540088Y-53804500D01*
X101617533Y-53783749D01*
X101686968Y-53743661D01*
X101743661Y-53686968D01*
X101783749Y-53617533D01*
X101804500Y-53540088D01*
X101804500Y-53459912D01*
X101783749Y-53382467D01*
X101743661Y-53313032D01*
X101686968Y-53256339D01*
X101617533Y-53216251D01*
X101540088Y-53195500D01*
X101540087Y-53195500D01*
X97946330Y-53195500D01*
X97946325Y-53195499D01*
X97946323Y-53195500D01*
X97911389Y-53190475D01*
X97896390Y-53186070D01*
X97837644Y-53148327D01*
X97837615Y-53148293D01*
X97837614Y-53148293D01*
X97837613Y-53148291D01*
X97836457Y-53146958D01*
X97808977Y-53092083D01*
X97807332Y-53084521D01*
X97804500Y-53058168D01*
X97804500Y-50396329D01*
X97809523Y-50361393D01*
X97813927Y-50346395D01*
X97851672Y-50287644D01*
X97851700Y-50287619D01*
X97851699Y-50287619D01*
X97853041Y-50286456D01*
X97907920Y-50258977D01*
X97915479Y-50257333D01*
X97941832Y-50254500D01*
X107053671Y-50254500D01*
X107088606Y-50259523D01*
X107103604Y-50263927D01*
X107162355Y-50301672D01*
X107162379Y-50301700D01*
X107162382Y-50301702D01*
X107162383Y-50301704D01*
X107163542Y-50303041D01*
X107191018Y-50357902D01*
X107192663Y-50365460D01*
X107195500Y-50391831D01*
X107195500Y-53053670D01*
X107195499Y-53053676D01*
X107195500Y-53053679D01*
X107190475Y-53088614D01*
X107186070Y-53103612D01*
X107148327Y-53162355D01*
X107148292Y-53162385D01*
X107148291Y-53162387D01*
X107148289Y-53162387D01*
X107146958Y-53163542D01*
X107092097Y-53191018D01*
X107084539Y-53192663D01*
X107058168Y-53195500D01*
X103459908Y-53195500D01*
X103398232Y-53212026D01*
X103398230Y-53212026D01*
X103382463Y-53216250D01*
X103313036Y-53256334D01*
X103313027Y-53256340D01*
X103313022Y-53256344D01*
X103256342Y-53313024D01*
X103256338Y-53313029D01*
X103256332Y-53313038D01*
X103216250Y-53382463D01*
X103216250Y-53382464D01*
X103216249Y-53382466D01*
X103216249Y-53382467D01*
X103195498Y-53459912D01*
X103195498Y-53540088D01*
X103216249Y-53617533D01*
X103256337Y-53686968D01*
X103313030Y-53743661D01*
X103382465Y-53783749D01*
X103459910Y-53804500D01*
X103459912Y-53804500D01*
X111540086Y-53804500D01*
X111540088Y-53804500D01*
X111617533Y-53783749D01*
X111686968Y-53743661D01*
X111743661Y-53686968D01*
X111783749Y-53617533D01*
X111804500Y-53540088D01*
X111804500Y-53459912D01*
X111783749Y-53382467D01*
X111743661Y-53313032D01*
X111686968Y-53256339D01*
X111617533Y-53216251D01*
X111540088Y-53195500D01*
X111540087Y-53195500D01*
X107946330Y-53195500D01*
X107946325Y-53195499D01*
X107946323Y-53195500D01*
X107911389Y-53190475D01*
X107896390Y-53186070D01*
X107837644Y-53148327D01*
X107837615Y-53148293D01*
X107837614Y-53148293D01*
X107837613Y-53148291D01*
X107836457Y-53146958D01*
X107808977Y-53092083D01*
X107807332Y-53084521D01*
X107804500Y-53058168D01*
X107804500Y-50396329D01*
X107809523Y-50361393D01*
X107813927Y-50346395D01*
X107851672Y-50287644D01*
X107851700Y-50287619D01*
X107851699Y-50287619D01*
X107853041Y-50286456D01*
X107907920Y-50258977D01*
X107915479Y-50257333D01*
X107941832Y-50254500D01*
X117053671Y-50254500D01*
X117088606Y-50259523D01*
X117103604Y-50263927D01*
X117162355Y-50301672D01*
X117162379Y-50301700D01*
X117162382Y-50301702D01*
X117162383Y-50301704D01*
X117163542Y-50303041D01*
X117191018Y-50357902D01*
X117192663Y-50365460D01*
X117195500Y-50391831D01*
X117195500Y-53053670D01*
X117195499Y-53053676D01*
X117195500Y-53053679D01*
X117190475Y-53088614D01*
X117186070Y-53103612D01*
X117148327Y-53162355D01*
X117148292Y-53162385D01*
X117148291Y-53162387D01*
X117148289Y-53162387D01*
X117146958Y-53163542D01*
X117092097Y-53191018D01*
X117084539Y-53192663D01*
X117058168Y-53195500D01*
X113459908Y-53195500D01*
X113398232Y-53212026D01*
X113398230Y-53212026D01*
X113382463Y-53216250D01*
X113313036Y-53256334D01*
X113313027Y-53256340D01*
X113313022Y-53256344D01*
X113256342Y-53313024D01*
X113256338Y-53313029D01*
X113256332Y-53313038D01*
X113216250Y-53382463D01*
X113216250Y-53382464D01*
X113216249Y-53382466D01*
X113216249Y-53382467D01*
X113195498Y-53459912D01*
X113195498Y-53540088D01*
X113216249Y-53617533D01*
X113256337Y-53686968D01*
X113313030Y-53743661D01*
X113382465Y-53783749D01*
X113459910Y-53804500D01*
X113459912Y-53804500D01*
X121540086Y-53804500D01*
X121540088Y-53804500D01*
X121617533Y-53783749D01*
X121686968Y-53743661D01*
X121743661Y-53686968D01*
X121783749Y-53617533D01*
X121804500Y-53540088D01*
X121804500Y-53459912D01*
X121783749Y-53382467D01*
X121743661Y-53313032D01*
X121686968Y-53256339D01*
X121617533Y-53216251D01*
X121540088Y-53195500D01*
X121540087Y-53195500D01*
X117946330Y-53195500D01*
X117946325Y-53195499D01*
X117946323Y-53195500D01*
X117911389Y-53190475D01*
X117896390Y-53186070D01*
X117837644Y-53148327D01*
X117837615Y-53148293D01*
X117837614Y-53148293D01*
X117837613Y-53148291D01*
X117836457Y-53146958D01*
X117808977Y-53092083D01*
X117807332Y-53084521D01*
X117804500Y-53058168D01*
X117804500Y-50396329D01*
X117809523Y-50361393D01*
X117813927Y-50346395D01*
X117851672Y-50287644D01*
X117851700Y-50287619D01*
X117851699Y-50287619D01*
X117853041Y-50286456D01*
X117907920Y-50258977D01*
X117915479Y-50257333D01*
X117941832Y-50254500D01*
X127053671Y-50254500D01*
X127088606Y-50259523D01*
X127103604Y-50263927D01*
X127162355Y-50301672D01*
X127162379Y-50301700D01*
X127162382Y-50301702D01*
X127162383Y-50301704D01*
X127163542Y-50303041D01*
X127191018Y-50357902D01*
X127192663Y-50365460D01*
X127195500Y-50391831D01*
X127195500Y-53053670D01*
X127195499Y-53053676D01*
X127195500Y-53053679D01*
X127190475Y-53088614D01*
X127186070Y-53103612D01*
X127148327Y-53162355D01*
X127148292Y-53162385D01*
X127148291Y-53162387D01*
X127148289Y-53162387D01*
X127146958Y-53163542D01*
X127092097Y-53191018D01*
X127084539Y-53192663D01*
X127058168Y-53195500D01*
X123459908Y-53195500D01*
X123398232Y-53212026D01*
X123398230Y-53212026D01*
X123382463Y-53216250D01*
X123313036Y-53256334D01*
X123313027Y-53256340D01*
X123313022Y-53256344D01*
X123256342Y-53313024D01*
X123256338Y-53313029D01*
X123256332Y-53313038D01*
X123216250Y-53382463D01*
X123216250Y-53382464D01*
X123216249Y-53382466D01*
X123216249Y-53382467D01*
X123195498Y-53459912D01*
X123195498Y-53540088D01*
X123216249Y-53617533D01*
X123256337Y-53686968D01*
X123313030Y-53743661D01*
X123382465Y-53783749D01*
X123459910Y-53804500D01*
X123459912Y-53804500D01*
X131540086Y-53804500D01*
X131540088Y-53804500D01*
X131617533Y-53783749D01*
X131686968Y-53743661D01*
X131743661Y-53686968D01*
X131783749Y-53617533D01*
X131804500Y-53540088D01*
X131804500Y-53459912D01*
X131783749Y-53382467D01*
X131743661Y-53313032D01*
X131686968Y-53256339D01*
X131617533Y-53216251D01*
X131540088Y-53195500D01*
X131540087Y-53195500D01*
X127946330Y-53195500D01*
X127946325Y-53195499D01*
X127946323Y-53195500D01*
X127911389Y-53190475D01*
X127896390Y-53186070D01*
X127837644Y-53148327D01*
X127837615Y-53148293D01*
X127837614Y-53148293D01*
X127837613Y-53148291D01*
X127836457Y-53146958D01*
X127808977Y-53092083D01*
X127807332Y-53084521D01*
X127804500Y-53058168D01*
X127804500Y-50396329D01*
X127809523Y-50361393D01*
X127813927Y-50346395D01*
X127851672Y-50287644D01*
X127851700Y-50287619D01*
X127851699Y-50287619D01*
X127853041Y-50286456D01*
X127907920Y-50258977D01*
X127915479Y-50257333D01*
X127941832Y-50254500D01*
X136858171Y-50254500D01*
X136893106Y-50259523D01*
X136908104Y-50263927D01*
X136966855Y-50301672D01*
X136966879Y-50301700D01*
X136966882Y-50301702D01*
X136966883Y-50301704D01*
X136968042Y-50303041D01*
X136995518Y-50357902D01*
X136997163Y-50365460D01*
X137000000Y-50391831D01*
X137000000Y-53053670D01*
X136999999Y-53053676D01*
X137000000Y-53053679D01*
X136994975Y-53088614D01*
X136990570Y-53103612D01*
X136952827Y-53162355D01*
X136952792Y-53162385D01*
X136952791Y-53162387D01*
X136952789Y-53162387D01*
X136951458Y-53163542D01*
X136896597Y-53191018D01*
X136889039Y-53192663D01*
X136862668Y-53195500D01*
X133459908Y-53195500D01*
X133398232Y-53212026D01*
X133398230Y-53212026D01*
X133382463Y-53216250D01*
X133313036Y-53256334D01*
X133313027Y-53256340D01*
X133313022Y-53256344D01*
X133256342Y-53313024D01*
X133256338Y-53313029D01*
X133256332Y-53313038D01*
X133216250Y-53382463D01*
X133216250Y-53382464D01*
X133216249Y-53382466D01*
X133216249Y-53382467D01*
X133195498Y-53459912D01*
X133195498Y-53540088D01*
X133216249Y-53617533D01*
X133256337Y-53686968D01*
X133313030Y-53743661D01*
X133382465Y-53783749D01*
X133459910Y-53804500D01*
X133459912Y-53804500D01*
X136858171Y-53804500D01*
X136893106Y-53809523D01*
X136908104Y-53813927D01*
X136966855Y-53851672D01*
X136966879Y-53851700D01*
X136966882Y-53851702D01*
X136966883Y-53851704D01*
X136968042Y-53853041D01*
X136995518Y-53907902D01*
X136997163Y-53915460D01*
X137000000Y-53941831D01*
X137000000Y-59430808D01*
X136999999Y-59430810D01*
X137000000Y-59430811D01*
X136994976Y-59465745D01*
X136987564Y-59490986D01*
X136956269Y-59543730D01*
X135048926Y-61451072D01*
X135020672Y-61472223D01*
X134997584Y-61484830D01*
X134938156Y-61499998D01*
X109267572Y-61499802D01*
X109267359Y-61499802D01*
X109267358Y-61499802D01*
X109267357Y-61499802D01*
X109267356Y-61499802D01*
X109267353Y-61499803D01*
X109267150Y-61500006D01*
X105539194Y-65191766D01*
X105539193Y-65191769D01*
X105510835Y-65212782D01*
X105487538Y-65225356D01*
X105428978Y-65240235D01*
X96499998Y-65264341D01*
X94470838Y-67316773D01*
X94517615Y-75520471D01*
X94498313Y-75587622D01*
X94445771Y-75633677D01*
X94394200Y-75645177D01*
X72159735Y-75749791D01*
X72092604Y-75730422D01*
X72080959Y-75722030D01*
X71832886Y-75520471D01*
X69124163Y-73319633D01*
X68521563Y-72830020D01*
X68406572Y-72736590D01*
X76374078Y-72736590D01*
X76374078Y-72912037D01*
X76414537Y-73082742D01*
X76414537Y-73082743D01*
X76414538Y-73082744D01*
X76493277Y-73239526D01*
X76493281Y-73239532D01*
X76558523Y-73319621D01*
X76558533Y-73319633D01*
X76558535Y-73319635D01*
X76558545Y-73319646D01*
X77689919Y-74451017D01*
X77690658Y-74451658D01*
X77691847Y-74452588D01*
X77770016Y-74516267D01*
X77770018Y-74516268D01*
X77770024Y-74516273D01*
X77770026Y-74516274D01*
X77926701Y-74594959D01*
X77926809Y-74595013D01*
X78069336Y-74628793D01*
X78069358Y-74628797D01*
X78097518Y-74635472D01*
X78097521Y-74635472D01*
X78272957Y-74635472D01*
X78272960Y-74635472D01*
X78443672Y-74595011D01*
X78600454Y-74516273D01*
X78680561Y-74451017D01*
X79811943Y-73319633D01*
X79877201Y-73239526D01*
X79955939Y-73082744D01*
X79996400Y-72912032D01*
X79996400Y-72736590D01*
X79996398Y-72736582D01*
X79970459Y-72627141D01*
X79970459Y-72627140D01*
X79955939Y-72565877D01*
X79877200Y-72409095D01*
X79877196Y-72409089D01*
X79877194Y-72409086D01*
X79812257Y-72329371D01*
X79812255Y-72329369D01*
X79811947Y-72328991D01*
X78680572Y-71197617D01*
X78680563Y-71197609D01*
X78680561Y-71197607D01*
X78680553Y-71197600D01*
X78680547Y-71197595D01*
X78649733Y-71172492D01*
X78605966Y-71136838D01*
X78605939Y-71136817D01*
X78600461Y-71132354D01*
X78600455Y-71132350D01*
X78600454Y-71132349D01*
X78577233Y-71120687D01*
X78521711Y-71092802D01*
X78521711Y-71092803D01*
X78443670Y-71053609D01*
X78414138Y-71046610D01*
X78272967Y-71013151D01*
X78272962Y-71013150D01*
X78272960Y-71013150D01*
X78272958Y-71013150D01*
X78097515Y-71013150D01*
X78097507Y-71013151D01*
X77926806Y-71053609D01*
X77848767Y-71092802D01*
X77770023Y-71132349D01*
X77770017Y-71132353D01*
X77726681Y-71167655D01*
X77689913Y-71197607D01*
X76558544Y-72328978D01*
X76558520Y-72329004D01*
X76493279Y-72409090D01*
X76493278Y-72409092D01*
X76414538Y-72565875D01*
X76414537Y-72565880D01*
X76374079Y-72736582D01*
X76374079Y-72736584D01*
X76374078Y-72736590D01*
X68406572Y-72736590D01*
X66512444Y-71197611D01*
X66512442Y-71197609D01*
X64541408Y-69596143D01*
X64541377Y-69596119D01*
X63855418Y-69038777D01*
X73170603Y-69038777D01*
X74037455Y-69038777D01*
X74104494Y-69058462D01*
X74150249Y-69111266D01*
X74160193Y-69180424D01*
X74157229Y-69194872D01*
X74149705Y-69222948D01*
X74149705Y-69354605D01*
X74157229Y-69382682D01*
X74155568Y-69452532D01*
X74116406Y-69510395D01*
X74052178Y-69537900D01*
X74037455Y-69538777D01*
X73170603Y-69538777D01*
X73186639Y-69640024D01*
X73259602Y-69864579D01*
X73366790Y-70074948D01*
X73505571Y-70265963D01*
X73672518Y-70432910D01*
X73863533Y-70571691D01*
X74073900Y-70678879D01*
X74298056Y-70751712D01*
X74298432Y-70751836D01*
X74298455Y-70751842D01*
X74399705Y-70767878D01*
X74399705Y-69901027D01*
X74419390Y-69833988D01*
X74472194Y-69788233D01*
X74541352Y-69778289D01*
X74555798Y-69781252D01*
X74583879Y-69788777D01*
X74715530Y-69788777D01*
X74715531Y-69788777D01*
X74743610Y-69781253D01*
X74813460Y-69782914D01*
X74871323Y-69822076D01*
X74898828Y-69886304D01*
X74899705Y-69901027D01*
X74899705Y-70767876D01*
X74899705Y-70767877D01*
X75000954Y-70751842D01*
X75000959Y-70751840D01*
X75000961Y-70751840D01*
X75001120Y-70751787D01*
X75225509Y-70678879D01*
X75435876Y-70571691D01*
X75626891Y-70432910D01*
X75793838Y-70265963D01*
X75932619Y-70074948D01*
X76039807Y-69864579D01*
X76112770Y-69640024D01*
X76128807Y-69538777D01*
X76128806Y-69538777D01*
X75261955Y-69538777D01*
X75194916Y-69519092D01*
X75149161Y-69466288D01*
X75138435Y-69403874D01*
X75139384Y-69393119D01*
X75149705Y-69354603D01*
X75149705Y-69286538D01*
X86599500Y-69286538D01*
X86599500Y-69538461D01*
X86615585Y-69640020D01*
X86638910Y-69787286D01*
X86638910Y-69787289D01*
X86702172Y-69981986D01*
X86716760Y-70026883D01*
X86831132Y-70251348D01*
X86979201Y-70455149D01*
X86979205Y-70455154D01*
X86979210Y-70455160D01*
X87157338Y-70633288D01*
X87157342Y-70633291D01*
X87157345Y-70633294D01*
X87157350Y-70633298D01*
X87320510Y-70751840D01*
X87361155Y-70781370D01*
X87504184Y-70854247D01*
X87504183Y-70854247D01*
X87540752Y-70872879D01*
X87582775Y-70894291D01*
X87586488Y-70896184D01*
X87590243Y-70897243D01*
X87800780Y-70965650D01*
X87825215Y-70973590D01*
X88074038Y-71013000D01*
X88074039Y-71013000D01*
X88325961Y-71013000D01*
X88325962Y-71013000D01*
X88574785Y-70973590D01*
X88814379Y-70895741D01*
X89038845Y-70781370D01*
X89242656Y-70633293D01*
X89420793Y-70455156D01*
X89568870Y-70251345D01*
X89683241Y-70026879D01*
X89761090Y-69787285D01*
X89800500Y-69538462D01*
X89800500Y-69286538D01*
X89761090Y-69037715D01*
X89683241Y-68798121D01*
X89683239Y-68798118D01*
X89683239Y-68798116D01*
X89681010Y-68793743D01*
X89680698Y-68792941D01*
X89679957Y-68791675D01*
X89639856Y-68712974D01*
X89568870Y-68573655D01*
X89462422Y-68427141D01*
X89420798Y-68369850D01*
X89420794Y-68369845D01*
X89420791Y-68369842D01*
X89420788Y-68369838D01*
X89242660Y-68191710D01*
X89242655Y-68191706D01*
X89242654Y-68191705D01*
X89242649Y-68191701D01*
X89038848Y-68043632D01*
X89038847Y-68043631D01*
X89038845Y-68043630D01*
X88939384Y-67992952D01*
X88814383Y-67929260D01*
X88814380Y-67929259D01*
X88574787Y-67851410D01*
X88412529Y-67825711D01*
X88412523Y-67825710D01*
X88325962Y-67812000D01*
X88325961Y-67812000D01*
X88074039Y-67812000D01*
X88074038Y-67812000D01*
X87987477Y-67825710D01*
X87987471Y-67825711D01*
X87825212Y-67851410D01*
X87825209Y-67851410D01*
X87585619Y-67929259D01*
X87585616Y-67929260D01*
X87460615Y-67992952D01*
X87361147Y-68043634D01*
X87157367Y-68191688D01*
X87157338Y-68191710D01*
X86979210Y-68369838D01*
X86979188Y-68369867D01*
X86831134Y-68573647D01*
X86831132Y-68573651D01*
X86716760Y-68798116D01*
X86716759Y-68798118D01*
X86716759Y-68798119D01*
X86638910Y-69037709D01*
X86638910Y-69037712D01*
X86609572Y-69222948D01*
X86599500Y-69286538D01*
X75149705Y-69286538D01*
X75149705Y-69222951D01*
X75139553Y-69185065D01*
X75138556Y-69174973D01*
X75143242Y-69150214D01*
X75143842Y-69125022D01*
X75149631Y-69116468D01*
X75151552Y-69106322D01*
X75168878Y-69088029D01*
X75183004Y-69067159D01*
X75192498Y-69063092D01*
X75199600Y-69055596D01*
X75224064Y-69049575D01*
X75247232Y-69039654D01*
X75261955Y-69038777D01*
X76128807Y-69038777D01*
X76112770Y-68937529D01*
X76039807Y-68712974D01*
X75932619Y-68502605D01*
X75793838Y-68311590D01*
X75626891Y-68144643D01*
X75435876Y-68005862D01*
X75225507Y-67898674D01*
X75000952Y-67825711D01*
X75000950Y-67825710D01*
X75000948Y-67825710D01*
X74899705Y-67809674D01*
X74899705Y-68676526D01*
X74880020Y-68743565D01*
X74827216Y-68789320D01*
X74758058Y-68799264D01*
X74743613Y-68796301D01*
X74715533Y-68788777D01*
X74715531Y-68788777D01*
X74583879Y-68788777D01*
X74583876Y-68788777D01*
X74555797Y-68796301D01*
X74485947Y-68794638D01*
X74428085Y-68755475D01*
X74400582Y-68691246D01*
X74399705Y-68676526D01*
X74399705Y-67809674D01*
X74399704Y-67809674D01*
X74298460Y-67825710D01*
X74073899Y-67898675D01*
X73863532Y-68005862D01*
X73754551Y-68085041D01*
X73672518Y-68144643D01*
X73672516Y-68144645D01*
X73672515Y-68144645D01*
X73505573Y-68311587D01*
X73505573Y-68311588D01*
X73505571Y-68311590D01*
X73463230Y-68369867D01*
X73366790Y-68502604D01*
X73259603Y-68712971D01*
X73186638Y-68937532D01*
X73170603Y-69038777D01*
X63855418Y-69038777D01*
X63059638Y-68392206D01*
X63035700Y-68366287D01*
X63022067Y-68346481D01*
X63001753Y-68295690D01*
X63001544Y-68294386D01*
X63000459Y-68280683D01*
X63000269Y-68280102D01*
X63000380Y-68279674D01*
X63000000Y-68274874D01*
X63000000Y-61110142D01*
X85699500Y-61110142D01*
X85699500Y-61314856D01*
X85731521Y-61517030D01*
X85794780Y-61711721D01*
X85794786Y-61711734D01*
X85887708Y-61894101D01*
X85887709Y-61894102D01*
X85887715Y-61894113D01*
X86008028Y-62059713D01*
X86152786Y-62204471D01*
X86318388Y-62324786D01*
X86355944Y-62343922D01*
X86381483Y-62361926D01*
X86384787Y-62364255D01*
X86394201Y-62373146D01*
X86429424Y-62433488D01*
X86426432Y-62503294D01*
X86390263Y-62557009D01*
X86383259Y-62563078D01*
X86358353Y-62579849D01*
X86318392Y-62600210D01*
X86152783Y-62720530D01*
X86008029Y-62865284D01*
X86008027Y-62865287D01*
X85887715Y-63030885D01*
X85887708Y-63030897D01*
X85794786Y-63213264D01*
X85794780Y-63213277D01*
X85731521Y-63407968D01*
X85699500Y-63610142D01*
X85699500Y-63814856D01*
X85731521Y-64017030D01*
X85794780Y-64211721D01*
X85794786Y-64211734D01*
X85887708Y-64394101D01*
X85887709Y-64394102D01*
X85887715Y-64394113D01*
X86008014Y-64559694D01*
X86008027Y-64559711D01*
X86008029Y-64559714D01*
X86140799Y-64692484D01*
X86156951Y-64712381D01*
X86167317Y-64728260D01*
X86187481Y-64795157D01*
X86168276Y-64862336D01*
X86120366Y-64906227D01*
X86110429Y-64911357D01*
X86096119Y-64917177D01*
X86096257Y-64917546D01*
X85957910Y-64969146D01*
X85957907Y-64969148D01*
X85842813Y-65055307D01*
X85842807Y-65055313D01*
X85756648Y-65170407D01*
X85756646Y-65170410D01*
X85706402Y-65305121D01*
X85706400Y-65305128D01*
X85700000Y-65364646D01*
X85700000Y-65364655D01*
X85700000Y-65962500D01*
X86439513Y-65962500D01*
X86506552Y-65982185D01*
X86552307Y-66034989D01*
X86562251Y-66104147D01*
X86559288Y-66118593D01*
X86550000Y-66153256D01*
X86550000Y-66271743D01*
X86559288Y-66306407D01*
X86557625Y-66376257D01*
X86518462Y-66434119D01*
X86454233Y-66461623D01*
X86439513Y-66462500D01*
X85700000Y-66462500D01*
X85700000Y-67060352D01*
X85706400Y-67119870D01*
X85706402Y-67119877D01*
X85756646Y-67254588D01*
X85756648Y-67254591D01*
X85842807Y-67369685D01*
X85842809Y-67369687D01*
X85842812Y-67369690D01*
X85957906Y-67455850D01*
X85957913Y-67455854D01*
X86092620Y-67506096D01*
X86092627Y-67506098D01*
X86099468Y-67506833D01*
X86152138Y-67512498D01*
X86152155Y-67512499D01*
X86152172Y-67512500D01*
X86750000Y-67512500D01*
X86750000Y-66772986D01*
X86769685Y-66705947D01*
X86822489Y-66660192D01*
X86891647Y-66650248D01*
X86906086Y-66653210D01*
X86940756Y-66662500D01*
X87059242Y-66662500D01*
X87059244Y-66662500D01*
X87093906Y-66653212D01*
X87163755Y-66654873D01*
X87221618Y-66694035D01*
X87249123Y-66758263D01*
X87250000Y-66772986D01*
X87250000Y-67512500D01*
X87847828Y-67512500D01*
X87847836Y-67512500D01*
X87847847Y-67512499D01*
X87883560Y-67508658D01*
X87907372Y-67506098D01*
X87907379Y-67506096D01*
X88042086Y-67455854D01*
X88042093Y-67455850D01*
X88157187Y-67369690D01*
X88157190Y-67369687D01*
X88243350Y-67254593D01*
X88243354Y-67254586D01*
X88293596Y-67119879D01*
X88293598Y-67119872D01*
X88295069Y-67106189D01*
X88299998Y-67060360D01*
X88300000Y-67060327D01*
X88300000Y-66462500D01*
X87560487Y-66462500D01*
X87493448Y-66442815D01*
X87447693Y-66390011D01*
X87437749Y-66320853D01*
X87440712Y-66306407D01*
X87450000Y-66271744D01*
X87450000Y-66153256D01*
X87440712Y-66118592D01*
X87442375Y-66048743D01*
X87481538Y-65990881D01*
X87545767Y-65963377D01*
X87560487Y-65962500D01*
X88300000Y-65962500D01*
X88300000Y-65364672D01*
X88299998Y-65364638D01*
X88293598Y-65305128D01*
X88293596Y-65305121D01*
X88293596Y-65305120D01*
X88243354Y-65170413D01*
X88243350Y-65170406D01*
X88157190Y-65055312D01*
X88157187Y-65055309D01*
X88157185Y-65055307D01*
X88099317Y-65011987D01*
X88042093Y-64969149D01*
X88042090Y-64969147D01*
X88042088Y-64969146D01*
X88042086Y-64969145D01*
X87907375Y-64918901D01*
X87906732Y-64918661D01*
X87888713Y-64910236D01*
X87874795Y-64902311D01*
X87826282Y-64852033D01*
X87812652Y-64783506D01*
X87835205Y-64722557D01*
X87844345Y-64709742D01*
X87857603Y-64694081D01*
X87991153Y-64560531D01*
X87991928Y-64559771D01*
X87991985Y-64559694D01*
X88044730Y-64487093D01*
X88044732Y-64487091D01*
X88068172Y-64454827D01*
X88112287Y-64394110D01*
X88205220Y-64211719D01*
X88268477Y-64017034D01*
X88300500Y-63814852D01*
X88300500Y-63610148D01*
X88268477Y-63407966D01*
X88268476Y-63407962D01*
X88268476Y-63407961D01*
X88207833Y-63221323D01*
X88205220Y-63213281D01*
X88205218Y-63213278D01*
X88205218Y-63213276D01*
X88202977Y-63208878D01*
X88202667Y-63208083D01*
X88201932Y-63206827D01*
X88171503Y-63147107D01*
X88112287Y-63030890D01*
X88104556Y-63020249D01*
X87991971Y-62865286D01*
X87847213Y-62720528D01*
X87847211Y-62720526D01*
X87692217Y-62607919D01*
X87692215Y-62607918D01*
X87681613Y-62600215D01*
X87681612Y-62600214D01*
X87681610Y-62600213D01*
X87675493Y-62597096D01*
X87675485Y-62597091D01*
X87644058Y-62581079D01*
X87615206Y-62560739D01*
X87605792Y-62551847D01*
X87570572Y-62491503D01*
X87573568Y-62421698D01*
X87609728Y-62367996D01*
X87616740Y-62361920D01*
X87641639Y-62345152D01*
X87681610Y-62324787D01*
X87774590Y-62257232D01*
X87847213Y-62204471D01*
X87847213Y-62204469D01*
X87847272Y-62204427D01*
X87848031Y-62203653D01*
X87991966Y-62059719D01*
X87991968Y-62059715D01*
X87991971Y-62059713D01*
X88044730Y-61987093D01*
X88044732Y-61987091D01*
X88068172Y-61954827D01*
X88112287Y-61894110D01*
X88205220Y-61711719D01*
X88268477Y-61517034D01*
X88300500Y-61314852D01*
X88300500Y-61110148D01*
X88268477Y-60907966D01*
X88268476Y-60907962D01*
X88268476Y-60907961D01*
X88207833Y-60721323D01*
X88205220Y-60713281D01*
X88205218Y-60713278D01*
X88205218Y-60713276D01*
X88202977Y-60708878D01*
X88202667Y-60708083D01*
X88201932Y-60706827D01*
X88171503Y-60647107D01*
X88112287Y-60530890D01*
X88104556Y-60520249D01*
X87991971Y-60365286D01*
X87847213Y-60220528D01*
X87847212Y-60220527D01*
X87847211Y-60220526D01*
X87692209Y-60107913D01*
X87692205Y-60107910D01*
X87681613Y-60100215D01*
X87681612Y-60100214D01*
X87681610Y-60100213D01*
X87653171Y-60085722D01*
X87624654Y-60071191D01*
X87624653Y-60071191D01*
X87499223Y-60007281D01*
X87304534Y-59944022D01*
X87304532Y-59944021D01*
X87304530Y-59944021D01*
X87304529Y-59944020D01*
X87129995Y-59916378D01*
X87113409Y-59913751D01*
X87102354Y-59912000D01*
X87102352Y-59912000D01*
X86897648Y-59912000D01*
X86897647Y-59912000D01*
X86873327Y-59915851D01*
X86873326Y-59915850D01*
X86695468Y-59944021D01*
X86500777Y-60007280D01*
X86500764Y-60007286D01*
X86318397Y-60100208D01*
X86318385Y-60100215D01*
X86152787Y-60220527D01*
X86152784Y-60220529D01*
X86008029Y-60365284D01*
X86008027Y-60365287D01*
X85887715Y-60530885D01*
X85887708Y-60530897D01*
X85794786Y-60713264D01*
X85794780Y-60713277D01*
X85731521Y-60907968D01*
X85699500Y-61110142D01*
X63000000Y-61110142D01*
X63000000Y-57986538D01*
X83199500Y-57986538D01*
X83199500Y-58238460D01*
X83238910Y-58487286D01*
X83238910Y-58487289D01*
X83302172Y-58681986D01*
X83316760Y-58726883D01*
X83431132Y-58951348D01*
X83579201Y-59155149D01*
X83579205Y-59155154D01*
X83579210Y-59155160D01*
X83757338Y-59333288D01*
X83757342Y-59333291D01*
X83757345Y-59333294D01*
X83757350Y-59333298D01*
X83916103Y-59448638D01*
X83961155Y-59481370D01*
X84068999Y-59536319D01*
X84179172Y-59592456D01*
X84180767Y-59593389D01*
X84184472Y-59595184D01*
X84186476Y-59596180D01*
X84190234Y-59597240D01*
X84425215Y-59673590D01*
X84674038Y-59713000D01*
X84674039Y-59713000D01*
X84925961Y-59713000D01*
X84925962Y-59713000D01*
X85174785Y-59673590D01*
X85414379Y-59595741D01*
X85638845Y-59481370D01*
X85842656Y-59333293D01*
X86020793Y-59155156D01*
X86168870Y-58951345D01*
X86283241Y-58726879D01*
X86361090Y-58487285D01*
X86400500Y-58238462D01*
X86400500Y-57986538D01*
X86361090Y-57737715D01*
X86283241Y-57498121D01*
X86283239Y-57498118D01*
X86283239Y-57498116D01*
X86281011Y-57493744D01*
X86280697Y-57492938D01*
X86279951Y-57491663D01*
X86253863Y-57440464D01*
X86253862Y-57440463D01*
X86240611Y-57414456D01*
X86168870Y-57273655D01*
X86168868Y-57273652D01*
X86168867Y-57273650D01*
X86078387Y-57149115D01*
X86020802Y-57069855D01*
X86020797Y-57069848D01*
X86020795Y-57069846D01*
X86020786Y-57069836D01*
X85842660Y-56891710D01*
X85842655Y-56891706D01*
X85842654Y-56891705D01*
X85842649Y-56891701D01*
X85638848Y-56743632D01*
X85638847Y-56743631D01*
X85638845Y-56743630D01*
X85568747Y-56707913D01*
X85414383Y-56629260D01*
X85349833Y-56608286D01*
X85174791Y-56551411D01*
X85174785Y-56551410D01*
X85174507Y-56551366D01*
X84925962Y-56512000D01*
X84925961Y-56512000D01*
X84674039Y-56512000D01*
X84674038Y-56512000D01*
X84591096Y-56525136D01*
X84425212Y-56551410D01*
X84425209Y-56551410D01*
X84215740Y-56619472D01*
X84185616Y-56629260D01*
X84031253Y-56707913D01*
X83961147Y-56743634D01*
X83757367Y-56891688D01*
X83757338Y-56891710D01*
X83579210Y-57069838D01*
X83579188Y-57069867D01*
X83431134Y-57273647D01*
X83431132Y-57273651D01*
X83316760Y-57498116D01*
X83316759Y-57498118D01*
X83316759Y-57498119D01*
X83238910Y-57737709D01*
X83238910Y-57737712D01*
X83199500Y-57986538D01*
X63000000Y-57986538D01*
X63000000Y-55052148D01*
X96600000Y-55052148D01*
X96600000Y-56947850D01*
X96606400Y-57007367D01*
X96606403Y-57007379D01*
X96615275Y-57031169D01*
X96615276Y-57031170D01*
X97426900Y-56219544D01*
X97488221Y-56186061D01*
X97557912Y-56191045D01*
X97613846Y-56232916D01*
X97621965Y-56245225D01*
X97621968Y-56245230D01*
X97639910Y-56276306D01*
X97723694Y-56360090D01*
X97754771Y-56378032D01*
X97802985Y-56428598D01*
X97816209Y-56497205D01*
X97790241Y-56562069D01*
X97780451Y-56573099D01*
X96968828Y-57384721D01*
X96968828Y-57384722D01*
X96992606Y-57393591D01*
X96992610Y-57393592D01*
X96992623Y-57393597D01*
X96992627Y-57393598D01*
X97010393Y-57395508D01*
X97052141Y-57399998D01*
X97052152Y-57399998D01*
X97052155Y-57399999D01*
X97052172Y-57400000D01*
X98947828Y-57400000D01*
X98947836Y-57400000D01*
X98947847Y-57399999D01*
X98965703Y-57398078D01*
X99007375Y-57393598D01*
X99031170Y-57384723D01*
X99031170Y-57384722D01*
X98219546Y-56573099D01*
X98186062Y-56511777D01*
X98191046Y-56442086D01*
X98232918Y-56386152D01*
X98245225Y-56378034D01*
X98276306Y-56360090D01*
X98360090Y-56276306D01*
X98378035Y-56245225D01*
X98428596Y-56197014D01*
X98497203Y-56183790D01*
X98562068Y-56209757D01*
X98573099Y-56219548D01*
X99384720Y-57031169D01*
X99384720Y-57031168D01*
X99384722Y-57031170D01*
X99398567Y-57028158D01*
X99398568Y-57028156D01*
X99410663Y-57020383D01*
X99417181Y-57011680D01*
X99433874Y-57005455D01*
X99448138Y-56994777D01*
X99465932Y-56993503D01*
X99482648Y-56987271D01*
X99517805Y-56989789D01*
X99517824Y-56989788D01*
X99522337Y-56990769D01*
X99583645Y-57024252D01*
X99583656Y-57024263D01*
X99627628Y-57068236D01*
X99627636Y-57068243D01*
X99627660Y-57068261D01*
X99748810Y-57156281D01*
X99748812Y-57156282D01*
X99748815Y-57156284D01*
X99805978Y-57197815D01*
X99877844Y-57234433D01*
X99896149Y-57243760D01*
X99934375Y-57263237D01*
X100002393Y-57297895D01*
X100002396Y-57297896D01*
X100107221Y-57331955D01*
X100212049Y-57366015D01*
X100429778Y-57400500D01*
X100429779Y-57400500D01*
X100650221Y-57400500D01*
X100650222Y-57400500D01*
X100867951Y-57366015D01*
X101077606Y-57297895D01*
X101202154Y-57234434D01*
X101202157Y-57234433D01*
X101274020Y-57197816D01*
X101274019Y-57197816D01*
X101274022Y-57197815D01*
X101274028Y-57197810D01*
X101274286Y-57197679D01*
X101274286Y-57197678D01*
X101274292Y-57197676D01*
X101322105Y-57173313D01*
X101337515Y-57151782D01*
X101341019Y-57149138D01*
X101452365Y-57068242D01*
X101608242Y-56912365D01*
X101737815Y-56734022D01*
X101837895Y-56537606D01*
X101906015Y-56327951D01*
X101940500Y-56110222D01*
X101940500Y-55889778D01*
X101906015Y-55672049D01*
X101870894Y-55563956D01*
X101866088Y-55549164D01*
X101837904Y-55462419D01*
X101837897Y-55462400D01*
X101837897Y-55462399D01*
X101837896Y-55462398D01*
X101837896Y-55462396D01*
X101837895Y-55462393D01*
X101737815Y-55265978D01*
X101701825Y-55216441D01*
X101633016Y-55121732D01*
X101633016Y-55121733D01*
X101630159Y-55117802D01*
X101630159Y-55117800D01*
X101630153Y-55117792D01*
X101630152Y-55117791D01*
X101608246Y-55087640D01*
X101608245Y-55087639D01*
X101608243Y-55087636D01*
X101572755Y-55052148D01*
X103600000Y-55052148D01*
X103600000Y-56947850D01*
X103606400Y-57007367D01*
X103606403Y-57007379D01*
X103615275Y-57031169D01*
X103615276Y-57031170D01*
X104426900Y-56219544D01*
X104488221Y-56186061D01*
X104557912Y-56191045D01*
X104613846Y-56232916D01*
X104621965Y-56245225D01*
X104621968Y-56245230D01*
X104639910Y-56276306D01*
X104723694Y-56360090D01*
X104754771Y-56378032D01*
X104802985Y-56428598D01*
X104816209Y-56497205D01*
X104790241Y-56562069D01*
X104780451Y-56573099D01*
X103968828Y-57384721D01*
X103968828Y-57384722D01*
X103992606Y-57393591D01*
X103992610Y-57393592D01*
X103992623Y-57393597D01*
X103992627Y-57393598D01*
X104010393Y-57395508D01*
X104052141Y-57399998D01*
X104052152Y-57399998D01*
X104052155Y-57399999D01*
X104052172Y-57400000D01*
X105947828Y-57400000D01*
X105947836Y-57400000D01*
X105947847Y-57399999D01*
X105965703Y-57398078D01*
X106007375Y-57393598D01*
X106031170Y-57384723D01*
X106031170Y-57384722D01*
X105219546Y-56573099D01*
X105186062Y-56511777D01*
X105191046Y-56442086D01*
X105232918Y-56386152D01*
X105245225Y-56378034D01*
X105276306Y-56360090D01*
X105360090Y-56276306D01*
X105378032Y-56245228D01*
X105428598Y-56197013D01*
X105497205Y-56183789D01*
X105562070Y-56209757D01*
X105573100Y-56219547D01*
X106384720Y-57031169D01*
X106384720Y-57031168D01*
X106384722Y-57031170D01*
X106398567Y-57028158D01*
X106398568Y-57028156D01*
X106410663Y-57020383D01*
X106417181Y-57011680D01*
X106433874Y-57005455D01*
X106448138Y-56994777D01*
X106465932Y-56993503D01*
X106482648Y-56987271D01*
X106517805Y-56989789D01*
X106517824Y-56989788D01*
X106522337Y-56990769D01*
X106583645Y-57024252D01*
X106583656Y-57024263D01*
X106627628Y-57068236D01*
X106627636Y-57068243D01*
X106627660Y-57068261D01*
X106748810Y-57156281D01*
X106748812Y-57156282D01*
X106748815Y-57156284D01*
X106805978Y-57197815D01*
X106877844Y-57234433D01*
X106896149Y-57243760D01*
X106934375Y-57263237D01*
X107002393Y-57297895D01*
X107002396Y-57297896D01*
X107107221Y-57331955D01*
X107212049Y-57366015D01*
X107429778Y-57400500D01*
X107429779Y-57400500D01*
X107650221Y-57400500D01*
X107650222Y-57400500D01*
X107867951Y-57366015D01*
X108077606Y-57297895D01*
X108274022Y-57197815D01*
X108452365Y-57068242D01*
X108608242Y-56912365D01*
X108737815Y-56734022D01*
X108837895Y-56537606D01*
X108906015Y-56327951D01*
X108940500Y-56110222D01*
X108940500Y-55889778D01*
X108906015Y-55672049D01*
X108870894Y-55563956D01*
X108866088Y-55549164D01*
X108837904Y-55462419D01*
X108837897Y-55462400D01*
X108837897Y-55462399D01*
X108837896Y-55462398D01*
X108837896Y-55462396D01*
X108837895Y-55462393D01*
X108737815Y-55265978D01*
X108669261Y-55171621D01*
X108667211Y-55168798D01*
X108666676Y-55168061D01*
X108616135Y-55098498D01*
X110614994Y-55098498D01*
X110614994Y-56994249D01*
X110615153Y-56996179D01*
X110615379Y-56997827D01*
X110621401Y-57053855D01*
X110642313Y-57109921D01*
X110671696Y-57188701D01*
X110671700Y-57188708D01*
X110688822Y-57211580D01*
X110757944Y-57303915D01*
X110757946Y-57303917D01*
X110757949Y-57303920D01*
X110873158Y-57390166D01*
X110873165Y-57390170D01*
X111008011Y-57440464D01*
X111008010Y-57440464D01*
X111014938Y-57441208D01*
X111067621Y-57446873D01*
X112963366Y-57446872D01*
X113022977Y-57440464D01*
X113157825Y-57390169D01*
X113273040Y-57303919D01*
X113359290Y-57188704D01*
X113409585Y-57053856D01*
X113412768Y-57024252D01*
X113415993Y-56994259D01*
X113415993Y-56994255D01*
X113415994Y-56994246D01*
X113415993Y-56901505D01*
X113421016Y-56866572D01*
X113428426Y-56841335D01*
X113459720Y-56788590D01*
X113982393Y-56265918D01*
X114043715Y-56232434D01*
X114113407Y-56237418D01*
X114169340Y-56279290D01*
X114177459Y-56291598D01*
X114195404Y-56322679D01*
X114279188Y-56406463D01*
X114310265Y-56424405D01*
X114358479Y-56474971D01*
X114371703Y-56543578D01*
X114345735Y-56608442D01*
X114335945Y-56619472D01*
X113757979Y-57197437D01*
X113757978Y-57197438D01*
X113757979Y-57197439D01*
X113821737Y-57243761D01*
X113880397Y-57273650D01*
X114018082Y-57343805D01*
X114018085Y-57343806D01*
X114061011Y-57357753D01*
X114227658Y-57411899D01*
X114445313Y-57446373D01*
X114665674Y-57446373D01*
X114665675Y-57446373D01*
X114883329Y-57411899D01*
X115092904Y-57343805D01*
X115289254Y-57243759D01*
X115320412Y-57221120D01*
X115347150Y-57211580D01*
X115353008Y-57197438D01*
X114775041Y-56619473D01*
X114741556Y-56558150D01*
X114746540Y-56488459D01*
X114788411Y-56432525D01*
X114800719Y-56424407D01*
X114831800Y-56406463D01*
X114915584Y-56322679D01*
X114933529Y-56291598D01*
X114984090Y-56243387D01*
X115052697Y-56230163D01*
X115117562Y-56256130D01*
X115128593Y-56265921D01*
X115706559Y-56843887D01*
X115706559Y-56843886D01*
X115706560Y-56843887D01*
X115706560Y-56843886D01*
X115720028Y-56838307D01*
X115726245Y-56817137D01*
X115730243Y-56811289D01*
X115741352Y-56795999D01*
X115752880Y-56780133D01*
X115852926Y-56583783D01*
X115921020Y-56374208D01*
X115955494Y-56156554D01*
X115955494Y-55936191D01*
X115921020Y-55718537D01*
X115886973Y-55613749D01*
X115852927Y-55508964D01*
X115852926Y-55508961D01*
X115802904Y-55410789D01*
X115752882Y-55312616D01*
X115706560Y-55248858D01*
X115706558Y-55248858D01*
X115128593Y-55826823D01*
X115067270Y-55860308D01*
X114997578Y-55855324D01*
X114941645Y-55813452D01*
X114933528Y-55801147D01*
X114915584Y-55770067D01*
X114831800Y-55686283D01*
X114831514Y-55686118D01*
X114800719Y-55668338D01*
X114752504Y-55617771D01*
X114739282Y-55549164D01*
X114765250Y-55484299D01*
X114775019Y-55473291D01*
X115182230Y-55066082D01*
X117629500Y-55066082D01*
X117629500Y-56961832D01*
X117629659Y-56963762D01*
X117629885Y-56965410D01*
X117635907Y-57021438D01*
X117661055Y-57088861D01*
X117686202Y-57156284D01*
X117686203Y-57156285D01*
X117686203Y-57156287D01*
X117772450Y-57271498D01*
X117772456Y-57271504D01*
X117778085Y-57275718D01*
X117887664Y-57357749D01*
X117887671Y-57357753D01*
X118022517Y-57408047D01*
X118022516Y-57408047D01*
X118029444Y-57408791D01*
X118082127Y-57414456D01*
X119977872Y-57414455D01*
X120037483Y-57408047D01*
X120172331Y-57357752D01*
X120287546Y-57271502D01*
X120373796Y-57156287D01*
X120424091Y-57021439D01*
X120427013Y-56994259D01*
X120430499Y-56961842D01*
X120430499Y-56961838D01*
X120430500Y-56961829D01*
X120430499Y-56869088D01*
X120435522Y-56834155D01*
X120442932Y-56808918D01*
X120474226Y-56756173D01*
X120996899Y-56233501D01*
X121058221Y-56200017D01*
X121127913Y-56205001D01*
X121183846Y-56246873D01*
X121191965Y-56259181D01*
X121195857Y-56265921D01*
X121209910Y-56290262D01*
X121293694Y-56374046D01*
X121324771Y-56391988D01*
X121372985Y-56442554D01*
X121386209Y-56511161D01*
X121360241Y-56576025D01*
X121350451Y-56587055D01*
X120772485Y-57165020D01*
X120772484Y-57165021D01*
X120772485Y-57165022D01*
X120836243Y-57211344D01*
X120933026Y-57260658D01*
X121032588Y-57311388D01*
X121032591Y-57311389D01*
X121099754Y-57333211D01*
X121242164Y-57379482D01*
X121459819Y-57413956D01*
X121680180Y-57413956D01*
X121680181Y-57413956D01*
X121897835Y-57379482D01*
X122107410Y-57311388D01*
X122303760Y-57211342D01*
X122334918Y-57188703D01*
X122361656Y-57179163D01*
X122367514Y-57165021D01*
X121789547Y-56587056D01*
X121756062Y-56525733D01*
X121761046Y-56456042D01*
X121802917Y-56400108D01*
X121815225Y-56391990D01*
X121846306Y-56374046D01*
X121930090Y-56290262D01*
X121948035Y-56259181D01*
X121998596Y-56210970D01*
X122067203Y-56197746D01*
X122132068Y-56223713D01*
X122143099Y-56233504D01*
X122721065Y-56811470D01*
X122721065Y-56811469D01*
X122721066Y-56811470D01*
X122721066Y-56811469D01*
X122734534Y-56805890D01*
X122740751Y-56784720D01*
X122744749Y-56778872D01*
X122755858Y-56763582D01*
X122767386Y-56747716D01*
X122867432Y-56551366D01*
X122935526Y-56341791D01*
X122970000Y-56124137D01*
X122970000Y-55903774D01*
X122935526Y-55686120D01*
X122901263Y-55580667D01*
X122867433Y-55476547D01*
X122867432Y-55476544D01*
X122783905Y-55312615D01*
X122767388Y-55280199D01*
X122721066Y-55216441D01*
X122721064Y-55216441D01*
X122143099Y-55794406D01*
X122081776Y-55827891D01*
X122012084Y-55822907D01*
X121956151Y-55781035D01*
X121948034Y-55768730D01*
X121930090Y-55737650D01*
X121846306Y-55653866D01*
X121822137Y-55639912D01*
X121815225Y-55635921D01*
X121767010Y-55585354D01*
X121753788Y-55516747D01*
X121779756Y-55451882D01*
X121789535Y-55440864D01*
X122367513Y-54862888D01*
X122348375Y-54848984D01*
X122303756Y-54816567D01*
X122303754Y-54816566D01*
X122107410Y-54716522D01*
X122107407Y-54716521D01*
X121897836Y-54648429D01*
X121789008Y-54631192D01*
X121680181Y-54613956D01*
X121680180Y-54613956D01*
X121459814Y-54613956D01*
X121242162Y-54648429D01*
X121032591Y-54716521D01*
X121032588Y-54716522D01*
X120836234Y-54816571D01*
X120836230Y-54816573D01*
X120772485Y-54862887D01*
X120772485Y-54862888D01*
X121350452Y-55440855D01*
X121383937Y-55502178D01*
X121378953Y-55571870D01*
X121337081Y-55627803D01*
X121324774Y-55635922D01*
X121293691Y-55653868D01*
X121209912Y-55737647D01*
X121209910Y-55737649D01*
X121209910Y-55737650D01*
X121192919Y-55767080D01*
X121191966Y-55768730D01*
X121141397Y-55816944D01*
X121072790Y-55830165D01*
X121007926Y-55804196D01*
X120996899Y-55794408D01*
X120479425Y-55276934D01*
X120479420Y-55276929D01*
X120458273Y-55248678D01*
X120445666Y-55225589D01*
X120430499Y-55166164D01*
X120430499Y-55066490D01*
X120430499Y-55066085D01*
X120430498Y-55066079D01*
X120430497Y-55066072D01*
X120424091Y-55006473D01*
X120418922Y-54992615D01*
X120412382Y-54975081D01*
X120404326Y-54953481D01*
X120396225Y-54931761D01*
X120373797Y-54871627D01*
X120373793Y-54871620D01*
X120287547Y-54756411D01*
X120287544Y-54756408D01*
X120287542Y-54756406D01*
X120215637Y-54702578D01*
X120172335Y-54670162D01*
X120172332Y-54670160D01*
X120172330Y-54670159D01*
X120172328Y-54670158D01*
X120037482Y-54619864D01*
X120037483Y-54619864D01*
X119977883Y-54613457D01*
X119977881Y-54613456D01*
X119977873Y-54613456D01*
X119977864Y-54613456D01*
X119976841Y-54613456D01*
X118082123Y-54613456D01*
X118080192Y-54613615D01*
X118078545Y-54613841D01*
X118022516Y-54619864D01*
X117945930Y-54648429D01*
X117887666Y-54670160D01*
X117887665Y-54670161D01*
X117772456Y-54756406D01*
X117772450Y-54756412D01*
X117686205Y-54871621D01*
X117686203Y-54871624D01*
X117635907Y-55006472D01*
X117630997Y-55052159D01*
X117629500Y-55066082D01*
X115182230Y-55066082D01*
X115273232Y-54975081D01*
X115353007Y-54895305D01*
X115289250Y-54848984D01*
X115285576Y-54847112D01*
X115092904Y-54748939D01*
X115092901Y-54748938D01*
X114883330Y-54680846D01*
X114774502Y-54663609D01*
X114665675Y-54646373D01*
X114665674Y-54646373D01*
X114445308Y-54646373D01*
X114227656Y-54680846D01*
X114018085Y-54748938D01*
X114018082Y-54748939D01*
X113821728Y-54848988D01*
X113821724Y-54848990D01*
X113757979Y-54895304D01*
X113757979Y-54895305D01*
X114335946Y-55473272D01*
X114369431Y-55534595D01*
X114364447Y-55604287D01*
X114322575Y-55660220D01*
X114310268Y-55668338D01*
X114279471Y-55686120D01*
X114279185Y-55686285D01*
X114195406Y-55770064D01*
X114177460Y-55801147D01*
X114126891Y-55849361D01*
X114058284Y-55862582D01*
X113993420Y-55836613D01*
X113982393Y-55826825D01*
X113464919Y-55309351D01*
X113464914Y-55309346D01*
X113443767Y-55281095D01*
X113431160Y-55258006D01*
X113415993Y-55198581D01*
X113415993Y-55099648D01*
X113415993Y-55098502D01*
X113415992Y-55098496D01*
X113415991Y-55098489D01*
X113409585Y-55038890D01*
X113399114Y-55010817D01*
X113389820Y-54985897D01*
X113359291Y-54904044D01*
X113359287Y-54904037D01*
X113273041Y-54788828D01*
X113273038Y-54788825D01*
X113273036Y-54788823D01*
X113215110Y-54745459D01*
X113157829Y-54702579D01*
X113157826Y-54702577D01*
X113157824Y-54702576D01*
X113157822Y-54702575D01*
X113022976Y-54652281D01*
X113022977Y-54652281D01*
X112963377Y-54645874D01*
X112963375Y-54645873D01*
X112963367Y-54645873D01*
X112963358Y-54645873D01*
X112962335Y-54645873D01*
X111067617Y-54645873D01*
X111065686Y-54646032D01*
X111064039Y-54646258D01*
X111008010Y-54652281D01*
X110874431Y-54702103D01*
X110873160Y-54702577D01*
X110873159Y-54702578D01*
X110757950Y-54788823D01*
X110757944Y-54788829D01*
X110671699Y-54904038D01*
X110671697Y-54904041D01*
X110621402Y-55038889D01*
X110614994Y-55098498D01*
X108616135Y-55098498D01*
X108608247Y-55087641D01*
X108608243Y-55087636D01*
X108608242Y-55087635D01*
X108608235Y-55087627D01*
X108452369Y-54931761D01*
X108452364Y-54931757D01*
X108452363Y-54931756D01*
X108452358Y-54931752D01*
X108414211Y-54904037D01*
X108284615Y-54809880D01*
X108284602Y-54809871D01*
X108274025Y-54802187D01*
X108274024Y-54802186D01*
X108274022Y-54802185D01*
X108267949Y-54799090D01*
X108267945Y-54799088D01*
X108202150Y-54765564D01*
X108202150Y-54765563D01*
X108202148Y-54765563D01*
X108077606Y-54702104D01*
X108077530Y-54702078D01*
X107867954Y-54633985D01*
X107867955Y-54633985D01*
X107738336Y-54613456D01*
X107693837Y-54606408D01*
X107650222Y-54599500D01*
X107650221Y-54599500D01*
X107429779Y-54599500D01*
X107429778Y-54599500D01*
X107386213Y-54606400D01*
X107386207Y-54606401D01*
X107212043Y-54633985D01*
X107002419Y-54702094D01*
X107002396Y-54702102D01*
X107002392Y-54702104D01*
X106805972Y-54802187D01*
X106627658Y-54931739D01*
X106627629Y-54931761D01*
X106589684Y-54969706D01*
X106589683Y-54969709D01*
X106561429Y-54990860D01*
X106549247Y-54997512D01*
X106480974Y-55012364D01*
X106415510Y-54987948D01*
X106415508Y-54987947D01*
X106415508Y-54987946D01*
X106392122Y-54970439D01*
X106392117Y-54970437D01*
X106384724Y-54968828D01*
X106384721Y-54968829D01*
X105573099Y-55780451D01*
X105511776Y-55813936D01*
X105442084Y-55808952D01*
X105386151Y-55767080D01*
X105378034Y-55754774D01*
X105360090Y-55723694D01*
X105276306Y-55639910D01*
X105245225Y-55621965D01*
X105197012Y-55571399D01*
X105183790Y-55502791D01*
X105209758Y-55437927D01*
X105219540Y-55426906D01*
X106031170Y-54615276D01*
X106031169Y-54615275D01*
X106007379Y-54606403D01*
X106007377Y-54606402D01*
X106007373Y-54606401D01*
X106007369Y-54606400D01*
X106007367Y-54606400D01*
X105947850Y-54600000D01*
X105947844Y-54600000D01*
X104052157Y-54600000D01*
X104052148Y-54600000D01*
X103992630Y-54606400D01*
X103992625Y-54606401D01*
X103992613Y-54606404D01*
X103992601Y-54606408D01*
X103968829Y-54615273D01*
X103968829Y-54615274D01*
X103968829Y-54615277D01*
X104420042Y-55066490D01*
X104780452Y-55426899D01*
X104813937Y-55488222D01*
X104808953Y-55557913D01*
X104767081Y-55613847D01*
X104754774Y-55621965D01*
X104730602Y-55635922D01*
X104723691Y-55639912D01*
X104639911Y-55723692D01*
X104621965Y-55754774D01*
X104571396Y-55802988D01*
X104502789Y-55816208D01*
X104437925Y-55790238D01*
X104426899Y-55780451D01*
X103615277Y-54968829D01*
X103615274Y-54968829D01*
X103606414Y-54992586D01*
X103606405Y-54992612D01*
X103606401Y-54992625D01*
X103606400Y-54992630D01*
X103600000Y-55052148D01*
X101572755Y-55052148D01*
X101452363Y-54931756D01*
X101452358Y-54931752D01*
X101369594Y-54871621D01*
X101288574Y-54812757D01*
X101288572Y-54812756D01*
X101274021Y-54802184D01*
X101274020Y-54802183D01*
X101202153Y-54765564D01*
X101202150Y-54765564D01*
X101187773Y-54758238D01*
X101187728Y-54758214D01*
X101077607Y-54702104D01*
X101077530Y-54702078D01*
X100867954Y-54633985D01*
X100867955Y-54633985D01*
X100738336Y-54613456D01*
X100693837Y-54606408D01*
X100650222Y-54599500D01*
X100650221Y-54599500D01*
X100429779Y-54599500D01*
X100429778Y-54599500D01*
X100386213Y-54606400D01*
X100386207Y-54606401D01*
X100212043Y-54633985D01*
X100002419Y-54702094D01*
X100002396Y-54702102D01*
X100002392Y-54702104D01*
X99805972Y-54802187D01*
X99627658Y-54931739D01*
X99627629Y-54931761D01*
X99589684Y-54969706D01*
X99589683Y-54969709D01*
X99561429Y-54990860D01*
X99549247Y-54997512D01*
X99480974Y-55012364D01*
X99415510Y-54987948D01*
X99415508Y-54987947D01*
X99415508Y-54987946D01*
X99392122Y-54970439D01*
X99392117Y-54970437D01*
X99384724Y-54968828D01*
X99384721Y-54968829D01*
X98573099Y-55780451D01*
X98511776Y-55813936D01*
X98442084Y-55808952D01*
X98386151Y-55767080D01*
X98378034Y-55754774D01*
X98360090Y-55723694D01*
X98276306Y-55639910D01*
X98245225Y-55621965D01*
X98197012Y-55571399D01*
X98183790Y-55502791D01*
X98209758Y-55437927D01*
X98219540Y-55426906D01*
X99031170Y-54615276D01*
X99031169Y-54615275D01*
X99007379Y-54606403D01*
X99007377Y-54606402D01*
X99007373Y-54606401D01*
X99007369Y-54606400D01*
X99007367Y-54606400D01*
X98947850Y-54600000D01*
X98947844Y-54600000D01*
X97052157Y-54600000D01*
X97052148Y-54600000D01*
X96992630Y-54606400D01*
X96992625Y-54606401D01*
X96992613Y-54606404D01*
X96992601Y-54606408D01*
X96968829Y-54615273D01*
X96968829Y-54615274D01*
X96968829Y-54615277D01*
X97420042Y-55066490D01*
X97780452Y-55426899D01*
X97813937Y-55488222D01*
X97808953Y-55557913D01*
X97767081Y-55613847D01*
X97754774Y-55621965D01*
X97730602Y-55635922D01*
X97723691Y-55639912D01*
X97639911Y-55723692D01*
X97621965Y-55754774D01*
X97571396Y-55802988D01*
X97502789Y-55816208D01*
X97437925Y-55790238D01*
X97426899Y-55780451D01*
X96615277Y-54968829D01*
X96615274Y-54968829D01*
X96606414Y-54992586D01*
X96606405Y-54992612D01*
X96606401Y-54992625D01*
X96606400Y-54992630D01*
X96600000Y-55052148D01*
X63000000Y-55052148D01*
X63000000Y-53497819D01*
X63005021Y-53462892D01*
X63008207Y-53452039D01*
X63045977Y-53393258D01*
X63109531Y-53364229D01*
X63178686Y-53374167D01*
X63185672Y-53377357D01*
X63221842Y-53402470D01*
X63499549Y-53680177D01*
X63499645Y-53680276D01*
X63563029Y-53743660D01*
X63563034Y-53743664D01*
X63576000Y-53751149D01*
X63576002Y-53751150D01*
X63581637Y-53754403D01*
X63632466Y-53783749D01*
X63665199Y-53792519D01*
X63709912Y-53804501D01*
X63709914Y-53804501D01*
X63790088Y-53804501D01*
X63797684Y-53804501D01*
X63797700Y-53804500D01*
X67040086Y-53804500D01*
X67040088Y-53804500D01*
X67117533Y-53783749D01*
X67186968Y-53743661D01*
X67243661Y-53686968D01*
X67283749Y-53617533D01*
X67304500Y-53540088D01*
X67304500Y-53459912D01*
X67283749Y-53382467D01*
X67243661Y-53313032D01*
X67186968Y-53256339D01*
X67117533Y-53216251D01*
X67040088Y-53195500D01*
X67040087Y-53195500D01*
X63945320Y-53195500D01*
X63945319Y-53195499D01*
X63945319Y-53195500D01*
X63910384Y-53190477D01*
X63885142Y-53183065D01*
X63832397Y-53151769D01*
X63048926Y-52368297D01*
X63027774Y-52340041D01*
X63015167Y-52316952D01*
X63000000Y-52257527D01*
X63000000Y-50396329D01*
X63005023Y-50361393D01*
X63009427Y-50346395D01*
X63047172Y-50287644D01*
X63047200Y-50287619D01*
X63047199Y-50287619D01*
X63048541Y-50286456D01*
X63103420Y-50258977D01*
X63110979Y-50257333D01*
X63137332Y-50254500D01*
X72053670Y-50254500D01*
X72088606Y-50259523D01*
G37*
%TD.AperFunction*%
%TD*%
%TA.AperFunction,Conductor*%
%TO.N,GND*%
G36*
X102854592Y-133288523D02*
G01*
X102900347Y-133341327D01*
X102911553Y-133392838D01*
X102911553Y-137644838D01*
X102891868Y-137711877D01*
X102839064Y-137757632D01*
X102787553Y-137768838D01*
X77285553Y-137768838D01*
X77218514Y-137749153D01*
X77172759Y-137696349D01*
X77161553Y-137644838D01*
X77161553Y-133392838D01*
X77181238Y-133325799D01*
X77234042Y-133280044D01*
X77285553Y-133268838D01*
X102787553Y-133268838D01*
X102854592Y-133288523D01*
G37*
%TD.AperFunction*%
%TD*%
M02*
