%TF.GenerationSoftware,KiCad,Pcbnew,10.0.1*%
%TF.CreationDate,2026-05-01T22:36:15-04:00*%
%TF.ProjectId,PicoPSU_A2,5069636f-5053-4555-9f41-322e6b696361,1.1*%
%TF.SameCoordinates,Original*%
%TF.FileFunction,Copper,L1,Top*%
%TF.FilePolarity,Positive*%
%FSLAX46Y46*%
G04 Gerber Fmt 4.6, Leading zero omitted, Abs format (unit mm)*
G04 Created by KiCad (PCBNEW 10.0.1) date 2026-05-01 22:36:15*
%MOMM*%
%LPD*%
G01*
G04 APERTURE LIST*
G04 Aperture macros list*
%AMRoundRect*
0 Rectangle with rounded corners*
0 $1 Rounding radius*
0 $2 $3 $4 $5 $6 $7 $8 $9 X,Y pos of 4 corners*
0 Add a 4 corners polygon primitive as box body*
4,1,4,$2,$3,$4,$5,$6,$7,$8,$9,$2,$3,0*
0 Add four circle primitives for the rounded corners*
1,1,$1+$1,$2,$3*
1,1,$1+$1,$4,$5*
1,1,$1+$1,$6,$7*
1,1,$1+$1,$8,$9*
0 Add four rect primitives between the rounded corners*
20,1,$1+$1,$2,$3,$4,$5,0*
20,1,$1+$1,$4,$5,$6,$7,0*
20,1,$1+$1,$6,$7,$8,$9,0*
20,1,$1+$1,$8,$9,$2,$3,0*%
G04 Aperture macros list end*
%TA.AperFunction,SMDPad,CuDef*%
%ADD10RoundRect,0.312500X-0.437500X0.887500X-0.437500X-0.887500X0.437500X-0.887500X0.437500X0.887500X0*%
%TD*%
%TA.AperFunction,SMDPad,CuDef*%
%ADD11RoundRect,0.258618X-2.741382X3.241382X-2.741382X-3.241382X2.741382X-3.241382X2.741382X3.241382X0*%
%TD*%
%TA.AperFunction,SMDPad,CuDef*%
%ADD12RoundRect,0.250000X0.450000X-0.350000X0.450000X0.350000X-0.450000X0.350000X-0.450000X-0.350000X0*%
%TD*%
%TA.AperFunction,SMDPad,CuDef*%
%ADD13C,2.000000*%
%TD*%
%TA.AperFunction,ComponentPad*%
%ADD14RoundRect,0.250000X0.000000X0.777817X-0.777817X0.000000X0.000000X-0.777817X0.777817X0.000000X0*%
%TD*%
%TA.AperFunction,ComponentPad*%
%ADD15C,1.600000*%
%TD*%
%TA.AperFunction,ComponentPad*%
%ADD16RoundRect,0.250000X1.060660X0.000000X0.000000X1.060660X-1.060660X0.000000X0.000000X-1.060660X0*%
%TD*%
%TA.AperFunction,ComponentPad*%
%ADD17C,2.000000*%
%TD*%
%TA.AperFunction,ComponentPad*%
%ADD18R,1.600000X1.600000*%
%TD*%
%TA.AperFunction,ComponentPad*%
%ADD19C,1.800000*%
%TD*%
%TA.AperFunction,ComponentPad*%
%ADD20R,1.800000X1.800000*%
%TD*%
%TA.AperFunction,ComponentPad*%
%ADD21RoundRect,0.250001X-1.399999X1.099999X-1.399999X-1.099999X1.399999X-1.099999X1.399999X1.099999X0*%
%TD*%
%TA.AperFunction,ComponentPad*%
%ADD22O,3.300000X2.700000*%
%TD*%
%TA.AperFunction,ComponentPad*%
%ADD23C,2.780000*%
%TD*%
%TA.AperFunction,ComponentPad*%
%ADD24RoundRect,0.250000X-0.550000X-0.550000X0.550000X-0.550000X0.550000X0.550000X-0.550000X0.550000X0*%
%TD*%
%TA.AperFunction,ComponentPad*%
%ADD25O,2.700000X3.700000*%
%TD*%
%TA.AperFunction,ComponentPad*%
%ADD26O,0.100000X0.100000*%
%TD*%
%TA.AperFunction,SMDPad,CuDef*%
%ADD27RoundRect,0.250000X1.150000X0.650000X-1.150000X0.650000X-1.150000X-0.650000X1.150000X-0.650000X0*%
%TD*%
%TA.AperFunction,ViaPad*%
%ADD28C,1.400000*%
%TD*%
%TA.AperFunction,Conductor*%
%ADD29C,0.400000*%
%TD*%
%TA.AperFunction,Conductor*%
%ADD30C,2.000000*%
%TD*%
%TA.AperFunction,Conductor*%
%ADD31C,1.500000*%
%TD*%
%TA.AperFunction,Conductor*%
%ADD32C,1.000000*%
%TD*%
%TA.AperFunction,Conductor*%
%ADD33C,0.350000*%
%TD*%
%TA.AperFunction,Conductor*%
%ADD34C,0.500000*%
%TD*%
%TA.AperFunction,Conductor*%
%ADD35C,0.250000*%
%TD*%
%TA.AperFunction,Conductor*%
%ADD36C,0.700000*%
%TD*%
G04 APERTURE END LIST*
D10*
%TO.P,U1,3,VO_3*%
%TO.N,/APPLE5NEG*%
X128970000Y-95949999D03*
D11*
%TO.P,U1,2,VI_2*%
%TO.N,/PSUNEG*%
X131250000Y-102250000D03*
D10*
%TO.P,U1,1,GND_1*%
%TO.N,GND*%
X133530000Y-95949999D03*
%TD*%
D12*
%TO.P,R4,1*%
%TO.N,/APPLE5NEG*%
X119000000Y-61200000D03*
%TO.P,R4,2*%
%TO.N,Net-(D4-K)*%
X119000000Y-59200000D03*
%TD*%
%TO.P,R1,1*%
%TO.N,/APPLE5V*%
X100500000Y-61200000D03*
%TO.P,R1,2*%
%TO.N,Net-(D1-A)*%
X100500000Y-59200000D03*
%TD*%
%TO.P,R3,1*%
%TO.N,/PSUNEG*%
X112000000Y-61200000D03*
%TO.P,R3,2*%
%TO.N,Net-(D3-K)*%
X112000000Y-59200000D03*
%TD*%
%TO.P,R2,1*%
%TO.N,/APPLE12V*%
X107500000Y-61200000D03*
%TO.P,R2,2*%
%TO.N,Net-(D2-A)*%
X107500000Y-59200000D03*
%TD*%
D13*
%TO.P,TP3,1,1_1*%
%TO.N,/PSUNEG*%
X115000000Y-82000000D03*
%TD*%
D14*
%TO.P,C1,1*%
%TO.N,GND*%
X130000000Y-86294888D03*
D15*
%TO.P,C1,2*%
%TO.N,/APPLE5NEG*%
X128585786Y-87709102D03*
%TD*%
D13*
%TO.P,TP4,1,1_1*%
%TO.N,/APPLE5NEG*%
X123239285Y-61685989D03*
%TD*%
D16*
%TO.P,C3,1*%
%TO.N,/PSU5V*%
X85435239Y-81574311D03*
D17*
%TO.P,C3,2*%
%TO.N,GND*%
X81899705Y-78038777D03*
%TD*%
D18*
%TO.P,SW1,1,A_1*%
%TO.N,GND*%
X87000000Y-66212500D03*
D15*
%TO.P,SW1,2,B_2*%
%TO.N,/PSON*%
X87000000Y-63712500D03*
%TO.P,SW1,3,C_3*%
%TO.N,unconnected-(SW1-C-Pad3)*%
X87000000Y-61212500D03*
D19*
%TO.P,SW1,4*%
%TO.N,N/C*%
X88200000Y-69412500D03*
%TO.P,SW1,5*%
X84800000Y-58112500D03*
%TD*%
D20*
%TO.P,D3,1,K_1*%
%TO.N,Net-(D3-K)*%
X112015494Y-56046373D03*
D19*
%TO.P,D3,2,A_2*%
%TO.N,GND*%
X114555494Y-56046373D03*
%TD*%
D21*
%TO.P,J2,1,Pin_1_1*%
%TO.N,/APPLE5NEG*%
X125742527Y-69023241D03*
D22*
%TO.P,J2,2,Pin_2_2*%
%TO.N,/APPLE12V*%
X125742527Y-73223240D03*
%TO.P,J2,3,Pin_3_3*%
%TO.N,GND*%
X125742527Y-77423241D03*
%TO.P,J2,4,Pin_4_4*%
%TO.N,/PSUNEG*%
X120242527Y-69023241D03*
%TO.P,J2,5,Pin_5_5*%
%TO.N,/APPLE5V*%
X120242527Y-73223241D03*
%TO.P,J2,6,Pin_6_6*%
%TO.N,GND*%
X120242527Y-77423241D03*
%TD*%
D20*
%TO.P,D1,1,K_1*%
%TO.N,GND*%
X98000000Y-56000000D03*
D19*
%TO.P,D1,2,A_2*%
%TO.N,Net-(D1-A)*%
X100540000Y-56000000D03*
%TD*%
D20*
%TO.P,D4,1,K_1*%
%TO.N,Net-(D4-K)*%
X119030000Y-56013956D03*
D19*
%TO.P,D4,2,A_2*%
%TO.N,GND*%
X121570000Y-56013956D03*
%TD*%
D20*
%TO.P,D2,1,K_1*%
%TO.N,GND*%
X105000000Y-56000000D03*
D19*
%TO.P,D2,2,A_2*%
%TO.N,Net-(D2-A)*%
X107540000Y-56000000D03*
%TD*%
D13*
%TO.P,TP2,1,1_1*%
%TO.N,/APPLE12V*%
X130965109Y-61720879D03*
%TD*%
D23*
%TO.P,F1,1*%
%TO.N,/PSU5V*%
X98540000Y-77500000D03*
X98540000Y-80900000D03*
%TO.P,F1,2*%
%TO.N,/APPLE5V*%
X108460000Y-77500000D03*
X108460000Y-80900000D03*
%TD*%
%TO.P,F2,1*%
%TO.N,/PSU12V*%
X98540000Y-68250000D03*
X98540000Y-71650000D03*
%TO.P,F2,2*%
%TO.N,/APPLE12V*%
X108460000Y-68250000D03*
X108460000Y-71650000D03*
%TD*%
D13*
%TO.P,TP0,1,1_1*%
%TO.N,GND*%
X95500000Y-61750000D03*
%TD*%
%TO.P,TP5,1,1_1*%
%TO.N,/PSON*%
X81000000Y-63500000D03*
%TD*%
D24*
%TO.P,C2,1*%
%TO.N,GND*%
X134067154Y-86956412D03*
D15*
%TO.P,C2,2*%
%TO.N,/PSUNEG*%
X136067155Y-86956412D03*
%TD*%
D13*
%TO.P,TP1,1,1_1*%
%TO.N,/APPLE5V*%
X103750000Y-61750000D03*
%TD*%
D16*
%TO.P,C4,1*%
%TO.N,/PSU12V*%
X78185239Y-72824311D03*
D17*
%TO.P,C4,2*%
%TO.N,GND*%
X74649705Y-69288777D03*
%TD*%
D25*
%TO.P,J1,3,Pin_3_3*%
%TO.N,GND*%
X114700000Y-94436263D03*
%TO.P,J1,4,Pin_4_4*%
%TO.N,/PSU5V*%
X110500000Y-94436263D03*
D26*
%TO.P,J1,5,Pin_5_5*%
%TO.N,GND*%
X106300000Y-94436263D03*
D25*
%TO.P,J1,6,Pin_6_6*%
%TO.N,/PSU5V*%
X102100000Y-94436263D03*
%TO.P,J1,7,Pin_7_7*%
%TO.N,GND*%
X97900000Y-94436263D03*
%TO.P,J1,8,Pin_8_8*%
%TO.N,/PGOOD*%
X93700000Y-94436263D03*
%TO.P,J1,9,Pin_9_9*%
%TO.N,/PSUSBY*%
X89500000Y-94436263D03*
%TO.P,J1,10,Pin_10_10*%
%TO.N,/PSU12V*%
X85300000Y-94436263D03*
%TO.P,J1,11,Pin_11_11*%
X81100000Y-94436263D03*
%TO.P,J1,12,Pin_12_12*%
%TO.N,unconnected-(J1-Pin_12-Pad12)*%
X76900000Y-94436263D03*
%TO.P,J1,13,Pin_13_13*%
%TO.N,/3V3*%
X123100000Y-88936263D03*
%TO.P,J1,14,Pin_14_14*%
%TO.N,/PSUNEG*%
X118900000Y-88936263D03*
%TO.P,J1,15,Pin_15_15*%
%TO.N,GND*%
X114700000Y-88936263D03*
%TO.P,J1,16,Pin_16_16*%
%TO.N,/PSON*%
X110500000Y-88936263D03*
D26*
%TO.P,J1,17,Pin_17_17*%
%TO.N,GND*%
X106300000Y-88936263D03*
%TO.P,J1,18,Pin_18_18*%
X102100000Y-88936263D03*
%TO.P,J1,19,Pin_19_19*%
X97900000Y-88936263D03*
%TO.P,J1,20,Pin_20_20*%
%TO.N,unconnected-(J1-Pin_20-Pad20)*%
X93700000Y-88936263D03*
D25*
%TO.P,J1,21,Pin_21_21*%
%TO.N,/PSU5V*%
X89500000Y-88936263D03*
%TO.P,J1,22,Pin_22_22*%
X85300000Y-88936263D03*
%TO.P,J1,23,Pin_23_23*%
X81100000Y-88936263D03*
%TO.P,J1,24,Pin_24_24*%
%TO.N,GND*%
X76900000Y-88936263D03*
%TD*%
D27*
%TO.P,D5,1,K_1*%
%TO.N,GND*%
X133250001Y-92750000D03*
%TO.P,D5,2,A_2*%
%TO.N,/APPLE5NEG*%
X129249999Y-92750000D03*
%TD*%
D28*
%TO.N,GND*%
X132250000Y-89750000D03*
%TO.N,/APPLE12V*%
X131000000Y-66250000D03*
%TD*%
%TO.N,/PSUNEG*%
D29*
X112000000Y-61112500D02*
X112000000Y-62100000D01*
D30*
X114900000Y-81900000D02*
X118900000Y-85900000D01*
D31*
X120242527Y-69023241D02*
X120219286Y-69000000D01*
D30*
X116500000Y-69000000D02*
X115700000Y-69800000D01*
D32*
X121000000Y-92000000D02*
X121000000Y-99000000D01*
D33*
X116900000Y-68600000D02*
X115700000Y-69800000D01*
D32*
X118900000Y-88936263D02*
X118900000Y-89900000D01*
D29*
X112000000Y-62100000D02*
X116900000Y-67000000D01*
D30*
X120219286Y-69000000D02*
X116500000Y-69000000D01*
X129000000Y-104250000D02*
X126000000Y-104250000D01*
D29*
X116900000Y-67000000D02*
X116900000Y-68600000D01*
D32*
X118900000Y-89900000D02*
X121000000Y-92000000D01*
D30*
X114900000Y-70600000D02*
X114900000Y-81900000D01*
X129250000Y-100250000D02*
X126750000Y-100250000D01*
X115700000Y-69800000D02*
X114900000Y-70600000D01*
X118900000Y-85900000D02*
X118900000Y-88936263D01*
%TO.N,/APPLE5V*%
D33*
X100500000Y-61112500D02*
X100637500Y-61250000D01*
D34*
X108375000Y-77500000D02*
X105750000Y-74875000D01*
X105750000Y-63750000D02*
X103750000Y-61750000D01*
D29*
X103250000Y-61250000D02*
X103750000Y-61750000D01*
X100637500Y-61250000D02*
X103250000Y-61250000D01*
D34*
X105750000Y-74875000D02*
X105750000Y-63750000D01*
X108460000Y-77500000D02*
X108375000Y-77500000D01*
%TO.N,Net-(D1-A)*%
D33*
X100540000Y-59247500D02*
X100500000Y-59287500D01*
D29*
X100540000Y-56000000D02*
X100540000Y-59247500D01*
%TO.N,GND*%
X95500000Y-61750000D02*
X95500000Y-57000000D01*
X96500000Y-56000000D02*
X98000000Y-56000000D01*
X95500000Y-57000000D02*
X96500000Y-56000000D01*
%TO.N,/APPLE5NEG*%
X119137500Y-61250000D02*
X122803296Y-61250000D01*
D32*
X125742527Y-69023241D02*
X128773241Y-69023241D01*
X128773241Y-69023241D02*
X129500000Y-69750000D01*
D34*
X125742527Y-69023241D02*
X125100000Y-68380714D01*
D29*
X119000000Y-61112500D02*
X119137500Y-61250000D01*
X125742527Y-64189231D02*
X125742527Y-69023241D01*
X123239285Y-61685989D02*
X125742527Y-64189231D01*
D32*
X129500000Y-69750000D02*
X129500000Y-81500000D01*
X129500000Y-81500000D02*
X127500000Y-83500000D01*
X127500000Y-83500000D02*
X127500000Y-86623316D01*
D35*
X122803296Y-61250000D02*
X123239285Y-61685989D01*
D32*
X127500000Y-86623316D02*
X128585786Y-87709102D01*
%TO.N,/PSON*%
D36*
X87037500Y-63750000D02*
X87037500Y-63675000D01*
X87000000Y-63712500D02*
X87037500Y-63750000D01*
D29*
X81300000Y-63500000D02*
X81000000Y-63500000D01*
X87000000Y-63712500D02*
X81512500Y-63712500D01*
D36*
X87037500Y-63675000D02*
X87112500Y-63750000D01*
D29*
X81512500Y-63712500D02*
X81300000Y-63500000D01*
%TO.N,Net-(D3-K)*%
D33*
X112000000Y-56030000D02*
X112030000Y-56000000D01*
X112000000Y-59287500D02*
X112000000Y-59187500D01*
D29*
X112000000Y-59187500D02*
X112000000Y-56030000D01*
%TO.N,/APPLE12V*%
D33*
X130965109Y-66215109D02*
X131000000Y-66250000D01*
D29*
X107500000Y-63800000D02*
X108500000Y-64800000D01*
D33*
X108500000Y-64800000D02*
X108460000Y-64840000D01*
D29*
X107500000Y-61112500D02*
X107500000Y-63800000D01*
X108460000Y-64840000D02*
X108460000Y-68250000D01*
D34*
X108460000Y-68240000D02*
X108460000Y-68250000D01*
D29*
X130965109Y-61720879D02*
X130965109Y-66215109D01*
%TO.N,Net-(D4-K)*%
X119030000Y-59257500D02*
X119000000Y-59287500D01*
D33*
X119000000Y-59187500D02*
X119000000Y-59287500D01*
X118960000Y-56000000D02*
X119000000Y-56040000D01*
D29*
X119030000Y-56013956D02*
X119030000Y-59257500D01*
D33*
X119060000Y-59127500D02*
X119000000Y-59187500D01*
%TO.N,Net-(D2-A)*%
D29*
X107540000Y-59247500D02*
X107540000Y-56000000D01*
D33*
X107412500Y-56045741D02*
X107500000Y-55958241D01*
X107500000Y-59287500D02*
X107540000Y-59247500D01*
%TO.N,/PSON*%
D34*
X110500000Y-88200000D02*
X110500000Y-88936263D01*
X104000000Y-65500000D02*
X104000000Y-81700000D01*
X92100000Y-63750000D02*
X102250000Y-63750000D01*
X104000000Y-81700000D02*
X110500000Y-88200000D01*
X102250000Y-63750000D02*
X104000000Y-65500000D01*
X87112500Y-63750000D02*
X92100000Y-63750000D01*
%TO.N,/APPLE5NEG*%
D36*
X128970000Y-95949999D02*
X128970000Y-93029999D01*
%TO.N,GND*%
X133530000Y-95949999D02*
X133530000Y-93029999D01*
X133250001Y-90750001D02*
X132250000Y-89750000D01*
X133250001Y-92750000D02*
X133250001Y-90750001D01*
%TO.N,/APPLE5NEG*%
X128585786Y-92085787D02*
X129249999Y-92750000D01*
X128585786Y-87709102D02*
X128585786Y-92085787D01*
%TO.N,/PSUNEG*%
X135500000Y-102250000D02*
X131250000Y-102250000D01*
X136250000Y-101500000D02*
X135500000Y-102250000D01*
X136250000Y-87139257D02*
X136250000Y-101500000D01*
X136067155Y-86956412D02*
X136250000Y-87139257D01*
%TD*%
%TA.AperFunction,Conductor*%
%TO.N,/PSUNEG*%
G36*
X126456081Y-98210089D02*
G01*
X126476723Y-98226723D01*
X127400267Y-99150267D01*
X127433752Y-99211590D01*
X127436586Y-99237948D01*
X127436586Y-106011331D01*
X127416901Y-106078370D01*
X127400346Y-106098933D01*
X126555576Y-106945224D01*
X126494283Y-106978764D01*
X126468039Y-106981622D01*
X103573437Y-107022801D01*
X103506362Y-107003237D01*
X103485691Y-106986640D01*
X102723063Y-106226750D01*
X102689467Y-106165487D01*
X102686586Y-106138911D01*
X102686586Y-101621273D01*
X121345500Y-101621273D01*
X121345500Y-101851252D01*
X121345501Y-101851268D01*
X121375518Y-102079272D01*
X121375519Y-102079277D01*
X121375520Y-102079283D01*
X121375521Y-102079285D01*
X121435046Y-102301438D01*
X121435049Y-102301448D01*
X121523057Y-102513917D01*
X121523061Y-102513927D01*
X121638055Y-102713102D01*
X121778064Y-102895566D01*
X121778070Y-102895573D01*
X121940689Y-103058192D01*
X121940696Y-103058198D01*
X122123160Y-103198207D01*
X122322335Y-103313201D01*
X122322336Y-103313201D01*
X122322339Y-103313203D01*
X122534824Y-103401217D01*
X122756980Y-103460743D01*
X122985004Y-103490763D01*
X122985011Y-103490763D01*
X123214989Y-103490763D01*
X123214996Y-103490763D01*
X123443020Y-103460743D01*
X123665176Y-103401217D01*
X123877661Y-103313203D01*
X124076840Y-103198207D01*
X124259305Y-103058197D01*
X124421934Y-102895568D01*
X124561944Y-102713103D01*
X124676940Y-102513924D01*
X124764954Y-102301439D01*
X124824480Y-102079283D01*
X124854500Y-101851259D01*
X124854500Y-101621267D01*
X124824480Y-101393243D01*
X124764954Y-101171087D01*
X124676940Y-100958602D01*
X124561944Y-100759423D01*
X124421934Y-100576958D01*
X124421929Y-100576952D01*
X124259310Y-100414333D01*
X124259303Y-100414327D01*
X124076839Y-100274318D01*
X123877664Y-100159324D01*
X123877654Y-100159320D01*
X123665185Y-100071312D01*
X123665178Y-100071310D01*
X123665176Y-100071309D01*
X123443020Y-100011783D01*
X123443014Y-100011782D01*
X123443009Y-100011781D01*
X123215005Y-99981764D01*
X123215002Y-99981763D01*
X123214996Y-99981763D01*
X122985004Y-99981763D01*
X122984998Y-99981763D01*
X122984994Y-99981764D01*
X122756990Y-100011781D01*
X122756983Y-100011782D01*
X122756980Y-100011783D01*
X122534824Y-100071309D01*
X122534814Y-100071312D01*
X122322345Y-100159320D01*
X122322335Y-100159324D01*
X122123160Y-100274318D01*
X121940696Y-100414327D01*
X121940689Y-100414333D01*
X121778070Y-100576952D01*
X121778064Y-100576959D01*
X121638055Y-100759423D01*
X121523061Y-100958598D01*
X121523057Y-100958608D01*
X121435049Y-101171077D01*
X121435046Y-101171087D01*
X121375521Y-101393240D01*
X121375518Y-101393253D01*
X121345501Y-101621257D01*
X121345500Y-101621273D01*
X102686586Y-101621273D01*
X102686586Y-99241766D01*
X102706271Y-99174727D01*
X102722905Y-99154085D01*
X103650267Y-98226723D01*
X103711590Y-98193238D01*
X103737948Y-98190404D01*
X126389042Y-98190404D01*
X126456081Y-98210089D01*
G37*
%TD.AperFunction*%
%TD*%
%TA.AperFunction,NonConductor*%
G36*
X64750000Y-53195500D02*
G01*
X63927490Y-53195500D01*
X63860451Y-53175815D01*
X63839809Y-53159181D01*
X61146810Y-50466181D01*
X61113325Y-50404858D01*
X61118309Y-50335166D01*
X61160181Y-50279233D01*
X61225645Y-50254816D01*
X61234491Y-50254500D01*
X64750000Y-50254500D01*
X64750000Y-53195500D01*
G37*
%TD.AperFunction*%
%TA.AperFunction,NonConductor*%
G36*
X60459703Y-50640777D02*
G01*
X60466181Y-50646809D01*
X63500950Y-53681578D01*
X63500965Y-53681595D01*
X63563032Y-53743662D01*
X63581637Y-53754403D01*
X63632466Y-53783749D01*
X63665199Y-53792519D01*
X63709912Y-53804501D01*
X63790088Y-53804501D01*
X63790092Y-53804500D01*
X63803787Y-53804500D01*
X64626000Y-53804500D01*
X64693039Y-53824185D01*
X64738794Y-53876989D01*
X64750000Y-53928500D01*
X64750000Y-59376002D01*
X64730315Y-59443041D01*
X64677511Y-59488796D01*
X64626000Y-59500002D01*
X60378500Y-59500000D01*
X60311460Y-59480315D01*
X60265706Y-59427511D01*
X60254500Y-59376000D01*
X60254500Y-50734490D01*
X60274185Y-50667451D01*
X60326989Y-50621696D01*
X60396147Y-50611752D01*
X60459703Y-50640777D01*
G37*
%TD.AperFunction*%
%TA.AperFunction,Conductor*%
%TO.N,/PSU5V*%
G36*
X101016398Y-75789657D02*
G01*
X101073835Y-75794438D01*
X101101190Y-75799013D01*
X101128542Y-75808414D01*
X101157066Y-75813185D01*
X101209825Y-75836351D01*
X101209833Y-75836353D01*
X101209843Y-75836359D01*
X101223200Y-75843594D01*
X101303850Y-75903779D01*
X101889513Y-76489878D01*
X102381333Y-76982065D01*
X102418569Y-77026062D01*
X102434674Y-77048636D01*
X102447365Y-77074619D01*
X102464156Y-77098153D01*
X102485091Y-77151857D01*
X102489404Y-77166362D01*
X102503879Y-77266331D01*
X102496939Y-82121230D01*
X107400693Y-87038928D01*
X107417114Y-87061996D01*
X107437880Y-87082960D01*
X107448131Y-87097360D01*
X107460798Y-87123363D01*
X107467319Y-87132524D01*
X107468328Y-87134613D01*
X107474710Y-87147939D01*
X107477538Y-87157729D01*
X107498444Y-87200644D01*
X107504768Y-87251963D01*
X107506602Y-87258311D01*
X107506300Y-87264402D01*
X107512495Y-87314669D01*
X107501160Y-87368349D01*
X107500928Y-87373058D01*
X107499313Y-87377099D01*
X107488761Y-87427077D01*
X107460372Y-87474568D01*
X107458304Y-87479745D01*
X107454946Y-87483644D01*
X107429814Y-87525689D01*
X107389273Y-87559927D01*
X107383348Y-87566811D01*
X107376111Y-87571044D01*
X107342042Y-87599818D01*
X107297015Y-87617314D01*
X107284182Y-87624822D01*
X107270725Y-87627530D01*
X107234956Y-87641430D01*
X107193421Y-87643089D01*
X107171554Y-87647491D01*
X107151140Y-87644779D01*
X107120161Y-87646017D01*
X107120108Y-87646011D01*
X107118373Y-87645792D01*
X107075795Y-87634769D01*
X107057667Y-87632361D01*
X107048148Y-87627611D01*
X107032280Y-87623504D01*
X107030146Y-87622649D01*
X107001503Y-87609645D01*
X106876080Y-87545739D01*
X106875995Y-87545696D01*
X106875967Y-87545686D01*
X106651405Y-87472721D01*
X106651386Y-87472715D01*
X106651376Y-87472712D01*
X106651369Y-87472710D01*
X106651362Y-87472708D01*
X106651359Y-87472707D01*
X106418100Y-87435763D01*
X106418096Y-87435763D01*
X106418092Y-87435763D01*
X106181908Y-87435763D01*
X106181903Y-87435763D01*
X106181898Y-87435763D01*
X105948639Y-87472707D01*
X105948636Y-87472708D01*
X105948592Y-87472721D01*
X105724015Y-87545691D01*
X105723995Y-87545700D01*
X105513580Y-87652911D01*
X105513572Y-87652915D01*
X105322486Y-87791748D01*
X105155485Y-87958749D01*
X105016652Y-88149835D01*
X105016648Y-88149843D01*
X104909437Y-88360258D01*
X104909428Y-88360278D01*
X104836458Y-88584855D01*
X104836445Y-88584899D01*
X104836444Y-88584902D01*
X104799500Y-88818161D01*
X104799500Y-89054363D01*
X104836444Y-89287622D01*
X104836445Y-89287625D01*
X104836458Y-89287669D01*
X104909428Y-89512246D01*
X104909437Y-89512266D01*
X105006258Y-89702289D01*
X105016653Y-89722690D01*
X105016656Y-89722695D01*
X105016657Y-89722696D01*
X105016659Y-89722699D01*
X105069215Y-89795037D01*
X105085611Y-89817603D01*
X105155483Y-89913773D01*
X105322490Y-90080780D01*
X105417759Y-90149997D01*
X105513567Y-90219606D01*
X105513572Y-90219609D01*
X105623411Y-90275574D01*
X105724008Y-90326831D01*
X105948632Y-90399816D01*
X106181908Y-90436763D01*
X106181912Y-90436763D01*
X106418088Y-90436763D01*
X106418092Y-90436763D01*
X106651368Y-90399816D01*
X106875992Y-90326831D01*
X107086433Y-90219606D01*
X107277510Y-90080780D01*
X107444517Y-89913773D01*
X107583343Y-89722696D01*
X107626922Y-89637165D01*
X107640018Y-89619450D01*
X107657232Y-89588158D01*
X107667735Y-89573949D01*
X107688523Y-89553836D01*
X107695215Y-89544784D01*
X107704478Y-89538398D01*
X107750297Y-89494066D01*
X107854329Y-89445317D01*
X107968552Y-89432987D01*
X108080590Y-89458414D01*
X108178301Y-89518842D01*
X108251097Y-89607723D01*
X108277517Y-89678876D01*
X108285222Y-89694526D01*
X108286211Y-89702289D01*
X108291089Y-89715425D01*
X108291091Y-89715433D01*
X108293714Y-89729059D01*
X108300006Y-89795037D01*
X108299998Y-90149996D01*
X108299999Y-90150000D01*
X108300000Y-90150001D01*
X110726059Y-92576059D01*
X111877335Y-93727335D01*
X111914583Y-93771314D01*
X111930697Y-93793883D01*
X111981153Y-93897088D01*
X111985489Y-93911651D01*
X112000000Y-94011242D01*
X112000000Y-95523679D01*
X111995239Y-95581128D01*
X111990674Y-95608482D01*
X111981285Y-95635830D01*
X111976527Y-95664348D01*
X111953374Y-95717132D01*
X111952035Y-95719609D01*
X111946010Y-95730742D01*
X111887017Y-95810250D01*
X110872111Y-96834814D01*
X110828302Y-96872276D01*
X110805813Y-96888494D01*
X110702840Y-96939439D01*
X110702831Y-96939442D01*
X110688018Y-96943928D01*
X110590168Y-96958893D01*
X102058534Y-97039698D01*
X102058528Y-97039697D01*
X102058526Y-97039698D01*
X102001040Y-97035481D01*
X101973644Y-97031175D01*
X101864646Y-96994906D01*
X101864635Y-96994900D01*
X101864634Y-96994900D01*
X101864632Y-96994898D01*
X101851220Y-96987804D01*
X101769975Y-96928413D01*
X100122116Y-95311477D01*
X100084452Y-95267851D01*
X100068132Y-95245446D01*
X100055185Y-95219588D01*
X100038157Y-95196210D01*
X100016696Y-95142714D01*
X100012222Y-95128191D01*
X99996770Y-95028753D01*
X99990040Y-94318161D01*
X104799500Y-94318161D01*
X104799500Y-94554363D01*
X104836444Y-94787622D01*
X104836445Y-94787625D01*
X104836458Y-94787669D01*
X104909428Y-95012246D01*
X104909437Y-95012266D01*
X105016648Y-95222681D01*
X105016649Y-95222683D01*
X105017167Y-95223546D01*
X105020201Y-95227574D01*
X105155480Y-95413770D01*
X105322492Y-95580782D01*
X105436799Y-95663830D01*
X105513567Y-95719606D01*
X105513572Y-95719609D01*
X105623411Y-95775574D01*
X105724008Y-95826831D01*
X105948632Y-95899816D01*
X106181908Y-95936763D01*
X106181912Y-95936763D01*
X106418088Y-95936763D01*
X106418092Y-95936763D01*
X106651368Y-95899816D01*
X106875992Y-95826831D01*
X107086433Y-95719606D01*
X107277510Y-95580780D01*
X107444517Y-95413773D01*
X107583343Y-95222696D01*
X107690568Y-95012255D01*
X107763553Y-94787631D01*
X107800500Y-94554355D01*
X107800500Y-94318171D01*
X107763553Y-94084895D01*
X107690568Y-93860271D01*
X107583343Y-93649830D01*
X107444517Y-93458753D01*
X107277510Y-93291746D01*
X107277502Y-93291739D01*
X107276534Y-93291036D01*
X107276496Y-93291009D01*
X107086433Y-93152920D01*
X107086434Y-93152920D01*
X107086432Y-93152919D01*
X107086427Y-93152916D01*
X107063263Y-93141113D01*
X107063261Y-93141112D01*
X106875994Y-93045696D01*
X106875992Y-93045695D01*
X106875987Y-93045693D01*
X106875984Y-93045692D01*
X106875977Y-93045689D01*
X106875967Y-93045686D01*
X106651405Y-92972721D01*
X106651386Y-92972715D01*
X106651376Y-92972712D01*
X106651369Y-92972710D01*
X106651362Y-92972708D01*
X106651359Y-92972707D01*
X106418100Y-92935763D01*
X106418096Y-92935763D01*
X106418092Y-92935763D01*
X106181908Y-92935763D01*
X106181903Y-92935763D01*
X106181898Y-92935763D01*
X105948639Y-92972707D01*
X105948636Y-92972708D01*
X105948592Y-92972721D01*
X105724015Y-93045691D01*
X105723995Y-93045700D01*
X105513580Y-93152911D01*
X105513572Y-93152915D01*
X105322486Y-93291748D01*
X105155485Y-93458749D01*
X105016652Y-93649835D01*
X105016648Y-93649843D01*
X104909437Y-93860258D01*
X104909428Y-93860278D01*
X104836458Y-94084855D01*
X104836445Y-94084899D01*
X104836444Y-94084902D01*
X104799500Y-94318161D01*
X99990040Y-94318161D01*
X99973557Y-92577750D01*
X99973548Y-92576077D01*
X99973541Y-92576059D01*
X99093945Y-91704898D01*
X99093944Y-91704898D01*
X99093943Y-91704898D01*
X99093934Y-91704898D01*
X99030617Y-91704907D01*
X99030616Y-91704908D01*
X99001418Y-91704912D01*
X80631499Y-91707956D01*
X80631495Y-91707955D01*
X80631494Y-91707956D01*
X80574049Y-91703205D01*
X80546691Y-91698644D01*
X80438036Y-91661363D01*
X80424683Y-91654140D01*
X80343949Y-91593952D01*
X79112157Y-90362155D01*
X79074908Y-90318175D01*
X79058795Y-90295608D01*
X79046093Y-90269627D01*
X79029287Y-90246089D01*
X79008336Y-90192399D01*
X79004053Y-90178010D01*
X78989547Y-90077253D01*
X78993823Y-88818161D01*
X92199500Y-88818161D01*
X92199500Y-89054363D01*
X92236444Y-89287622D01*
X92236445Y-89287625D01*
X92236458Y-89287669D01*
X92309428Y-89512246D01*
X92309437Y-89512266D01*
X92406258Y-89702289D01*
X92416653Y-89722690D01*
X92416656Y-89722695D01*
X92416657Y-89722696D01*
X92416659Y-89722699D01*
X92469215Y-89795037D01*
X92485611Y-89817603D01*
X92555483Y-89913773D01*
X92722490Y-90080780D01*
X92817759Y-90149997D01*
X92913567Y-90219606D01*
X92913572Y-90219609D01*
X93023411Y-90275574D01*
X93124008Y-90326831D01*
X93348632Y-90399816D01*
X93581908Y-90436763D01*
X93581912Y-90436763D01*
X93818088Y-90436763D01*
X93818092Y-90436763D01*
X94051368Y-90399816D01*
X94275992Y-90326831D01*
X94486433Y-90219606D01*
X94677510Y-90080780D01*
X94844517Y-89913773D01*
X94983343Y-89722696D01*
X95090568Y-89512255D01*
X95163553Y-89287631D01*
X95200500Y-89054355D01*
X95200500Y-88818171D01*
X95200498Y-88818161D01*
X96399500Y-88818161D01*
X96399500Y-89054363D01*
X96436444Y-89287622D01*
X96436445Y-89287625D01*
X96436458Y-89287669D01*
X96509428Y-89512246D01*
X96509437Y-89512266D01*
X96606258Y-89702289D01*
X96616653Y-89722690D01*
X96616656Y-89722695D01*
X96616657Y-89722696D01*
X96616659Y-89722699D01*
X96669215Y-89795037D01*
X96685611Y-89817603D01*
X96755483Y-89913773D01*
X96922490Y-90080780D01*
X97017759Y-90149997D01*
X97113567Y-90219606D01*
X97113572Y-90219609D01*
X97223411Y-90275574D01*
X97324008Y-90326831D01*
X97548632Y-90399816D01*
X97781908Y-90436763D01*
X97781912Y-90436763D01*
X98018088Y-90436763D01*
X98018092Y-90436763D01*
X98251368Y-90399816D01*
X98475992Y-90326831D01*
X98686433Y-90219606D01*
X98877510Y-90080780D01*
X99044517Y-89913773D01*
X99183343Y-89722696D01*
X99290568Y-89512255D01*
X99363553Y-89287631D01*
X99400500Y-89054355D01*
X99400500Y-88818171D01*
X99400498Y-88818161D01*
X100599500Y-88818161D01*
X100599500Y-89054363D01*
X100636444Y-89287622D01*
X100636445Y-89287625D01*
X100636458Y-89287669D01*
X100709428Y-89512246D01*
X100709437Y-89512266D01*
X100806258Y-89702289D01*
X100816653Y-89722690D01*
X100816656Y-89722695D01*
X100816657Y-89722696D01*
X100816659Y-89722699D01*
X100869215Y-89795037D01*
X100885611Y-89817603D01*
X100955483Y-89913773D01*
X101122490Y-90080780D01*
X101217759Y-90149997D01*
X101313567Y-90219606D01*
X101313572Y-90219609D01*
X101423411Y-90275574D01*
X101524008Y-90326831D01*
X101748632Y-90399816D01*
X101981908Y-90436763D01*
X101981912Y-90436763D01*
X102218088Y-90436763D01*
X102218092Y-90436763D01*
X102451368Y-90399816D01*
X102675992Y-90326831D01*
X102886433Y-90219606D01*
X103077510Y-90080780D01*
X103244517Y-89913773D01*
X103383343Y-89722696D01*
X103490568Y-89512255D01*
X103563553Y-89287631D01*
X103600500Y-89054355D01*
X103600500Y-88818171D01*
X103563553Y-88584895D01*
X103490568Y-88360271D01*
X103383343Y-88149830D01*
X103244517Y-87958753D01*
X103077510Y-87791746D01*
X103077502Y-87791739D01*
X103076534Y-87791036D01*
X103076496Y-87791009D01*
X102886433Y-87652920D01*
X102886434Y-87652920D01*
X102886432Y-87652919D01*
X102886427Y-87652916D01*
X102863263Y-87641113D01*
X102863261Y-87641112D01*
X102697784Y-87556798D01*
X102676000Y-87545699D01*
X102675998Y-87545698D01*
X102675992Y-87545695D01*
X102675987Y-87545693D01*
X102675984Y-87545692D01*
X102675977Y-87545689D01*
X102675967Y-87545686D01*
X102451405Y-87472721D01*
X102451386Y-87472715D01*
X102451376Y-87472712D01*
X102451369Y-87472710D01*
X102451362Y-87472708D01*
X102451359Y-87472707D01*
X102218100Y-87435763D01*
X102218096Y-87435763D01*
X102218092Y-87435763D01*
X101981908Y-87435763D01*
X101981903Y-87435763D01*
X101981898Y-87435763D01*
X101748639Y-87472707D01*
X101748636Y-87472708D01*
X101748592Y-87472721D01*
X101524015Y-87545691D01*
X101523995Y-87545700D01*
X101313580Y-87652911D01*
X101313572Y-87652915D01*
X101122486Y-87791748D01*
X100955485Y-87958749D01*
X100816652Y-88149835D01*
X100816648Y-88149843D01*
X100709437Y-88360258D01*
X100709428Y-88360278D01*
X100636458Y-88584855D01*
X100636445Y-88584899D01*
X100636444Y-88584902D01*
X100599500Y-88818161D01*
X99400498Y-88818161D01*
X99363554Y-88584901D01*
X99363553Y-88584900D01*
X99363553Y-88584895D01*
X99290568Y-88360271D01*
X99183343Y-88149830D01*
X99044517Y-87958753D01*
X98877510Y-87791746D01*
X98877502Y-87791739D01*
X98876534Y-87791036D01*
X98876496Y-87791009D01*
X98686433Y-87652920D01*
X98686434Y-87652920D01*
X98686432Y-87652919D01*
X98686427Y-87652916D01*
X98663263Y-87641113D01*
X98663261Y-87641112D01*
X98497784Y-87556798D01*
X98476000Y-87545699D01*
X98475998Y-87545698D01*
X98475992Y-87545695D01*
X98475987Y-87545693D01*
X98475984Y-87545692D01*
X98475977Y-87545689D01*
X98475967Y-87545686D01*
X98251405Y-87472721D01*
X98251386Y-87472715D01*
X98251376Y-87472712D01*
X98251369Y-87472710D01*
X98251362Y-87472708D01*
X98251359Y-87472707D01*
X98018100Y-87435763D01*
X98018096Y-87435763D01*
X98018092Y-87435763D01*
X97781908Y-87435763D01*
X97781903Y-87435763D01*
X97781898Y-87435763D01*
X97548639Y-87472707D01*
X97548636Y-87472708D01*
X97548592Y-87472721D01*
X97324015Y-87545691D01*
X97323995Y-87545700D01*
X97113580Y-87652911D01*
X97113572Y-87652915D01*
X96922486Y-87791748D01*
X96755485Y-87958749D01*
X96616652Y-88149835D01*
X96616648Y-88149843D01*
X96509437Y-88360258D01*
X96509428Y-88360278D01*
X96436458Y-88584855D01*
X96436445Y-88584899D01*
X96436444Y-88584902D01*
X96399500Y-88818161D01*
X95200498Y-88818161D01*
X95163554Y-88584901D01*
X95163553Y-88584900D01*
X95163553Y-88584895D01*
X95090568Y-88360271D01*
X94983343Y-88149830D01*
X94844517Y-87958753D01*
X94677510Y-87791746D01*
X94677502Y-87791739D01*
X94676534Y-87791036D01*
X94676496Y-87791009D01*
X94486433Y-87652920D01*
X94486434Y-87652920D01*
X94486432Y-87652919D01*
X94486427Y-87652916D01*
X94463263Y-87641113D01*
X94463261Y-87641112D01*
X94297784Y-87556798D01*
X94276000Y-87545699D01*
X94275998Y-87545698D01*
X94275992Y-87545695D01*
X94275987Y-87545693D01*
X94275984Y-87545692D01*
X94275977Y-87545689D01*
X94275967Y-87545686D01*
X94051405Y-87472721D01*
X94051386Y-87472715D01*
X94051376Y-87472712D01*
X94051369Y-87472710D01*
X94051362Y-87472708D01*
X94051359Y-87472707D01*
X93818100Y-87435763D01*
X93818096Y-87435763D01*
X93818092Y-87435763D01*
X93581908Y-87435763D01*
X93581903Y-87435763D01*
X93581898Y-87435763D01*
X93348639Y-87472707D01*
X93348636Y-87472708D01*
X93348592Y-87472721D01*
X93124015Y-87545691D01*
X93123995Y-87545700D01*
X92913580Y-87652911D01*
X92913572Y-87652915D01*
X92722486Y-87791748D01*
X92555485Y-87958749D01*
X92416652Y-88149835D01*
X92416648Y-88149843D01*
X92309437Y-88360258D01*
X92309428Y-88360278D01*
X92236458Y-88584855D01*
X92236445Y-88584899D01*
X92236444Y-88584902D01*
X92199500Y-88818161D01*
X78993823Y-88818161D01*
X79009735Y-84133396D01*
X79014690Y-84075985D01*
X79019348Y-84048642D01*
X79057017Y-83940119D01*
X79064541Y-83926328D01*
X79122934Y-83847903D01*
X81461512Y-81486649D01*
X83624578Y-81486649D01*
X83624578Y-81537292D01*
X83624578Y-81661971D01*
X83665010Y-81832570D01*
X83665011Y-81832573D01*
X83735312Y-81972554D01*
X83743695Y-81989246D01*
X83808901Y-82069293D01*
X84127090Y-82387483D01*
X84587422Y-81927151D01*
X84599245Y-81918709D01*
X84608639Y-81907619D01*
X84645752Y-81885504D01*
X84680917Y-81860397D01*
X84694847Y-81856249D01*
X84707333Y-81848810D01*
X84749616Y-81839943D01*
X84791028Y-81827615D01*
X84805550Y-81828215D01*
X84819775Y-81825233D01*
X84862649Y-81830577D01*
X84905817Y-81832363D01*
X84919356Y-81837646D01*
X84933779Y-81839444D01*
X84972591Y-81858418D01*
X85012845Y-81874125D01*
X85026565Y-81884804D01*
X85036993Y-81889902D01*
X85080977Y-81927155D01*
X85082392Y-81928570D01*
X85149150Y-82022070D01*
X85181932Y-82132181D01*
X85177184Y-82246970D01*
X85135422Y-82353998D01*
X85082392Y-82422130D01*
X84622066Y-82882456D01*
X84622066Y-82882457D01*
X84940244Y-83200635D01*
X84940256Y-83200645D01*
X84952771Y-83210840D01*
X85020299Y-83265852D01*
X85124906Y-83318387D01*
X85176979Y-83344539D01*
X85347577Y-83384971D01*
X85347580Y-83384972D01*
X85522898Y-83384972D01*
X85522900Y-83384971D01*
X85693498Y-83344539D01*
X85850174Y-83265854D01*
X85930221Y-83200648D01*
X86248412Y-82882457D01*
X86248411Y-82882456D01*
X86248412Y-82882456D01*
X85788085Y-82422130D01*
X85779639Y-82410301D01*
X85768549Y-82400908D01*
X85746434Y-82363794D01*
X85721327Y-82328630D01*
X85717179Y-82314699D01*
X85709740Y-82302214D01*
X85700873Y-82259930D01*
X85688545Y-82218519D01*
X85689145Y-82203996D01*
X85686163Y-82189772D01*
X85691507Y-82146897D01*
X85693293Y-82103730D01*
X85698576Y-82090190D01*
X85700374Y-82075768D01*
X85719348Y-82036955D01*
X85735055Y-81996702D01*
X85745734Y-81982981D01*
X85750832Y-81972554D01*
X85788079Y-81928576D01*
X85789501Y-81927154D01*
X85882998Y-81860399D01*
X85993109Y-81827617D01*
X86107898Y-81832365D01*
X86214926Y-81874127D01*
X86283058Y-81927157D01*
X86743383Y-82387483D01*
X86743384Y-82387483D01*
X86743385Y-82387483D01*
X87044642Y-82086225D01*
X87061572Y-82069295D01*
X87061573Y-82069293D01*
X87126779Y-81989250D01*
X87205467Y-81832570D01*
X87245899Y-81661972D01*
X87245900Y-81661969D01*
X87245900Y-81486652D01*
X87245899Y-81486649D01*
X87244944Y-81480767D01*
X87242314Y-81471523D01*
X87207205Y-81323386D01*
X87205467Y-81316051D01*
X87126782Y-81159375D01*
X87061574Y-81079325D01*
X87061572Y-81079322D01*
X86743387Y-80761137D01*
X86743385Y-80761137D01*
X86283058Y-81221464D01*
X86271229Y-81229909D01*
X86261836Y-81241000D01*
X86224722Y-81263114D01*
X86189558Y-81288222D01*
X86175627Y-81292369D01*
X86163142Y-81299809D01*
X86120858Y-81308675D01*
X86079447Y-81321004D01*
X86064924Y-81320403D01*
X86050700Y-81323386D01*
X86007825Y-81318041D01*
X85964658Y-81316256D01*
X85951118Y-81310972D01*
X85936696Y-81309175D01*
X85897883Y-81290200D01*
X85857630Y-81274494D01*
X85843909Y-81263814D01*
X85833482Y-81258717D01*
X85789498Y-81221464D01*
X85788083Y-81220049D01*
X85721325Y-81126549D01*
X85688543Y-81016438D01*
X85693291Y-80901649D01*
X85735053Y-80794621D01*
X85788077Y-80726496D01*
X86248410Y-80266163D01*
X85930223Y-79947977D01*
X85928578Y-79946332D01*
X85922224Y-79941461D01*
X85850176Y-79882768D01*
X85693498Y-79804082D01*
X85522900Y-79763650D01*
X85522899Y-79763650D01*
X85347577Y-79763650D01*
X85176978Y-79804082D01*
X85176975Y-79804083D01*
X85020304Y-79882765D01*
X84940257Y-79947971D01*
X84622065Y-80266163D01*
X84622065Y-80266164D01*
X85082392Y-80726491D01*
X85090837Y-80738319D01*
X85101928Y-80747713D01*
X85124042Y-80784826D01*
X85149150Y-80819991D01*
X85153297Y-80833921D01*
X85160737Y-80846407D01*
X85169603Y-80888690D01*
X85181932Y-80930102D01*
X85181331Y-80944624D01*
X85184314Y-80958849D01*
X85178969Y-81001723D01*
X85177184Y-81044891D01*
X85171900Y-81058430D01*
X85170103Y-81072853D01*
X85151128Y-81111665D01*
X85135422Y-81151919D01*
X85124742Y-81165639D01*
X85119645Y-81176067D01*
X85082392Y-81220051D01*
X85080979Y-81221464D01*
X84987479Y-81288222D01*
X84877368Y-81321004D01*
X84762579Y-81316256D01*
X84655551Y-81274494D01*
X84587419Y-81221464D01*
X84127092Y-80761138D01*
X83808910Y-81079320D01*
X83808908Y-81079323D01*
X83743698Y-81159371D01*
X83665010Y-81316051D01*
X83624578Y-81486649D01*
X81461512Y-81486649D01*
X85030196Y-77883362D01*
X85073980Y-77845917D01*
X85096483Y-77829685D01*
X85199438Y-77778739D01*
X85213990Y-77774330D01*
X85313488Y-77759343D01*
X89529582Y-77739001D01*
X91343953Y-75909883D01*
X91387767Y-75872472D01*
X91410281Y-75856259D01*
X91513283Y-75805390D01*
X91527588Y-75801068D01*
X91628646Y-75786156D01*
X101016398Y-75789657D01*
G37*
%TD.AperFunction*%
%TD*%
%TA.AperFunction,Conductor*%
%TO.N,/PSU12V*%
G36*
X101465740Y-65005021D02*
G01*
X101490984Y-65012434D01*
X101543730Y-65043730D01*
X102451074Y-65951074D01*
X102472223Y-65979325D01*
X102484831Y-66002414D01*
X102500000Y-66061843D01*
X102500000Y-73680808D01*
X102494976Y-73715745D01*
X102487564Y-73740986D01*
X102456269Y-73793730D01*
X101548926Y-74701073D01*
X101532287Y-74713529D01*
X101520675Y-74722222D01*
X101497587Y-74734830D01*
X101438157Y-74750000D01*
X91249998Y-74750000D01*
X89539290Y-76460707D01*
X89539291Y-76460707D01*
X89511037Y-76481859D01*
X89487988Y-76494445D01*
X89428305Y-76509613D01*
X79847910Y-76489925D01*
X79847905Y-76489928D01*
X69979996Y-86317370D01*
X69979995Y-86317371D01*
X69979994Y-86317373D01*
X70017675Y-95136744D01*
X70019308Y-95519074D01*
X70019308Y-95519308D01*
X70019309Y-95519309D01*
X70019309Y-95519310D01*
X71750001Y-97250001D01*
X71750002Y-97250002D01*
X78875001Y-97250000D01*
X79500000Y-96416667D01*
X79500000Y-96269750D01*
X79505021Y-96234823D01*
X79508207Y-96223970D01*
X79545977Y-96165189D01*
X79609531Y-96136160D01*
X79678686Y-96146098D01*
X79685672Y-96149288D01*
X79721842Y-96174401D01*
X79877587Y-96330146D01*
X79877594Y-96330152D01*
X79877597Y-96330154D01*
X79877601Y-96330158D01*
X79990343Y-96416667D01*
X80069990Y-96477782D01*
X80280003Y-96599033D01*
X80280011Y-96599037D01*
X80280012Y-96599038D01*
X80280017Y-96599040D01*
X80280019Y-96599041D01*
X80349999Y-96628027D01*
X80350000Y-96628027D01*
X80350000Y-96628026D01*
X80350000Y-95249538D01*
X80369685Y-95182499D01*
X80422489Y-95136744D01*
X80491647Y-95126800D01*
X80542891Y-95146436D01*
X80673683Y-95233829D01*
X80673689Y-95233832D01*
X80673690Y-95233833D01*
X80837480Y-95301677D01*
X81011353Y-95336262D01*
X81011357Y-95336263D01*
X81188642Y-95336263D01*
X81188643Y-95336263D01*
X81188644Y-95336262D01*
X81362520Y-95301677D01*
X81526310Y-95233833D01*
X81657109Y-95146435D01*
X81723786Y-95125558D01*
X81791167Y-95144042D01*
X81837857Y-95196021D01*
X81850000Y-95249538D01*
X81850000Y-96628027D01*
X81919980Y-96599041D01*
X81919996Y-96599033D01*
X82130009Y-96477782D01*
X82322405Y-96330152D01*
X82322412Y-96330146D01*
X82493883Y-96158675D01*
X82493889Y-96158668D01*
X82641519Y-95966272D01*
X82762772Y-95756256D01*
X82762779Y-95756241D01*
X82855578Y-95532202D01*
X82918346Y-95297950D01*
X82933050Y-95186263D01*
X81913275Y-95186263D01*
X81846236Y-95166578D01*
X81800481Y-95113774D01*
X81790537Y-95044616D01*
X81810173Y-94993372D01*
X81897566Y-94862579D01*
X81897566Y-94862578D01*
X81897570Y-94862573D01*
X81965414Y-94698783D01*
X82000000Y-94524905D01*
X82000000Y-94347621D01*
X81965414Y-94173743D01*
X81897570Y-94009953D01*
X81897569Y-94009952D01*
X81897566Y-94009946D01*
X81810173Y-93879154D01*
X81789295Y-93812477D01*
X81807779Y-93745096D01*
X81859758Y-93698406D01*
X81913275Y-93686263D01*
X82933048Y-93686263D01*
X82933049Y-93686263D01*
X82918346Y-93574575D01*
X82855578Y-93340323D01*
X82762779Y-93116284D01*
X82762772Y-93116269D01*
X82667606Y-92951437D01*
X82654492Y-92918680D01*
X82651218Y-92905185D01*
X82654541Y-92835398D01*
X82695064Y-92778487D01*
X82696355Y-92777472D01*
X82749552Y-92753185D01*
X82754481Y-92752235D01*
X82777919Y-92750000D01*
X83616089Y-92750000D01*
X83651021Y-92755021D01*
X83664340Y-92758932D01*
X83723118Y-92796706D01*
X83752144Y-92860261D01*
X83752146Y-92860278D01*
X83752377Y-92861886D01*
X83746818Y-92920071D01*
X83745179Y-92924807D01*
X83735385Y-92946254D01*
X83637235Y-93116255D01*
X83637227Y-93116269D01*
X83637223Y-93116276D01*
X83637220Y-93116283D01*
X83637214Y-93116296D01*
X83544422Y-93340317D01*
X83481652Y-93574578D01*
X83466950Y-93686262D01*
X83466950Y-93686263D01*
X84486725Y-93686263D01*
X84553764Y-93705948D01*
X84599519Y-93758752D01*
X84609463Y-93827910D01*
X84589827Y-93879154D01*
X84502433Y-94009946D01*
X84502428Y-94009955D01*
X84434586Y-94173742D01*
X84434584Y-94173750D01*
X84400000Y-94347616D01*
X84400000Y-94524909D01*
X84434584Y-94698775D01*
X84434586Y-94698783D01*
X84502428Y-94862570D01*
X84502433Y-94862579D01*
X84589827Y-94993372D01*
X84610705Y-95060049D01*
X84592221Y-95127430D01*
X84540242Y-95174120D01*
X84486725Y-95186263D01*
X83466950Y-95186263D01*
X83481652Y-95297946D01*
X83544422Y-95532207D01*
X83637214Y-95756228D01*
X83637220Y-95756241D01*
X83637227Y-95756256D01*
X83758480Y-95966272D01*
X83758482Y-95966275D01*
X83758483Y-95966276D01*
X83906103Y-96158660D01*
X83906107Y-96158665D01*
X83906110Y-96158668D01*
X83906116Y-96158675D01*
X84077587Y-96330146D01*
X84077594Y-96330152D01*
X84077597Y-96330154D01*
X84077601Y-96330158D01*
X84190343Y-96416667D01*
X84269990Y-96477782D01*
X84480003Y-96599033D01*
X84480011Y-96599037D01*
X84480012Y-96599038D01*
X84480017Y-96599040D01*
X84480019Y-96599041D01*
X84549999Y-96628027D01*
X84550000Y-96628027D01*
X84550000Y-96628026D01*
X84550000Y-95249538D01*
X84569685Y-95182499D01*
X84622489Y-95136744D01*
X84691647Y-95126800D01*
X84742891Y-95146436D01*
X84873683Y-95233829D01*
X84873689Y-95233832D01*
X84873690Y-95233833D01*
X85037480Y-95301677D01*
X85211353Y-95336262D01*
X85211357Y-95336263D01*
X85388642Y-95336263D01*
X85388643Y-95336263D01*
X85388644Y-95336262D01*
X85562520Y-95301677D01*
X85726310Y-95233833D01*
X85857109Y-95146435D01*
X85923786Y-95125558D01*
X85991167Y-95144042D01*
X86037857Y-95196021D01*
X86050000Y-95249538D01*
X86050000Y-96628027D01*
X86119980Y-96599041D01*
X86119996Y-96599033D01*
X86330009Y-96477782D01*
X86522405Y-96330152D01*
X86522412Y-96330146D01*
X86693883Y-96158675D01*
X86693889Y-96158668D01*
X86766770Y-96063687D01*
X86766773Y-96063685D01*
X86792015Y-96039034D01*
X86801152Y-96032362D01*
X86866898Y-96008723D01*
X86934990Y-96024382D01*
X86983803Y-96074360D01*
X86985524Y-96077603D01*
X87000000Y-96135743D01*
X87000000Y-102180808D01*
X86994976Y-102215745D01*
X86987564Y-102240986D01*
X86956269Y-102293730D01*
X85548926Y-103701073D01*
X85520675Y-103722222D01*
X85497587Y-103734830D01*
X85438157Y-103750000D01*
X68819192Y-103750000D01*
X68784256Y-103744977D01*
X68759014Y-103737565D01*
X68706269Y-103706269D01*
X66621273Y-101621273D01*
X75145500Y-101621273D01*
X75145500Y-101851252D01*
X75145501Y-101851268D01*
X75175518Y-102079272D01*
X75175519Y-102079277D01*
X75175520Y-102079283D01*
X75175521Y-102079285D01*
X75176819Y-102084132D01*
X75176829Y-102084171D01*
X75235044Y-102301434D01*
X75235052Y-102301457D01*
X75322775Y-102513236D01*
X75323035Y-102513874D01*
X75323059Y-102513924D01*
X75438050Y-102713094D01*
X75438061Y-102713110D01*
X75578057Y-102895558D01*
X75578061Y-102895563D01*
X75578064Y-102895566D01*
X75578070Y-102895573D01*
X75740689Y-103058192D01*
X75740696Y-103058198D01*
X75740699Y-103058200D01*
X75740703Y-103058204D01*
X75899402Y-103179977D01*
X75923160Y-103198207D01*
X75923167Y-103198211D01*
X76118875Y-103311204D01*
X76124090Y-103314214D01*
X76124109Y-103314225D01*
X76124695Y-103314563D01*
X76129835Y-103316307D01*
X76334824Y-103401217D01*
X76556980Y-103460743D01*
X76785004Y-103490763D01*
X76785011Y-103490763D01*
X77014989Y-103490763D01*
X77014996Y-103490763D01*
X77243020Y-103460743D01*
X77465176Y-103401217D01*
X77677661Y-103313203D01*
X77876840Y-103198207D01*
X78059305Y-103058197D01*
X78221934Y-102895568D01*
X78361944Y-102713103D01*
X78476940Y-102513924D01*
X78564954Y-102301439D01*
X78624480Y-102079283D01*
X78654500Y-101851259D01*
X78654500Y-101621267D01*
X78624480Y-101393243D01*
X78564954Y-101171087D01*
X78476940Y-100958602D01*
X78361944Y-100759423D01*
X78221934Y-100576958D01*
X78221929Y-100576952D01*
X78059310Y-100414333D01*
X78059303Y-100414327D01*
X78059300Y-100414325D01*
X78059295Y-100414320D01*
X77876847Y-100274324D01*
X77876845Y-100274322D01*
X77876839Y-100274318D01*
X77876834Y-100274315D01*
X77876831Y-100274313D01*
X77677661Y-100159322D01*
X77677614Y-100159299D01*
X77677036Y-100159064D01*
X77600259Y-100127262D01*
X77469226Y-100072985D01*
X77467401Y-100072152D01*
X77466929Y-100071973D01*
X77465418Y-100071373D01*
X77244032Y-100012054D01*
X77244030Y-100012053D01*
X77243020Y-100011783D01*
X77243014Y-100011782D01*
X77243009Y-100011781D01*
X77018211Y-99982186D01*
X77017220Y-99982055D01*
X77016874Y-99982010D01*
X77016859Y-99982007D01*
X77016800Y-99982000D01*
X77016797Y-99981998D01*
X77015193Y-99981763D01*
X77015002Y-99981763D01*
X77014996Y-99981763D01*
X76785004Y-99981763D01*
X76784998Y-99981763D01*
X76784996Y-99981763D01*
X76779492Y-99982440D01*
X76778753Y-99982583D01*
X76778346Y-99982639D01*
X76556990Y-100011781D01*
X76556983Y-100011782D01*
X76556980Y-100011783D01*
X76545924Y-100014745D01*
X76545919Y-100014746D01*
X76334827Y-100071307D01*
X76334804Y-100071316D01*
X76123025Y-100159038D01*
X76122395Y-100159294D01*
X76122337Y-100159322D01*
X75923167Y-100274313D01*
X75923151Y-100274324D01*
X75740703Y-100414320D01*
X75740688Y-100414334D01*
X75740680Y-100414341D01*
X75578078Y-100576943D01*
X75578071Y-100576951D01*
X75578057Y-100576966D01*
X75438061Y-100759414D01*
X75438050Y-100759430D01*
X75323059Y-100958600D01*
X75323031Y-100958658D01*
X75322775Y-100959288D01*
X75235053Y-101171067D01*
X75235044Y-101171090D01*
X75175524Y-101393224D01*
X75175519Y-101393249D01*
X75175516Y-101393262D01*
X75145503Y-101621240D01*
X75145501Y-101621257D01*
X75145500Y-101621273D01*
X66621273Y-101621273D01*
X63803910Y-98803910D01*
X63803905Y-98803905D01*
X63782757Y-98775655D01*
X63770137Y-98752543D01*
X63754969Y-98693251D01*
X63740038Y-84595673D01*
X63745025Y-84560738D01*
X63752410Y-84535490D01*
X63783647Y-84482716D01*
X74006162Y-74238521D01*
X77478132Y-74238521D01*
X77478132Y-74238522D01*
X77478132Y-74238523D01*
X77690246Y-74450637D01*
X77690264Y-74450653D01*
X77770294Y-74515847D01*
X77770307Y-74515856D01*
X77770317Y-74515861D01*
X77926973Y-74594537D01*
X78097578Y-74634972D01*
X78272899Y-74634972D01*
X78272900Y-74634972D01*
X78443503Y-74594537D01*
X78600174Y-74515854D01*
X78600175Y-74515853D01*
X78600184Y-74515845D01*
X78602572Y-74514122D01*
X78605067Y-74511868D01*
X78680220Y-74450649D01*
X78680235Y-74450635D01*
X78892346Y-74238524D01*
X78892346Y-74238523D01*
X78185239Y-73531417D01*
X78146481Y-73570175D01*
X78146480Y-73570175D01*
X77478132Y-74238521D01*
X74006162Y-74238521D01*
X75504855Y-72736650D01*
X76374578Y-72736650D01*
X76374578Y-72911971D01*
X76415012Y-73082575D01*
X76415013Y-73082578D01*
X76493693Y-73239243D01*
X76495426Y-73241643D01*
X76497680Y-73244139D01*
X76535231Y-73290236D01*
X76558904Y-73319297D01*
X76558919Y-73319313D01*
X76558925Y-73319319D01*
X76771023Y-73531418D01*
X76771024Y-73531418D01*
X77478133Y-72824311D01*
X77412307Y-72758485D01*
X77685239Y-72758485D01*
X77685239Y-72890137D01*
X77687374Y-72898104D01*
X77687374Y-72898108D01*
X77719313Y-73017302D01*
X77719315Y-73017307D01*
X77756998Y-73082575D01*
X77785140Y-73131318D01*
X77878232Y-73224410D01*
X77912404Y-73244139D01*
X77992242Y-73290234D01*
X77992243Y-73290234D01*
X77992246Y-73290236D01*
X78119413Y-73324311D01*
X78251065Y-73324311D01*
X78378232Y-73290236D01*
X78492246Y-73224410D01*
X78585338Y-73131318D01*
X78651164Y-73017304D01*
X78685239Y-72890137D01*
X78685239Y-72824310D01*
X78892345Y-72824310D01*
X78892345Y-72824311D01*
X79599450Y-73531417D01*
X79599451Y-73531417D01*
X79811560Y-73319308D01*
X79811568Y-73319299D01*
X79876779Y-73239250D01*
X79876784Y-73239242D01*
X79884234Y-73224407D01*
X79955465Y-73082576D01*
X79955465Y-73082575D01*
X79995900Y-72911972D01*
X79995900Y-72736648D01*
X79955465Y-72566045D01*
X79876783Y-72409377D01*
X79875050Y-72406977D01*
X79872796Y-72404481D01*
X79835246Y-72358385D01*
X79811573Y-72329324D01*
X79811558Y-72329308D01*
X79599452Y-72117203D01*
X79599451Y-72117203D01*
X79599450Y-72117203D01*
X78931103Y-72785551D01*
X78892345Y-72824310D01*
X78685239Y-72824310D01*
X78685239Y-72758485D01*
X78651164Y-72631318D01*
X78585338Y-72517304D01*
X78492246Y-72424212D01*
X78458071Y-72404481D01*
X78378235Y-72358387D01*
X78378230Y-72358385D01*
X78259036Y-72326446D01*
X78259033Y-72326446D01*
X78251065Y-72324311D01*
X78119413Y-72324311D01*
X78111445Y-72326446D01*
X78111442Y-72326446D01*
X77992247Y-72358385D01*
X77992242Y-72358387D01*
X77878235Y-72424210D01*
X77878229Y-72424214D01*
X77785142Y-72517301D01*
X77785138Y-72517307D01*
X77719315Y-72631314D01*
X77719313Y-72631319D01*
X77687374Y-72750513D01*
X77687374Y-72750517D01*
X77685239Y-72758485D01*
X77412307Y-72758485D01*
X76771026Y-72117204D01*
X76558897Y-72329334D01*
X76558891Y-72329341D01*
X76558884Y-72329348D01*
X76493704Y-72409361D01*
X76493703Y-72409363D01*
X76493700Y-72409367D01*
X76493687Y-72409389D01*
X76415013Y-72566042D01*
X76415012Y-72566045D01*
X76415012Y-72566046D01*
X76374578Y-72736650D01*
X75504855Y-72736650D01*
X76828603Y-71410095D01*
X77478131Y-71410095D01*
X77478131Y-71410096D01*
X77478131Y-71410097D01*
X78185239Y-72117205D01*
X78185240Y-72117205D01*
X78892345Y-71410098D01*
X78892345Y-71410097D01*
X78680226Y-71197979D01*
X78680218Y-71197972D01*
X78680213Y-71197968D01*
X78600183Y-71132774D01*
X78600170Y-71132765D01*
X78600163Y-71132761D01*
X78600159Y-71132759D01*
X78443506Y-71054085D01*
X78443504Y-71054084D01*
X78443503Y-71054084D01*
X78272899Y-71013650D01*
X78272897Y-71013650D01*
X78097581Y-71013650D01*
X78097579Y-71013650D01*
X77926974Y-71054084D01*
X77926970Y-71054085D01*
X77770305Y-71132765D01*
X77767906Y-71134497D01*
X77765410Y-71136752D01*
X77690248Y-71197979D01*
X77690229Y-71197997D01*
X77478131Y-71410095D01*
X76828603Y-71410095D01*
X77936152Y-70300197D01*
X77964369Y-70279030D01*
X77987434Y-70266404D01*
X78046949Y-70251176D01*
X86748985Y-70249803D01*
X86783912Y-70254820D01*
X86805281Y-70261091D01*
X86855508Y-70289928D01*
X86858090Y-70292366D01*
X86858761Y-70293000D01*
X86873930Y-70310256D01*
X86979205Y-70455154D01*
X86979212Y-70455162D01*
X87157336Y-70633286D01*
X87157345Y-70633294D01*
X87157369Y-70633312D01*
X87220725Y-70679343D01*
X87220729Y-70679345D01*
X87361155Y-70781370D01*
X87504184Y-70854247D01*
X87504183Y-70854247D01*
X87540752Y-70872879D01*
X87582775Y-70894291D01*
X87586488Y-70896184D01*
X87590243Y-70897243D01*
X87800780Y-70965650D01*
X87825215Y-70973590D01*
X88074038Y-71013000D01*
X88074039Y-71013000D01*
X88325961Y-71013000D01*
X88325962Y-71013000D01*
X88574785Y-70973590D01*
X88814379Y-70895741D01*
X89038845Y-70781370D01*
X89242656Y-70633293D01*
X89420793Y-70455156D01*
X89568870Y-70251345D01*
X89683241Y-70026879D01*
X89761090Y-69787285D01*
X89761092Y-69787268D01*
X89762227Y-69782546D01*
X89762637Y-69782644D01*
X89771396Y-69754317D01*
X89784754Y-69726138D01*
X89809105Y-69691588D01*
X94450290Y-65048939D01*
X94478537Y-65027786D01*
X94501624Y-65015176D01*
X94561066Y-65000000D01*
X101430808Y-65000000D01*
X101465740Y-65005021D01*
G37*
%TD.AperFunction*%
%TD*%
%TA.AperFunction,NonConductor*%
G36*
X82138539Y-50274185D02*
G01*
X82184294Y-50326989D01*
X82195500Y-50378500D01*
X82195500Y-53071500D01*
X82175815Y-53138539D01*
X82123011Y-53184294D01*
X82071500Y-53195500D01*
X78459911Y-53195500D01*
X78382466Y-53216251D01*
X78352783Y-53233387D01*
X78290786Y-53250000D01*
X76709214Y-53250000D01*
X76647216Y-53233387D01*
X76617534Y-53216251D01*
X76540089Y-53195500D01*
X76540088Y-53195500D01*
X72928500Y-53195500D01*
X72861461Y-53175815D01*
X72815706Y-53123011D01*
X72804500Y-53071500D01*
X72804500Y-50378500D01*
X72824185Y-50311461D01*
X72876989Y-50265706D01*
X72928500Y-50254500D01*
X82071500Y-50254500D01*
X82138539Y-50274185D01*
G37*
%TD.AperFunction*%
%TA.AperFunction,NonConductor*%
G36*
X72138539Y-50274185D02*
G01*
X72184294Y-50326989D01*
X72195500Y-50378500D01*
X72195500Y-53071500D01*
X72175815Y-53138539D01*
X72123011Y-53184294D01*
X72071500Y-53195500D01*
X68959912Y-53195500D01*
X68882467Y-53216251D01*
X68852784Y-53233387D01*
X68790787Y-53250000D01*
X67209213Y-53250000D01*
X67147215Y-53233387D01*
X67117533Y-53216251D01*
X67040088Y-53195500D01*
X67040087Y-53195500D01*
X64750000Y-53195500D01*
X64750000Y-50254500D01*
X72071500Y-50254500D01*
X72138539Y-50274185D01*
G37*
%TD.AperFunction*%
%TA.AperFunction,NonConductor*%
G36*
X136943039Y-50274185D02*
G01*
X136988794Y-50326989D01*
X137000000Y-50378500D01*
X137000000Y-53071500D01*
X136980315Y-53138539D01*
X136927511Y-53184294D01*
X136876000Y-53195500D01*
X133459910Y-53195500D01*
X133382465Y-53216251D01*
X133352782Y-53233387D01*
X133290785Y-53250000D01*
X131709213Y-53250000D01*
X131647215Y-53233387D01*
X131617533Y-53216251D01*
X131540088Y-53195500D01*
X131540087Y-53195500D01*
X127928500Y-53195500D01*
X127861461Y-53175815D01*
X127815706Y-53123011D01*
X127804500Y-53071500D01*
X127804500Y-50378500D01*
X127824185Y-50311461D01*
X127876989Y-50265706D01*
X127928500Y-50254500D01*
X136876000Y-50254500D01*
X136943039Y-50274185D01*
G37*
%TD.AperFunction*%
%TA.AperFunction,NonConductor*%
G36*
X127138539Y-50274185D02*
G01*
X127184294Y-50326989D01*
X127195500Y-50378500D01*
X127195500Y-53071500D01*
X127175815Y-53138539D01*
X127123011Y-53184294D01*
X127071500Y-53195500D01*
X123459910Y-53195500D01*
X123382465Y-53216251D01*
X123352782Y-53233387D01*
X123290785Y-53250000D01*
X121709213Y-53250000D01*
X121647215Y-53233387D01*
X121617533Y-53216251D01*
X121540088Y-53195500D01*
X121540087Y-53195500D01*
X117928500Y-53195500D01*
X117861461Y-53175815D01*
X117815706Y-53123011D01*
X117804500Y-53071500D01*
X117804500Y-50378500D01*
X117824185Y-50311461D01*
X117876989Y-50265706D01*
X117928500Y-50254500D01*
X127071500Y-50254500D01*
X127138539Y-50274185D01*
G37*
%TD.AperFunction*%
%TA.AperFunction,NonConductor*%
G36*
X117138539Y-50274185D02*
G01*
X117184294Y-50326989D01*
X117195500Y-50378500D01*
X117195500Y-53071500D01*
X117175815Y-53138539D01*
X117123011Y-53184294D01*
X117071500Y-53195500D01*
X113459910Y-53195500D01*
X113382465Y-53216251D01*
X113352782Y-53233387D01*
X113290785Y-53250000D01*
X111709213Y-53250000D01*
X111647215Y-53233387D01*
X111617533Y-53216251D01*
X111540088Y-53195500D01*
X111540087Y-53195500D01*
X107928500Y-53195500D01*
X107861461Y-53175815D01*
X107815706Y-53123011D01*
X107804500Y-53071500D01*
X107804500Y-50378500D01*
X107824185Y-50311461D01*
X107876989Y-50265706D01*
X107928500Y-50254500D01*
X117071500Y-50254500D01*
X117138539Y-50274185D01*
G37*
%TD.AperFunction*%
%TA.AperFunction,NonConductor*%
G36*
X107138539Y-50274185D02*
G01*
X107184294Y-50326989D01*
X107195500Y-50378500D01*
X107195500Y-53071500D01*
X107175815Y-53138539D01*
X107123011Y-53184294D01*
X107071500Y-53195500D01*
X103459910Y-53195500D01*
X103382465Y-53216251D01*
X103352782Y-53233387D01*
X103290785Y-53250000D01*
X101709213Y-53250000D01*
X101647215Y-53233387D01*
X101617533Y-53216251D01*
X101540088Y-53195500D01*
X101540087Y-53195500D01*
X97928500Y-53195500D01*
X97861461Y-53175815D01*
X97815706Y-53123011D01*
X97804500Y-53071500D01*
X97804500Y-50378500D01*
X97824185Y-50311461D01*
X97876989Y-50265706D01*
X97928500Y-50254500D01*
X107071500Y-50254500D01*
X107138539Y-50274185D01*
G37*
%TD.AperFunction*%
%TA.AperFunction,NonConductor*%
G36*
X64693039Y-60013256D02*
G01*
X64738794Y-60066060D01*
X64750000Y-60117571D01*
X64750000Y-69259409D01*
X64730315Y-69326448D01*
X64677511Y-69372203D01*
X64626000Y-69383409D01*
X60378500Y-69383407D01*
X60311460Y-69363722D01*
X60265706Y-69310918D01*
X60254500Y-69259407D01*
X60254500Y-60117571D01*
X60274185Y-60050532D01*
X60326989Y-60004777D01*
X60378500Y-59993571D01*
X64626000Y-59993571D01*
X64693039Y-60013256D01*
G37*
%TD.AperFunction*%
M02*
