%TF.GenerationSoftware,KiCad,Pcbnew,10.0.1*%
%TF.CreationDate,2026-05-01T22:36:15-04:00*%
%TF.ProjectId,PicoPSU_A2,5069636f-5053-4555-9f41-322e6b696361,1.1*%
%TF.SameCoordinates,Original*%
%TF.FileFunction,Legend,Top*%
%TF.FilePolarity,Positive*%
%FSLAX46Y46*%
G04 Gerber Fmt 4.6, Leading zero omitted, Abs format (unit mm)*
G04 Created by KiCad (PCBNEW 10.0.1) date 2026-05-01 22:36:15*
%MOMM*%
%LPD*%
G01*
G04 APERTURE LIST*
%ADD10C,0.100000*%
%ADD11C,0.700000*%
%ADD12C,1.322792*%
%ADD13C,1.000000*%
%ADD14C,0.300000*%
%ADD15C,0.200000*%
%ADD16C,0.250000*%
%ADD17C,0.400000*%
%ADD18C,0.500000*%
%ADD19C,0.150000*%
%ADD20C,0.120000*%
%ADD21C,0.000000*%
G04 APERTURE END LIST*
D10*
X102744718Y-56882503D02*
X101641420Y-55969991D01*
X102744718Y-55087354D01*
X102744718Y-56882503D01*
G36*
X102744718Y-56882503D02*
G01*
X101641420Y-55969991D01*
X102744718Y-55087354D01*
X102744718Y-56882503D01*
G37*
X109650000Y-56895149D02*
X108546702Y-55982637D01*
X109650000Y-55100000D01*
X109650000Y-56895149D01*
G36*
X109650000Y-56895149D02*
G01*
X108546702Y-55982637D01*
X109650000Y-55100000D01*
X109650000Y-56895149D01*
G37*
X111015506Y-56004132D02*
X109896326Y-56899478D01*
X109896326Y-55078485D01*
X111015506Y-56004132D01*
G36*
X111015506Y-56004132D02*
G01*
X109896326Y-56899478D01*
X109896326Y-55078485D01*
X111015506Y-56004132D01*
G37*
X117907971Y-55998151D02*
X116788791Y-56893497D01*
X116788791Y-55072504D01*
X117907971Y-55998151D01*
G36*
X117907971Y-55998151D02*
G01*
X116788791Y-56893497D01*
X116788791Y-55072504D01*
X117907971Y-55998151D01*
G37*
D11*
X88036921Y-130193626D02*
X85458241Y-130193626D01*
D12*
X91698317Y-130193626D02*
G75*
G02*
X90375525Y-130193626I-661396J0D01*
G01*
X90375525Y-130193626D02*
G75*
G02*
X91698317Y-130193626I661396J0D01*
G01*
D11*
X91036921Y-130193626D02*
X94758241Y-130193626D01*
D13*
X93158241Y-132314946D02*
G75*
G02*
X93158267Y-128072280I-2121341J2121346D01*
G01*
D14*
X94500000Y-100750000D02*
X98250000Y-103250000D01*
D15*
X91434933Y-62735088D02*
X91501600Y-62801755D01*
X91501600Y-62801755D02*
X91568266Y-63001755D01*
X91568266Y-63001755D02*
X91568266Y-63135088D01*
X91568266Y-63135088D02*
X91501600Y-63335088D01*
X91501600Y-63335088D02*
X91368266Y-63468422D01*
X91368266Y-63468422D02*
X91234933Y-63535088D01*
X91234933Y-63535088D02*
X90968266Y-63601755D01*
X90968266Y-63601755D02*
X90768266Y-63601755D01*
X90768266Y-63601755D02*
X90501600Y-63535088D01*
X90501600Y-63535088D02*
X90368266Y-63468422D01*
X90368266Y-63468422D02*
X90234933Y-63335088D01*
X90234933Y-63335088D02*
X90168266Y-63135088D01*
X90168266Y-63135088D02*
X90168266Y-63001755D01*
X90168266Y-63001755D02*
X90234933Y-62801755D01*
X90234933Y-62801755D02*
X90301600Y-62735088D01*
X91568266Y-61001755D02*
X91568266Y-61068422D01*
X91568266Y-61068422D02*
X91501600Y-61201755D01*
X91501600Y-61201755D02*
X91301600Y-61401755D01*
X91301600Y-61401755D02*
X90901600Y-61735088D01*
X90901600Y-61735088D02*
X90701600Y-61868422D01*
X90701600Y-61868422D02*
X90501600Y-61935088D01*
X90501600Y-61935088D02*
X90368266Y-61935088D01*
X90368266Y-61935088D02*
X90234933Y-61868422D01*
X90234933Y-61868422D02*
X90168266Y-61735088D01*
X90168266Y-61735088D02*
X90168266Y-61668422D01*
X90168266Y-61668422D02*
X90234933Y-61535088D01*
X90234933Y-61535088D02*
X90368266Y-61468422D01*
X90368266Y-61468422D02*
X90434933Y-61468422D01*
X90434933Y-61468422D02*
X90568266Y-61535088D01*
X90568266Y-61535088D02*
X90634933Y-61601755D01*
X90634933Y-61601755D02*
X90901600Y-62001755D01*
X90901600Y-62001755D02*
X90968266Y-62068422D01*
X90968266Y-62068422D02*
X91101600Y-62135088D01*
X91101600Y-62135088D02*
X91301600Y-62135088D01*
X91301600Y-62135088D02*
X91434933Y-62068422D01*
X91434933Y-62068422D02*
X91501600Y-62001755D01*
X91501600Y-62001755D02*
X91568266Y-61868422D01*
X91568266Y-61868422D02*
X91568266Y-61668422D01*
X91568266Y-61668422D02*
X91501600Y-61535088D01*
X91501600Y-61535088D02*
X91434933Y-61468422D01*
X91434933Y-61468422D02*
X91168266Y-61268422D01*
X91168266Y-61268422D02*
X90968266Y-61201755D01*
X90968266Y-61201755D02*
X90834933Y-61201755D01*
X91568266Y-60401755D02*
X90168266Y-60401755D01*
X91568266Y-59601755D02*
X90768266Y-60201755D01*
X90168266Y-59601755D02*
X90968266Y-60401755D01*
X91568266Y-57935088D02*
X90168266Y-57935088D01*
X90168266Y-57935088D02*
X90168266Y-57401755D01*
X90168266Y-57401755D02*
X90234933Y-57268422D01*
X90234933Y-57268422D02*
X90301600Y-57201755D01*
X90301600Y-57201755D02*
X90434933Y-57135088D01*
X90434933Y-57135088D02*
X90634933Y-57135088D01*
X90634933Y-57135088D02*
X90768266Y-57201755D01*
X90768266Y-57201755D02*
X90834933Y-57268422D01*
X90834933Y-57268422D02*
X90901600Y-57401755D01*
X90901600Y-57401755D02*
X90901600Y-57935088D01*
X91568266Y-56535088D02*
X90168266Y-56535088D01*
X90168266Y-56535088D02*
X91568266Y-55735088D01*
X91568266Y-55735088D02*
X90168266Y-55735088D01*
X91568266Y-54335088D02*
X91568266Y-55135088D01*
X91568266Y-54735088D02*
X90168266Y-54735088D01*
X90168266Y-54735088D02*
X90368266Y-54868421D01*
X90368266Y-54868421D02*
X90501600Y-55001755D01*
X90501600Y-55001755D02*
X90568266Y-55135088D01*
X90301600Y-53801755D02*
X90234933Y-53735088D01*
X90234933Y-53735088D02*
X90168266Y-53601755D01*
X90168266Y-53601755D02*
X90168266Y-53268422D01*
X90168266Y-53268422D02*
X90234933Y-53135088D01*
X90234933Y-53135088D02*
X90301600Y-53068422D01*
X90301600Y-53068422D02*
X90434933Y-53001755D01*
X90434933Y-53001755D02*
X90568266Y-53001755D01*
X90568266Y-53001755D02*
X90768266Y-53068422D01*
X90768266Y-53068422D02*
X91568266Y-53868422D01*
X91568266Y-53868422D02*
X91568266Y-53001755D01*
D16*
X112533334Y-69282333D02*
X113600001Y-69282333D01*
X115000000Y-69815666D02*
X114200000Y-69815666D01*
X114600000Y-69815666D02*
X114600000Y-68415666D01*
X114600000Y-68415666D02*
X114466667Y-68615666D01*
X114466667Y-68615666D02*
X114333334Y-68749000D01*
X114333334Y-68749000D02*
X114200000Y-68815666D01*
X115533333Y-68549000D02*
X115600000Y-68482333D01*
X115600000Y-68482333D02*
X115733333Y-68415666D01*
X115733333Y-68415666D02*
X116066667Y-68415666D01*
X116066667Y-68415666D02*
X116200000Y-68482333D01*
X116200000Y-68482333D02*
X116266667Y-68549000D01*
X116266667Y-68549000D02*
X116333333Y-68682333D01*
X116333333Y-68682333D02*
X116333333Y-68815666D01*
X116333333Y-68815666D02*
X116266667Y-69015666D01*
X116266667Y-69015666D02*
X115466667Y-69815666D01*
X115466667Y-69815666D02*
X116333333Y-69815666D01*
X116733333Y-68415666D02*
X117200000Y-69815666D01*
X117200000Y-69815666D02*
X117666666Y-68415666D01*
X114733334Y-72415666D02*
X114066667Y-72415666D01*
X114066667Y-72415666D02*
X114000000Y-73082333D01*
X114000000Y-73082333D02*
X114066667Y-73015666D01*
X114066667Y-73015666D02*
X114200000Y-72949000D01*
X114200000Y-72949000D02*
X114533334Y-72949000D01*
X114533334Y-72949000D02*
X114666667Y-73015666D01*
X114666667Y-73015666D02*
X114733334Y-73082333D01*
X114733334Y-73082333D02*
X114800000Y-73215666D01*
X114800000Y-73215666D02*
X114800000Y-73549000D01*
X114800000Y-73549000D02*
X114733334Y-73682333D01*
X114733334Y-73682333D02*
X114666667Y-73749000D01*
X114666667Y-73749000D02*
X114533334Y-73815666D01*
X114533334Y-73815666D02*
X114200000Y-73815666D01*
X114200000Y-73815666D02*
X114066667Y-73749000D01*
X114066667Y-73749000D02*
X114000000Y-73682333D01*
X115200000Y-72415666D02*
X115666667Y-73815666D01*
X115666667Y-73815666D02*
X116133333Y-72415666D01*
X113933333Y-76482333D02*
X113800000Y-76415666D01*
X113800000Y-76415666D02*
X113600000Y-76415666D01*
X113600000Y-76415666D02*
X113400000Y-76482333D01*
X113400000Y-76482333D02*
X113266667Y-76615666D01*
X113266667Y-76615666D02*
X113200000Y-76749000D01*
X113200000Y-76749000D02*
X113133333Y-77015666D01*
X113133333Y-77015666D02*
X113133333Y-77215666D01*
X113133333Y-77215666D02*
X113200000Y-77482333D01*
X113200000Y-77482333D02*
X113266667Y-77615666D01*
X113266667Y-77615666D02*
X113400000Y-77749000D01*
X113400000Y-77749000D02*
X113600000Y-77815666D01*
X113600000Y-77815666D02*
X113733333Y-77815666D01*
X113733333Y-77815666D02*
X113933333Y-77749000D01*
X113933333Y-77749000D02*
X114000000Y-77682333D01*
X114000000Y-77682333D02*
X114000000Y-77215666D01*
X114000000Y-77215666D02*
X113733333Y-77215666D01*
X114600000Y-77815666D02*
X114600000Y-76415666D01*
X114600000Y-76415666D02*
X115400000Y-77815666D01*
X115400000Y-77815666D02*
X115400000Y-76415666D01*
X116066667Y-77815666D02*
X116066667Y-76415666D01*
X116066667Y-76415666D02*
X116400000Y-76415666D01*
X116400000Y-76415666D02*
X116600000Y-76482333D01*
X116600000Y-76482333D02*
X116733334Y-76615666D01*
X116733334Y-76615666D02*
X116800000Y-76749000D01*
X116800000Y-76749000D02*
X116866667Y-77015666D01*
X116866667Y-77015666D02*
X116866667Y-77215666D01*
X116866667Y-77215666D02*
X116800000Y-77482333D01*
X116800000Y-77482333D02*
X116733334Y-77615666D01*
X116733334Y-77615666D02*
X116600000Y-77749000D01*
X116600000Y-77749000D02*
X116400000Y-77815666D01*
X116400000Y-77815666D02*
X116066667Y-77815666D01*
X129633333Y-73815666D02*
X128833333Y-73815666D01*
X129233333Y-73815666D02*
X129233333Y-72415666D01*
X129233333Y-72415666D02*
X129100000Y-72615666D01*
X129100000Y-72615666D02*
X128966667Y-72749000D01*
X128966667Y-72749000D02*
X128833333Y-72815666D01*
X130166666Y-72549000D02*
X130233333Y-72482333D01*
X130233333Y-72482333D02*
X130366666Y-72415666D01*
X130366666Y-72415666D02*
X130700000Y-72415666D01*
X130700000Y-72415666D02*
X130833333Y-72482333D01*
X130833333Y-72482333D02*
X130900000Y-72549000D01*
X130900000Y-72549000D02*
X130966666Y-72682333D01*
X130966666Y-72682333D02*
X130966666Y-72815666D01*
X130966666Y-72815666D02*
X130900000Y-73015666D01*
X130900000Y-73015666D02*
X130100000Y-73815666D01*
X130100000Y-73815666D02*
X130966666Y-73815666D01*
X131366666Y-72415666D02*
X131833333Y-73815666D01*
X131833333Y-73815666D02*
X132299999Y-72415666D01*
X129433333Y-76482333D02*
X129300000Y-76415666D01*
X129300000Y-76415666D02*
X129100000Y-76415666D01*
X129100000Y-76415666D02*
X128900000Y-76482333D01*
X128900000Y-76482333D02*
X128766667Y-76615666D01*
X128766667Y-76615666D02*
X128700000Y-76749000D01*
X128700000Y-76749000D02*
X128633333Y-77015666D01*
X128633333Y-77015666D02*
X128633333Y-77215666D01*
X128633333Y-77215666D02*
X128700000Y-77482333D01*
X128700000Y-77482333D02*
X128766667Y-77615666D01*
X128766667Y-77615666D02*
X128900000Y-77749000D01*
X128900000Y-77749000D02*
X129100000Y-77815666D01*
X129100000Y-77815666D02*
X129233333Y-77815666D01*
X129233333Y-77815666D02*
X129433333Y-77749000D01*
X129433333Y-77749000D02*
X129500000Y-77682333D01*
X129500000Y-77682333D02*
X129500000Y-77215666D01*
X129500000Y-77215666D02*
X129233333Y-77215666D01*
X130100000Y-77815666D02*
X130100000Y-76415666D01*
X130100000Y-76415666D02*
X130900000Y-77815666D01*
X130900000Y-77815666D02*
X130900000Y-76415666D01*
X131566667Y-77815666D02*
X131566667Y-76415666D01*
X131566667Y-76415666D02*
X131900000Y-76415666D01*
X131900000Y-76415666D02*
X132100000Y-76482333D01*
X132100000Y-76482333D02*
X132233334Y-76615666D01*
X132233334Y-76615666D02*
X132300000Y-76749000D01*
X132300000Y-76749000D02*
X132366667Y-77015666D01*
X132366667Y-77015666D02*
X132366667Y-77215666D01*
X132366667Y-77215666D02*
X132300000Y-77482333D01*
X132300000Y-77482333D02*
X132233334Y-77615666D01*
X132233334Y-77615666D02*
X132100000Y-77749000D01*
X132100000Y-77749000D02*
X131900000Y-77815666D01*
X131900000Y-77815666D02*
X131566667Y-77815666D01*
X129200000Y-69282333D02*
X130266667Y-69282333D01*
X131600000Y-68415666D02*
X130933333Y-68415666D01*
X130933333Y-68415666D02*
X130866666Y-69082333D01*
X130866666Y-69082333D02*
X130933333Y-69015666D01*
X130933333Y-69015666D02*
X131066666Y-68949000D01*
X131066666Y-68949000D02*
X131400000Y-68949000D01*
X131400000Y-68949000D02*
X131533333Y-69015666D01*
X131533333Y-69015666D02*
X131600000Y-69082333D01*
X131600000Y-69082333D02*
X131666666Y-69215666D01*
X131666666Y-69215666D02*
X131666666Y-69549000D01*
X131666666Y-69549000D02*
X131600000Y-69682333D01*
X131600000Y-69682333D02*
X131533333Y-69749000D01*
X131533333Y-69749000D02*
X131400000Y-69815666D01*
X131400000Y-69815666D02*
X131066666Y-69815666D01*
X131066666Y-69815666D02*
X130933333Y-69749000D01*
X130933333Y-69749000D02*
X130866666Y-69682333D01*
X132066666Y-68415666D02*
X132533333Y-69815666D01*
X132533333Y-69815666D02*
X132999999Y-68415666D01*
D14*
X84830701Y-98375811D02*
X85364034Y-98375811D01*
X85030701Y-97909144D02*
X85030701Y-99109144D01*
X85030701Y-99109144D02*
X85097368Y-99242478D01*
X85097368Y-99242478D02*
X85230701Y-99309144D01*
X85230701Y-99309144D02*
X85364034Y-99309144D01*
X86364034Y-99242478D02*
X86230701Y-99309144D01*
X86230701Y-99309144D02*
X85964034Y-99309144D01*
X85964034Y-99309144D02*
X85830701Y-99242478D01*
X85830701Y-99242478D02*
X85764034Y-99109144D01*
X85764034Y-99109144D02*
X85764034Y-98575811D01*
X85764034Y-98575811D02*
X85830701Y-98442478D01*
X85830701Y-98442478D02*
X85964034Y-98375811D01*
X85964034Y-98375811D02*
X86230701Y-98375811D01*
X86230701Y-98375811D02*
X86364034Y-98442478D01*
X86364034Y-98442478D02*
X86430701Y-98575811D01*
X86430701Y-98575811D02*
X86430701Y-98709144D01*
X86430701Y-98709144D02*
X85764034Y-98842478D01*
X87030701Y-99309144D02*
X87030701Y-98375811D01*
X87030701Y-98509144D02*
X87097368Y-98442478D01*
X87097368Y-98442478D02*
X87230701Y-98375811D01*
X87230701Y-98375811D02*
X87430701Y-98375811D01*
X87430701Y-98375811D02*
X87564034Y-98442478D01*
X87564034Y-98442478D02*
X87630701Y-98575811D01*
X87630701Y-98575811D02*
X87630701Y-99309144D01*
X87630701Y-98575811D02*
X87697368Y-98442478D01*
X87697368Y-98442478D02*
X87830701Y-98375811D01*
X87830701Y-98375811D02*
X88030701Y-98375811D01*
X88030701Y-98375811D02*
X88164034Y-98442478D01*
X88164034Y-98442478D02*
X88230701Y-98575811D01*
X88230701Y-98575811D02*
X88230701Y-99309144D01*
X88897368Y-98375811D02*
X88897368Y-99775811D01*
X88897368Y-98442478D02*
X89030701Y-98375811D01*
X89030701Y-98375811D02*
X89297368Y-98375811D01*
X89297368Y-98375811D02*
X89430701Y-98442478D01*
X89430701Y-98442478D02*
X89497368Y-98509144D01*
X89497368Y-98509144D02*
X89564035Y-98642478D01*
X89564035Y-98642478D02*
X89564035Y-99042478D01*
X89564035Y-99042478D02*
X89497368Y-99175811D01*
X89497368Y-99175811D02*
X89430701Y-99242478D01*
X89430701Y-99242478D02*
X89297368Y-99309144D01*
X89297368Y-99309144D02*
X89030701Y-99309144D01*
X89030701Y-99309144D02*
X88897368Y-99242478D01*
X90364035Y-99309144D02*
X90230702Y-99242478D01*
X90230702Y-99242478D02*
X90164035Y-99175811D01*
X90164035Y-99175811D02*
X90097368Y-99042478D01*
X90097368Y-99042478D02*
X90097368Y-98642478D01*
X90097368Y-98642478D02*
X90164035Y-98509144D01*
X90164035Y-98509144D02*
X90230702Y-98442478D01*
X90230702Y-98442478D02*
X90364035Y-98375811D01*
X90364035Y-98375811D02*
X90564035Y-98375811D01*
X90564035Y-98375811D02*
X90697368Y-98442478D01*
X90697368Y-98442478D02*
X90764035Y-98509144D01*
X90764035Y-98509144D02*
X90830702Y-98642478D01*
X90830702Y-98642478D02*
X90830702Y-99042478D01*
X90830702Y-99042478D02*
X90764035Y-99175811D01*
X90764035Y-99175811D02*
X90697368Y-99242478D01*
X90697368Y-99242478D02*
X90564035Y-99309144D01*
X90564035Y-99309144D02*
X90364035Y-99309144D01*
X91430702Y-99309144D02*
X91430702Y-98375811D01*
X91430702Y-98642478D02*
X91497369Y-98509144D01*
X91497369Y-98509144D02*
X91564035Y-98442478D01*
X91564035Y-98442478D02*
X91697369Y-98375811D01*
X91697369Y-98375811D02*
X91830702Y-98375811D01*
X92897369Y-99309144D02*
X92897369Y-98575811D01*
X92897369Y-98575811D02*
X92830702Y-98442478D01*
X92830702Y-98442478D02*
X92697369Y-98375811D01*
X92697369Y-98375811D02*
X92430702Y-98375811D01*
X92430702Y-98375811D02*
X92297369Y-98442478D01*
X92897369Y-99242478D02*
X92764036Y-99309144D01*
X92764036Y-99309144D02*
X92430702Y-99309144D01*
X92430702Y-99309144D02*
X92297369Y-99242478D01*
X92297369Y-99242478D02*
X92230702Y-99109144D01*
X92230702Y-99109144D02*
X92230702Y-98975811D01*
X92230702Y-98975811D02*
X92297369Y-98842478D01*
X92297369Y-98842478D02*
X92430702Y-98775811D01*
X92430702Y-98775811D02*
X92764036Y-98775811D01*
X92764036Y-98775811D02*
X92897369Y-98709144D01*
X93564036Y-99309144D02*
X93564036Y-98375811D01*
X93564036Y-98642478D02*
X93630703Y-98509144D01*
X93630703Y-98509144D02*
X93697369Y-98442478D01*
X93697369Y-98442478D02*
X93830703Y-98375811D01*
X93830703Y-98375811D02*
X93964036Y-98375811D01*
X94297370Y-98375811D02*
X94630703Y-99309144D01*
X94964036Y-98375811D02*
X94630703Y-99309144D01*
X94630703Y-99309144D02*
X94497370Y-99642478D01*
X94497370Y-99642478D02*
X94430703Y-99709144D01*
X94430703Y-99709144D02*
X94297370Y-99775811D01*
X97297370Y-99309144D02*
X96497370Y-99309144D01*
X96897370Y-99309144D02*
X96897370Y-97909144D01*
X96897370Y-97909144D02*
X96764037Y-98109144D01*
X96764037Y-98109144D02*
X96630704Y-98242478D01*
X96630704Y-98242478D02*
X96497370Y-98309144D01*
X98630703Y-99309144D02*
X97830703Y-99309144D01*
X98230703Y-99309144D02*
X98230703Y-97909144D01*
X98230703Y-97909144D02*
X98097370Y-98109144D01*
X98097370Y-98109144D02*
X97964037Y-98242478D01*
X97964037Y-98242478D02*
X97830703Y-98309144D01*
X99230703Y-99309144D02*
X99230703Y-98375811D01*
X99230703Y-98509144D02*
X99297370Y-98442478D01*
X99297370Y-98442478D02*
X99430703Y-98375811D01*
X99430703Y-98375811D02*
X99630703Y-98375811D01*
X99630703Y-98375811D02*
X99764036Y-98442478D01*
X99764036Y-98442478D02*
X99830703Y-98575811D01*
X99830703Y-98575811D02*
X99830703Y-99309144D01*
X99830703Y-98575811D02*
X99897370Y-98442478D01*
X99897370Y-98442478D02*
X100030703Y-98375811D01*
X100030703Y-98375811D02*
X100230703Y-98375811D01*
X100230703Y-98375811D02*
X100364036Y-98442478D01*
X100364036Y-98442478D02*
X100430703Y-98575811D01*
X100430703Y-98575811D02*
X100430703Y-99309144D01*
X101097370Y-99309144D02*
X101097370Y-98375811D01*
X101097370Y-98509144D02*
X101164037Y-98442478D01*
X101164037Y-98442478D02*
X101297370Y-98375811D01*
X101297370Y-98375811D02*
X101497370Y-98375811D01*
X101497370Y-98375811D02*
X101630703Y-98442478D01*
X101630703Y-98442478D02*
X101697370Y-98575811D01*
X101697370Y-98575811D02*
X101697370Y-99309144D01*
X101697370Y-98575811D02*
X101764037Y-98442478D01*
X101764037Y-98442478D02*
X101897370Y-98375811D01*
X101897370Y-98375811D02*
X102097370Y-98375811D01*
X102097370Y-98375811D02*
X102230703Y-98442478D01*
X102230703Y-98442478D02*
X102297370Y-98575811D01*
X102297370Y-98575811D02*
X102297370Y-99309144D01*
X84964034Y-101496400D02*
X85097368Y-101563066D01*
X85097368Y-101563066D02*
X85364034Y-101563066D01*
X85364034Y-101563066D02*
X85497368Y-101496400D01*
X85497368Y-101496400D02*
X85564034Y-101363066D01*
X85564034Y-101363066D02*
X85564034Y-101296400D01*
X85564034Y-101296400D02*
X85497368Y-101163066D01*
X85497368Y-101163066D02*
X85364034Y-101096400D01*
X85364034Y-101096400D02*
X85164034Y-101096400D01*
X85164034Y-101096400D02*
X85030701Y-101029733D01*
X85030701Y-101029733D02*
X84964034Y-100896400D01*
X84964034Y-100896400D02*
X84964034Y-100829733D01*
X84964034Y-100829733D02*
X85030701Y-100696400D01*
X85030701Y-100696400D02*
X85164034Y-100629733D01*
X85164034Y-100629733D02*
X85364034Y-100629733D01*
X85364034Y-100629733D02*
X85497368Y-100696400D01*
X85964034Y-100629733D02*
X86497367Y-100629733D01*
X86164034Y-100163066D02*
X86164034Y-101363066D01*
X86164034Y-101363066D02*
X86230701Y-101496400D01*
X86230701Y-101496400D02*
X86364034Y-101563066D01*
X86364034Y-101563066D02*
X86497367Y-101563066D01*
X87564034Y-101563066D02*
X87564034Y-100829733D01*
X87564034Y-100829733D02*
X87497367Y-100696400D01*
X87497367Y-100696400D02*
X87364034Y-100629733D01*
X87364034Y-100629733D02*
X87097367Y-100629733D01*
X87097367Y-100629733D02*
X86964034Y-100696400D01*
X87564034Y-101496400D02*
X87430701Y-101563066D01*
X87430701Y-101563066D02*
X87097367Y-101563066D01*
X87097367Y-101563066D02*
X86964034Y-101496400D01*
X86964034Y-101496400D02*
X86897367Y-101363066D01*
X86897367Y-101363066D02*
X86897367Y-101229733D01*
X86897367Y-101229733D02*
X86964034Y-101096400D01*
X86964034Y-101096400D02*
X87097367Y-101029733D01*
X87097367Y-101029733D02*
X87430701Y-101029733D01*
X87430701Y-101029733D02*
X87564034Y-100963066D01*
X88230701Y-100629733D02*
X88230701Y-101563066D01*
X88230701Y-100763066D02*
X88297368Y-100696400D01*
X88297368Y-100696400D02*
X88430701Y-100629733D01*
X88430701Y-100629733D02*
X88630701Y-100629733D01*
X88630701Y-100629733D02*
X88764034Y-100696400D01*
X88764034Y-100696400D02*
X88830701Y-100829733D01*
X88830701Y-100829733D02*
X88830701Y-101563066D01*
X90097368Y-101563066D02*
X90097368Y-100163066D01*
X90097368Y-101496400D02*
X89964035Y-101563066D01*
X89964035Y-101563066D02*
X89697368Y-101563066D01*
X89697368Y-101563066D02*
X89564035Y-101496400D01*
X89564035Y-101496400D02*
X89497368Y-101429733D01*
X89497368Y-101429733D02*
X89430701Y-101296400D01*
X89430701Y-101296400D02*
X89430701Y-100896400D01*
X89430701Y-100896400D02*
X89497368Y-100763066D01*
X89497368Y-100763066D02*
X89564035Y-100696400D01*
X89564035Y-100696400D02*
X89697368Y-100629733D01*
X89697368Y-100629733D02*
X89964035Y-100629733D01*
X89964035Y-100629733D02*
X90097368Y-100696400D01*
X90964035Y-101563066D02*
X90830702Y-101496400D01*
X90830702Y-101496400D02*
X90764035Y-101429733D01*
X90764035Y-101429733D02*
X90697368Y-101296400D01*
X90697368Y-101296400D02*
X90697368Y-100896400D01*
X90697368Y-100896400D02*
X90764035Y-100763066D01*
X90764035Y-100763066D02*
X90830702Y-100696400D01*
X90830702Y-100696400D02*
X90964035Y-100629733D01*
X90964035Y-100629733D02*
X91164035Y-100629733D01*
X91164035Y-100629733D02*
X91297368Y-100696400D01*
X91297368Y-100696400D02*
X91364035Y-100763066D01*
X91364035Y-100763066D02*
X91430702Y-100896400D01*
X91430702Y-100896400D02*
X91430702Y-101296400D01*
X91430702Y-101296400D02*
X91364035Y-101429733D01*
X91364035Y-101429733D02*
X91297368Y-101496400D01*
X91297368Y-101496400D02*
X91164035Y-101563066D01*
X91164035Y-101563066D02*
X90964035Y-101563066D01*
X91830702Y-100629733D02*
X92364035Y-100629733D01*
X92030702Y-101563066D02*
X92030702Y-100363066D01*
X92030702Y-100363066D02*
X92097369Y-100229733D01*
X92097369Y-100229733D02*
X92230702Y-100163066D01*
X92230702Y-100163066D02*
X92364035Y-100163066D01*
X92630702Y-100629733D02*
X93164035Y-100629733D01*
X92830702Y-101563066D02*
X92830702Y-100363066D01*
X92830702Y-100363066D02*
X92897369Y-100229733D01*
X92897369Y-100229733D02*
X93030702Y-100163066D01*
X93030702Y-100163066D02*
X93164035Y-100163066D01*
X95554510Y-56800828D02*
X95554510Y-55300828D01*
X96411653Y-56800828D02*
X95768796Y-55943685D01*
X96411653Y-55300828D02*
X95554510Y-56157971D01*
X123233082Y-56372257D02*
X123947368Y-56372257D01*
X123090225Y-56800828D02*
X123590225Y-55300828D01*
X123590225Y-55300828D02*
X124090225Y-56800828D01*
X61464286Y-88470996D02*
X62035714Y-88470996D01*
X61678571Y-87970996D02*
X61678571Y-89256710D01*
X61678571Y-89256710D02*
X61750000Y-89399568D01*
X61750000Y-89399568D02*
X61892857Y-89470996D01*
X61892857Y-89470996D02*
X62035714Y-89470996D01*
X62750000Y-89470996D02*
X62607143Y-89399568D01*
X62607143Y-89399568D02*
X62535714Y-89328139D01*
X62535714Y-89328139D02*
X62464286Y-89185282D01*
X62464286Y-89185282D02*
X62464286Y-88756710D01*
X62464286Y-88756710D02*
X62535714Y-88613853D01*
X62535714Y-88613853D02*
X62607143Y-88542425D01*
X62607143Y-88542425D02*
X62750000Y-88470996D01*
X62750000Y-88470996D02*
X62964286Y-88470996D01*
X62964286Y-88470996D02*
X63107143Y-88542425D01*
X63107143Y-88542425D02*
X63178572Y-88613853D01*
X63178572Y-88613853D02*
X63250000Y-88756710D01*
X63250000Y-88756710D02*
X63250000Y-89185282D01*
X63250000Y-89185282D02*
X63178572Y-89328139D01*
X63178572Y-89328139D02*
X63107143Y-89399568D01*
X63107143Y-89399568D02*
X62964286Y-89470996D01*
X62964286Y-89470996D02*
X62750000Y-89470996D01*
X63892857Y-89470996D02*
X63892857Y-88470996D01*
X63892857Y-88613853D02*
X63964286Y-88542425D01*
X63964286Y-88542425D02*
X64107143Y-88470996D01*
X64107143Y-88470996D02*
X64321429Y-88470996D01*
X64321429Y-88470996D02*
X64464286Y-88542425D01*
X64464286Y-88542425D02*
X64535715Y-88685282D01*
X64535715Y-88685282D02*
X64535715Y-89470996D01*
X64535715Y-88685282D02*
X64607143Y-88542425D01*
X64607143Y-88542425D02*
X64750000Y-88470996D01*
X64750000Y-88470996D02*
X64964286Y-88470996D01*
X64964286Y-88470996D02*
X65107143Y-88542425D01*
X65107143Y-88542425D02*
X65178572Y-88685282D01*
X65178572Y-88685282D02*
X65178572Y-89470996D01*
X66535715Y-89399568D02*
X66392857Y-89470996D01*
X66392857Y-89470996D02*
X66107143Y-89470996D01*
X66107143Y-89470996D02*
X65964286Y-89399568D01*
X65964286Y-89399568D02*
X65892857Y-89328139D01*
X65892857Y-89328139D02*
X65821429Y-89185282D01*
X65821429Y-89185282D02*
X65821429Y-88756710D01*
X65821429Y-88756710D02*
X65892857Y-88613853D01*
X65892857Y-88613853D02*
X65964286Y-88542425D01*
X65964286Y-88542425D02*
X66107143Y-88470996D01*
X66107143Y-88470996D02*
X66392857Y-88470996D01*
X66392857Y-88470996D02*
X66535715Y-88542425D01*
X67178571Y-89470996D02*
X67178571Y-88470996D01*
X67178571Y-87970996D02*
X67107143Y-88042425D01*
X67107143Y-88042425D02*
X67178571Y-88113853D01*
X67178571Y-88113853D02*
X67250000Y-88042425D01*
X67250000Y-88042425D02*
X67178571Y-87970996D01*
X67178571Y-87970996D02*
X67178571Y-88113853D01*
X67892857Y-89470996D02*
X67892857Y-88470996D01*
X67892857Y-88756710D02*
X67964286Y-88613853D01*
X67964286Y-88613853D02*
X68035715Y-88542425D01*
X68035715Y-88542425D02*
X68178572Y-88470996D01*
X68178572Y-88470996D02*
X68321429Y-88470996D01*
X69464286Y-89399568D02*
X69321428Y-89470996D01*
X69321428Y-89470996D02*
X69035714Y-89470996D01*
X69035714Y-89470996D02*
X68892857Y-89399568D01*
X68892857Y-89399568D02*
X68821428Y-89328139D01*
X68821428Y-89328139D02*
X68750000Y-89185282D01*
X68750000Y-89185282D02*
X68750000Y-88756710D01*
X68750000Y-88756710D02*
X68821428Y-88613853D01*
X68821428Y-88613853D02*
X68892857Y-88542425D01*
X68892857Y-88542425D02*
X69035714Y-88470996D01*
X69035714Y-88470996D02*
X69321428Y-88470996D01*
X69321428Y-88470996D02*
X69464286Y-88542425D01*
X70750000Y-88470996D02*
X70750000Y-89470996D01*
X70107142Y-88470996D02*
X70107142Y-89256710D01*
X70107142Y-89256710D02*
X70178571Y-89399568D01*
X70178571Y-89399568D02*
X70321428Y-89470996D01*
X70321428Y-89470996D02*
X70535714Y-89470996D01*
X70535714Y-89470996D02*
X70678571Y-89399568D01*
X70678571Y-89399568D02*
X70750000Y-89328139D01*
X71464285Y-89470996D02*
X71464285Y-88470996D01*
X71464285Y-87970996D02*
X71392857Y-88042425D01*
X71392857Y-88042425D02*
X71464285Y-88113853D01*
X71464285Y-88113853D02*
X71535714Y-88042425D01*
X71535714Y-88042425D02*
X71464285Y-87970996D01*
X71464285Y-87970996D02*
X71464285Y-88113853D01*
X71964286Y-88470996D02*
X72535714Y-88470996D01*
X72178571Y-87970996D02*
X72178571Y-89256710D01*
X72178571Y-89256710D02*
X72250000Y-89399568D01*
X72250000Y-89399568D02*
X72392857Y-89470996D01*
X72392857Y-89470996D02*
X72535714Y-89470996D01*
X62464286Y-91743055D02*
X62392858Y-91814484D01*
X62392858Y-91814484D02*
X62178572Y-91885912D01*
X62178572Y-91885912D02*
X62035715Y-91885912D01*
X62035715Y-91885912D02*
X61821429Y-91814484D01*
X61821429Y-91814484D02*
X61678572Y-91671626D01*
X61678572Y-91671626D02*
X61607143Y-91528769D01*
X61607143Y-91528769D02*
X61535715Y-91243055D01*
X61535715Y-91243055D02*
X61535715Y-91028769D01*
X61535715Y-91028769D02*
X61607143Y-90743055D01*
X61607143Y-90743055D02*
X61678572Y-90600198D01*
X61678572Y-90600198D02*
X61821429Y-90457341D01*
X61821429Y-90457341D02*
X62035715Y-90385912D01*
X62035715Y-90385912D02*
X62178572Y-90385912D01*
X62178572Y-90385912D02*
X62392858Y-90457341D01*
X62392858Y-90457341D02*
X62464286Y-90528769D01*
X63964286Y-91743055D02*
X63892858Y-91814484D01*
X63892858Y-91814484D02*
X63678572Y-91885912D01*
X63678572Y-91885912D02*
X63535715Y-91885912D01*
X63535715Y-91885912D02*
X63321429Y-91814484D01*
X63321429Y-91814484D02*
X63178572Y-91671626D01*
X63178572Y-91671626D02*
X63107143Y-91528769D01*
X63107143Y-91528769D02*
X63035715Y-91243055D01*
X63035715Y-91243055D02*
X63035715Y-91028769D01*
X63035715Y-91028769D02*
X63107143Y-90743055D01*
X63107143Y-90743055D02*
X63178572Y-90600198D01*
X63178572Y-90600198D02*
X63321429Y-90457341D01*
X63321429Y-90457341D02*
X63535715Y-90385912D01*
X63535715Y-90385912D02*
X63678572Y-90385912D01*
X63678572Y-90385912D02*
X63892858Y-90457341D01*
X63892858Y-90457341D02*
X63964286Y-90528769D01*
X66250000Y-91100198D02*
X66464286Y-91171626D01*
X66464286Y-91171626D02*
X66535715Y-91243055D01*
X66535715Y-91243055D02*
X66607143Y-91385912D01*
X66607143Y-91385912D02*
X66607143Y-91600198D01*
X66607143Y-91600198D02*
X66535715Y-91743055D01*
X66535715Y-91743055D02*
X66464286Y-91814484D01*
X66464286Y-91814484D02*
X66321429Y-91885912D01*
X66321429Y-91885912D02*
X65750000Y-91885912D01*
X65750000Y-91885912D02*
X65750000Y-90385912D01*
X65750000Y-90385912D02*
X66250000Y-90385912D01*
X66250000Y-90385912D02*
X66392858Y-90457341D01*
X66392858Y-90457341D02*
X66464286Y-90528769D01*
X66464286Y-90528769D02*
X66535715Y-90671626D01*
X66535715Y-90671626D02*
X66535715Y-90814484D01*
X66535715Y-90814484D02*
X66464286Y-90957341D01*
X66464286Y-90957341D02*
X66392858Y-91028769D01*
X66392858Y-91028769D02*
X66250000Y-91100198D01*
X66250000Y-91100198D02*
X65750000Y-91100198D01*
X67535715Y-91171626D02*
X67535715Y-91885912D01*
X67035715Y-90385912D02*
X67535715Y-91171626D01*
X67535715Y-91171626D02*
X68035715Y-90385912D01*
X68535714Y-91314484D02*
X69678572Y-91314484D01*
X70321429Y-91814484D02*
X70535715Y-91885912D01*
X70535715Y-91885912D02*
X70892857Y-91885912D01*
X70892857Y-91885912D02*
X71035715Y-91814484D01*
X71035715Y-91814484D02*
X71107143Y-91743055D01*
X71107143Y-91743055D02*
X71178572Y-91600198D01*
X71178572Y-91600198D02*
X71178572Y-91457341D01*
X71178572Y-91457341D02*
X71107143Y-91314484D01*
X71107143Y-91314484D02*
X71035715Y-91243055D01*
X71035715Y-91243055D02*
X70892857Y-91171626D01*
X70892857Y-91171626D02*
X70607143Y-91100198D01*
X70607143Y-91100198D02*
X70464286Y-91028769D01*
X70464286Y-91028769D02*
X70392857Y-90957341D01*
X70392857Y-90957341D02*
X70321429Y-90814484D01*
X70321429Y-90814484D02*
X70321429Y-90671626D01*
X70321429Y-90671626D02*
X70392857Y-90528769D01*
X70392857Y-90528769D02*
X70464286Y-90457341D01*
X70464286Y-90457341D02*
X70607143Y-90385912D01*
X70607143Y-90385912D02*
X70964286Y-90385912D01*
X70964286Y-90385912D02*
X71178572Y-90457341D01*
X71750000Y-91457341D02*
X72464286Y-91457341D01*
X71607143Y-91885912D02*
X72107143Y-90385912D01*
X72107143Y-90385912D02*
X72607143Y-91885912D01*
X63642858Y-93300828D02*
X63642858Y-94300828D01*
X63285715Y-92729400D02*
X62928572Y-93800828D01*
X62928572Y-93800828D02*
X63857143Y-93800828D01*
X65500000Y-92729400D02*
X64214286Y-94657971D01*
X65928572Y-92943685D02*
X66000000Y-92872257D01*
X66000000Y-92872257D02*
X66142858Y-92800828D01*
X66142858Y-92800828D02*
X66500000Y-92800828D01*
X66500000Y-92800828D02*
X66642858Y-92872257D01*
X66642858Y-92872257D02*
X66714286Y-92943685D01*
X66714286Y-92943685D02*
X66785715Y-93086542D01*
X66785715Y-93086542D02*
X66785715Y-93229400D01*
X66785715Y-93229400D02*
X66714286Y-93443685D01*
X66714286Y-93443685D02*
X65857143Y-94300828D01*
X65857143Y-94300828D02*
X66785715Y-94300828D01*
X67714286Y-92800828D02*
X67857143Y-92800828D01*
X67857143Y-92800828D02*
X68000000Y-92872257D01*
X68000000Y-92872257D02*
X68071429Y-92943685D01*
X68071429Y-92943685D02*
X68142857Y-93086542D01*
X68142857Y-93086542D02*
X68214286Y-93372257D01*
X68214286Y-93372257D02*
X68214286Y-93729400D01*
X68214286Y-93729400D02*
X68142857Y-94015114D01*
X68142857Y-94015114D02*
X68071429Y-94157971D01*
X68071429Y-94157971D02*
X68000000Y-94229400D01*
X68000000Y-94229400D02*
X67857143Y-94300828D01*
X67857143Y-94300828D02*
X67714286Y-94300828D01*
X67714286Y-94300828D02*
X67571429Y-94229400D01*
X67571429Y-94229400D02*
X67500000Y-94157971D01*
X67500000Y-94157971D02*
X67428571Y-94015114D01*
X67428571Y-94015114D02*
X67357143Y-93729400D01*
X67357143Y-93729400D02*
X67357143Y-93372257D01*
X67357143Y-93372257D02*
X67428571Y-93086542D01*
X67428571Y-93086542D02*
X67500000Y-92943685D01*
X67500000Y-92943685D02*
X67571429Y-92872257D01*
X67571429Y-92872257D02*
X67714286Y-92800828D01*
X68785714Y-92943685D02*
X68857142Y-92872257D01*
X68857142Y-92872257D02*
X69000000Y-92800828D01*
X69000000Y-92800828D02*
X69357142Y-92800828D01*
X69357142Y-92800828D02*
X69500000Y-92872257D01*
X69500000Y-92872257D02*
X69571428Y-92943685D01*
X69571428Y-92943685D02*
X69642857Y-93086542D01*
X69642857Y-93086542D02*
X69642857Y-93229400D01*
X69642857Y-93229400D02*
X69571428Y-93443685D01*
X69571428Y-93443685D02*
X68714285Y-94300828D01*
X68714285Y-94300828D02*
X69642857Y-94300828D01*
X70928571Y-92800828D02*
X70642856Y-92800828D01*
X70642856Y-92800828D02*
X70499999Y-92872257D01*
X70499999Y-92872257D02*
X70428571Y-92943685D01*
X70428571Y-92943685D02*
X70285713Y-93157971D01*
X70285713Y-93157971D02*
X70214285Y-93443685D01*
X70214285Y-93443685D02*
X70214285Y-94015114D01*
X70214285Y-94015114D02*
X70285713Y-94157971D01*
X70285713Y-94157971D02*
X70357142Y-94229400D01*
X70357142Y-94229400D02*
X70499999Y-94300828D01*
X70499999Y-94300828D02*
X70785713Y-94300828D01*
X70785713Y-94300828D02*
X70928571Y-94229400D01*
X70928571Y-94229400D02*
X70999999Y-94157971D01*
X70999999Y-94157971D02*
X71071428Y-94015114D01*
X71071428Y-94015114D02*
X71071428Y-93657971D01*
X71071428Y-93657971D02*
X70999999Y-93515114D01*
X70999999Y-93515114D02*
X70928571Y-93443685D01*
X70928571Y-93443685D02*
X70785713Y-93372257D01*
X70785713Y-93372257D02*
X70499999Y-93372257D01*
X70499999Y-93372257D02*
X70357142Y-93443685D01*
X70357142Y-93443685D02*
X70285713Y-93515114D01*
X70285713Y-93515114D02*
X70214285Y-93657971D01*
D17*
X79297588Y-131098064D02*
X79297588Y-129098064D01*
X79297588Y-129098064D02*
X80440445Y-131098064D01*
X80440445Y-131098064D02*
X80440445Y-129098064D01*
X81392826Y-130050445D02*
X82059493Y-130050445D01*
X82345207Y-131098064D02*
X81392826Y-131098064D01*
X81392826Y-131098064D02*
X81392826Y-129098064D01*
X81392826Y-129098064D02*
X82345207Y-129098064D01*
X84249969Y-129193302D02*
X84059493Y-129098064D01*
X84059493Y-129098064D02*
X83773779Y-129098064D01*
X83773779Y-129098064D02*
X83488064Y-129193302D01*
X83488064Y-129193302D02*
X83297588Y-129383778D01*
X83297588Y-129383778D02*
X83202350Y-129574254D01*
X83202350Y-129574254D02*
X83107112Y-129955206D01*
X83107112Y-129955206D02*
X83107112Y-130240921D01*
X83107112Y-130240921D02*
X83202350Y-130621873D01*
X83202350Y-130621873D02*
X83297588Y-130812349D01*
X83297588Y-130812349D02*
X83488064Y-131002826D01*
X83488064Y-131002826D02*
X83773779Y-131098064D01*
X83773779Y-131098064D02*
X83964255Y-131098064D01*
X83964255Y-131098064D02*
X84249969Y-131002826D01*
X84249969Y-131002826D02*
X84345207Y-130907587D01*
X84345207Y-130907587D02*
X84345207Y-130240921D01*
X84345207Y-130240921D02*
X83964255Y-130240921D01*
X96397588Y-131098064D02*
X96397588Y-129098064D01*
X96397588Y-129098064D02*
X97159493Y-129098064D01*
X97159493Y-129098064D02*
X97349969Y-129193302D01*
X97349969Y-129193302D02*
X97445207Y-129288540D01*
X97445207Y-129288540D02*
X97540445Y-129479016D01*
X97540445Y-129479016D02*
X97540445Y-129764730D01*
X97540445Y-129764730D02*
X97445207Y-129955206D01*
X97445207Y-129955206D02*
X97349969Y-130050445D01*
X97349969Y-130050445D02*
X97159493Y-130145683D01*
X97159493Y-130145683D02*
X96397588Y-130145683D01*
X98778540Y-129098064D02*
X99159493Y-129098064D01*
X99159493Y-129098064D02*
X99349969Y-129193302D01*
X99349969Y-129193302D02*
X99540445Y-129383778D01*
X99540445Y-129383778D02*
X99635683Y-129764730D01*
X99635683Y-129764730D02*
X99635683Y-130431397D01*
X99635683Y-130431397D02*
X99540445Y-130812349D01*
X99540445Y-130812349D02*
X99349969Y-131002826D01*
X99349969Y-131002826D02*
X99159493Y-131098064D01*
X99159493Y-131098064D02*
X98778540Y-131098064D01*
X98778540Y-131098064D02*
X98588064Y-131002826D01*
X98588064Y-131002826D02*
X98397588Y-130812349D01*
X98397588Y-130812349D02*
X98302350Y-130431397D01*
X98302350Y-130431397D02*
X98302350Y-129764730D01*
X98302350Y-129764730D02*
X98397588Y-129383778D01*
X98397588Y-129383778D02*
X98588064Y-129193302D01*
X98588064Y-129193302D02*
X98778540Y-129098064D01*
X100397588Y-131002826D02*
X100683302Y-131098064D01*
X100683302Y-131098064D02*
X101159493Y-131098064D01*
X101159493Y-131098064D02*
X101349969Y-131002826D01*
X101349969Y-131002826D02*
X101445207Y-130907587D01*
X101445207Y-130907587D02*
X101540445Y-130717111D01*
X101540445Y-130717111D02*
X101540445Y-130526635D01*
X101540445Y-130526635D02*
X101445207Y-130336159D01*
X101445207Y-130336159D02*
X101349969Y-130240921D01*
X101349969Y-130240921D02*
X101159493Y-130145683D01*
X101159493Y-130145683D02*
X100778540Y-130050445D01*
X100778540Y-130050445D02*
X100588064Y-129955206D01*
X100588064Y-129955206D02*
X100492826Y-129859968D01*
X100492826Y-129859968D02*
X100397588Y-129669492D01*
X100397588Y-129669492D02*
X100397588Y-129479016D01*
X100397588Y-129479016D02*
X100492826Y-129288540D01*
X100492826Y-129288540D02*
X100588064Y-129193302D01*
X100588064Y-129193302D02*
X100778540Y-129098064D01*
X100778540Y-129098064D02*
X101254731Y-129098064D01*
X101254731Y-129098064D02*
X101540445Y-129193302D01*
X79832642Y-149792919D02*
X79832642Y-148269110D01*
X78594547Y-146364348D02*
X78594547Y-147316729D01*
X78594547Y-147316729D02*
X79546928Y-147411967D01*
X79546928Y-147411967D02*
X79451689Y-147316729D01*
X79451689Y-147316729D02*
X79356451Y-147126253D01*
X79356451Y-147126253D02*
X79356451Y-146650062D01*
X79356451Y-146650062D02*
X79451689Y-146459586D01*
X79451689Y-146459586D02*
X79546928Y-146364348D01*
X79546928Y-146364348D02*
X79737404Y-146269110D01*
X79737404Y-146269110D02*
X80213594Y-146269110D01*
X80213594Y-146269110D02*
X80404070Y-146364348D01*
X80404070Y-146364348D02*
X80499309Y-146459586D01*
X80499309Y-146459586D02*
X80594547Y-146650062D01*
X80594547Y-146650062D02*
X80594547Y-147126253D01*
X80594547Y-147126253D02*
X80499309Y-147316729D01*
X80499309Y-147316729D02*
X80404070Y-147411967D01*
X78594547Y-145697681D02*
X80594547Y-145031015D01*
X80594547Y-145031015D02*
X78594547Y-144364348D01*
X86832642Y-151792919D02*
X86832642Y-150269110D01*
X87594547Y-148269110D02*
X87594547Y-149411967D01*
X87594547Y-148840539D02*
X85594547Y-148840539D01*
X85594547Y-148840539D02*
X85880261Y-149031015D01*
X85880261Y-149031015D02*
X86070737Y-149221491D01*
X86070737Y-149221491D02*
X86165975Y-149411967D01*
X85785023Y-147507205D02*
X85689785Y-147411967D01*
X85689785Y-147411967D02*
X85594547Y-147221491D01*
X85594547Y-147221491D02*
X85594547Y-146745300D01*
X85594547Y-146745300D02*
X85689785Y-146554824D01*
X85689785Y-146554824D02*
X85785023Y-146459586D01*
X85785023Y-146459586D02*
X85975499Y-146364348D01*
X85975499Y-146364348D02*
X86165975Y-146364348D01*
X86165975Y-146364348D02*
X86451689Y-146459586D01*
X86451689Y-146459586D02*
X87594547Y-147602443D01*
X87594547Y-147602443D02*
X87594547Y-146364348D01*
X85594547Y-145792919D02*
X87594547Y-145126253D01*
X87594547Y-145126253D02*
X85594547Y-144459586D01*
X93832642Y-151792919D02*
X93832642Y-150269110D01*
X94594547Y-151031014D02*
X93070737Y-151031014D01*
X94594547Y-148269110D02*
X94594547Y-149411967D01*
X94594547Y-148840539D02*
X92594547Y-148840539D01*
X92594547Y-148840539D02*
X92880261Y-149031015D01*
X92880261Y-149031015D02*
X93070737Y-149221491D01*
X93070737Y-149221491D02*
X93165975Y-149411967D01*
X92785023Y-147507205D02*
X92689785Y-147411967D01*
X92689785Y-147411967D02*
X92594547Y-147221491D01*
X92594547Y-147221491D02*
X92594547Y-146745300D01*
X92594547Y-146745300D02*
X92689785Y-146554824D01*
X92689785Y-146554824D02*
X92785023Y-146459586D01*
X92785023Y-146459586D02*
X92975499Y-146364348D01*
X92975499Y-146364348D02*
X93165975Y-146364348D01*
X93165975Y-146364348D02*
X93451689Y-146459586D01*
X93451689Y-146459586D02*
X94594547Y-147602443D01*
X94594547Y-147602443D02*
X94594547Y-146364348D01*
X92594547Y-145792919D02*
X94594547Y-145126253D01*
X94594547Y-145126253D02*
X92594547Y-144459586D01*
X100822093Y-149777575D02*
X100822093Y-148253766D01*
X101583998Y-149015670D02*
X100060188Y-149015670D01*
X99583998Y-146349004D02*
X99583998Y-147301385D01*
X99583998Y-147301385D02*
X100536379Y-147396623D01*
X100536379Y-147396623D02*
X100441140Y-147301385D01*
X100441140Y-147301385D02*
X100345902Y-147110909D01*
X100345902Y-147110909D02*
X100345902Y-146634718D01*
X100345902Y-146634718D02*
X100441140Y-146444242D01*
X100441140Y-146444242D02*
X100536379Y-146349004D01*
X100536379Y-146349004D02*
X100726855Y-146253766D01*
X100726855Y-146253766D02*
X101203045Y-146253766D01*
X101203045Y-146253766D02*
X101393521Y-146349004D01*
X101393521Y-146349004D02*
X101488760Y-146444242D01*
X101488760Y-146444242D02*
X101583998Y-146634718D01*
X101583998Y-146634718D02*
X101583998Y-147110909D01*
X101583998Y-147110909D02*
X101488760Y-147301385D01*
X101488760Y-147301385D02*
X101393521Y-147396623D01*
X99583998Y-145682337D02*
X101583998Y-145015671D01*
X101583998Y-145015671D02*
X99583998Y-144349004D01*
D18*
X74228571Y-123951642D02*
X75371429Y-123951642D01*
X74000000Y-124723071D02*
X74800000Y-122023071D01*
X74800000Y-122023071D02*
X75600000Y-124723071D01*
X76285714Y-122280214D02*
X76400000Y-122151642D01*
X76400000Y-122151642D02*
X76628572Y-122023071D01*
X76628572Y-122023071D02*
X77200000Y-122023071D01*
X77200000Y-122023071D02*
X77428572Y-122151642D01*
X77428572Y-122151642D02*
X77542857Y-122280214D01*
X77542857Y-122280214D02*
X77657143Y-122537357D01*
X77657143Y-122537357D02*
X77657143Y-122794500D01*
X77657143Y-122794500D02*
X77542857Y-123180214D01*
X77542857Y-123180214D02*
X76171429Y-124723071D01*
X76171429Y-124723071D02*
X77657143Y-124723071D01*
X80514285Y-124723071D02*
X80514285Y-122023071D01*
X80514285Y-122023071D02*
X81085714Y-122023071D01*
X81085714Y-122023071D02*
X81428571Y-122151642D01*
X81428571Y-122151642D02*
X81657142Y-122408785D01*
X81657142Y-122408785D02*
X81771428Y-122665928D01*
X81771428Y-122665928D02*
X81885714Y-123180214D01*
X81885714Y-123180214D02*
X81885714Y-123565928D01*
X81885714Y-123565928D02*
X81771428Y-124080214D01*
X81771428Y-124080214D02*
X81657142Y-124337357D01*
X81657142Y-124337357D02*
X81428571Y-124594500D01*
X81428571Y-124594500D02*
X81085714Y-124723071D01*
X81085714Y-124723071D02*
X80514285Y-124723071D01*
X84285714Y-124465928D02*
X84171428Y-124594500D01*
X84171428Y-124594500D02*
X83828571Y-124723071D01*
X83828571Y-124723071D02*
X83599999Y-124723071D01*
X83599999Y-124723071D02*
X83257142Y-124594500D01*
X83257142Y-124594500D02*
X83028571Y-124337357D01*
X83028571Y-124337357D02*
X82914285Y-124080214D01*
X82914285Y-124080214D02*
X82799999Y-123565928D01*
X82799999Y-123565928D02*
X82799999Y-123180214D01*
X82799999Y-123180214D02*
X82914285Y-122665928D01*
X82914285Y-122665928D02*
X83028571Y-122408785D01*
X83028571Y-122408785D02*
X83257142Y-122151642D01*
X83257142Y-122151642D02*
X83599999Y-122023071D01*
X83599999Y-122023071D02*
X83828571Y-122023071D01*
X83828571Y-122023071D02*
X84171428Y-122151642D01*
X84171428Y-122151642D02*
X84285714Y-122280214D01*
X85314285Y-123694500D02*
X87142857Y-123694500D01*
X88285714Y-124723071D02*
X88285714Y-122023071D01*
X88285714Y-122023071D02*
X88857143Y-122023071D01*
X88857143Y-122023071D02*
X89200000Y-122151642D01*
X89200000Y-122151642D02*
X89428571Y-122408785D01*
X89428571Y-122408785D02*
X89542857Y-122665928D01*
X89542857Y-122665928D02*
X89657143Y-123180214D01*
X89657143Y-123180214D02*
X89657143Y-123565928D01*
X89657143Y-123565928D02*
X89542857Y-124080214D01*
X89542857Y-124080214D02*
X89428571Y-124337357D01*
X89428571Y-124337357D02*
X89200000Y-124594500D01*
X89200000Y-124594500D02*
X88857143Y-124723071D01*
X88857143Y-124723071D02*
X88285714Y-124723071D01*
X92057143Y-124465928D02*
X91942857Y-124594500D01*
X91942857Y-124594500D02*
X91600000Y-124723071D01*
X91600000Y-124723071D02*
X91371428Y-124723071D01*
X91371428Y-124723071D02*
X91028571Y-124594500D01*
X91028571Y-124594500D02*
X90800000Y-124337357D01*
X90800000Y-124337357D02*
X90685714Y-124080214D01*
X90685714Y-124080214D02*
X90571428Y-123565928D01*
X90571428Y-123565928D02*
X90571428Y-123180214D01*
X90571428Y-123180214D02*
X90685714Y-122665928D01*
X90685714Y-122665928D02*
X90800000Y-122408785D01*
X90800000Y-122408785D02*
X91028571Y-122151642D01*
X91028571Y-122151642D02*
X91371428Y-122023071D01*
X91371428Y-122023071D02*
X91600000Y-122023071D01*
X91600000Y-122023071D02*
X91942857Y-122151642D01*
X91942857Y-122151642D02*
X92057143Y-122280214D01*
X94799999Y-124594500D02*
X95142857Y-124723071D01*
X95142857Y-124723071D02*
X95714285Y-124723071D01*
X95714285Y-124723071D02*
X95942857Y-124594500D01*
X95942857Y-124594500D02*
X96057142Y-124465928D01*
X96057142Y-124465928D02*
X96171428Y-124208785D01*
X96171428Y-124208785D02*
X96171428Y-123951642D01*
X96171428Y-123951642D02*
X96057142Y-123694500D01*
X96057142Y-123694500D02*
X95942857Y-123565928D01*
X95942857Y-123565928D02*
X95714285Y-123437357D01*
X95714285Y-123437357D02*
X95257142Y-123308785D01*
X95257142Y-123308785D02*
X95028571Y-123180214D01*
X95028571Y-123180214D02*
X94914285Y-123051642D01*
X94914285Y-123051642D02*
X94799999Y-122794500D01*
X94799999Y-122794500D02*
X94799999Y-122537357D01*
X94799999Y-122537357D02*
X94914285Y-122280214D01*
X94914285Y-122280214D02*
X95028571Y-122151642D01*
X95028571Y-122151642D02*
X95257142Y-122023071D01*
X95257142Y-122023071D02*
X95828571Y-122023071D01*
X95828571Y-122023071D02*
X96171428Y-122151642D01*
X98228571Y-122923071D02*
X98228571Y-124723071D01*
X97199999Y-122923071D02*
X97199999Y-124337357D01*
X97199999Y-124337357D02*
X97314285Y-124594500D01*
X97314285Y-124594500D02*
X97542856Y-124723071D01*
X97542856Y-124723071D02*
X97885713Y-124723071D01*
X97885713Y-124723071D02*
X98114285Y-124594500D01*
X98114285Y-124594500D02*
X98228571Y-124465928D01*
X99371428Y-122923071D02*
X99371428Y-125623071D01*
X99371428Y-123051642D02*
X99600000Y-122923071D01*
X99600000Y-122923071D02*
X100057142Y-122923071D01*
X100057142Y-122923071D02*
X100285714Y-123051642D01*
X100285714Y-123051642D02*
X100400000Y-123180214D01*
X100400000Y-123180214D02*
X100514285Y-123437357D01*
X100514285Y-123437357D02*
X100514285Y-124208785D01*
X100514285Y-124208785D02*
X100400000Y-124465928D01*
X100400000Y-124465928D02*
X100285714Y-124594500D01*
X100285714Y-124594500D02*
X100057142Y-124723071D01*
X100057142Y-124723071D02*
X99600000Y-124723071D01*
X99600000Y-124723071D02*
X99371428Y-124594500D01*
X101542857Y-122923071D02*
X101542857Y-125623071D01*
X101542857Y-123051642D02*
X101771429Y-122923071D01*
X101771429Y-122923071D02*
X102228571Y-122923071D01*
X102228571Y-122923071D02*
X102457143Y-123051642D01*
X102457143Y-123051642D02*
X102571429Y-123180214D01*
X102571429Y-123180214D02*
X102685714Y-123437357D01*
X102685714Y-123437357D02*
X102685714Y-124208785D01*
X102685714Y-124208785D02*
X102571429Y-124465928D01*
X102571429Y-124465928D02*
X102457143Y-124594500D01*
X102457143Y-124594500D02*
X102228571Y-124723071D01*
X102228571Y-124723071D02*
X101771429Y-124723071D01*
X101771429Y-124723071D02*
X101542857Y-124594500D01*
X104057143Y-124723071D02*
X103828572Y-124594500D01*
X103828572Y-124594500D02*
X103714286Y-124337357D01*
X103714286Y-124337357D02*
X103714286Y-122023071D01*
X104742858Y-122923071D02*
X105314286Y-124723071D01*
X105885715Y-122923071D02*
X105314286Y-124723071D01*
X105314286Y-124723071D02*
X105085715Y-125365928D01*
X105085715Y-125365928D02*
X104971429Y-125494500D01*
X104971429Y-125494500D02*
X104742858Y-125623071D01*
X81185714Y-137723071D02*
X79814285Y-137723071D01*
X80500000Y-137723071D02*
X80500000Y-135023071D01*
X80500000Y-135023071D02*
X80271428Y-135408785D01*
X80271428Y-135408785D02*
X80042857Y-135665928D01*
X80042857Y-135665928D02*
X79814285Y-135794500D01*
X82099999Y-135280214D02*
X82214285Y-135151642D01*
X82214285Y-135151642D02*
X82442857Y-135023071D01*
X82442857Y-135023071D02*
X83014285Y-135023071D01*
X83014285Y-135023071D02*
X83242857Y-135151642D01*
X83242857Y-135151642D02*
X83357142Y-135280214D01*
X83357142Y-135280214D02*
X83471428Y-135537357D01*
X83471428Y-135537357D02*
X83471428Y-135794500D01*
X83471428Y-135794500D02*
X83357142Y-136180214D01*
X83357142Y-136180214D02*
X81985714Y-137723071D01*
X81985714Y-137723071D02*
X83471428Y-137723071D01*
X84157142Y-135023071D02*
X84957142Y-137723071D01*
X84957142Y-137723071D02*
X85757142Y-135023071D01*
X86557142Y-137723071D02*
X86557142Y-135023071D01*
X86557142Y-135023071D02*
X87128571Y-135023071D01*
X87128571Y-135023071D02*
X87471428Y-135151642D01*
X87471428Y-135151642D02*
X87699999Y-135408785D01*
X87699999Y-135408785D02*
X87814285Y-135665928D01*
X87814285Y-135665928D02*
X87928571Y-136180214D01*
X87928571Y-136180214D02*
X87928571Y-136565928D01*
X87928571Y-136565928D02*
X87814285Y-137080214D01*
X87814285Y-137080214D02*
X87699999Y-137337357D01*
X87699999Y-137337357D02*
X87471428Y-137594500D01*
X87471428Y-137594500D02*
X87128571Y-137723071D01*
X87128571Y-137723071D02*
X86557142Y-137723071D01*
X90328571Y-137465928D02*
X90214285Y-137594500D01*
X90214285Y-137594500D02*
X89871428Y-137723071D01*
X89871428Y-137723071D02*
X89642856Y-137723071D01*
X89642856Y-137723071D02*
X89299999Y-137594500D01*
X89299999Y-137594500D02*
X89071428Y-137337357D01*
X89071428Y-137337357D02*
X88957142Y-137080214D01*
X88957142Y-137080214D02*
X88842856Y-136565928D01*
X88842856Y-136565928D02*
X88842856Y-136180214D01*
X88842856Y-136180214D02*
X88957142Y-135665928D01*
X88957142Y-135665928D02*
X89071428Y-135408785D01*
X89071428Y-135408785D02*
X89299999Y-135151642D01*
X89299999Y-135151642D02*
X89642856Y-135023071D01*
X89642856Y-135023071D02*
X89871428Y-135023071D01*
X89871428Y-135023071D02*
X90214285Y-135151642D01*
X90214285Y-135151642D02*
X90328571Y-135280214D01*
X93642856Y-135023071D02*
X94099999Y-135023071D01*
X94099999Y-135023071D02*
X94328570Y-135151642D01*
X94328570Y-135151642D02*
X94557142Y-135408785D01*
X94557142Y-135408785D02*
X94671427Y-135923071D01*
X94671427Y-135923071D02*
X94671427Y-136823071D01*
X94671427Y-136823071D02*
X94557142Y-137337357D01*
X94557142Y-137337357D02*
X94328570Y-137594500D01*
X94328570Y-137594500D02*
X94099999Y-137723071D01*
X94099999Y-137723071D02*
X93642856Y-137723071D01*
X93642856Y-137723071D02*
X93414285Y-137594500D01*
X93414285Y-137594500D02*
X93185713Y-137337357D01*
X93185713Y-137337357D02*
X93071427Y-136823071D01*
X93071427Y-136823071D02*
X93071427Y-135923071D01*
X93071427Y-135923071D02*
X93185713Y-135408785D01*
X93185713Y-135408785D02*
X93414285Y-135151642D01*
X93414285Y-135151642D02*
X93642856Y-135023071D01*
X95699999Y-137723071D02*
X95699999Y-135023071D01*
X95699999Y-135023071D02*
X97071428Y-137723071D01*
X97071428Y-137723071D02*
X97071428Y-135023071D01*
X99357142Y-137723071D02*
X98214285Y-137723071D01*
X98214285Y-137723071D02*
X98214285Y-135023071D01*
X100614285Y-136437357D02*
X100614285Y-137723071D01*
X99814285Y-135023071D02*
X100614285Y-136437357D01*
X100614285Y-136437357D02*
X101414285Y-135023071D01*
X106954661Y-152107076D02*
X106954661Y-149107076D01*
X106954661Y-149107076D02*
X107983232Y-149107076D01*
X107983232Y-149107076D02*
X108240375Y-149249933D01*
X108240375Y-149249933D02*
X108368946Y-149392790D01*
X108368946Y-149392790D02*
X108497518Y-149678504D01*
X108497518Y-149678504D02*
X108497518Y-150107076D01*
X108497518Y-150107076D02*
X108368946Y-150392790D01*
X108368946Y-150392790D02*
X108240375Y-150535647D01*
X108240375Y-150535647D02*
X107983232Y-150678504D01*
X107983232Y-150678504D02*
X106954661Y-150678504D01*
X110168946Y-149107076D02*
X110683232Y-149107076D01*
X110683232Y-149107076D02*
X110940375Y-149249933D01*
X110940375Y-149249933D02*
X111197518Y-149535647D01*
X111197518Y-149535647D02*
X111326089Y-150107076D01*
X111326089Y-150107076D02*
X111326089Y-151107076D01*
X111326089Y-151107076D02*
X111197518Y-151678504D01*
X111197518Y-151678504D02*
X110940375Y-151964219D01*
X110940375Y-151964219D02*
X110683232Y-152107076D01*
X110683232Y-152107076D02*
X110168946Y-152107076D01*
X110168946Y-152107076D02*
X109911804Y-151964219D01*
X109911804Y-151964219D02*
X109654661Y-151678504D01*
X109654661Y-151678504D02*
X109526089Y-151107076D01*
X109526089Y-151107076D02*
X109526089Y-150107076D01*
X109526089Y-150107076D02*
X109654661Y-149535647D01*
X109654661Y-149535647D02*
X109911804Y-149249933D01*
X109911804Y-149249933D02*
X110168946Y-149107076D01*
X112226089Y-149107076D02*
X112868946Y-152107076D01*
X112868946Y-152107076D02*
X113383232Y-149964219D01*
X113383232Y-149964219D02*
X113897517Y-152107076D01*
X113897517Y-152107076D02*
X114540375Y-149107076D01*
X115568946Y-150535647D02*
X116468946Y-150535647D01*
X116854660Y-152107076D02*
X115568946Y-152107076D01*
X115568946Y-152107076D02*
X115568946Y-149107076D01*
X115568946Y-149107076D02*
X116854660Y-149107076D01*
X119554660Y-152107076D02*
X118654660Y-150678504D01*
X118011803Y-152107076D02*
X118011803Y-149107076D01*
X118011803Y-149107076D02*
X119040374Y-149107076D01*
X119040374Y-149107076D02*
X119297517Y-149249933D01*
X119297517Y-149249933D02*
X119426088Y-149392790D01*
X119426088Y-149392790D02*
X119554660Y-149678504D01*
X119554660Y-149678504D02*
X119554660Y-150107076D01*
X119554660Y-150107076D02*
X119426088Y-150392790D01*
X119426088Y-150392790D02*
X119297517Y-150535647D01*
X119297517Y-150535647D02*
X119040374Y-150678504D01*
X119040374Y-150678504D02*
X118011803Y-150678504D01*
D15*
X135267265Y-101766665D02*
X136400599Y-101766665D01*
X136400599Y-101766665D02*
X136533932Y-101699999D01*
X136533932Y-101699999D02*
X136600599Y-101633332D01*
X136600599Y-101633332D02*
X136667265Y-101499999D01*
X136667265Y-101499999D02*
X136667265Y-101233332D01*
X136667265Y-101233332D02*
X136600599Y-101099999D01*
X136600599Y-101099999D02*
X136533932Y-101033332D01*
X136533932Y-101033332D02*
X136400599Y-100966665D01*
X136400599Y-100966665D02*
X135267265Y-100966665D01*
X136667265Y-99566665D02*
X136667265Y-100366665D01*
X136667265Y-99966665D02*
X135267265Y-99966665D01*
X135267265Y-99966665D02*
X135467265Y-100099998D01*
X135467265Y-100099998D02*
X135600599Y-100233332D01*
X135600599Y-100233332D02*
X135667265Y-100366665D01*
D19*
X117804819Y-60366666D02*
X117328628Y-60699999D01*
X117804819Y-60938094D02*
X116804819Y-60938094D01*
X116804819Y-60938094D02*
X116804819Y-60557142D01*
X116804819Y-60557142D02*
X116852438Y-60461904D01*
X116852438Y-60461904D02*
X116900057Y-60414285D01*
X116900057Y-60414285D02*
X116995295Y-60366666D01*
X116995295Y-60366666D02*
X117138152Y-60366666D01*
X117138152Y-60366666D02*
X117233390Y-60414285D01*
X117233390Y-60414285D02*
X117281009Y-60461904D01*
X117281009Y-60461904D02*
X117328628Y-60557142D01*
X117328628Y-60557142D02*
X117328628Y-60938094D01*
X117138152Y-59509523D02*
X117804819Y-59509523D01*
X116757200Y-59747618D02*
X117471485Y-59985713D01*
X117471485Y-59985713D02*
X117471485Y-59366666D01*
X99304819Y-60366666D02*
X98828628Y-60699999D01*
X99304819Y-60938094D02*
X98304819Y-60938094D01*
X98304819Y-60938094D02*
X98304819Y-60557142D01*
X98304819Y-60557142D02*
X98352438Y-60461904D01*
X98352438Y-60461904D02*
X98400057Y-60414285D01*
X98400057Y-60414285D02*
X98495295Y-60366666D01*
X98495295Y-60366666D02*
X98638152Y-60366666D01*
X98638152Y-60366666D02*
X98733390Y-60414285D01*
X98733390Y-60414285D02*
X98781009Y-60461904D01*
X98781009Y-60461904D02*
X98828628Y-60557142D01*
X98828628Y-60557142D02*
X98828628Y-60938094D01*
X99304819Y-59414285D02*
X99304819Y-59985713D01*
X99304819Y-59699999D02*
X98304819Y-59699999D01*
X98304819Y-59699999D02*
X98447676Y-59795237D01*
X98447676Y-59795237D02*
X98542914Y-59890475D01*
X98542914Y-59890475D02*
X98590533Y-59985713D01*
X110804819Y-60366666D02*
X110328628Y-60699999D01*
X110804819Y-60938094D02*
X109804819Y-60938094D01*
X109804819Y-60938094D02*
X109804819Y-60557142D01*
X109804819Y-60557142D02*
X109852438Y-60461904D01*
X109852438Y-60461904D02*
X109900057Y-60414285D01*
X109900057Y-60414285D02*
X109995295Y-60366666D01*
X109995295Y-60366666D02*
X110138152Y-60366666D01*
X110138152Y-60366666D02*
X110233390Y-60414285D01*
X110233390Y-60414285D02*
X110281009Y-60461904D01*
X110281009Y-60461904D02*
X110328628Y-60557142D01*
X110328628Y-60557142D02*
X110328628Y-60938094D01*
X109804819Y-60033332D02*
X109804819Y-59414285D01*
X109804819Y-59414285D02*
X110185771Y-59747618D01*
X110185771Y-59747618D02*
X110185771Y-59604761D01*
X110185771Y-59604761D02*
X110233390Y-59509523D01*
X110233390Y-59509523D02*
X110281009Y-59461904D01*
X110281009Y-59461904D02*
X110376247Y-59414285D01*
X110376247Y-59414285D02*
X110614342Y-59414285D01*
X110614342Y-59414285D02*
X110709580Y-59461904D01*
X110709580Y-59461904D02*
X110757200Y-59509523D01*
X110757200Y-59509523D02*
X110804819Y-59604761D01*
X110804819Y-59604761D02*
X110804819Y-59890475D01*
X110804819Y-59890475D02*
X110757200Y-59985713D01*
X110757200Y-59985713D02*
X110709580Y-60033332D01*
X106304819Y-60366666D02*
X105828628Y-60699999D01*
X106304819Y-60938094D02*
X105304819Y-60938094D01*
X105304819Y-60938094D02*
X105304819Y-60557142D01*
X105304819Y-60557142D02*
X105352438Y-60461904D01*
X105352438Y-60461904D02*
X105400057Y-60414285D01*
X105400057Y-60414285D02*
X105495295Y-60366666D01*
X105495295Y-60366666D02*
X105638152Y-60366666D01*
X105638152Y-60366666D02*
X105733390Y-60414285D01*
X105733390Y-60414285D02*
X105781009Y-60461904D01*
X105781009Y-60461904D02*
X105828628Y-60557142D01*
X105828628Y-60557142D02*
X105828628Y-60938094D01*
X105400057Y-59985713D02*
X105352438Y-59938094D01*
X105352438Y-59938094D02*
X105304819Y-59842856D01*
X105304819Y-59842856D02*
X105304819Y-59604761D01*
X105304819Y-59604761D02*
X105352438Y-59509523D01*
X105352438Y-59509523D02*
X105400057Y-59461904D01*
X105400057Y-59461904D02*
X105495295Y-59414285D01*
X105495295Y-59414285D02*
X105590533Y-59414285D01*
X105590533Y-59414285D02*
X105733390Y-59461904D01*
X105733390Y-59461904D02*
X106304819Y-60033332D01*
X106304819Y-60033332D02*
X106304819Y-59414285D01*
D15*
X112033334Y-84603933D02*
X113100001Y-84603933D01*
X114500000Y-85137266D02*
X113700000Y-85137266D01*
X114100000Y-85137266D02*
X114100000Y-83737266D01*
X114100000Y-83737266D02*
X113966667Y-83937266D01*
X113966667Y-83937266D02*
X113833334Y-84070600D01*
X113833334Y-84070600D02*
X113700000Y-84137266D01*
X115033333Y-83870600D02*
X115100000Y-83803933D01*
X115100000Y-83803933D02*
X115233333Y-83737266D01*
X115233333Y-83737266D02*
X115566667Y-83737266D01*
X115566667Y-83737266D02*
X115700000Y-83803933D01*
X115700000Y-83803933D02*
X115766667Y-83870600D01*
X115766667Y-83870600D02*
X115833333Y-84003933D01*
X115833333Y-84003933D02*
X115833333Y-84137266D01*
X115833333Y-84137266D02*
X115766667Y-84337266D01*
X115766667Y-84337266D02*
X114966667Y-85137266D01*
X114966667Y-85137266D02*
X115833333Y-85137266D01*
X116233333Y-83737266D02*
X116700000Y-85137266D01*
X116700000Y-85137266D02*
X117166666Y-83737266D01*
X129016667Y-83753933D02*
X128950000Y-83820600D01*
X128950000Y-83820600D02*
X128750000Y-83887266D01*
X128750000Y-83887266D02*
X128616667Y-83887266D01*
X128616667Y-83887266D02*
X128416667Y-83820600D01*
X128416667Y-83820600D02*
X128283334Y-83687266D01*
X128283334Y-83687266D02*
X128216667Y-83553933D01*
X128216667Y-83553933D02*
X128150000Y-83287266D01*
X128150000Y-83287266D02*
X128150000Y-83087266D01*
X128150000Y-83087266D02*
X128216667Y-82820600D01*
X128216667Y-82820600D02*
X128283334Y-82687266D01*
X128283334Y-82687266D02*
X128416667Y-82553933D01*
X128416667Y-82553933D02*
X128616667Y-82487266D01*
X128616667Y-82487266D02*
X128750000Y-82487266D01*
X128750000Y-82487266D02*
X128950000Y-82553933D01*
X128950000Y-82553933D02*
X129016667Y-82620600D01*
X130350000Y-83887266D02*
X129550000Y-83887266D01*
X129950000Y-83887266D02*
X129950000Y-82487266D01*
X129950000Y-82487266D02*
X129816667Y-82687266D01*
X129816667Y-82687266D02*
X129683334Y-82820600D01*
X129683334Y-82820600D02*
X129550000Y-82887266D01*
X120702692Y-64303659D02*
X121769359Y-64303659D01*
X123102692Y-63436992D02*
X122436025Y-63436992D01*
X122436025Y-63436992D02*
X122369358Y-64103659D01*
X122369358Y-64103659D02*
X122436025Y-64036992D01*
X122436025Y-64036992D02*
X122569358Y-63970326D01*
X122569358Y-63970326D02*
X122902692Y-63970326D01*
X122902692Y-63970326D02*
X123036025Y-64036992D01*
X123036025Y-64036992D02*
X123102692Y-64103659D01*
X123102692Y-64103659D02*
X123169358Y-64236992D01*
X123169358Y-64236992D02*
X123169358Y-64570326D01*
X123169358Y-64570326D02*
X123102692Y-64703659D01*
X123102692Y-64703659D02*
X123036025Y-64770326D01*
X123036025Y-64770326D02*
X122902692Y-64836992D01*
X122902692Y-64836992D02*
X122569358Y-64836992D01*
X122569358Y-64836992D02*
X122436025Y-64770326D01*
X122436025Y-64770326D02*
X122369358Y-64703659D01*
X123569358Y-63436992D02*
X124036025Y-64836992D01*
X124036025Y-64836992D02*
X124502691Y-63436992D01*
X76684139Y-80906790D02*
X76617472Y-80973457D01*
X76617472Y-80973457D02*
X76417472Y-81040123D01*
X76417472Y-81040123D02*
X76284139Y-81040123D01*
X76284139Y-81040123D02*
X76084139Y-80973457D01*
X76084139Y-80973457D02*
X75950806Y-80840123D01*
X75950806Y-80840123D02*
X75884139Y-80706790D01*
X75884139Y-80706790D02*
X75817472Y-80440123D01*
X75817472Y-80440123D02*
X75817472Y-80240123D01*
X75817472Y-80240123D02*
X75884139Y-79973457D01*
X75884139Y-79973457D02*
X75950806Y-79840123D01*
X75950806Y-79840123D02*
X76084139Y-79706790D01*
X76084139Y-79706790D02*
X76284139Y-79640123D01*
X76284139Y-79640123D02*
X76417472Y-79640123D01*
X76417472Y-79640123D02*
X76617472Y-79706790D01*
X76617472Y-79706790D02*
X76684139Y-79773457D01*
X77150806Y-79640123D02*
X78017472Y-79640123D01*
X78017472Y-79640123D02*
X77550806Y-80173457D01*
X77550806Y-80173457D02*
X77750806Y-80173457D01*
X77750806Y-80173457D02*
X77884139Y-80240123D01*
X77884139Y-80240123D02*
X77950806Y-80306790D01*
X77950806Y-80306790D02*
X78017472Y-80440123D01*
X78017472Y-80440123D02*
X78017472Y-80773457D01*
X78017472Y-80773457D02*
X77950806Y-80906790D01*
X77950806Y-80906790D02*
X77884139Y-80973457D01*
X77884139Y-80973457D02*
X77750806Y-81040123D01*
X77750806Y-81040123D02*
X77350806Y-81040123D01*
X77350806Y-81040123D02*
X77217472Y-80973457D01*
X77217472Y-80973457D02*
X77150806Y-80906790D01*
X85133333Y-72070600D02*
X85333333Y-72137266D01*
X85333333Y-72137266D02*
X85666667Y-72137266D01*
X85666667Y-72137266D02*
X85800000Y-72070600D01*
X85800000Y-72070600D02*
X85866667Y-72003933D01*
X85866667Y-72003933D02*
X85933333Y-71870600D01*
X85933333Y-71870600D02*
X85933333Y-71737266D01*
X85933333Y-71737266D02*
X85866667Y-71603933D01*
X85866667Y-71603933D02*
X85800000Y-71537266D01*
X85800000Y-71537266D02*
X85666667Y-71470600D01*
X85666667Y-71470600D02*
X85400000Y-71403933D01*
X85400000Y-71403933D02*
X85266667Y-71337266D01*
X85266667Y-71337266D02*
X85200000Y-71270600D01*
X85200000Y-71270600D02*
X85133333Y-71137266D01*
X85133333Y-71137266D02*
X85133333Y-71003933D01*
X85133333Y-71003933D02*
X85200000Y-70870600D01*
X85200000Y-70870600D02*
X85266667Y-70803933D01*
X85266667Y-70803933D02*
X85400000Y-70737266D01*
X85400000Y-70737266D02*
X85733333Y-70737266D01*
X85733333Y-70737266D02*
X85933333Y-70803933D01*
X86400000Y-70737266D02*
X86733333Y-72137266D01*
X86733333Y-72137266D02*
X87000000Y-71137266D01*
X87000000Y-71137266D02*
X87266666Y-72137266D01*
X87266666Y-72137266D02*
X87600000Y-70737266D01*
X88866666Y-72137266D02*
X88066666Y-72137266D01*
X88466666Y-72137266D02*
X88466666Y-70737266D01*
X88466666Y-70737266D02*
X88333333Y-70937266D01*
X88333333Y-70937266D02*
X88200000Y-71070600D01*
X88200000Y-71070600D02*
X88066666Y-71137266D01*
X113452161Y-60083639D02*
X113452161Y-58683639D01*
X113452161Y-58683639D02*
X113785494Y-58683639D01*
X113785494Y-58683639D02*
X113985494Y-58750306D01*
X113985494Y-58750306D02*
X114118828Y-58883639D01*
X114118828Y-58883639D02*
X114185494Y-59016973D01*
X114185494Y-59016973D02*
X114252161Y-59283639D01*
X114252161Y-59283639D02*
X114252161Y-59483639D01*
X114252161Y-59483639D02*
X114185494Y-59750306D01*
X114185494Y-59750306D02*
X114118828Y-59883639D01*
X114118828Y-59883639D02*
X113985494Y-60016973D01*
X113985494Y-60016973D02*
X113785494Y-60083639D01*
X113785494Y-60083639D02*
X113452161Y-60083639D01*
X114718828Y-58683639D02*
X115585494Y-58683639D01*
X115585494Y-58683639D02*
X115118828Y-59216973D01*
X115118828Y-59216973D02*
X115318828Y-59216973D01*
X115318828Y-59216973D02*
X115452161Y-59283639D01*
X115452161Y-59283639D02*
X115518828Y-59350306D01*
X115518828Y-59350306D02*
X115585494Y-59483639D01*
X115585494Y-59483639D02*
X115585494Y-59816973D01*
X115585494Y-59816973D02*
X115518828Y-59950306D01*
X115518828Y-59950306D02*
X115452161Y-60016973D01*
X115452161Y-60016973D02*
X115318828Y-60083639D01*
X115318828Y-60083639D02*
X114918828Y-60083639D01*
X114918828Y-60083639D02*
X114785494Y-60016973D01*
X114785494Y-60016973D02*
X114718828Y-59950306D01*
X122725860Y-81487266D02*
X122725860Y-82487266D01*
X122725860Y-82487266D02*
X122659193Y-82687266D01*
X122659193Y-82687266D02*
X122525860Y-82820600D01*
X122525860Y-82820600D02*
X122325860Y-82887266D01*
X122325860Y-82887266D02*
X122192527Y-82887266D01*
X123325860Y-81620600D02*
X123392527Y-81553933D01*
X123392527Y-81553933D02*
X123525860Y-81487266D01*
X123525860Y-81487266D02*
X123859194Y-81487266D01*
X123859194Y-81487266D02*
X123992527Y-81553933D01*
X123992527Y-81553933D02*
X124059194Y-81620600D01*
X124059194Y-81620600D02*
X124125860Y-81753933D01*
X124125860Y-81753933D02*
X124125860Y-81887266D01*
X124125860Y-81887266D02*
X124059194Y-82087266D01*
X124059194Y-82087266D02*
X123259194Y-82887266D01*
X123259194Y-82887266D02*
X124125860Y-82887266D01*
X97066667Y-59837266D02*
X97066667Y-58437266D01*
X97066667Y-58437266D02*
X97400000Y-58437266D01*
X97400000Y-58437266D02*
X97600000Y-58503933D01*
X97600000Y-58503933D02*
X97733334Y-58637266D01*
X97733334Y-58637266D02*
X97800000Y-58770600D01*
X97800000Y-58770600D02*
X97866667Y-59037266D01*
X97866667Y-59037266D02*
X97866667Y-59237266D01*
X97866667Y-59237266D02*
X97800000Y-59503933D01*
X97800000Y-59503933D02*
X97733334Y-59637266D01*
X97733334Y-59637266D02*
X97600000Y-59770600D01*
X97600000Y-59770600D02*
X97400000Y-59837266D01*
X97400000Y-59837266D02*
X97066667Y-59837266D01*
X99200000Y-59837266D02*
X98400000Y-59837266D01*
X98800000Y-59837266D02*
X98800000Y-58437266D01*
X98800000Y-58437266D02*
X98666667Y-58637266D01*
X98666667Y-58637266D02*
X98533334Y-58770600D01*
X98533334Y-58770600D02*
X98400000Y-58837266D01*
X120336667Y-60051222D02*
X120336667Y-58651222D01*
X120336667Y-58651222D02*
X120670000Y-58651222D01*
X120670000Y-58651222D02*
X120870000Y-58717889D01*
X120870000Y-58717889D02*
X121003334Y-58851222D01*
X121003334Y-58851222D02*
X121070000Y-58984556D01*
X121070000Y-58984556D02*
X121136667Y-59251222D01*
X121136667Y-59251222D02*
X121136667Y-59451222D01*
X121136667Y-59451222D02*
X121070000Y-59717889D01*
X121070000Y-59717889D02*
X121003334Y-59851222D01*
X121003334Y-59851222D02*
X120870000Y-59984556D01*
X120870000Y-59984556D02*
X120670000Y-60051222D01*
X120670000Y-60051222D02*
X120336667Y-60051222D01*
X122336667Y-59117889D02*
X122336667Y-60051222D01*
X122003334Y-58584556D02*
X121670000Y-59584556D01*
X121670000Y-59584556D02*
X122536667Y-59584556D01*
X104066667Y-59837266D02*
X104066667Y-58437266D01*
X104066667Y-58437266D02*
X104400000Y-58437266D01*
X104400000Y-58437266D02*
X104600000Y-58503933D01*
X104600000Y-58503933D02*
X104733334Y-58637266D01*
X104733334Y-58637266D02*
X104800000Y-58770600D01*
X104800000Y-58770600D02*
X104866667Y-59037266D01*
X104866667Y-59037266D02*
X104866667Y-59237266D01*
X104866667Y-59237266D02*
X104800000Y-59503933D01*
X104800000Y-59503933D02*
X104733334Y-59637266D01*
X104733334Y-59637266D02*
X104600000Y-59770600D01*
X104600000Y-59770600D02*
X104400000Y-59837266D01*
X104400000Y-59837266D02*
X104066667Y-59837266D01*
X105400000Y-58570600D02*
X105466667Y-58503933D01*
X105466667Y-58503933D02*
X105600000Y-58437266D01*
X105600000Y-58437266D02*
X105933334Y-58437266D01*
X105933334Y-58437266D02*
X106066667Y-58503933D01*
X106066667Y-58503933D02*
X106133334Y-58570600D01*
X106133334Y-58570600D02*
X106200000Y-58703933D01*
X106200000Y-58703933D02*
X106200000Y-58837266D01*
X106200000Y-58837266D02*
X106133334Y-59037266D01*
X106133334Y-59037266D02*
X105333334Y-59837266D01*
X105333334Y-59837266D02*
X106200000Y-59837266D01*
X129883333Y-64887266D02*
X129083333Y-64887266D01*
X129483333Y-64887266D02*
X129483333Y-63487266D01*
X129483333Y-63487266D02*
X129350000Y-63687266D01*
X129350000Y-63687266D02*
X129216667Y-63820600D01*
X129216667Y-63820600D02*
X129083333Y-63887266D01*
X130416666Y-63620600D02*
X130483333Y-63553933D01*
X130483333Y-63553933D02*
X130616666Y-63487266D01*
X130616666Y-63487266D02*
X130950000Y-63487266D01*
X130950000Y-63487266D02*
X131083333Y-63553933D01*
X131083333Y-63553933D02*
X131150000Y-63620600D01*
X131150000Y-63620600D02*
X131216666Y-63753933D01*
X131216666Y-63753933D02*
X131216666Y-63887266D01*
X131216666Y-63887266D02*
X131150000Y-64087266D01*
X131150000Y-64087266D02*
X130350000Y-64887266D01*
X130350000Y-64887266D02*
X131216666Y-64887266D01*
X131616666Y-63487266D02*
X132083333Y-64887266D01*
X132083333Y-64887266D02*
X132549999Y-63487266D01*
D14*
X91716666Y-78136495D02*
X91183333Y-78136495D01*
X91183333Y-78974590D02*
X91183333Y-77374590D01*
X91183333Y-77374590D02*
X91945238Y-77374590D01*
X93392857Y-78974590D02*
X92478571Y-78974590D01*
X92935714Y-78974590D02*
X92935714Y-77374590D01*
X92935714Y-77374590D02*
X92783333Y-77603161D01*
X92783333Y-77603161D02*
X92630952Y-77755542D01*
X92630952Y-77755542D02*
X92478571Y-77831733D01*
X91945238Y-79874590D02*
X91183333Y-79874590D01*
X91183333Y-79874590D02*
X91107142Y-80636495D01*
X91107142Y-80636495D02*
X91183333Y-80560304D01*
X91183333Y-80560304D02*
X91335714Y-80484114D01*
X91335714Y-80484114D02*
X91716666Y-80484114D01*
X91716666Y-80484114D02*
X91869047Y-80560304D01*
X91869047Y-80560304D02*
X91945238Y-80636495D01*
X91945238Y-80636495D02*
X92021428Y-80788876D01*
X92021428Y-80788876D02*
X92021428Y-81169828D01*
X92021428Y-81169828D02*
X91945238Y-81322209D01*
X91945238Y-81322209D02*
X91869047Y-81398400D01*
X91869047Y-81398400D02*
X91716666Y-81474590D01*
X91716666Y-81474590D02*
X91335714Y-81474590D01*
X91335714Y-81474590D02*
X91183333Y-81398400D01*
X91183333Y-81398400D02*
X91107142Y-81322209D01*
X92478571Y-79874590D02*
X93011905Y-81474590D01*
X93011905Y-81474590D02*
X93545238Y-79874590D01*
X91716666Y-68636495D02*
X91183333Y-68636495D01*
X91183333Y-69474590D02*
X91183333Y-67874590D01*
X91183333Y-67874590D02*
X91945238Y-67874590D01*
X92478571Y-68026971D02*
X92554762Y-67950780D01*
X92554762Y-67950780D02*
X92707143Y-67874590D01*
X92707143Y-67874590D02*
X93088095Y-67874590D01*
X93088095Y-67874590D02*
X93240476Y-67950780D01*
X93240476Y-67950780D02*
X93316667Y-68026971D01*
X93316667Y-68026971D02*
X93392857Y-68179352D01*
X93392857Y-68179352D02*
X93392857Y-68331733D01*
X93392857Y-68331733D02*
X93316667Y-68560304D01*
X93316667Y-68560304D02*
X92402381Y-69474590D01*
X92402381Y-69474590D02*
X93392857Y-69474590D01*
X91509523Y-72224590D02*
X90595237Y-72224590D01*
X91052380Y-72224590D02*
X91052380Y-70624590D01*
X91052380Y-70624590D02*
X90899999Y-70853161D01*
X90899999Y-70853161D02*
X90747618Y-71005542D01*
X90747618Y-71005542D02*
X90595237Y-71081733D01*
X92119047Y-70776971D02*
X92195238Y-70700780D01*
X92195238Y-70700780D02*
X92347619Y-70624590D01*
X92347619Y-70624590D02*
X92728571Y-70624590D01*
X92728571Y-70624590D02*
X92880952Y-70700780D01*
X92880952Y-70700780D02*
X92957143Y-70776971D01*
X92957143Y-70776971D02*
X93033333Y-70929352D01*
X93033333Y-70929352D02*
X93033333Y-71081733D01*
X93033333Y-71081733D02*
X92957143Y-71310304D01*
X92957143Y-71310304D02*
X92042857Y-72224590D01*
X92042857Y-72224590D02*
X93033333Y-72224590D01*
X93490476Y-70624590D02*
X94023810Y-72224590D01*
X94023810Y-72224590D02*
X94557143Y-70624590D01*
D15*
X94433333Y-63303933D02*
X94300000Y-63237266D01*
X94300000Y-63237266D02*
X94100000Y-63237266D01*
X94100000Y-63237266D02*
X93900000Y-63303933D01*
X93900000Y-63303933D02*
X93766667Y-63437266D01*
X93766667Y-63437266D02*
X93700000Y-63570600D01*
X93700000Y-63570600D02*
X93633333Y-63837266D01*
X93633333Y-63837266D02*
X93633333Y-64037266D01*
X93633333Y-64037266D02*
X93700000Y-64303933D01*
X93700000Y-64303933D02*
X93766667Y-64437266D01*
X93766667Y-64437266D02*
X93900000Y-64570600D01*
X93900000Y-64570600D02*
X94100000Y-64637266D01*
X94100000Y-64637266D02*
X94233333Y-64637266D01*
X94233333Y-64637266D02*
X94433333Y-64570600D01*
X94433333Y-64570600D02*
X94500000Y-64503933D01*
X94500000Y-64503933D02*
X94500000Y-64037266D01*
X94500000Y-64037266D02*
X94233333Y-64037266D01*
X95100000Y-64637266D02*
X95100000Y-63237266D01*
X95100000Y-63237266D02*
X95900000Y-64637266D01*
X95900000Y-64637266D02*
X95900000Y-63237266D01*
X96566667Y-64637266D02*
X96566667Y-63237266D01*
X96566667Y-63237266D02*
X96900000Y-63237266D01*
X96900000Y-63237266D02*
X97100000Y-63303933D01*
X97100000Y-63303933D02*
X97233334Y-63437266D01*
X97233334Y-63437266D02*
X97300000Y-63570600D01*
X97300000Y-63570600D02*
X97366667Y-63837266D01*
X97366667Y-63837266D02*
X97366667Y-64037266D01*
X97366667Y-64037266D02*
X97300000Y-64303933D01*
X97300000Y-64303933D02*
X97233334Y-64437266D01*
X97233334Y-64437266D02*
X97100000Y-64570600D01*
X97100000Y-64570600D02*
X96900000Y-64637266D01*
X96900000Y-64637266D02*
X96566667Y-64637266D01*
X80133333Y-65137266D02*
X80399999Y-65137266D01*
X80399999Y-65137266D02*
X80533333Y-65203933D01*
X80533333Y-65203933D02*
X80666666Y-65337266D01*
X80666666Y-65337266D02*
X80733333Y-65603933D01*
X80733333Y-65603933D02*
X80733333Y-66070600D01*
X80733333Y-66070600D02*
X80666666Y-66337266D01*
X80666666Y-66337266D02*
X80533333Y-66470600D01*
X80533333Y-66470600D02*
X80399999Y-66537266D01*
X80399999Y-66537266D02*
X80133333Y-66537266D01*
X80133333Y-66537266D02*
X79999999Y-66470600D01*
X79999999Y-66470600D02*
X79866666Y-66337266D01*
X79866666Y-66337266D02*
X79799999Y-66070600D01*
X79799999Y-66070600D02*
X79799999Y-65603933D01*
X79799999Y-65603933D02*
X79866666Y-65337266D01*
X79866666Y-65337266D02*
X79999999Y-65203933D01*
X79999999Y-65203933D02*
X80133333Y-65137266D01*
X81333333Y-66537266D02*
X81333333Y-65137266D01*
X81333333Y-65137266D02*
X82133333Y-66537266D01*
X82133333Y-66537266D02*
X82133333Y-65137266D01*
X134766667Y-83753933D02*
X134700000Y-83820600D01*
X134700000Y-83820600D02*
X134500000Y-83887266D01*
X134500000Y-83887266D02*
X134366667Y-83887266D01*
X134366667Y-83887266D02*
X134166667Y-83820600D01*
X134166667Y-83820600D02*
X134033334Y-83687266D01*
X134033334Y-83687266D02*
X133966667Y-83553933D01*
X133966667Y-83553933D02*
X133900000Y-83287266D01*
X133900000Y-83287266D02*
X133900000Y-83087266D01*
X133900000Y-83087266D02*
X133966667Y-82820600D01*
X133966667Y-82820600D02*
X134033334Y-82687266D01*
X134033334Y-82687266D02*
X134166667Y-82553933D01*
X134166667Y-82553933D02*
X134366667Y-82487266D01*
X134366667Y-82487266D02*
X134500000Y-82487266D01*
X134500000Y-82487266D02*
X134700000Y-82553933D01*
X134700000Y-82553933D02*
X134766667Y-82620600D01*
X135300000Y-82620600D02*
X135366667Y-82553933D01*
X135366667Y-82553933D02*
X135500000Y-82487266D01*
X135500000Y-82487266D02*
X135833334Y-82487266D01*
X135833334Y-82487266D02*
X135966667Y-82553933D01*
X135966667Y-82553933D02*
X136033334Y-82620600D01*
X136033334Y-82620600D02*
X136100000Y-82753933D01*
X136100000Y-82753933D02*
X136100000Y-82887266D01*
X136100000Y-82887266D02*
X136033334Y-83087266D01*
X136033334Y-83087266D02*
X135233334Y-83887266D01*
X135233334Y-83887266D02*
X136100000Y-83887266D01*
X103483334Y-63487266D02*
X102816667Y-63487266D01*
X102816667Y-63487266D02*
X102750000Y-64153933D01*
X102750000Y-64153933D02*
X102816667Y-64087266D01*
X102816667Y-64087266D02*
X102950000Y-64020600D01*
X102950000Y-64020600D02*
X103283334Y-64020600D01*
X103283334Y-64020600D02*
X103416667Y-64087266D01*
X103416667Y-64087266D02*
X103483334Y-64153933D01*
X103483334Y-64153933D02*
X103550000Y-64287266D01*
X103550000Y-64287266D02*
X103550000Y-64620600D01*
X103550000Y-64620600D02*
X103483334Y-64753933D01*
X103483334Y-64753933D02*
X103416667Y-64820600D01*
X103416667Y-64820600D02*
X103283334Y-64887266D01*
X103283334Y-64887266D02*
X102950000Y-64887266D01*
X102950000Y-64887266D02*
X102816667Y-64820600D01*
X102816667Y-64820600D02*
X102750000Y-64753933D01*
X103950000Y-63487266D02*
X104416667Y-64887266D01*
X104416667Y-64887266D02*
X104883333Y-63487266D01*
X69184139Y-71406790D02*
X69117472Y-71473457D01*
X69117472Y-71473457D02*
X68917472Y-71540123D01*
X68917472Y-71540123D02*
X68784139Y-71540123D01*
X68784139Y-71540123D02*
X68584139Y-71473457D01*
X68584139Y-71473457D02*
X68450806Y-71340123D01*
X68450806Y-71340123D02*
X68384139Y-71206790D01*
X68384139Y-71206790D02*
X68317472Y-70940123D01*
X68317472Y-70940123D02*
X68317472Y-70740123D01*
X68317472Y-70740123D02*
X68384139Y-70473457D01*
X68384139Y-70473457D02*
X68450806Y-70340123D01*
X68450806Y-70340123D02*
X68584139Y-70206790D01*
X68584139Y-70206790D02*
X68784139Y-70140123D01*
X68784139Y-70140123D02*
X68917472Y-70140123D01*
X68917472Y-70140123D02*
X69117472Y-70206790D01*
X69117472Y-70206790D02*
X69184139Y-70273457D01*
X70384139Y-70606790D02*
X70384139Y-71540123D01*
X70050806Y-70073457D02*
X69717472Y-71073457D01*
X69717472Y-71073457D02*
X70584139Y-71073457D01*
X99533333Y-84987266D02*
X99533333Y-85987266D01*
X99533333Y-85987266D02*
X99466666Y-86187266D01*
X99466666Y-86187266D02*
X99333333Y-86320600D01*
X99333333Y-86320600D02*
X99133333Y-86387266D01*
X99133333Y-86387266D02*
X99000000Y-86387266D01*
X100933333Y-86387266D02*
X100133333Y-86387266D01*
X100533333Y-86387266D02*
X100533333Y-84987266D01*
X100533333Y-84987266D02*
X100400000Y-85187266D01*
X100400000Y-85187266D02*
X100266667Y-85320600D01*
X100266667Y-85320600D02*
X100133333Y-85387266D01*
X136887266Y-93783332D02*
X135487266Y-93783332D01*
X135487266Y-93783332D02*
X135487266Y-93449999D01*
X135487266Y-93449999D02*
X135553933Y-93249999D01*
X135553933Y-93249999D02*
X135687266Y-93116666D01*
X135687266Y-93116666D02*
X135820600Y-93049999D01*
X135820600Y-93049999D02*
X136087266Y-92983332D01*
X136087266Y-92983332D02*
X136287266Y-92983332D01*
X136287266Y-92983332D02*
X136553933Y-93049999D01*
X136553933Y-93049999D02*
X136687266Y-93116666D01*
X136687266Y-93116666D02*
X136820600Y-93249999D01*
X136820600Y-93249999D02*
X136887266Y-93449999D01*
X136887266Y-93449999D02*
X136887266Y-93783332D01*
X135487266Y-91716666D02*
X135487266Y-92383332D01*
X135487266Y-92383332D02*
X136153933Y-92449999D01*
X136153933Y-92449999D02*
X136087266Y-92383332D01*
X136087266Y-92383332D02*
X136020600Y-92249999D01*
X136020600Y-92249999D02*
X136020600Y-91916666D01*
X136020600Y-91916666D02*
X136087266Y-91783332D01*
X136087266Y-91783332D02*
X136153933Y-91716666D01*
X136153933Y-91716666D02*
X136287266Y-91649999D01*
X136287266Y-91649999D02*
X136620600Y-91649999D01*
X136620600Y-91649999D02*
X136753933Y-91716666D01*
X136753933Y-91716666D02*
X136820600Y-91783332D01*
X136820600Y-91783332D02*
X136887266Y-91916666D01*
X136887266Y-91916666D02*
X136887266Y-92249999D01*
X136887266Y-92249999D02*
X136820600Y-92383332D01*
X136820600Y-92383332D02*
X136753933Y-92449999D01*
D20*
%TO.C,U1*%
X134860000Y-96290000D02*
X134390000Y-95949999D01*
X134860000Y-95609999D01*
X134860000Y-96290000D01*
G36*
X134860000Y-96290000D02*
G01*
X134390000Y-95949999D01*
X134860000Y-95609999D01*
X134860000Y-96290000D01*
G37*
X134700000Y-97679999D02*
X134430000Y-97679999D01*
X134699999Y-104099999D02*
X134700000Y-97679999D01*
X127800001Y-104099999D02*
X127800000Y-97679999D01*
X127800000Y-97679999D02*
X128070000Y-97679999D01*
%TO.C,R4*%
X118265000Y-60427064D02*
X118265000Y-59972936D01*
X119735000Y-60427064D02*
X119735000Y-59972936D01*
%TO.C,R1*%
X99765000Y-60427064D02*
X99765000Y-59972936D01*
X101235000Y-60427064D02*
X101235000Y-59972936D01*
%TO.C,R3*%
X111265000Y-60427064D02*
X111265000Y-59972936D01*
X112735000Y-60427064D02*
X112735000Y-59972936D01*
%TO.C,R2*%
X106765000Y-60427064D02*
X106765000Y-59972936D01*
X108235000Y-60427064D02*
X108235000Y-59972936D01*
%TO.C,TP3*%
X116200000Y-82000000D02*
G75*
G02*
X113800000Y-82000000I-1200000J0D01*
G01*
X113800000Y-82000000D02*
G75*
G02*
X116200000Y-82000000I1200000J0D01*
G01*
%TO.C,C1*%
X127143289Y-87680817D02*
X126710539Y-87248068D01*
X127171573Y-87652533D02*
X126705590Y-87186550D01*
X127199857Y-87624249D02*
X126702761Y-87127153D01*
X127228141Y-87595964D02*
X126701347Y-87069170D01*
X127256426Y-87567680D02*
X126701347Y-87012601D01*
X127284710Y-87539396D02*
X126702054Y-86956740D01*
X127312994Y-87511112D02*
X126704175Y-86902293D01*
X127341279Y-87482827D02*
X126707711Y-86849260D01*
X127369563Y-87454543D02*
X126711953Y-86796934D01*
X127397847Y-87426259D02*
X126716903Y-86745315D01*
X127426131Y-87397975D02*
X126722560Y-86694403D01*
X127454416Y-87369690D02*
X126729631Y-86644906D01*
X127482700Y-87341406D02*
X126737409Y-86596115D01*
X127510984Y-87313122D02*
X126745895Y-86548032D01*
X127539268Y-87284837D02*
X126755087Y-86500656D01*
X127567553Y-87256553D02*
X126764986Y-86453987D01*
X127595837Y-87228269D02*
X126776300Y-86408732D01*
X127624121Y-87199985D02*
X126787614Y-86363477D01*
X127652405Y-87171700D02*
X126799635Y-86318930D01*
X127654527Y-89040584D02*
X127254304Y-88640361D01*
X127680690Y-87143416D02*
X126812363Y-86275089D01*
X127708974Y-87115132D02*
X126825798Y-86231955D01*
X127737258Y-87086848D02*
X126839940Y-86189529D01*
X127765543Y-87058563D02*
X126854082Y-86147103D01*
X127793827Y-87030279D02*
X126869638Y-86106090D01*
X127822111Y-87001995D02*
X126885195Y-86065078D01*
X127848274Y-89177762D02*
X127117126Y-88446614D01*
X127850395Y-86973711D02*
X126901458Y-86024773D01*
X127878680Y-86945426D02*
X126918429Y-85985175D01*
X127906964Y-86917142D02*
X126936106Y-85946284D01*
X127935248Y-86888858D02*
X126953784Y-85907393D01*
X127963532Y-86860573D02*
X126972169Y-85869210D01*
X127989695Y-89262615D02*
X127032273Y-88305193D01*
X127991817Y-86832289D02*
X126991261Y-85831733D01*
X128020101Y-86804005D02*
X127011060Y-85794964D01*
X128048385Y-86775721D02*
X127030859Y-85758194D01*
X128076670Y-86747436D02*
X127051365Y-85722132D01*
X128104954Y-86719152D02*
X127071871Y-85686069D01*
X128108489Y-89324841D02*
X126970047Y-88186399D01*
X128133238Y-86690868D02*
X127093791Y-85651421D01*
X128161522Y-86662584D02*
X127115711Y-85616773D01*
X128189807Y-86634299D02*
X127137632Y-85582124D01*
X128213848Y-89373631D02*
X126921257Y-88081040D01*
X128218091Y-86606015D02*
X127160259Y-85548183D01*
X128246375Y-86577731D02*
X127183594Y-85514949D01*
X128274659Y-86549446D02*
X127207635Y-85482422D01*
X128302944Y-86521162D02*
X127231677Y-85449895D01*
X128310722Y-89413936D02*
X126880952Y-87984166D01*
X128331228Y-86492878D02*
X127256426Y-85418076D01*
X128359512Y-86464594D02*
X127281174Y-85386256D01*
X128387797Y-86436309D02*
X127306630Y-85355143D01*
X128400524Y-89447170D02*
X126847718Y-87894364D01*
X128416081Y-86408025D02*
X127332793Y-85324737D01*
X128444365Y-86379741D02*
X127358956Y-85294332D01*
X128472649Y-86351457D02*
X127385826Y-85264633D01*
X128484670Y-89474747D02*
X126820141Y-87810218D01*
X128500934Y-86323172D02*
X127412696Y-85234935D01*
X128529218Y-86294888D02*
X127440273Y-85205944D01*
X128557502Y-86266604D02*
X127468558Y-85177659D01*
X128565280Y-89498789D02*
X126796099Y-87729608D01*
X128641648Y-89518588D02*
X126776300Y-87653240D01*
X128715187Y-89535558D02*
X126759330Y-87579701D01*
X128785898Y-89549701D02*
X126745187Y-87508990D01*
X128853780Y-89561014D02*
X126733874Y-87441108D01*
X128920248Y-89570914D02*
X126723974Y-87374640D01*
X128984595Y-89578692D02*
X126716196Y-87310293D01*
X129046820Y-89584349D02*
X128614071Y-89151599D01*
X129108338Y-89589298D02*
X128642355Y-89123315D01*
X129167735Y-89592127D02*
X128670639Y-89095031D01*
X129225718Y-89593541D02*
X128698924Y-89066747D01*
X129282287Y-89593541D02*
X128727208Y-89038462D01*
X129338148Y-89592834D02*
X128755492Y-89010178D01*
X129392595Y-89590713D02*
X128783776Y-88981894D01*
X129445628Y-89587177D02*
X128812061Y-88953609D01*
X129497954Y-89582935D02*
X128840345Y-88925325D01*
X129549573Y-89577985D02*
X128868629Y-88897041D01*
X129600485Y-89572328D02*
X128896913Y-88868757D01*
X129649982Y-89565257D02*
X128925198Y-88840472D01*
X129698773Y-89557479D02*
X128953482Y-88812188D01*
X129746856Y-89548993D02*
X128981766Y-88783904D01*
X129794232Y-89539801D02*
X129010051Y-88755620D01*
X129840901Y-89529902D02*
X129038335Y-88727335D01*
X129886156Y-89518588D02*
X129066619Y-88699051D01*
X129931411Y-89507274D02*
X129094903Y-88670767D01*
X129975958Y-89495253D02*
X129123188Y-88642483D01*
X130019799Y-89482525D02*
X129151472Y-88614198D01*
X130062933Y-89469090D02*
X129179756Y-88585914D01*
X130105359Y-89454948D02*
X129208040Y-88557630D01*
X130147785Y-89440806D02*
X129236325Y-88529345D01*
X130188798Y-89425250D02*
X129264609Y-88501061D01*
X130229810Y-89409693D02*
X129292893Y-88472777D01*
X130270115Y-89393430D02*
X129321177Y-88444493D01*
X130309713Y-89376459D02*
X129349462Y-88416208D01*
X130348604Y-89358782D02*
X129377746Y-88387924D01*
X130387495Y-89341104D02*
X129406030Y-88359640D01*
X130425678Y-89322719D02*
X129434315Y-88331356D01*
X130463155Y-89303627D02*
X129462599Y-88303071D01*
X130499924Y-89283828D02*
X129490883Y-88274787D01*
X130536694Y-89264029D02*
X129519167Y-88246503D01*
X130572756Y-89243523D02*
X129547452Y-88218218D01*
X130608819Y-89223017D02*
X129575736Y-88189934D01*
X130643467Y-89201097D02*
X129604020Y-88161650D01*
X130678115Y-89179177D02*
X129632304Y-88133366D01*
X130712764Y-89157256D02*
X129660589Y-88105081D01*
X130746705Y-89134629D02*
X129688873Y-88076797D01*
X130779939Y-89111294D02*
X129717157Y-88048513D01*
X130812466Y-89087253D02*
X129745442Y-88020229D01*
X130844993Y-89063211D02*
X129773726Y-87991944D01*
X130876812Y-89038462D02*
X129802010Y-87963660D01*
X130908632Y-89013714D02*
X129830294Y-87935376D01*
X130939745Y-88988258D02*
X129858579Y-87907091D01*
X130970151Y-88962095D02*
X129886863Y-87878807D01*
X131000556Y-88935932D02*
X129915147Y-87850523D01*
X131030255Y-88909062D02*
X129943431Y-87822239D01*
X131059953Y-88882192D02*
X129971716Y-87793954D01*
X131088944Y-88854615D02*
X130000000Y-87765670D01*
X131117229Y-88826330D02*
X130028284Y-87737386D01*
X132319151Y-86061702D02*
X131965598Y-86415255D01*
X132319151Y-86415255D02*
X131965598Y-86061702D01*
X131912893Y-87001995D02*
G75*
G02*
X126672893Y-87001995I-2620000J0D01*
G01*
X126672893Y-87001995D02*
G75*
G02*
X131912893Y-87001995I2620000J0D01*
G01*
%TO.C,TP4*%
X124439285Y-61685989D02*
G75*
G02*
X122039285Y-61685989I-1200000J0D01*
G01*
X122039285Y-61685989D02*
G75*
G02*
X124439285Y-61685989I1200000J0D01*
G01*
%TO.C,C3*%
X78575596Y-79750683D02*
X80216791Y-78109488D01*
X78575596Y-79807251D02*
X80245075Y-78137772D01*
X78576303Y-79693407D02*
X80188507Y-78081204D01*
X78576303Y-79863113D02*
X80273359Y-78166056D01*
X78577717Y-79635424D02*
X80160222Y-78052919D01*
X78577717Y-79918267D02*
X80301644Y-78194341D01*
X78579132Y-79973421D02*
X80329928Y-78222625D01*
X78579839Y-79576734D02*
X83437662Y-74718911D01*
X78581960Y-80027161D02*
X80358212Y-78250909D01*
X78582667Y-79517337D02*
X83378265Y-74721739D01*
X78584789Y-80080901D02*
X80386497Y-78279193D01*
X78585496Y-79457940D02*
X83318868Y-74724568D01*
X78588324Y-80133934D02*
X80414781Y-78307478D01*
X78589738Y-79397129D02*
X83258057Y-74728810D01*
X78591860Y-80186967D02*
X80443065Y-78335762D01*
X78594688Y-79335611D02*
X83196539Y-74733760D01*
X78596809Y-80238586D02*
X80471349Y-78364046D01*
X78601052Y-79272678D02*
X83133606Y-74740124D01*
X78601759Y-80290205D02*
X80499634Y-78392330D01*
X78606709Y-80341824D02*
X80527918Y-78420615D01*
X78607416Y-79209746D02*
X83070674Y-74746488D01*
X78613073Y-80392028D02*
X80556202Y-78448899D01*
X78615194Y-79145399D02*
X83006327Y-74754266D01*
X78618730Y-80442940D02*
X80584486Y-78477183D01*
X78623679Y-79080345D02*
X82941273Y-74762751D01*
X78625801Y-80492438D02*
X80612771Y-78505468D01*
X78632872Y-79014584D02*
X82875512Y-74771944D01*
X78632872Y-80541935D02*
X80641055Y-78533752D01*
X78640650Y-80590725D02*
X80669339Y-78562036D01*
X78643478Y-78947409D02*
X82808337Y-74782550D01*
X78648428Y-80639516D02*
X80697624Y-78590320D01*
X78655499Y-78878820D02*
X82739748Y-74794571D01*
X78656913Y-80687599D02*
X80725908Y-78618605D01*
X78666106Y-80734975D02*
X80754192Y-78646889D01*
X78668227Y-78809523D02*
X82670451Y-74807299D01*
X78675298Y-80782351D02*
X80782476Y-78675173D01*
X78682369Y-78738813D02*
X82599741Y-74821441D01*
X78684491Y-80829728D02*
X80810761Y-78703457D01*
X78695097Y-80875690D02*
X80839045Y-78731742D01*
X78697926Y-78666688D02*
X82527616Y-74836998D01*
X78704997Y-80922359D02*
X80867329Y-78760026D01*
X78714896Y-78593149D02*
X82454077Y-74853968D01*
X78715603Y-80968320D02*
X80895613Y-78788310D01*
X78726917Y-81013575D02*
X80923898Y-78816595D01*
X78733281Y-78518195D02*
X82379123Y-74872353D01*
X78738231Y-81058830D02*
X80952182Y-78844879D01*
X78750251Y-81103378D02*
X80980466Y-78873163D01*
X78753080Y-78441828D02*
X82302756Y-74892152D01*
X78762272Y-81147926D02*
X81008751Y-78901447D01*
X78775000Y-78363339D02*
X82224267Y-74914072D01*
X78775000Y-81191766D02*
X81037035Y-78929732D01*
X78787728Y-81235607D02*
X81065319Y-78958016D01*
X78799042Y-78282729D02*
X82143657Y-74938114D01*
X78800456Y-81279447D02*
X81093603Y-78986300D01*
X78813891Y-81322581D02*
X81121888Y-79014584D01*
X78825205Y-78199997D02*
X82060925Y-74964277D01*
X78828033Y-81365007D02*
X81150172Y-79042869D01*
X78842175Y-81407434D02*
X81178456Y-79071153D01*
X78853489Y-78115145D02*
X81976073Y-74992561D01*
X78856318Y-81449860D02*
X81206740Y-79099437D01*
X78871167Y-81491580D02*
X81235025Y-79127722D01*
X78884602Y-78027463D02*
X81888391Y-75023674D01*
X78886016Y-81533299D02*
X81263309Y-79156006D01*
X78901572Y-81574311D02*
X81291593Y-79184290D01*
X78917129Y-81615323D02*
X81319878Y-79212574D01*
X78917836Y-77937661D02*
X81798589Y-75056908D01*
X78932685Y-81656335D02*
X81348162Y-79240859D01*
X78948948Y-81696640D02*
X81376446Y-79269143D01*
X78955312Y-77843616D02*
X81704544Y-75094384D01*
X78965212Y-81736946D02*
X81404730Y-79297427D01*
X78982183Y-81776544D02*
X81433015Y-79325711D01*
X78996325Y-77746035D02*
X81606963Y-75135397D01*
X78999153Y-81816142D02*
X81461299Y-79353996D01*
X79016124Y-81855739D02*
X81489583Y-79382280D01*
X79033801Y-81894630D02*
X81517867Y-79410564D01*
X79041579Y-77644212D02*
X81505140Y-75180651D01*
X79051479Y-81933521D02*
X81546152Y-79438849D01*
X79069864Y-81971705D02*
X81574436Y-79467133D01*
X79087541Y-82010596D02*
X81602720Y-79495417D01*
X79092491Y-77536731D02*
X81397659Y-75231563D01*
X79106633Y-82048073D02*
X81631005Y-79523701D01*
X79125018Y-82086256D02*
X81659289Y-79551986D01*
X79144110Y-82123733D02*
X81687573Y-79580270D01*
X79149767Y-77422887D02*
X81283815Y-75288839D01*
X79163909Y-82160503D02*
X81715857Y-79608554D01*
X79183708Y-82197272D02*
X81744142Y-79636838D01*
X79203507Y-82234042D02*
X81772426Y-79665123D01*
X79214821Y-77301265D02*
X81162193Y-75353893D01*
X79223306Y-82270811D02*
X81800710Y-79693407D01*
X79243812Y-82306874D02*
X81828994Y-79721691D01*
X79264318Y-82342936D02*
X81857279Y-79749976D01*
X79285531Y-82378291D02*
X81885563Y-79778260D01*
X79290481Y-77169036D02*
X81029964Y-75429553D01*
X79306037Y-82414354D02*
X86275282Y-75445109D01*
X79327958Y-82449002D02*
X86309930Y-75467030D01*
X79349171Y-82484357D02*
X86345285Y-75488243D01*
X79371091Y-82519006D02*
X86379934Y-75510163D01*
X79380991Y-77021958D02*
X80882886Y-75520063D01*
X79393012Y-82553654D02*
X86414582Y-75532084D01*
X79415639Y-82587595D02*
X86448523Y-75554711D01*
X79438266Y-82621536D02*
X86482464Y-75577338D01*
X79460894Y-82655477D02*
X86516405Y-75599966D01*
X79483521Y-82689418D02*
X86550346Y-75622593D01*
X79494128Y-76852252D02*
X80713180Y-75633200D01*
X79506856Y-82722652D02*
X86583580Y-75645928D01*
X79530190Y-82755886D02*
X86616814Y-75669262D01*
X79554232Y-82788413D02*
X86649341Y-75693304D01*
X79578274Y-82820940D02*
X86681868Y-75717346D01*
X79602315Y-82853467D02*
X86714395Y-75741387D01*
X79626357Y-82885994D02*
X86746922Y-75765429D01*
X79651106Y-82917814D02*
X86778742Y-75790178D01*
X79651813Y-76637999D02*
X80498927Y-75790885D01*
X79675854Y-82949634D02*
X86810562Y-75814926D01*
X79701310Y-82980746D02*
X86841674Y-75840382D01*
X79726059Y-83012566D02*
X86873494Y-75865131D01*
X79752222Y-83042972D02*
X86903900Y-75891294D01*
X79777678Y-83074084D02*
X86935012Y-75916750D01*
X79803841Y-83104490D02*
X86965418Y-75942913D01*
X79830004Y-83134896D02*
X86995824Y-75969076D01*
X79856166Y-83165301D02*
X87026229Y-75995238D01*
X79883037Y-83195000D02*
X87055928Y-76022109D01*
X79909907Y-83224698D02*
X87085626Y-76048979D01*
X79936777Y-83254397D02*
X87115325Y-76075849D01*
X79964354Y-83283388D02*
X87144316Y-76103426D01*
X79991224Y-83313087D02*
X87174015Y-76130296D01*
X80019508Y-83341371D02*
X87202299Y-76158580D01*
X80047085Y-83370362D02*
X87231290Y-76186157D01*
X80075370Y-83398646D02*
X87259574Y-76214442D01*
X81913847Y-76299294D02*
X83496352Y-74716789D01*
X81942132Y-76327579D02*
X83554335Y-74715375D01*
X81970416Y-76355863D02*
X83611611Y-74714668D01*
X81998700Y-76384147D02*
X83668179Y-74714668D01*
X82026984Y-76412431D02*
X83724041Y-74715375D01*
X82055269Y-76440716D02*
X83779195Y-74716789D01*
X82083553Y-76469000D02*
X83834349Y-74718204D01*
X82111837Y-76497284D02*
X83888089Y-74721032D01*
X82140121Y-76525569D02*
X83941829Y-74723861D01*
X82168406Y-76553853D02*
X83994862Y-74727396D01*
X82196690Y-76582137D02*
X84047895Y-74730932D01*
X82224974Y-76610421D02*
X84099514Y-74735881D01*
X82253258Y-76638706D02*
X84151133Y-74740831D01*
X82281543Y-76666990D02*
X84202752Y-74745781D01*
X82309827Y-76695274D02*
X84252956Y-74752145D01*
X82338111Y-76723558D02*
X84303868Y-74757802D01*
X82366396Y-76751843D02*
X84353366Y-74764873D01*
X82394680Y-76780127D02*
X84402863Y-74771944D01*
X82422964Y-76808411D02*
X84451653Y-74779722D01*
X82451248Y-76836696D02*
X84500444Y-74787500D01*
X82479533Y-76864980D02*
X84548527Y-74795985D01*
X82507817Y-76893264D02*
X84595903Y-74805178D01*
X82536101Y-76921548D02*
X84643279Y-74814370D01*
X82564385Y-76949833D02*
X84690656Y-74823563D01*
X82592670Y-76978117D02*
X84736618Y-74834169D01*
X82620954Y-77006401D02*
X84783287Y-74844069D01*
X82649238Y-77034685D02*
X84829248Y-74854675D01*
X82677523Y-77062970D02*
X84874503Y-74865989D01*
X82705807Y-77091254D02*
X84919758Y-74877303D01*
X82734091Y-77119538D02*
X84964306Y-74889323D01*
X82762375Y-77147823D02*
X85008854Y-74901344D01*
X82790660Y-77176107D02*
X85052694Y-74914072D01*
X82818944Y-77204391D02*
X85096535Y-74926800D01*
X82847228Y-77232675D02*
X85140375Y-74939528D01*
X82875512Y-77260960D02*
X85183509Y-74952963D01*
X82903797Y-77289244D02*
X85225935Y-74967105D01*
X82932081Y-77317528D02*
X85268362Y-74981247D01*
X82960365Y-77345812D02*
X85310788Y-74995390D01*
X82988650Y-77374097D02*
X85352508Y-75010239D01*
X83016934Y-77402381D02*
X85394227Y-75025088D01*
X83045218Y-77430665D02*
X85435239Y-75040644D01*
X83073502Y-77458950D02*
X85476251Y-75056201D01*
X83101787Y-77487234D02*
X85517263Y-75071757D01*
X83130071Y-77515518D02*
X85557568Y-75088020D01*
X83158355Y-77543802D02*
X85597874Y-75104284D01*
X83186639Y-77572087D02*
X85637472Y-75121255D01*
X83214924Y-77600371D02*
X85677070Y-75138225D01*
X83243208Y-77628655D02*
X85716667Y-75155196D01*
X83271492Y-77656939D02*
X85755558Y-75172873D01*
X83299777Y-77685224D02*
X85794449Y-75190551D01*
X83328061Y-77713508D02*
X85832633Y-75208936D01*
X83356345Y-77741792D02*
X85871524Y-75226613D01*
X83384629Y-77770077D02*
X85909001Y-75245705D01*
X83412914Y-77798361D02*
X85947184Y-75264090D01*
X83441198Y-77826645D02*
X85984661Y-75283182D01*
X83469482Y-77854929D02*
X86021431Y-75302981D01*
X83497766Y-77883214D02*
X86058200Y-75322780D01*
X83526051Y-77911498D02*
X86094970Y-75342579D01*
X83554335Y-77939782D02*
X86131739Y-75362378D01*
X83582619Y-77968066D02*
X86167802Y-75382884D01*
X83610904Y-77996351D02*
X86203864Y-75403390D01*
X83639188Y-78024635D02*
X86239219Y-75424603D01*
X84802128Y-85714171D02*
X85509235Y-85007064D01*
X85509235Y-85714171D02*
X84802128Y-85007064D01*
X88787472Y-79806544D02*
G75*
G02*
X78547472Y-79806544I-5120000J0D01*
G01*
X78547472Y-79806544D02*
G75*
G02*
X88787472Y-79806544I5120000J0D01*
G01*
%TO.C,SW1*%
D15*
X84500000Y-69762500D02*
X84500000Y-59362500D01*
X84700000Y-51762500D02*
X85600000Y-51762500D01*
X84700000Y-52262500D02*
X84700000Y-51762500D01*
X84700000Y-52662500D02*
X89300000Y-53062500D01*
X84700000Y-53462500D02*
X89300000Y-53862500D01*
X84700000Y-54362500D02*
X89300000Y-54762500D01*
X84700000Y-55362500D02*
X89300000Y-55762500D01*
X84700000Y-56362500D02*
X89300000Y-56862500D01*
X85600000Y-47762500D02*
X86250000Y-47762500D01*
X85600000Y-49762500D02*
X85600000Y-47762500D01*
X85600000Y-50762500D02*
X86250000Y-50762500D01*
X85600000Y-51762500D02*
X85600000Y-50762500D01*
X85600000Y-52262500D02*
X84700000Y-52262500D01*
X85600000Y-52262500D02*
X84700000Y-52662500D01*
X85600000Y-57062500D02*
X85600000Y-52262500D01*
X86250000Y-47762500D02*
X86250000Y-48162500D01*
X86250000Y-48162500D02*
X87750000Y-48162500D01*
X86250000Y-49762500D02*
X85600000Y-49762500D01*
X86250000Y-50762500D02*
X86250000Y-49762500D01*
X87000000Y-69762500D02*
X84500000Y-69762500D01*
X87750000Y-47762500D02*
X88400000Y-47762500D01*
X87750000Y-48162500D02*
X87750000Y-47762500D01*
X87750000Y-49762500D02*
X87750000Y-50762500D01*
X87750000Y-50762500D02*
X88400000Y-50762500D01*
X88400000Y-47762500D02*
X88400000Y-49762500D01*
X88400000Y-49762500D02*
X87750000Y-49762500D01*
X88400000Y-50762500D02*
X88400000Y-51762500D01*
X88400000Y-51762500D02*
X89300000Y-51762500D01*
X88400000Y-52262500D02*
X88400000Y-57762500D01*
X89300000Y-51762500D02*
X89300000Y-52262500D01*
X89300000Y-52262500D02*
X88400000Y-52262500D01*
X89300000Y-53062500D02*
X84700000Y-53462500D01*
X89300000Y-53862500D02*
X84700000Y-54362500D01*
X89300000Y-54762500D02*
X84700000Y-55362500D01*
X89300000Y-55762500D02*
X84700000Y-56362500D01*
X89300000Y-56862500D02*
X86000000Y-57152500D01*
X89500000Y-57762500D02*
X86000000Y-57762500D01*
X89500000Y-69762500D02*
X89500000Y-57762500D01*
D10*
D21*
X90000000Y-66212500D02*
X89999999Y-66212500D01*
X89999999Y-66212500D01*
X89999999Y-66212500D01*
X89999999Y-66212500D01*
X89999999Y-66212500D01*
X89999999Y-66212500D01*
X89999999Y-66212500D01*
X89999999Y-66212499D01*
X89999999Y-66212499D01*
X89999999Y-66212499D01*
X89999999Y-66212499D01*
X89999999Y-66212499D01*
X90000000Y-66212499D01*
X90000000Y-66212499D01*
X90000000Y-66212499D01*
X90000000Y-66212499D01*
X90000000Y-66212499D01*
X90000000Y-66212499D01*
X90000000Y-66212499D01*
X90000000Y-66212499D01*
X90000000Y-66212499D01*
X90000000Y-66212499D01*
X90000000Y-66212499D01*
X90000000Y-66212499D01*
X90000001Y-66212499D01*
X90000001Y-66212499D01*
X90000001Y-66212499D01*
X90000001Y-66212499D01*
X90000001Y-66212499D01*
X90000001Y-66212499D01*
X90000001Y-66212500D01*
X90000001Y-66212500D01*
X90000001Y-66212500D01*
X90000001Y-66212500D01*
X90000001Y-66212500D01*
X90000001Y-66212500D01*
X90000001Y-66212500D01*
X90000000Y-66212500D01*
X90000000Y-66212500D02*
X90000001Y-66212500D01*
X90000001Y-66212500D01*
X90000001Y-66212500D01*
X90000001Y-66212500D01*
X90000001Y-66212500D01*
X90000001Y-66212500D01*
X90000001Y-66212501D01*
X90000001Y-66212501D01*
X90000001Y-66212501D01*
X90000001Y-66212501D01*
X90000001Y-66212501D01*
X90000001Y-66212501D01*
X90000001Y-66212501D01*
X90000000Y-66212501D01*
X90000000Y-66212501D01*
X90000000Y-66212501D01*
X90000000Y-66212501D01*
X90000000Y-66212501D01*
X90000000Y-66212501D01*
X90000000Y-66212501D01*
X90000000Y-66212501D01*
X90000000Y-66212501D01*
X90000000Y-66212501D01*
X90000000Y-66212501D01*
X90000000Y-66212501D01*
X89999999Y-66212501D01*
X89999999Y-66212501D01*
X89999999Y-66212501D01*
X89999999Y-66212501D01*
X89999999Y-66212501D01*
X89999999Y-66212501D01*
X89999999Y-66212500D01*
X89999999Y-66212500D01*
X89999999Y-66212500D01*
X89999999Y-66212500D01*
X89999999Y-66212500D01*
X89999999Y-66212500D01*
X90000000Y-66212500D01*
D10*
D21*
X90100000Y-66212500D02*
X90099999Y-66212500D01*
X90099999Y-66212500D01*
X90099999Y-66212500D01*
X90099999Y-66212500D01*
X90099999Y-66212500D01*
X90099999Y-66212500D01*
X90099999Y-66212500D01*
X90099999Y-66212499D01*
X90099999Y-66212499D01*
X90099999Y-66212499D01*
X90099999Y-66212499D01*
X90099999Y-66212499D01*
X90100000Y-66212499D01*
X90100000Y-66212499D01*
X90100000Y-66212499D01*
X90100000Y-66212499D01*
X90100000Y-66212499D01*
X90100000Y-66212499D01*
X90100000Y-66212499D01*
X90100000Y-66212499D01*
X90100000Y-66212499D01*
X90100000Y-66212499D01*
X90100000Y-66212499D01*
X90100000Y-66212499D01*
X90100001Y-66212499D01*
X90100001Y-66212499D01*
X90100001Y-66212499D01*
X90100001Y-66212499D01*
X90100001Y-66212499D01*
X90100001Y-66212499D01*
X90100001Y-66212500D01*
X90100001Y-66212500D01*
X90100001Y-66212500D01*
X90100001Y-66212500D01*
X90100001Y-66212500D01*
X90100001Y-66212500D01*
X90100001Y-66212500D01*
X90100000Y-66212500D01*
X90100000Y-66212500D02*
X90100001Y-66212500D01*
X90100001Y-66212500D01*
X90100001Y-66212500D01*
X90100001Y-66212500D01*
X90100001Y-66212500D01*
X90100001Y-66212500D01*
X90100001Y-66212501D01*
X90100001Y-66212501D01*
X90100001Y-66212501D01*
X90100001Y-66212501D01*
X90100001Y-66212501D01*
X90100001Y-66212501D01*
X90100001Y-66212501D01*
X90100000Y-66212501D01*
X90100000Y-66212501D01*
X90100000Y-66212501D01*
X90100000Y-66212501D01*
X90100000Y-66212501D01*
X90100000Y-66212501D01*
X90100000Y-66212501D01*
X90100000Y-66212501D01*
X90100000Y-66212501D01*
X90100000Y-66212501D01*
X90100000Y-66212501D01*
X90100000Y-66212501D01*
X90099999Y-66212501D01*
X90099999Y-66212501D01*
X90099999Y-66212501D01*
X90099999Y-66212501D01*
X90099999Y-66212501D01*
X90099999Y-66212501D01*
X90099999Y-66212500D01*
X90099999Y-66212500D01*
X90099999Y-66212500D01*
X90099999Y-66212500D01*
X90099999Y-66212500D01*
X90099999Y-66212500D01*
X90100000Y-66212500D01*
D10*
X90000000Y-66212500D02*
G75*
G02*
X90100000Y-66212500I50000J0D01*
G01*
X90100000Y-66212500D02*
G75*
G02*
X90000000Y-66212500I-50000J0D01*
G01*
%TO.C,D3*%
D20*
X111725494Y-54810373D02*
X111725494Y-54966373D01*
X111725494Y-57126373D02*
X111725494Y-57282373D01*
X111725494Y-54810857D02*
G75*
G02*
X114956931Y-54966373I1560000J-1235516D01*
G01*
X112244533Y-54966373D02*
G75*
G02*
X114326455Y-54966373I1040961J-1080000D01*
G01*
X114326455Y-57126373D02*
G75*
G02*
X112244533Y-57126373I-1040961J1080000D01*
G01*
X114956931Y-57126373D02*
G75*
G02*
X111725494Y-57281889I-1671437J1080000D01*
G01*
%TO.C,J2*%
X116882527Y-71413241D02*
X116882526Y-73223241D01*
X116882527Y-75033241D02*
X116882526Y-73223241D01*
X118282526Y-66213241D02*
X118282527Y-71413241D01*
X118282526Y-80233241D02*
X118282527Y-75033241D01*
X118282527Y-71413241D02*
X116882527Y-71413241D01*
X118282527Y-75033241D02*
X116882527Y-75033241D01*
X128102527Y-66213241D02*
X118282526Y-66213241D01*
X128102527Y-73223240D02*
X128102527Y-66213241D01*
X128102527Y-73223240D02*
X128102527Y-80233241D01*
X128102527Y-80233241D02*
X118282526Y-80233241D01*
X128342527Y-65973241D02*
X125492527Y-65973241D01*
X128342527Y-68823241D02*
X128342527Y-65973241D01*
%TO.C,D1*%
X97710000Y-54764000D02*
X97710000Y-54920000D01*
X97710000Y-57080000D02*
X97710000Y-57236000D01*
X97710000Y-54764484D02*
G75*
G02*
X100941437Y-54920000I1560000J-1235516D01*
G01*
X98229039Y-54920000D02*
G75*
G02*
X100310961Y-54920000I1040961J-1080000D01*
G01*
X100310961Y-57080000D02*
G75*
G02*
X98229039Y-57080000I-1040961J1080000D01*
G01*
X100941437Y-57080000D02*
G75*
G02*
X97710000Y-57235516I-1671437J1080000D01*
G01*
%TO.C,FID2*%
D17*
X69500640Y-98500000D02*
G75*
G02*
X64500640Y-98500000I-2500000J0D01*
G01*
X64500640Y-98500000D02*
G75*
G02*
X69500640Y-98500000I2500000J0D01*
G01*
D21*
G36*
X67089378Y-96900593D02*
G01*
X67173326Y-96905866D01*
X67255047Y-96914655D01*
X67334540Y-96926958D01*
X67411806Y-96942774D01*
X67486844Y-96962105D01*
X67559651Y-96984947D01*
X67630228Y-97011303D01*
X67698574Y-97041170D01*
X67764688Y-97074548D01*
X67828570Y-97111436D01*
X67890217Y-97151835D01*
X67949631Y-97195744D01*
X68006809Y-97243161D01*
X68061750Y-97294087D01*
X68114456Y-97348521D01*
X68164430Y-97405736D01*
X68211182Y-97464937D01*
X68254710Y-97526123D01*
X68295015Y-97589294D01*
X68332096Y-97654450D01*
X68365953Y-97721591D01*
X68396587Y-97790716D01*
X68423997Y-97861825D01*
X68448182Y-97934918D01*
X68469143Y-98009995D01*
X68486880Y-98087054D01*
X68501392Y-98166097D01*
X68512679Y-98247122D01*
X68520742Y-98330129D01*
X68525580Y-98415119D01*
X68527192Y-98502091D01*
X68525518Y-98586531D01*
X68520495Y-98669169D01*
X68512123Y-98750007D01*
X68500404Y-98829043D01*
X68485336Y-98906278D01*
X68466921Y-98981713D01*
X68445159Y-99055347D01*
X68420049Y-99127181D01*
X68391593Y-99197214D01*
X68359790Y-99265447D01*
X68324642Y-99331880D01*
X68286147Y-99396512D01*
X68244306Y-99459346D01*
X68199120Y-99520379D01*
X68150589Y-99579613D01*
X68098713Y-99637047D01*
X68044108Y-99691818D01*
X67987526Y-99743058D01*
X67928967Y-99790769D01*
X67868430Y-99834948D01*
X67805913Y-99875597D01*
X67741416Y-99912713D01*
X67674937Y-99946298D01*
X67606476Y-99976349D01*
X67536030Y-100002867D01*
X67463600Y-100025851D01*
X67389184Y-100045301D01*
X67312781Y-100061215D01*
X67234390Y-100073594D01*
X67154010Y-100082437D01*
X67071640Y-100087743D01*
X66987278Y-100089512D01*
X66924977Y-100088334D01*
X66863751Y-100084801D01*
X66803600Y-100078913D01*
X66744523Y-100070670D01*
X66686522Y-100060070D01*
X66629595Y-100047114D01*
X66573743Y-100031801D01*
X66518967Y-100014132D01*
X66465266Y-99994105D01*
X66412641Y-99971722D01*
X66361092Y-99946980D01*
X66310618Y-99919881D01*
X66261220Y-99890424D01*
X66212899Y-99858608D01*
X66165653Y-99824433D01*
X66119484Y-99787900D01*
X66074975Y-99749196D01*
X66032741Y-99708510D01*
X65992784Y-99665842D01*
X65955102Y-99621192D01*
X65919695Y-99574559D01*
X65886563Y-99525943D01*
X65855705Y-99475344D01*
X65827122Y-99422762D01*
X65800811Y-99368195D01*
X65776774Y-99311645D01*
X65755009Y-99253110D01*
X65735517Y-99192591D01*
X65718297Y-99130087D01*
X65703348Y-99065598D01*
X65690670Y-98999123D01*
X65680263Y-98930663D01*
X66426560Y-98930663D01*
X66428793Y-98963873D01*
X66432195Y-98996028D01*
X66436765Y-99027129D01*
X66442503Y-99057176D01*
X66449410Y-99086169D01*
X66457485Y-99114107D01*
X66466728Y-99140991D01*
X66477139Y-99166821D01*
X66488718Y-99191597D01*
X66501466Y-99215318D01*
X66515382Y-99237985D01*
X66530466Y-99259597D01*
X66546718Y-99280156D01*
X66564139Y-99299660D01*
X66582727Y-99318110D01*
X66602484Y-99335505D01*
X66623410Y-99351847D01*
X66645503Y-99367134D01*
X66668765Y-99381366D01*
X66693195Y-99394545D01*
X66718793Y-99406669D01*
X66745559Y-99417739D01*
X66773493Y-99427755D01*
X66802596Y-99436716D01*
X66832867Y-99444623D01*
X66864306Y-99451476D01*
X66896914Y-99457274D01*
X66930690Y-99462019D01*
X66965633Y-99465708D01*
X67001746Y-99468344D01*
X67039026Y-99469926D01*
X67077475Y-99470453D01*
X67116000Y-99469398D01*
X67153581Y-99466234D01*
X67190217Y-99460961D01*
X67225906Y-99453578D01*
X67260648Y-99444088D01*
X67294443Y-99432489D01*
X67327290Y-99418782D01*
X67359188Y-99402967D01*
X67390136Y-99385045D01*
X67420134Y-99365016D01*
X67449181Y-99342880D01*
X67477277Y-99318637D01*
X67504420Y-99292287D01*
X67530611Y-99263832D01*
X67555847Y-99233271D01*
X67580130Y-99200604D01*
X67603224Y-99166179D01*
X67624828Y-99130344D01*
X67644940Y-99093100D01*
X67663562Y-99054447D01*
X67680693Y-99014386D01*
X67696334Y-98972918D01*
X67710485Y-98930042D01*
X67723146Y-98885761D01*
X67734316Y-98840075D01*
X67743997Y-98792984D01*
X67752188Y-98744489D01*
X67758889Y-98694590D01*
X67764101Y-98643289D01*
X67767824Y-98590586D01*
X67770058Y-98536482D01*
X67770802Y-98480977D01*
X67770120Y-98422978D01*
X67768072Y-98366739D01*
X67764660Y-98312259D01*
X67759883Y-98259539D01*
X67753743Y-98208577D01*
X67746238Y-98159373D01*
X67737370Y-98111926D01*
X67727139Y-98066238D01*
X67715545Y-98022306D01*
X67702588Y-97980130D01*
X67688268Y-97939711D01*
X67672587Y-97901048D01*
X67655543Y-97864140D01*
X67637138Y-97828986D01*
X67617371Y-97795588D01*
X67596243Y-97763943D01*
X67573803Y-97734153D01*
X67550169Y-97706284D01*
X67525339Y-97680336D01*
X67499313Y-97656309D01*
X67472090Y-97634204D01*
X67443669Y-97614020D01*
X67414050Y-97595758D01*
X67383231Y-97579418D01*
X67351212Y-97564999D01*
X67317991Y-97552502D01*
X67283569Y-97541928D01*
X67247945Y-97533276D01*
X67211116Y-97526546D01*
X67173084Y-97521739D01*
X67133846Y-97518855D01*
X67093403Y-97517894D01*
X67021324Y-97519939D01*
X66953302Y-97526076D01*
X66889336Y-97536305D01*
X66829424Y-97550625D01*
X66800989Y-97559319D01*
X66773568Y-97569037D01*
X66747160Y-97579777D01*
X66721766Y-97591541D01*
X66697385Y-97604327D01*
X66674018Y-97618136D01*
X66651664Y-97632969D01*
X66630324Y-97648824D01*
X66609997Y-97665703D01*
X66590683Y-97683605D01*
X66572382Y-97702530D01*
X66555095Y-97722477D01*
X66538820Y-97743449D01*
X66523559Y-97765443D01*
X66509311Y-97788460D01*
X66496075Y-97812501D01*
X66483853Y-97837565D01*
X66472643Y-97863652D01*
X66462447Y-97890762D01*
X66453262Y-97918896D01*
X66445091Y-97948052D01*
X66437932Y-97978233D01*
X66426653Y-98041663D01*
X66643624Y-98041663D01*
X66056329Y-98629051D01*
X65468940Y-98041663D01*
X65701562Y-98041755D01*
X65713190Y-97974583D01*
X65726925Y-97909334D01*
X65742769Y-97846008D01*
X65760721Y-97784605D01*
X65780782Y-97725125D01*
X65802951Y-97667568D01*
X65827230Y-97611934D01*
X65853618Y-97558223D01*
X65882115Y-97506435D01*
X65912723Y-97456569D01*
X65945440Y-97408627D01*
X65980268Y-97362608D01*
X66017207Y-97318512D01*
X66056257Y-97276339D01*
X66097418Y-97236088D01*
X66140691Y-97197761D01*
X66185601Y-97161563D01*
X66231709Y-97127700D01*
X66279016Y-97096173D01*
X66327522Y-97066981D01*
X66377227Y-97040124D01*
X66428132Y-97015603D01*
X66480236Y-96993417D01*
X66533541Y-96973566D01*
X66588045Y-96956051D01*
X66643750Y-96940871D01*
X66700656Y-96928027D01*
X66758763Y-96917518D01*
X66818071Y-96909344D01*
X66878580Y-96903506D01*
X66940292Y-96900003D01*
X67003206Y-96898835D01*
X67089378Y-96900593D01*
G37*
%TO.C,D4*%
D20*
X118740000Y-54777956D02*
X118740000Y-54933956D01*
X118740000Y-57093956D02*
X118740000Y-57249956D01*
X118740000Y-54778440D02*
G75*
G02*
X121971437Y-54933956I1560000J-1235516D01*
G01*
X119259039Y-54933956D02*
G75*
G02*
X121340961Y-54933956I1040961J-1080000D01*
G01*
X121340961Y-57093956D02*
G75*
G02*
X119259039Y-57093956I-1040961J1080000D01*
G01*
X121971437Y-57093956D02*
G75*
G02*
X118740000Y-57249472I-1671437J1080000D01*
G01*
%TO.C,D2*%
X104710000Y-54764000D02*
X104710000Y-54920000D01*
X104710000Y-57080000D02*
X104710000Y-57236000D01*
X104710000Y-54764484D02*
G75*
G02*
X107941437Y-54920000I1560000J-1235516D01*
G01*
X105229039Y-54920000D02*
G75*
G02*
X107310961Y-54920000I1040961J-1080000D01*
G01*
X107310961Y-57080000D02*
G75*
G02*
X105229039Y-57080000I-1040961J1080000D01*
G01*
X107941437Y-57080000D02*
G75*
G02*
X104710000Y-57235516I-1671437J1080000D01*
G01*
%TO.C,TP2*%
X132165109Y-61720879D02*
G75*
G02*
X129765109Y-61720879I-1200000J0D01*
G01*
X129765109Y-61720879D02*
G75*
G02*
X132165109Y-61720879I1200000J0D01*
G01*
%TO.C,F1*%
X95400000Y-75730000D02*
X95400000Y-82670000D01*
X95400000Y-82670000D02*
X111600000Y-82670000D01*
X101900000Y-77200000D02*
X105100000Y-77200000D01*
X102750000Y-79200000D02*
X104250000Y-79200000D01*
X105100000Y-81200000D02*
X101900000Y-81200000D01*
X111600000Y-75730000D02*
X95400000Y-75730000D01*
X111600000Y-82670000D02*
X111600000Y-75730000D01*
%TO.C,F2*%
X95400000Y-66480000D02*
X95400000Y-73420000D01*
X95400000Y-73420000D02*
X111600001Y-73420000D01*
X101900000Y-67950000D02*
X105100000Y-67949999D01*
X102750000Y-69950000D02*
X104250000Y-69950000D01*
X105100000Y-71950001D02*
X101900000Y-71950000D01*
X111600001Y-66480000D02*
X95400000Y-66480000D01*
X111600001Y-73420000D02*
X111600001Y-66480000D01*
%TO.C,TP0*%
X96700000Y-61750000D02*
G75*
G02*
X94300000Y-61750000I-1200000J0D01*
G01*
X94300000Y-61750000D02*
G75*
G02*
X96700000Y-61750000I1200000J0D01*
G01*
%TO.C,TP5*%
X82200000Y-63500000D02*
G75*
G02*
X79800000Y-63500000I-1200000J0D01*
G01*
X79800000Y-63500000D02*
G75*
G02*
X82200000Y-63500000I1200000J0D01*
G01*
%TO.C,C2*%
X132262379Y-85481412D02*
X132762379Y-85481412D01*
X132512379Y-85231412D02*
X132512379Y-85731412D01*
X135067154Y-84376412D02*
X135067154Y-85916412D01*
X135067154Y-87996412D02*
X135067154Y-89536412D01*
X135107154Y-87996412D02*
X135107155Y-89536412D01*
X135107155Y-84376412D02*
X135107154Y-85916412D01*
X135147154Y-84377412D02*
X135147154Y-85916412D01*
X135147154Y-87996412D02*
X135147154Y-89535412D01*
X135187154Y-84379412D02*
X135187155Y-85916412D01*
X135187155Y-87996412D02*
X135187154Y-89533412D01*
X135227154Y-84381412D02*
X135227154Y-85916412D01*
X135227154Y-87996412D02*
X135227154Y-89531412D01*
X135267154Y-84384411D02*
X135267154Y-85916412D01*
X135267154Y-87996412D02*
X135267154Y-89528413D01*
X135307153Y-87996412D02*
X135307154Y-89525412D01*
X135307154Y-84387412D02*
X135307153Y-85916412D01*
X135347154Y-84391412D02*
X135347154Y-85916412D01*
X135347154Y-87996412D02*
X135347154Y-89521412D01*
X135387154Y-84396413D02*
X135387154Y-85916412D01*
X135387154Y-87996412D02*
X135387154Y-89516411D01*
X135427154Y-84401412D02*
X135427154Y-85916412D01*
X135427154Y-87996412D02*
X135427154Y-89511412D01*
X135467154Y-84407412D02*
X135467154Y-85916411D01*
X135467154Y-87996413D02*
X135467154Y-89505412D01*
X135507154Y-84413412D02*
X135507154Y-85916412D01*
X135507154Y-87996412D02*
X135507154Y-89499412D01*
X135547154Y-84420412D02*
X135547154Y-85916412D01*
X135547154Y-87996412D02*
X135547154Y-89492412D01*
X135587154Y-84428412D02*
X135587154Y-85916412D01*
X135587154Y-87996412D02*
X135587154Y-89484412D01*
X135627155Y-84437412D02*
X135627155Y-85916412D01*
X135627155Y-87996412D02*
X135627155Y-89475412D01*
X135667154Y-84446412D02*
X135667154Y-85916412D01*
X135667154Y-87996412D02*
X135667154Y-89466412D01*
X135707154Y-84455412D02*
X135707154Y-85916412D01*
X135707154Y-87996412D02*
X135707154Y-89457412D01*
X135747153Y-87996412D02*
X135747154Y-89446411D01*
X135747154Y-84466413D02*
X135747153Y-85916412D01*
X135787154Y-84477412D02*
X135787154Y-85916412D01*
X135787154Y-87996412D02*
X135787154Y-89435412D01*
X135827154Y-84489413D02*
X135827154Y-85916412D01*
X135827154Y-87996412D02*
X135827154Y-89423411D01*
X135867154Y-84501412D02*
X135867154Y-85916412D01*
X135867154Y-87996412D02*
X135867154Y-89411412D01*
X135907154Y-84514412D02*
X135907154Y-85916411D01*
X135907154Y-87996413D02*
X135907154Y-89398412D01*
X135947154Y-84528412D02*
X135947154Y-85916412D01*
X135947154Y-87996412D02*
X135947154Y-89384412D01*
X135987154Y-84543412D02*
X135987154Y-85916412D01*
X135987154Y-87996412D02*
X135987154Y-89369412D01*
X136027154Y-84558412D02*
X136027154Y-85916412D01*
X136027154Y-87996412D02*
X136027154Y-89354412D01*
X136067154Y-84574412D02*
X136067155Y-85916412D01*
X136067155Y-87996412D02*
X136067154Y-89338412D01*
X136107154Y-84591412D02*
X136107154Y-85916412D01*
X136107154Y-87996412D02*
X136107154Y-89321412D01*
X136147154Y-84609411D02*
X136147154Y-85916412D01*
X136147154Y-87996412D02*
X136147154Y-89303413D01*
X136187153Y-87996412D02*
X136187154Y-89285412D01*
X136187154Y-84627412D02*
X136187153Y-85916412D01*
X136227154Y-84647412D02*
X136227154Y-85916412D01*
X136227154Y-87996412D02*
X136227154Y-89265412D01*
X136267153Y-84667412D02*
X136267154Y-85916412D01*
X136267154Y-87996412D02*
X136267153Y-89245412D01*
X136307154Y-84688412D02*
X136307154Y-85916412D01*
X136307154Y-87996412D02*
X136307154Y-89224412D01*
X136347154Y-84710412D02*
X136347154Y-85916411D01*
X136347154Y-87996413D02*
X136347154Y-89202412D01*
X136387154Y-84733412D02*
X136387154Y-85916412D01*
X136387154Y-87996412D02*
X136387154Y-89179412D01*
X136427154Y-84757412D02*
X136427154Y-85916412D01*
X136427154Y-87996412D02*
X136427154Y-89155412D01*
X136467154Y-84781412D02*
X136467154Y-85916412D01*
X136467154Y-87996412D02*
X136467154Y-89131412D01*
X136507154Y-84807412D02*
X136507154Y-85916411D01*
X136507154Y-87996413D02*
X136507154Y-89105412D01*
X136547154Y-84834412D02*
X136547154Y-85916412D01*
X136547154Y-87996412D02*
X136547154Y-89078412D01*
X136587154Y-84862411D02*
X136587154Y-85916412D01*
X136587154Y-87996412D02*
X136587154Y-89050413D01*
X136627153Y-87996412D02*
X136627154Y-89021412D01*
X136627154Y-84891412D02*
X136627153Y-85916412D01*
X136667154Y-84921412D02*
X136667155Y-85916412D01*
X136667155Y-87996412D02*
X136667154Y-88991412D01*
X136707154Y-84953412D02*
X136707154Y-85916412D01*
X136707154Y-87996412D02*
X136707154Y-88959412D01*
X136747154Y-84986412D02*
X136747154Y-85916412D01*
X136747154Y-87996412D02*
X136747154Y-88926412D01*
X136787153Y-87996412D02*
X136787154Y-88892412D01*
X136787154Y-85020412D02*
X136787153Y-85916412D01*
X136827154Y-85055412D02*
X136827154Y-85916412D01*
X136827154Y-87996412D02*
X136827154Y-88857412D01*
X136867154Y-85092412D02*
X136867154Y-85916412D01*
X136867154Y-87996412D02*
X136867154Y-88820412D01*
X136907154Y-85131412D02*
X136907154Y-85916412D01*
X136907154Y-87996412D02*
X136907154Y-88781412D01*
X136947154Y-85171412D02*
X136947154Y-85916411D01*
X136947154Y-87996413D02*
X136947154Y-88741412D01*
X136987154Y-85213412D02*
X136987154Y-85916412D01*
X136987154Y-87996412D02*
X136987154Y-88699412D01*
X137027154Y-85257413D02*
X137027154Y-85916412D01*
X137027154Y-87996412D02*
X137027154Y-88655411D01*
X137067154Y-85304412D02*
X137067154Y-85916412D01*
X137067154Y-87996412D02*
X137067154Y-88608412D01*
X137107154Y-85352412D02*
X137107154Y-88560412D01*
X137147154Y-85403412D02*
X137147154Y-88509412D01*
X137187154Y-85457412D02*
X137187154Y-88455412D01*
X137227154Y-85513411D02*
X137227154Y-88399413D01*
X137267154Y-85573412D02*
X137267154Y-88339412D01*
X137307154Y-85637412D02*
X137307154Y-88275412D01*
X137347154Y-85705412D02*
X137347154Y-88207412D01*
X137387154Y-85779412D02*
X137387154Y-88133412D01*
X137427154Y-85858412D02*
X137427154Y-88054412D01*
X137467154Y-85945412D02*
X137467154Y-87967412D01*
X137507154Y-86042412D02*
X137507154Y-87870412D01*
X137547155Y-86151412D02*
X137547155Y-87761412D01*
X137587154Y-86279412D02*
X137587154Y-87633412D01*
X137627154Y-86439412D02*
X137627154Y-87473412D01*
X137667154Y-86673412D02*
X137667154Y-87239412D01*
X137687155Y-86956412D02*
G75*
G02*
X132447153Y-86956412I-2620001J0D01*
G01*
X132447153Y-86956412D02*
G75*
G02*
X137687155Y-86956412I2620001J0D01*
G01*
%TO.C,TP1*%
X104950000Y-61750000D02*
G75*
G02*
X102550000Y-61750000I-1200000J0D01*
G01*
X102550000Y-61750000D02*
G75*
G02*
X104950000Y-61750000I1200000J0D01*
G01*
%TO.C,C4*%
X71325596Y-71000683D02*
X72966791Y-69359488D01*
X71325596Y-71057251D02*
X72995075Y-69387772D01*
X71326303Y-70943407D02*
X72938507Y-69331204D01*
X71326303Y-71113113D02*
X73023359Y-69416056D01*
X71327717Y-70885424D02*
X72910222Y-69302919D01*
X71327717Y-71168267D02*
X73051644Y-69444341D01*
X71329132Y-71223421D02*
X73079928Y-69472625D01*
X71329839Y-70826734D02*
X76187662Y-65968911D01*
X71331960Y-71277161D02*
X73108212Y-69500909D01*
X71332667Y-70767337D02*
X76128265Y-65971739D01*
X71334789Y-71330901D02*
X73136497Y-69529193D01*
X71335496Y-70707940D02*
X76068868Y-65974568D01*
X71338324Y-71383934D02*
X73164781Y-69557478D01*
X71339738Y-70647129D02*
X76008057Y-65978810D01*
X71341860Y-71436967D02*
X73193065Y-69585762D01*
X71344688Y-70585611D02*
X75946539Y-65983760D01*
X71346809Y-71488586D02*
X73221349Y-69614046D01*
X71351052Y-70522678D02*
X75883606Y-65990124D01*
X71351759Y-71540205D02*
X73249634Y-69642330D01*
X71356709Y-71591824D02*
X73277918Y-69670615D01*
X71357416Y-70459746D02*
X75820674Y-65996488D01*
X71363073Y-71642028D02*
X73306202Y-69698899D01*
X71365194Y-70395399D02*
X75756327Y-66004266D01*
X71368730Y-71692940D02*
X73334486Y-69727183D01*
X71373679Y-70330345D02*
X75691273Y-66012751D01*
X71375801Y-71742438D02*
X73362771Y-69755468D01*
X71382872Y-70264584D02*
X75625512Y-66021944D01*
X71382872Y-71791935D02*
X73391055Y-69783752D01*
X71390650Y-71840725D02*
X73419339Y-69812036D01*
X71393478Y-70197409D02*
X75558337Y-66032550D01*
X71398428Y-71889516D02*
X73447624Y-69840320D01*
X71405499Y-70128820D02*
X75489748Y-66044571D01*
X71406913Y-71937599D02*
X73475908Y-69868605D01*
X71416106Y-71984975D02*
X73504192Y-69896889D01*
X71418227Y-70059523D02*
X75420451Y-66057299D01*
X71425298Y-72032351D02*
X73532476Y-69925173D01*
X71432369Y-69988813D02*
X75349741Y-66071441D01*
X71434491Y-72079728D02*
X73560761Y-69953457D01*
X71445097Y-72125690D02*
X73589045Y-69981742D01*
X71447926Y-69916688D02*
X75277616Y-66086998D01*
X71454997Y-72172359D02*
X73617329Y-70010026D01*
X71464896Y-69843149D02*
X75204077Y-66103968D01*
X71465603Y-72218320D02*
X73645613Y-70038310D01*
X71476917Y-72263575D02*
X73673898Y-70066595D01*
X71483281Y-69768195D02*
X75129123Y-66122353D01*
X71488231Y-72308830D02*
X73702182Y-70094879D01*
X71500251Y-72353378D02*
X73730466Y-70123163D01*
X71503080Y-69691828D02*
X75052756Y-66142152D01*
X71512272Y-72397926D02*
X73758751Y-70151447D01*
X71525000Y-69613339D02*
X74974267Y-66164072D01*
X71525000Y-72441766D02*
X73787035Y-70179732D01*
X71537728Y-72485607D02*
X73815319Y-70208016D01*
X71549042Y-69532729D02*
X74893657Y-66188114D01*
X71550456Y-72529447D02*
X73843603Y-70236300D01*
X71563891Y-72572581D02*
X73871888Y-70264584D01*
X71575205Y-69449997D02*
X74810925Y-66214277D01*
X71578033Y-72615007D02*
X73900172Y-70292869D01*
X71592175Y-72657434D02*
X73928456Y-70321153D01*
X71603489Y-69365145D02*
X74726073Y-66242561D01*
X71606318Y-72699860D02*
X73956740Y-70349437D01*
X71621167Y-72741580D02*
X73985025Y-70377722D01*
X71634602Y-69277463D02*
X74638391Y-66273674D01*
X71636016Y-72783299D02*
X74013309Y-70406006D01*
X71651572Y-72824311D02*
X74041593Y-70434290D01*
X71667129Y-72865323D02*
X74069878Y-70462574D01*
X71667836Y-69187661D02*
X74548589Y-66306908D01*
X71682685Y-72906335D02*
X74098162Y-70490859D01*
X71698948Y-72946640D02*
X74126446Y-70519143D01*
X71705312Y-69093616D02*
X74454544Y-66344384D01*
X71715212Y-72986946D02*
X74154730Y-70547427D01*
X71732183Y-73026544D02*
X74183015Y-70575711D01*
X71746325Y-68996035D02*
X74356963Y-66385397D01*
X71749153Y-73066142D02*
X74211299Y-70603996D01*
X71766124Y-73105739D02*
X74239583Y-70632280D01*
X71783801Y-73144630D02*
X74267867Y-70660564D01*
X71791579Y-68894212D02*
X74255140Y-66430651D01*
X71801479Y-73183521D02*
X74296152Y-70688849D01*
X71819864Y-73221705D02*
X74324436Y-70717133D01*
X71837541Y-73260596D02*
X74352720Y-70745417D01*
X71842491Y-68786731D02*
X74147659Y-66481563D01*
X71856633Y-73298073D02*
X74381005Y-70773701D01*
X71875018Y-73336256D02*
X74409289Y-70801986D01*
X71894110Y-73373733D02*
X74437573Y-70830270D01*
X71899767Y-68672887D02*
X74033815Y-66538839D01*
X71913909Y-73410503D02*
X74465857Y-70858554D01*
X71933708Y-73447272D02*
X74494142Y-70886838D01*
X71953507Y-73484042D02*
X74522426Y-70915123D01*
X71964821Y-68551265D02*
X73912193Y-66603893D01*
X71973306Y-73520811D02*
X74550710Y-70943407D01*
X71993812Y-73556874D02*
X74578994Y-70971691D01*
X72014318Y-73592936D02*
X74607279Y-70999976D01*
X72035531Y-73628291D02*
X74635563Y-71028260D01*
X72040481Y-68419036D02*
X73779964Y-66679553D01*
X72056037Y-73664354D02*
X79025282Y-66695109D01*
X72077958Y-73699002D02*
X79059930Y-66717030D01*
X72099171Y-73734357D02*
X79095285Y-66738243D01*
X72121091Y-73769006D02*
X79129934Y-66760163D01*
X72130991Y-68271958D02*
X73632886Y-66770063D01*
X72143012Y-73803654D02*
X79164582Y-66782084D01*
X72165639Y-73837595D02*
X79198523Y-66804711D01*
X72188266Y-73871536D02*
X79232464Y-66827338D01*
X72210894Y-73905477D02*
X79266405Y-66849966D01*
X72233521Y-73939418D02*
X79300346Y-66872593D01*
X72244128Y-68102252D02*
X73463180Y-66883200D01*
X72256856Y-73972652D02*
X79333580Y-66895928D01*
X72280190Y-74005886D02*
X79366814Y-66919262D01*
X72304232Y-74038413D02*
X79399341Y-66943304D01*
X72328274Y-74070940D02*
X79431868Y-66967346D01*
X72352315Y-74103467D02*
X79464395Y-66991387D01*
X72376357Y-74135994D02*
X79496922Y-67015429D01*
X72401106Y-74167814D02*
X79528742Y-67040178D01*
X72401813Y-67887999D02*
X73248927Y-67040885D01*
X72425854Y-74199634D02*
X79560562Y-67064926D01*
X72451310Y-74230746D02*
X79591674Y-67090382D01*
X72476059Y-74262566D02*
X79623494Y-67115131D01*
X72502222Y-74292972D02*
X79653900Y-67141294D01*
X72527678Y-74324084D02*
X79685012Y-67166750D01*
X72553841Y-74354490D02*
X79715418Y-67192913D01*
X72580004Y-74384896D02*
X79745824Y-67219076D01*
X72606166Y-74415301D02*
X79776229Y-67245238D01*
X72633037Y-74445000D02*
X79805928Y-67272109D01*
X72659907Y-74474698D02*
X79835626Y-67298979D01*
X72686777Y-74504397D02*
X79865325Y-67325849D01*
X72714354Y-74533388D02*
X79894316Y-67353426D01*
X72741224Y-74563087D02*
X79924015Y-67380296D01*
X72769508Y-74591371D02*
X79952299Y-67408580D01*
X72797085Y-74620362D02*
X79981290Y-67436157D01*
X72825370Y-74648646D02*
X80009574Y-67464442D01*
X74663847Y-67549294D02*
X76246352Y-65966789D01*
X74692132Y-67577579D02*
X76304335Y-65965375D01*
X74720416Y-67605863D02*
X76361611Y-65964668D01*
X74748700Y-67634147D02*
X76418179Y-65964668D01*
X74776984Y-67662431D02*
X76474041Y-65965375D01*
X74805269Y-67690716D02*
X76529195Y-65966789D01*
X74833553Y-67719000D02*
X76584349Y-65968204D01*
X74861837Y-67747284D02*
X76638089Y-65971032D01*
X74890121Y-67775569D02*
X76691829Y-65973861D01*
X74918406Y-67803853D02*
X76744862Y-65977396D01*
X74946690Y-67832137D02*
X76797895Y-65980932D01*
X74974974Y-67860421D02*
X76849514Y-65985881D01*
X75003258Y-67888706D02*
X76901133Y-65990831D01*
X75031543Y-67916990D02*
X76952752Y-65995781D01*
X75059827Y-67945274D02*
X77002956Y-66002145D01*
X75088111Y-67973558D02*
X77053868Y-66007802D01*
X75116396Y-68001843D02*
X77103366Y-66014873D01*
X75144680Y-68030127D02*
X77152863Y-66021944D01*
X75172964Y-68058411D02*
X77201653Y-66029722D01*
X75201248Y-68086696D02*
X77250444Y-66037500D01*
X75229533Y-68114980D02*
X77298527Y-66045985D01*
X75257817Y-68143264D02*
X77345903Y-66055178D01*
X75286101Y-68171548D02*
X77393279Y-66064370D01*
X75314385Y-68199833D02*
X77440656Y-66073563D01*
X75342670Y-68228117D02*
X77486618Y-66084169D01*
X75370954Y-68256401D02*
X77533287Y-66094069D01*
X75399238Y-68284685D02*
X77579248Y-66104675D01*
X75427523Y-68312970D02*
X77624503Y-66115989D01*
X75455807Y-68341254D02*
X77669758Y-66127303D01*
X75484091Y-68369538D02*
X77714306Y-66139323D01*
X75512375Y-68397823D02*
X77758854Y-66151344D01*
X75540660Y-68426107D02*
X77802694Y-66164072D01*
X75568944Y-68454391D02*
X77846535Y-66176800D01*
X75597228Y-68482675D02*
X77890375Y-66189528D01*
X75625512Y-68510960D02*
X77933509Y-66202963D01*
X75653797Y-68539244D02*
X77975935Y-66217105D01*
X75682081Y-68567528D02*
X78018362Y-66231247D01*
X75710365Y-68595812D02*
X78060788Y-66245390D01*
X75738650Y-68624097D02*
X78102508Y-66260239D01*
X75766934Y-68652381D02*
X78144227Y-66275088D01*
X75795218Y-68680665D02*
X78185239Y-66290644D01*
X75823502Y-68708950D02*
X78226251Y-66306201D01*
X75851787Y-68737234D02*
X78267263Y-66321757D01*
X75880071Y-68765518D02*
X78307568Y-66338020D01*
X75908355Y-68793802D02*
X78347874Y-66354284D01*
X75936639Y-68822087D02*
X78387472Y-66371255D01*
X75964924Y-68850371D02*
X78427070Y-66388225D01*
X75993208Y-68878655D02*
X78466667Y-66405196D01*
X76021492Y-68906939D02*
X78505558Y-66422873D01*
X76049777Y-68935224D02*
X78544449Y-66440551D01*
X76078061Y-68963508D02*
X78582633Y-66458936D01*
X76106345Y-68991792D02*
X78621524Y-66476613D01*
X76134629Y-69020077D02*
X78659001Y-66495705D01*
X76162914Y-69048361D02*
X78697184Y-66514090D01*
X76191198Y-69076645D02*
X78734661Y-66533182D01*
X76219482Y-69104929D02*
X78771431Y-66552981D01*
X76247766Y-69133214D02*
X78808200Y-66572780D01*
X76276051Y-69161498D02*
X78844970Y-66592579D01*
X76304335Y-69189782D02*
X78881739Y-66612378D01*
X76332619Y-69218066D02*
X78917802Y-66632884D01*
X76360904Y-69246351D02*
X78953864Y-66653390D01*
X76389188Y-69274635D02*
X78989219Y-66674603D01*
X77552128Y-76964171D02*
X78259235Y-76257064D01*
X78259235Y-76964171D02*
X77552128Y-76257064D01*
X81537472Y-71056544D02*
G75*
G02*
X71297472Y-71056544I-5120000J0D01*
G01*
X71297472Y-71056544D02*
G75*
G02*
X81537472Y-71056544I5120000J0D01*
G01*
%TO.C,J1*%
X74090000Y-95426263D02*
X74090000Y-108446263D01*
X74090000Y-108446263D02*
X100000000Y-108446263D01*
X74900000Y-95426263D02*
X74090000Y-95426263D01*
X76600000Y-92326263D02*
X76600000Y-91046263D01*
X77200000Y-92326263D02*
X77200000Y-91046263D01*
X79490000Y-95436263D02*
X78510000Y-95436263D01*
X80800000Y-92326263D02*
X80800000Y-91046263D01*
X81400000Y-92326263D02*
X81400000Y-91046263D01*
X83690000Y-95436263D02*
X82710000Y-95436263D01*
X85000000Y-92326263D02*
X85000000Y-91046263D01*
X85600000Y-92326263D02*
X85600000Y-91046263D01*
X87890000Y-95436263D02*
X86910000Y-95436263D01*
X89200000Y-92326263D02*
X89200000Y-91046263D01*
X89800000Y-92326263D02*
X89800000Y-91046263D01*
X92090000Y-95436263D02*
X91110000Y-95436263D01*
X93400000Y-92326263D02*
X93400000Y-91046263D01*
X94000000Y-92326263D02*
X94000000Y-91046263D01*
X96290000Y-95436263D02*
X95310000Y-95436263D01*
X97600000Y-92326263D02*
X97600000Y-91046263D01*
X98200000Y-92326263D02*
X98200000Y-91046263D01*
X100490000Y-95436263D02*
X99510000Y-95436263D01*
X101800000Y-92326263D02*
X101800000Y-91046263D01*
X102400000Y-92326263D02*
X102400000Y-91046263D01*
X104690000Y-95436263D02*
X103710000Y-95436263D01*
X106000000Y-92326263D02*
X106000000Y-91046263D01*
X106600000Y-92326263D02*
X106600000Y-91046263D01*
X108890000Y-95436263D02*
X107910000Y-95436263D01*
X110200000Y-92326263D02*
X110200000Y-91046263D01*
X110800000Y-92326263D02*
X110800000Y-91046263D01*
X113090000Y-95436263D02*
X112110000Y-95436263D01*
X114400000Y-92326263D02*
X114400000Y-91046263D01*
X115000000Y-92326263D02*
X115000000Y-91046263D01*
X117290000Y-95436263D02*
X116310000Y-95436263D01*
X118600000Y-92326263D02*
X118600000Y-91046263D01*
X119200000Y-92326263D02*
X119200000Y-91046263D01*
X121490000Y-95436263D02*
X120510000Y-95436263D01*
X122800000Y-92326263D02*
X122800000Y-91046263D01*
X123400000Y-92326263D02*
X123400000Y-91046263D01*
X125100000Y-94436263D02*
X125700000Y-94136263D01*
X125100000Y-95426263D02*
X125910000Y-95426263D01*
X125700000Y-94136263D02*
X125700000Y-94736263D01*
X125700000Y-94736263D02*
X125100000Y-94436263D01*
X125910000Y-95426263D02*
X125910000Y-108446263D01*
X125910000Y-108446263D02*
X100000000Y-108446263D01*
%TO.C,D5*%
X134760000Y-91100000D02*
X129250000Y-91100000D01*
X134760000Y-94400000D02*
X129250000Y-94400000D01*
X134760000Y-94400000D02*
X134760000Y-91100000D01*
%TD*%
M02*
