M48
; DRILL file KiCad 10.0.1 date 2026-05-01T22:36:17
; FORMAT={-:-/ absolute / metric / decimal}
; #@! TF.CreationDate,2026-05-01T22:36:17-04:00
; #@! TF.GenerationSoftware,Kicad,Pcbnew,10.0.1
; #@! TF.FileFunction,NonPlated,1,2,NPTH
FMAT,2
METRIC
; #@! TA.AperFunction,NonPlated,NPTH,ComponentDrill
T1C0.500
; #@! TA.AperFunction,NonPlated,NPTH,ComponentDrill
T2C3.000
%
G90
G05
T1
X69.442Y-111.25
X69.45Y-108.75
X70.292Y-111.25
X70.3Y-108.75
X71.142Y-111.25
X71.15Y-108.75
X71.992Y-111.25
X72.0Y-108.75
X72.842Y-111.25
X72.85Y-108.75
X98.445Y-108.75
X98.45Y-111.249
X99.295Y-108.75
X99.3Y-111.249
X100.145Y-108.75
X100.15Y-111.249
X100.995Y-108.75
X101.0Y-111.249
X101.845Y-108.75
X101.85Y-111.249
X127.35Y-108.75
X127.35Y-111.25
X128.2Y-108.75
X128.2Y-111.25
X129.05Y-108.75
X129.05Y-111.25
X129.9Y-108.75
X129.9Y-111.25
X130.75Y-108.75
X130.75Y-111.25
T2
X64.95Y-75.4
X76.9Y-101.736
X100.0Y-104.5
X123.1Y-101.736
X135.0Y-75.4
M30
