%TF.GenerationSoftware,KiCad,Pcbnew,10.0.1*%
%TF.CreationDate,2026-05-01T22:36:15-04:00*%
%TF.ProjectId,PicoPSU_A2,5069636f-5053-4555-9f41-322e6b696361,1.1*%
%TF.SameCoordinates,Original*%
%TF.FileFunction,Soldermask,Top*%
%TF.FilePolarity,Negative*%
%FSLAX46Y46*%
G04 Gerber Fmt 4.6, Leading zero omitted, Abs format (unit mm)*
G04 Created by KiCad (PCBNEW 10.0.1) date 2026-05-01 22:36:15*
%MOMM*%
%LPD*%
G01*
G04 APERTURE LIST*
G04 Aperture macros list*
%AMRoundRect*
0 Rectangle with rounded corners*
0 $1 Rounding radius*
0 $2 $3 $4 $5 $6 $7 $8 $9 X,Y pos of 4 corners*
0 Add a 4 corners polygon primitive as box body*
4,1,4,$2,$3,$4,$5,$6,$7,$8,$9,$2,$3,0*
0 Add four circle primitives for the rounded corners*
1,1,$1+$1,$2,$3*
1,1,$1+$1,$4,$5*
1,1,$1+$1,$6,$7*
1,1,$1+$1,$8,$9*
0 Add four rect primitives between the rounded corners*
20,1,$1+$1,$2,$3,$4,$5,0*
20,1,$1+$1,$4,$5,$6,$7,0*
20,1,$1+$1,$6,$7,$8,$9,0*
20,1,$1+$1,$8,$9,$2,$3,0*%
G04 Aperture macros list end*
%ADD10C,0.100000*%
%ADD11RoundRect,0.312500X-0.437500X0.887500X-0.437500X-0.887500X0.437500X-0.887500X0.437500X0.887500X0*%
%ADD12RoundRect,0.258618X-2.741382X3.241382X-2.741382X-3.241382X2.741382X-3.241382X2.741382X3.241382X0*%
%ADD13RoundRect,0.250000X0.450000X-0.350000X0.450000X0.350000X-0.450000X0.350000X-0.450000X-0.350000X0*%
%ADD14C,2.000000*%
%ADD15C,0.500000*%
%ADD16C,3.000000*%
%ADD17RoundRect,0.250000X0.000000X0.777817X-0.777817X0.000000X0.000000X-0.777817X0.777817X0.000000X0*%
%ADD18C,1.600000*%
%ADD19RoundRect,0.250000X1.060660X0.000000X0.000000X1.060660X-1.060660X0.000000X0.000000X-1.060660X0*%
%ADD20R,1.600000X1.600000*%
%ADD21C,1.800000*%
%ADD22R,1.800000X1.800000*%
%ADD23RoundRect,0.250001X-1.399999X1.099999X-1.399999X-1.099999X1.399999X-1.099999X1.399999X1.099999X0*%
%ADD24O,3.300000X2.700000*%
%ADD25C,2.780000*%
%ADD26RoundRect,0.250000X-0.550000X-0.550000X0.550000X-0.550000X0.550000X0.550000X-0.550000X0.550000X0*%
%ADD27RoundRect,0.250001X1.099999X1.599999X-1.099999X1.599999X-1.099999X-1.599999X1.099999X-1.599999X0*%
%ADD28O,2.700000X3.700000*%
%ADD29O,0.100000X0.100000*%
%ADD30RoundRect,0.250000X1.150000X0.650000X-1.150000X0.650000X-1.150000X-0.650000X1.150000X-0.650000X0*%
G04 APERTURE END LIST*
D10*
X60000000Y-50000000D02*
X64000000Y-50000000D01*
X64000000Y-69500000D01*
X60000000Y-69500000D01*
X60000000Y-50000000D01*
G36*
X60000000Y-50000000D02*
G01*
X64000000Y-50000000D01*
X64000000Y-69500000D01*
X60000000Y-69500000D01*
X60000000Y-50000000D01*
G37*
X63000000Y-50000000D02*
X82500000Y-50000000D01*
X82500000Y-52500000D01*
X63000000Y-52500000D01*
X63000000Y-50000000D01*
G36*
X63000000Y-50000000D02*
G01*
X82500000Y-50000000D01*
X82500000Y-52500000D01*
X63000000Y-52500000D01*
X63000000Y-50000000D01*
G37*
X97500000Y-50250000D02*
X137500000Y-50250000D01*
X137500000Y-52750000D01*
X97500000Y-52750000D01*
X97500000Y-50250000D01*
G36*
X97500000Y-50250000D02*
G01*
X137500000Y-50250000D01*
X137500000Y-52750000D01*
X97500000Y-52750000D01*
X97500000Y-50250000D01*
G37*
D11*
%TO.C,U1*%
X128970000Y-95949999D03*
D12*
X131250000Y-102250000D03*
D11*
X133530000Y-95949999D03*
%TD*%
D13*
%TO.C,R4*%
X119000000Y-61200000D03*
X119000000Y-59200000D03*
%TD*%
%TO.C,R1*%
X100500000Y-61200000D03*
X100500000Y-59200000D03*
%TD*%
%TO.C,R3*%
X112000000Y-61200000D03*
X112000000Y-59200000D03*
%TD*%
%TO.C,R2*%
X107500000Y-61200000D03*
X107500000Y-59200000D03*
%TD*%
D14*
%TO.C,TP3*%
X115000000Y-82000000D03*
%TD*%
D15*
%TO.C,B6*%
X98449905Y-111249010D03*
X99299905Y-111249010D03*
X100149905Y-111249010D03*
X100999905Y-111249010D03*
X101849905Y-111249010D03*
%TD*%
D16*
%TO.C,H1*%
X100000000Y-104500000D03*
%TD*%
D17*
%TO.C,C1*%
X130000000Y-86294888D03*
D18*
X128585786Y-87709102D03*
%TD*%
D14*
%TO.C,TP4*%
X123239285Y-61685989D03*
%TD*%
D19*
%TO.C,C3*%
X85435239Y-81574311D03*
D14*
X81899705Y-78038777D03*
%TD*%
D20*
%TO.C,SW1*%
X87000000Y-66212500D03*
D18*
X87000000Y-63712500D03*
X87000000Y-61212500D03*
D21*
X88200000Y-69412500D03*
X84800000Y-58112500D03*
%TD*%
D15*
%TO.C,B2*%
X130750000Y-108750000D03*
X129900000Y-108750000D03*
X129050000Y-108750000D03*
X128200000Y-108750000D03*
X127350000Y-108750000D03*
%TD*%
D22*
%TO.C,D3*%
X112015494Y-56046373D03*
D21*
X114555494Y-56046373D03*
%TD*%
D23*
%TO.C,J2*%
X125742527Y-69023241D03*
D24*
X125742527Y-73223240D03*
X125742527Y-77423241D03*
X120242527Y-69023241D03*
X120242527Y-73223241D03*
X120242527Y-77423241D03*
%TD*%
D22*
%TO.C,D1*%
X98000000Y-56000000D03*
D21*
X100540000Y-56000000D03*
%TD*%
D22*
%TO.C,D4*%
X119030000Y-56013956D03*
D21*
X121570000Y-56013956D03*
%TD*%
D22*
%TO.C,D2*%
X105000000Y-56000000D03*
D21*
X107540000Y-56000000D03*
%TD*%
D14*
%TO.C,TP2*%
X130965109Y-61720879D03*
%TD*%
D16*
%TO.C,H1*%
X64950000Y-75400000D03*
%TD*%
D25*
%TO.C,F1*%
X98540000Y-77500000D03*
X98540000Y-80900000D03*
X108460000Y-77500000D03*
X108460000Y-80900000D03*
%TD*%
%TO.C,F2*%
X98540000Y-68250000D03*
X98540000Y-71650000D03*
X108460000Y-68250000D03*
X108460000Y-71650000D03*
%TD*%
D15*
%TO.C,B5*%
X101845243Y-108750000D03*
X100995243Y-108750000D03*
X100145243Y-108750000D03*
X99295243Y-108750000D03*
X98445243Y-108750000D03*
%TD*%
%TO.C,B4*%
X127350000Y-111250000D03*
X128200000Y-111250000D03*
X129050000Y-111250000D03*
X129900000Y-111250000D03*
X130750000Y-111250000D03*
%TD*%
D16*
%TO.C,H2*%
X135000000Y-75400000D03*
%TD*%
D15*
%TO.C,B3*%
X69442096Y-111250000D03*
X70292096Y-111250000D03*
X71142096Y-111250000D03*
X71992096Y-111250000D03*
X72842096Y-111250000D03*
%TD*%
D14*
%TO.C,TP0*%
X95500000Y-61750000D03*
%TD*%
%TO.C,TP5*%
X81000000Y-63500000D03*
%TD*%
D26*
%TO.C,C2*%
X134067154Y-86956412D03*
D18*
X136067155Y-86956412D03*
%TD*%
D15*
%TO.C,B1*%
X72850000Y-108750000D03*
X72000000Y-108750000D03*
X71150000Y-108750000D03*
X70300000Y-108750000D03*
X69450000Y-108750000D03*
%TD*%
D14*
%TO.C,TP1*%
X103750000Y-61750000D03*
%TD*%
D19*
%TO.C,C4*%
X78185239Y-72824311D03*
D14*
X74649705Y-69288777D03*
%TD*%
D16*
%TO.C,J1*%
X123100000Y-101736263D03*
X76900000Y-101736263D03*
D27*
X123100000Y-94436263D03*
D28*
X118900000Y-94436263D03*
X114700000Y-94436263D03*
X110500000Y-94436263D03*
D29*
X106300000Y-94436263D03*
D28*
X102100000Y-94436263D03*
X97900000Y-94436263D03*
X93700000Y-94436263D03*
X89500000Y-94436263D03*
X85300000Y-94436263D03*
X81100000Y-94436263D03*
X76900000Y-94436263D03*
X123100000Y-88936263D03*
X118900000Y-88936263D03*
X114700000Y-88936263D03*
X110500000Y-88936263D03*
D29*
X106300000Y-88936263D03*
X102100000Y-88936263D03*
X97900000Y-88936263D03*
X93700000Y-88936263D03*
D28*
X89500000Y-88936263D03*
X85300000Y-88936263D03*
X81100000Y-88936263D03*
X76900000Y-88936263D03*
%TD*%
D30*
%TO.C,D5*%
X133250001Y-92750000D03*
X129249999Y-92750000D03*
%TD*%
M02*
