M48
; DRILL file KiCad 10.0.1 date 2026-05-01T22:36:17
; FORMAT={-:-/ absolute / metric / decimal}
; #@! TF.CreationDate,2026-05-01T22:36:17-04:00
; #@! TF.GenerationSoftware,Kicad,Pcbnew,10.0.1
; #@! TF.FileFunction,Plated,1,2,PTH
FMAT,2
METRIC
; #@! TA.AperFunction,Plated,PTH,ViaDrill
T1C0.700
; #@! TA.AperFunction,Plated,PTH,ComponentDrill
T2C0.800
; #@! TA.AperFunction,Plated,PTH,ComponentDrill
T3C0.900
; #@! TA.AperFunction,Plated,PTH,ComponentDrill
T4C1.000
; #@! TA.AperFunction,Plated,PTH,ComponentDrill
T5C1.100
; #@! TA.AperFunction,Plated,PTH,ComponentDrill
T6C1.400
; #@! TA.AperFunction,Plated,PTH,ComponentDrill
T7C1.600
; #@! TA.AperFunction,Plated,PTH,ComponentDrill
T8C1.800
%
G90
G05
T1
X131.0Y-66.25
X132.25Y-89.75
T2
X128.586Y-87.709
X130.0Y-86.295
X134.067Y-86.956
X136.067Y-86.956
T3
X87.0Y-61.212
X87.0Y-63.712
X87.0Y-66.212
X98.0Y-56.0
X100.54Y-56.0
X105.0Y-56.0
X107.54Y-56.0
X112.015Y-56.046
X114.555Y-56.046
X119.03Y-56.014
X121.57Y-56.014
T4
X74.65Y-69.289
X78.185Y-72.824
X81.9Y-78.039
X85.435Y-81.574
T5
X84.8Y-58.112
X88.2Y-69.412
T6
X120.243Y-69.023
X120.243Y-73.223
X120.243Y-77.423
X125.743Y-69.023
X125.743Y-73.223
X125.743Y-77.423
T7
X98.54Y-68.25
X98.54Y-71.65
X98.54Y-77.5
X98.54Y-80.9
X108.46Y-68.25
X108.46Y-71.65
X108.46Y-77.5
X108.46Y-80.9
T8
X76.9Y-88.936
X76.9Y-94.436
X81.1Y-88.936
X81.1Y-94.436
X85.3Y-88.936
X85.3Y-94.436
X89.5Y-88.936
X89.5Y-94.436
X93.7Y-88.936
X93.7Y-94.436
X97.9Y-88.936
X97.9Y-94.436
X102.1Y-88.936
X102.1Y-94.436
X106.3Y-88.936
X106.3Y-94.436
X110.5Y-88.936
X110.5Y-94.436
X114.7Y-88.936
X114.7Y-94.436
X118.9Y-88.936
X118.9Y-94.436
X123.1Y-88.936
X123.1Y-94.436
M30
